<svg width="78" height="78" viewBox="0 0 78 78" fill="none" xmlns="http://www.w3.org/2000/svg">
<circle cx="39" cy="39" r="39" fill="#DCF1FE"/>
<rect x="30.5332" y="24.5502" width="21" height="28" fill="#DCF1FE" stroke="#007BC0" stroke-width="2"/>
<circle cx="32.6035" cy="30.7878" r="9.31537" fill="#97DEF6" stroke="#007BC0" stroke-width="2"/>
<path d="M32.7378 36.2097C31.9611 36.2097 31.2597 36.0738 30.6335 35.802C30.0121 35.5253 29.5 35.1321 29.0971 34.6224C28.6991 34.1078 28.4466 33.4962 28.3398 32.7875L30.4078 32.4817C30.5534 33.0836 30.8544 33.5472 31.3107 33.8724C31.767 34.1976 32.2864 34.3603 32.8689 34.3603C33.1941 34.3603 33.5097 34.3093 33.8155 34.2074C34.1213 34.1054 34.3713 33.9549 34.5655 33.7559C34.7645 33.5569 34.864 33.3117 34.864 33.0205C34.864 32.9137 34.847 32.8117 34.813 32.7147C34.7839 32.6127 34.7329 32.5181 34.6601 32.4307C34.5873 32.3433 34.4829 32.2608 34.347 32.1831C34.216 32.1054 34.0485 32.0351 33.8446 31.9719L31.1214 31.171C30.9175 31.1127 30.6796 31.0302 30.4078 30.9234C30.1408 30.8166 29.8811 30.6637 29.6287 30.4647C29.3762 30.2657 29.1651 30.0035 28.9952 29.6783C28.8301 29.3482 28.7476 28.9332 28.7476 28.4332C28.7476 27.7293 28.9248 27.1444 29.2791 26.6783C29.6335 26.2123 30.1068 25.8653 30.699 25.6371C31.2913 25.4089 31.9466 25.2973 32.665 25.3022C33.3883 25.3119 34.0339 25.4356 34.6019 25.6735C35.1698 25.9114 35.6456 26.2584 36.029 26.7148C36.4125 27.1662 36.6892 27.7196 36.8591 28.3749L34.7184 28.739C34.6407 28.3992 34.4975 28.1128 34.2888 27.8798C34.08 27.6468 33.83 27.4696 33.5388 27.3482C33.2524 27.2269 32.9514 27.1613 32.6359 27.1516C32.3252 27.1419 32.0315 27.1856 31.7548 27.2827C31.483 27.3749 31.2597 27.5109 31.0849 27.6905C30.915 27.8701 30.8301 28.0837 30.8301 28.3312C30.8301 28.5594 30.9005 28.7463 31.0413 28.8919C31.182 29.0327 31.3592 29.1468 31.5728 29.2341C31.7864 29.3215 32.0048 29.3943 32.2281 29.4526L34.0485 29.9477C34.3203 30.0205 34.6213 30.1176 34.9514 30.239C35.2815 30.3555 35.597 30.5205 35.898 30.7341C36.2038 30.9428 36.4538 31.2195 36.648 31.5642C36.847 31.9088 36.9465 32.3457 36.9465 32.8748C36.9465 33.4379 36.8276 33.9307 36.5897 34.353C36.3567 34.7704 36.0412 35.1175 35.6431 35.3942C35.2451 35.6661 34.7936 35.8699 34.2888 36.0059C33.7888 36.1418 33.2718 36.2097 32.7378 36.2097Z" fill="#007BC0"/>
<circle cx="47.2129" cy="49.0275" r="7.5" fill="#97DEF6" stroke="#007BC0" stroke-width="2"/>
<path d="M47.3228 53.4952C46.6828 53.4952 46.1048 53.3832 45.5888 53.1592C45.0768 52.9312 44.6548 52.6072 44.3228 52.1872C43.9948 51.7632 43.7868 51.2592 43.6988 50.6752L45.4028 50.4232C45.5228 50.9192 45.7708 51.3012 46.1468 51.5692C46.5228 51.8372 46.9508 51.9712 47.4308 51.9712C47.6988 51.9712 47.9588 51.9292 48.2108 51.8452C48.4628 51.7612 48.6688 51.6372 48.8288 51.4732C48.9928 51.3092 49.0748 51.1072 49.0748 50.8672C49.0748 50.7792 49.0608 50.6952 49.0328 50.6152C49.0088 50.5312 48.9668 50.4532 48.9068 50.3812C48.8468 50.3092 48.7608 50.2412 48.6488 50.1772C48.5408 50.1132 48.4028 50.0552 48.2348 50.0032L45.9908 49.3432C45.8228 49.2952 45.6268 49.2272 45.4028 49.1392C45.1828 49.0512 44.9688 48.9252 44.7607 48.7612C44.5528 48.5972 44.3788 48.3812 44.2388 48.1132C44.1028 47.8412 44.0348 47.4992 44.0348 47.0872C44.0348 46.5072 44.1808 46.0252 44.4728 45.6412C44.7648 45.2572 45.1548 44.9712 45.6428 44.7832C46.1308 44.5952 46.6708 44.5032 47.2628 44.5072C47.8588 44.5152 48.3908 44.6172 48.8588 44.8132C49.3268 45.0092 49.7188 45.2952 50.0348 45.6712C50.3508 46.0432 50.5788 46.4992 50.7188 47.0392L48.9548 47.3392C48.8908 47.0592 48.7728 46.8232 48.6008 46.6312C48.4288 46.4392 48.2228 46.2932 47.9828 46.1932C47.7468 46.0932 47.4988 46.0392 47.2388 46.0312C46.9828 46.0232 46.7408 46.0592 46.5128 46.1392C46.2888 46.2152 46.1048 46.3272 45.9608 46.4752C45.8208 46.6232 45.7508 46.7992 45.7508 47.0032C45.7508 47.1912 45.8088 47.3452 45.9248 47.4652C46.0408 47.5812 46.1868 47.6752 46.3628 47.7472C46.5388 47.8192 46.7188 47.8792 46.9028 47.9272L48.4028 48.3352C48.6268 48.3952 48.8748 48.4752 49.1468 48.5752C49.4188 48.6712 49.6788 48.8072 49.9268 48.9832C50.1788 49.1552 50.3848 49.3832 50.5448 49.6672C50.7088 49.9512 50.7908 50.3112 50.7908 50.7472C50.7908 51.2112 50.6928 51.6172 50.4968 51.9652C50.3048 52.3092 50.0448 52.5952 49.7168 52.8232C49.3888 53.0472 49.0168 53.2152 48.6008 53.3272C48.1888 53.4392 47.7628 53.4952 47.3228 53.4952Z" fill="#007BC0"/>
<path d="M42.2412 29.4523H46.1133" stroke="#007BC0" stroke-width="2" stroke-linecap="round"/>
<path d="M41.624 34.3346L46.1133 34.3346" stroke="#007BC0" stroke-width="2" stroke-linecap="round"/>
<path d="M36.4043 39.3152L46.1128 39.3152" stroke="#007BC0" stroke-width="2" stroke-linecap="round"/>
<path d="M35.0586 44.3097L41.0337 44.3097" stroke="#007BC0" stroke-width="2" stroke-linecap="round"/>
</svg>
