<svg width="78" height="78" viewBox="0 0 78 78" fill="none" xmlns="http://www.w3.org/2000/svg">
<circle cx="39" cy="39" r="39" fill="#DCF1FE"/>
<circle cx="38.6766" cy="33.2897" r="6.19316" fill="#97DEF6" stroke="#007BC0" stroke-width="2"/>
<path d="M44.8691 26.3708C45.8607 24.9397 47.531 24 49.4243 24C52.4667 24 54.933 26.4262 54.933 29.419C54.933 32.4119 52.4667 34.838 49.4243 34.838C48.9488 34.838 48.4874 34.7788 48.0472 34.6673" stroke="#007BC0" stroke-width="2"/>
<path d="M32.4834 26.3708C31.4919 24.9397 29.8216 24 27.9282 24C24.8858 24 22.4195 26.4262 22.4195 29.419C22.4195 32.4119 24.8858 34.838 27.9282 34.838C28.4037 34.838 28.8652 34.7788 29.3054 34.6673" stroke="#007BC0" stroke-width="2"/>
<path d="M50.2888 53.4174C50.2888 53.4174 45.0899 53.4174 38.6766 53.4174C32.2634 53.4174 27.0645 53.4174 27.0645 53.4174C27.0645 47.4317 32.2634 42.5793 38.6766 42.5793C45.0899 42.5793 50.2888 47.4317 50.2888 53.4174Z" fill="#97DEF6" stroke="#007BC0" stroke-width="2"/>
<path d="M52.6112 47.9985C56.2761 47.9985 60.3527 47.9985 60.3527 47.9985C60.3527 42.8679 55.7068 38.7087 49.9759 38.7087C48.4542 38.7087 47.009 39.002 45.707 39.5287" stroke="#007BC0" stroke-width="2"/>
<path d="M24.7413 47.9985C21.0764 47.9985 16.9998 47.9985 16.9998 47.9985C16.9998 42.8679 21.6457 38.7087 27.3767 38.7087C28.8983 38.7087 30.3435 39.002 31.6455 39.5287" stroke="#007BC0" stroke-width="2"/>
</svg>
