<svg width="12" height="12"  xmlns="http://www.w3.org/2000/svg">
<path d="M8.03024 8.44898L9.03084 7.44838C9.16477 7.31442 9.33507 7.22269 9.52064 7.18458C9.7062 7.14647 9.89887 7.16364 10.0748 7.23397L11.2934 7.72176C11.473 7.79362 11.6269 7.91765 11.7354 8.07785C11.8438 8.23805 11.9018 8.42706 11.9018 8.62051V10.8366C11.9021 10.9683 11.8755 11.0987 11.8237 11.2198C11.7718 11.3409 11.6958 11.4501 11.6003 11.5408C11.5048 11.6315 11.3918 11.7017 11.2682 11.7473C11.1446 11.7928 11.013 11.8126 10.8815 11.8055C2.33978 11.2739 0.614639 4.0392 0.294359 1.26879C0.278846 1.13335 0.292184 0.996163 0.333495 0.866248C0.374806 0.736332 0.443154 0.616635 0.534043 0.515028C0.624931 0.413422 0.736302 0.332209 0.860829 0.276731C0.985355 0.221254 1.12022 0.192769 1.25654 0.19315H3.43329C3.62674 0.193143 3.81576 0.2511 3.97595 0.359543C4.13615 0.467987 4.26018 0.621942 4.33204 0.801549L4.81939 2.02014C4.88972 2.19603 4.90689 2.3887 4.86878 2.57426C4.83066 2.75983 4.73894 2.93013 4.60497 3.06406L3.60437 4.06466C3.60437 4.06466 4.15917 7.96521 8.03024 8.44898Z" />
</svg>
