<svg width="24" height="20" viewBox="0 0 24 20" xmlns="http://www.w3.org/2000/svg">
<path d="M1.43109 8.73946L15.3356 2.90488C16.7082 2.29711 21.3629 0.352251 21.3629 0.352251C21.3629 0.352251 23.5113 -0.498625 23.3323 1.56779C23.2726 2.41866 22.7952 5.39673 22.3178 8.6179L20.8259 18.1599C20.8259 18.1599 20.7065 19.5577 19.692 19.8008C18.6775 20.044 17.0066 18.95 16.7082 18.7069C16.4695 18.5245 12.2325 15.7896 10.6809 14.4525C10.2632 14.0878 9.78576 13.3585 10.7406 12.5076C12.8889 10.502 15.455 8.01013 17.0066 6.42994C17.7227 5.70061 18.4388 3.99886 15.455 6.06527L7.04065 11.8391C7.04065 11.8391 6.08584 12.4468 4.29555 11.8999C2.50526 11.3529 0.416596 10.6235 0.416596 10.6235C0.416596 10.6235 -1.01563 9.71188 1.43109 8.73946Z" />
</svg>
