<svg width="31" height="18" viewBox="0 0 31 18" xmlns="http://www.w3.org/2000/svg">
<path d="M16.7288 17.3748C6.23494 17.3748 0.249398 10.9183 0 0.174805H5.25654C5.4292 8.06029 9.30445 11.4004 12.374 12.0891V0.174805H17.3236V6.9756C20.3547 6.68291 23.5393 3.58381 24.6136 0.174805H29.5632C29.1584 1.94281 28.3514 3.61684 27.1928 5.09216C26.0341 6.56749 24.5487 7.81238 22.8295 8.74898C24.7486 9.60477 26.4436 10.8161 27.8027 12.3029C29.1619 13.7898 30.1542 15.5185 30.7143 17.3748H25.2659C24.7631 15.7624 23.7413 14.3191 22.3284 13.2257C20.9156 12.1323 19.1745 11.4375 17.3236 11.2283V17.3748H16.7288Z"/>
</svg>
