<svg width="78" height="79" fill="none" xmlns="http://www.w3.org/2000/svg"><circle cx="39" cy="39.425" r="39" fill="#DEFFFF"/><path d="M22.764 23.272h32.472v25.381a8 8 0 01-4.735 7.304l-8.236 3.681a8 8 0 01-6.53 0l-8.236-3.681a8 8 0 01-4.735-7.304V23.272z" stroke="#11DCD0" stroke-width="2"/><path d="M28.159 27.774H49.84v20.13a4 4 0 01-2.24 3.593l-6.842 3.35a4 4 0 01-3.519 0l-6.84-3.35a4 4 0 01-2.241-3.593v-20.13z" fill="#A4EFEE" stroke="#11DCD0" stroke-width="2"/><path d="M33.914 39.23l3.608 3.88 6.564-7.058" stroke="#11DCD0" stroke-width="2" stroke-linecap="round"/></svg>