<svg width="78" height="78" fill="none" xmlns="http://www.w3.org/2000/svg"><circle cx="39" cy="39" r="39" fill="#DEFFFF"/><path d="M36.661 18.159a3 3 0 014.019 0l1.21 1.09a5 5 0 004.158 1.222l1.608-.264a3 3 0 013.38 2.173l.428 1.571a5 5 0 002.838 3.276l1.495.647a3 3 0 011.67 3.655l-.49 1.554a5 5 0 00.616 4.29l.908 1.352a3 3 0 01-.572 3.978l-1.252 1.042a5 5 0 00-1.8 3.942l.032 1.629a3 3 0 01-2.632 3.037l-1.616.2a5 5 0 00-3.646 2.343l-.854 1.387a3 3 0 01-3.855 1.132l-1.468-.706a5 5 0 00-4.334 0l-1.468.706a3 3 0 01-3.856-1.132l-.853-1.387a5 5 0 00-3.646-2.344l-1.617-.2a3 3 0 01-2.631-3.036l.032-1.629a5 5 0 00-1.8-3.942l-1.252-1.042a3 3 0 01-.572-3.978l.907-1.352a5 5 0 00.617-4.29l-.49-1.554a3 3 0 011.67-3.655l1.494-.647-.397-.918.398.918a5 5 0 002.838-3.276l.427-1.571a3 3 0 013.381-2.173l1.607.264a5 5 0 004.159-1.221l1.21-1.091z" fill="#A4EFEE" stroke="#11DCD0" stroke-width="2"/><circle cx="38.671" cy="37.44" r="11.828" fill="#DEFFFF" stroke="#11DCD0" stroke-width="2"/><circle cx="50.078" cy="51.479" r="9.768" fill="#DEFFFF" stroke="#11DCD0" stroke-width="2"/><path d="M45.558 51.391l3.392 2.946 5.648-6.135" stroke="#11DCD0" stroke-width="2" stroke-linecap="round"/></svg>