<svg width="1894" height="153" fill="none" xmlns="http://www.w3.org/2000/svg"><mask id="a" style="mask-type:alpha" maskUnits="userSpaceOnUse" x="-27" y="0" width="1921" height="153"><path fill="#00DAD6" d="M-26.002 0h1920v153h-1920z"/></mask><g mask="url(#a)"><mask id="b" fill="#fff"><path fill-rule="evenodd" clip-rule="evenodd" d="M218.266 93.873v.008l-7.873-.023c-1.448 2.34-4.118 3.906-7.168 3.897-3.05-.009-5.711-1.59-7.145-3.94h-.344c-7.029-.02-12.713-4.847-12.695-10.78.017-5.934 5.729-10.727 12.758-10.706.371 0 .766.046 1.181.13.423-6.37 5.97-11.4 12.736-11.38 6.507.018 11.859 4.702 12.603 10.728 4.825 1.633 8.251 5.815 8.236 10.707-.018 6.156-5.478 11.157-12.289 11.359z"/></mask><path d="M218.266 93.873l-.059-2-1.94.058-.001 1.941h2zm0 .008l-.005 2 2 .006.005-2-2-.006zm-7.873-.023l.006-2-1.119-.003-.588.95 1.701 1.053zm-14.313-.042l1.707-1.042-.582-.955-1.119-.003-.006 2zm.9-21.357l-.399 1.96 2.243.455.151-2.283-1.995-.132zm25.339-.652l-1.985.245.154 1.246 1.19.403.641-1.894zm-6.053 22.065v.003l4 .012v-.014h-4zm2.006-1.99l-7.873-.024-.012 4 7.874.023.011-4zm-9.58.924c-1.082 1.749-3.106 2.956-5.461 2.95l-.012 4c3.745.01 7.061-1.915 8.874-4.846l-3.401-2.104zm-5.461 2.95c-2.355-.008-4.372-1.227-5.444-2.982l-3.414 2.084c1.796 2.942 5.101 4.886 8.846 4.897l.012-4zm-7.145-3.94l-.345-.001-.011 4h.345l.011-4zm-.345-.001c-6.255-.019-10.714-4.25-10.7-8.775l-4-.012c-.022 7.343 6.886 12.764 14.689 12.787l.011-4zm-10.7-8.775c.013-4.524 4.497-8.73 10.752-8.711l.012-4c-7.803-.023-14.743 5.358-14.764 12.7l4 .011zm10.752-8.711c.217 0 .479.027.788.09l.797-3.92a8.025 8.025 0 00-1.573-.17l-.012 4zm3.182-1.738c.349-5.246 4.953-9.53 10.735-9.513l.012-4c-7.75-.022-14.24 5.756-14.738 13.248l3.991.265zm10.735-9.513c5.557.017 10.011 4.004 10.624 8.974l3.97-.49c-.874-7.082-7.126-12.462-14.582-12.484l-.012 4zm11.968 10.623c4.15 1.405 6.889 4.914 6.877 8.807l4 .012c.018-5.89-4.096-10.746-9.595-12.608l-1.282 3.79zm6.877 8.807c-.014 4.882-4.41 9.19-10.348 9.366l.119 3.998c7.683-.228 14.207-5.922 14.229-13.352l-4-.012z" fill="#7198FF" mask="url(#b)"/><mask id="c" fill="#fff"><path fill-rule="evenodd" clip-rule="evenodd" d="M561.969 60.526c-1.742-3.252-5.279-5.483-9.364-5.495-4.613-.014-8.543 2.806-9.987 6.745-4.329 1.098-7.487 4.483-7.498 8.497-.015 4.918 4.696 8.918 10.521 8.935l10.327.03c1.193 1.93 3.388 3.228 5.903 3.236 2.857.008 5.312-1.65 6.356-4.019 3.686-1.464 6.261-4.766 6.272-8.613.015-5.219-4.695-9.464-10.52-9.481a11.803 11.803 0 00-2.01.165z"/></mask><path d="M561.969 60.526l-1.763.945.679 1.268 1.419-.24-.335-1.973zm-19.351 1.25l.492 1.939 1.023-.26.363-.99-1.878-.689zm13.35 17.463l1.702-1.052-.585-.945-1.111-.003-.006 2zm12.259-.784l-.738-1.859-.761.303-.331.749 1.83.807zm-4.495-18.873c-2.091-3.904-6.305-6.537-11.121-6.551l-.012 4c3.354.01 6.214 1.839 7.607 4.44l3.526-1.89zm-11.121-6.551c-5.435-.016-10.13 3.309-11.871 8.057l3.756 1.376c1.148-3.13 4.311-5.444 8.103-5.433l.012-4zm-10.485 6.806c-4.98 1.264-8.991 5.282-9.006 10.43l3.999.012c.009-2.88 2.313-5.632 5.991-6.564l-.984-3.878zm-9.006 10.43c-.019 6.327 5.916 10.922 12.515 10.941l.012-4c-5.052-.015-8.538-3.42-8.528-6.929l-3.999-.011zm12.515 10.941l10.327.03.012-4-10.327-.03-.012 4zm8.632-.918c1.556 2.518 4.392 4.174 7.598 4.183l.012-4c-1.823-.005-3.378-.943-4.207-2.286l-3.403 2.103zm7.598 4.183c3.639.011 6.822-2.105 8.192-5.21l-3.66-1.615c-.719 1.63-2.446 2.832-4.52 2.826l-.012 4zm10.634-14.637c-.009 2.902-1.958 5.548-5.01 6.76l1.476 3.718c4.32-1.716 7.52-5.674 7.534-10.466l-4-.012zm-8.526-7.475c4.933.014 8.538 3.562 8.526 7.475l4 .012c.019-6.525-5.796-11.467-12.514-11.487l-.012 4zm-1.669.137a9.79 9.79 0 011.669-.137l.012-4a13.797 13.797 0 00-2.351.194l.67 3.943z" fill="#7198FF" mask="url(#c)"/><mask id="d" fill="#fff"><path fill-rule="evenodd" clip-rule="evenodd" d="M321.22 104.187c-2.085-16.896-17.093-30.028-35.337-30.082-18.971-.056-34.526 14.05-35.712 31.909-1.163-.236-2.271-.361-3.312-.364-19.708-.058-35.724 13.381-35.773 30.017-.049 16.636 15.888 30.17 35.596 30.228l63.174.186.001-.022c19.097-.567 34.406-14.588 34.457-31.849.04-13.717-9.566-25.444-23.094-30.023z"/></mask><path fill-rule="evenodd" clip-rule="evenodd" d="M321.22 104.187c-2.085-16.896-17.093-30.028-35.337-30.082-18.971-.056-34.526 14.05-35.712 31.909-1.163-.236-2.271-.361-3.312-.364-19.708-.058-35.724 13.381-35.773 30.017-.049 16.636 15.888 30.17 35.596 30.228l63.174.186.001-.022c19.097-.567 34.406-14.588 34.457-31.849.04-13.717-9.566-25.444-23.094-30.023z" fill="#5484FF"/><path d="M321.22 104.187l-1.985.245.154 1.247 1.19.403.641-1.895zm-71.049 1.827l-.399 1.96 2.243.456.151-2.283-1.995-.133zm-3.489 59.881l-.006 2 .006-2zm63.174.186l-.005 2 2 .006.005-2-2-.006zm.001-.022l-.06-2-1.939.058-.001 1.94 2 .002zm13.348-62.117c-2.215-17.952-18.122-31.78-37.316-31.837l-.012 4c17.295.051 31.403 12.487 33.358 28.327l3.97-.49zm-37.316-31.837c-19.955-.059-36.453 14.795-37.714 33.776l3.991.266c1.112-16.737 15.725-30.095 33.711-30.042l.012-4zm-35.32 31.949a18.89 18.89 0 00-3.704-.404l-.012 4c.888.002 1.862.109 2.919.324l.797-3.92zm-3.704-.404c-20.481-.061-37.726 13.966-37.779 32.011l4 .012c.045-15.228 14.833-28.079 33.767-28.023l.012-4zm-37.779 32.011c-.053 18.045 17.108 32.173 37.59 32.234l.012-4c-18.935-.056-33.647-12.995-33.602-28.222l-4-.012zm37.59 32.234l63.175.186.011-4-63.174-.186-.012 4zm65.18-1.808l.001-.027-4-.003-.001.018 4 .012zm30.458-31.883c-.047 15.987-14.292 29.315-32.517 29.855l.119 3.999c19.97-.593 36.343-15.307 36.398-33.842l-4-.012zm-21.735-28.122c12.854 4.35 21.772 15.404 21.735 28.122l4 .012c.043-14.715-10.25-27.116-24.453-31.923l-1.282 3.789z" fill="#7198FF" mask="url(#d)"/><mask id="e" fill="#fff"><path fill-rule="evenodd" clip-rule="evenodd" d="M1888.39 68.152c-1.18-9.564-9.68-16.997-20-17.028-10.74-.031-19.55 7.953-20.22 18.062a9.549 9.549 0 00-1.87-.206c-11.16-.033-20.22 7.575-20.25 16.992-.03 9.416 8.99 17.077 20.15 17.11l35.76.105v-.012c10.81-.321 19.47-8.257 19.5-18.028.02-7.765-5.41-14.403-13.07-16.995z"/></mask><path d="M1888.39 68.152l-1.99.245.16 1.247 1.19.403.64-1.895zm-40.22 1.034l-.4 1.96 2.25.456.15-2.283-2-.133zm-1.97 33.896l-.01 2 .01-2zm35.76.105l-.01 2 2 .006.01-2-2-.006zm0-.012l-.06-1.999-1.94.057v1.939l2 .003zm8.41-35.267c-1.31-10.621-10.7-18.75-21.98-18.784l-.01 4c9.38.028 16.97 6.766 18.02 15.273l3.97-.49zm-21.98-18.784c-11.72-.034-21.47 8.698-22.21 19.93l3.99.265c.59-8.986 8.46-16.223 18.21-16.195l.01-4zm-19.82 18.103a11.52 11.52 0 00-2.27-.247l-.01 4c.44.001.93.054 1.48.166l.8-3.92zm-2.27-.247c-11.93-.035-22.22 8.16-22.25 18.986l4 .011c.02-8.008 7.86-15.028 18.24-14.997l.01-4zm-22.25 18.986c-.03 10.825 10.21 19.081 22.14 19.116l.01-4c-10.38-.031-18.18-7.096-18.15-15.105l-4-.011zm22.14 19.116l35.76.105.01-4-35.76-.105-.01 4zm37.77-1.889v-.016l-4-.005v.009l4 .012zm15.5-18.052c-.02 8.496-7.62 15.74-17.56 16.035l.12 3.998c11.68-.347 21.41-8.977 21.44-20.021l-4-.012zm-11.71-15.094c6.98 2.364 11.73 8.328 11.71 15.094l4 .012c.03-8.763-6.1-16.075-14.43-18.895l-1.28 3.789z" fill="#7198FF" mask="url(#e)"/><path d="M551.473 172.854c-44.317-9.121-84.017-41.959-98.327-57.237 30.544-7.332 44.503-25.385 47.665-33.495 19.936 17.305 21.029 24.767 80.935 60.344-12.156 5.091-15.069 12.359-30.273 30.388z" stroke="#7198FF" stroke-width="2"/><path opacity=".5" d="M505.306 101.403c-2.632 4.506-12.106 13.785-28.95 20.678m36.631-14.179c-2.632 4.506-12.106 13.785-28.95 20.678m38.402-14.18c-3.84 4.136-12.697 13.491-29.54 20.383m38.994-12.702c-3.684 4.024-17.568 13.509-27.768 21.269m36.63-15.361c-3.37 3.689-16.073 12.383-25.405 19.497m33.971-12.998c-3.37 3.689-16.542 12.112-23.337 20.088m33.381-15.362c-3.37 3.689-16.542 12.112-23.337 20.088" stroke="#7198FF" stroke-width="2"/><path d="M1742.62 71.185l-53.75 17.92c-1.06 7.058-8.27 26.853-22.72 42.839 59.18-9.113 72.53-43.318 76.47-60.76z" stroke="#7198FF" stroke-width="2"/><path opacity=".5" d="M1696 96l31-10m-35 19l31-10m-36 19l27.5-9m-92.12 56.5l17.24-21.5m1.88 15l11.12-15m.88 14.5l11.12-15.5m3.38 9.5l9.17-13.5m2.83-12l15-5" stroke="#7198FF" stroke-width="2" stroke-linecap="round"/><path d="M1603.49 171.55l30-39.228c23.97 1.94 55.01 1.678 86.95-23.183-27.61 36.037-90.59 57.819-116.95 62.411zM-61.556 71.074l34.431 31.278c5.476-2.084 22.545-4.877 39.797-.957-30.307-38.7-60.16-34.512-74.228-30.32z" stroke="#7198FF" stroke-width="2"/><path opacity=".5" d="M51.421 120.85l-22.32-3.699m9.986-7.372l-15.21-1.935m10.029-6.454l-15.568-1.735m5.444-6.234l-13.348-1.138M.705 95.078l-9.608-8.728" stroke="#7198FF" stroke-width="2" stroke-linecap="round"/><path d="M66.211 130.338l-40.14-5.71c-8.245-17.94-20.907-40.055-51.542-52.93 36.895 5.283 77.8 41.616 91.682 58.64zm1177.359 34.926l42.73-28.532c-.77-6.427.8-25.467 9.62-42.906-49.58 22.126-53.08 55.24-52.35 71.438z" stroke="#7198FF" stroke-width="2"/><path opacity=".5" d="M1278.41 132.406l-24.72 16.162m26.07-24.992l-24.73 16.163m26.95-25.231l-21.9 14.45m25.87-23.998l-11.92 7.962" stroke="#7198FF" stroke-width="2" stroke-linecap="round"/></g></svg>