<svg width="201" height="146" fill="none" xmlns="http://www.w3.org/2000/svg"><path fill-rule="evenodd" clip-rule="evenodd" d="M158.471 51.491c23.542 5.404 41.1 26.485 41.1 51.666 0 29.277-23.733 53.009-53.009 53.009-.54 0-1.078-.008-1.614-.024v.029H42.147c-22.726 0-41.15-18.131-41.15-40.496 0-22.364 18.424-40.495 41.15-40.495 3.477 0 8.298 1.373 13.969 3.778a53 53 0 01-2.32-15.557c0-29.276 23.733-53.01 53.009-53.01 25.181 0 46.262 17.559 51.666 41.1z" fill="#97DEF6"/><path d="M158.471 51.491l-.975.224.14.61.611.141.224-.975zm-13.523 104.651l.03-.999-1.031-.031.001 1.032 1-.002zm0 .029v1h1.002l-.002-1.002-1 .002zm-102.801 0v1-1zm13.969-77.212l-.39.92 1.975.838-.63-2.052-.955.293zm102.131-26.493c23.098 5.302 40.324 25.986 40.324 50.691h2c0-25.657-17.89-47.134-41.876-52.64l-.448 1.949zm40.324 50.691c0 28.724-23.285 52.009-52.009 52.009v2c29.829 0 54.009-24.18 54.009-54.009h-2zm-52.009 52.009c-.53 0-1.058-.007-1.584-.023l-.059 1.999c.545.016 1.093.024 1.643.024v-2zm-2.614.978v.028l2-.003v-.028l-2 .003zm1-.973H42.147v2h102.801v-2zm-102.801 0c-22.19 0-40.15-17.698-40.15-39.496h-2c0 22.933 18.887 41.496 42.15 41.496v-2zm-40.15-39.496c0-21.797 17.96-39.495 40.15-39.495v-2c-23.263 0-42.15 18.563-42.15 41.495h2zm40.15-39.495c3.267 0 7.933 1.304 13.578 3.7l.781-1.842c-5.697-2.417-10.672-3.858-14.36-3.858v2zm14.925 2.485a52 52 0 01-2.276-15.264h-2c0 5.514.827 10.837 2.364 15.85l1.912-.586zm-2.276-15.264c0-28.724 23.285-52.01 52.009-52.01v-2c-29.828 0-54.01 24.181-54.01 54.01h2zm52.009-52.01c24.705 0 45.389 17.227 50.691 40.324l1.95-.447c-5.507-23.986-26.983-41.876-52.641-41.876v2z" fill="#007BC0"/><path d="M158.31 74.763c6.291-28.592-11.787-56.87-40.379-63.162-28.592-6.29-56.87 11.788-63.162 40.38-5.087 23.12 5.76 46.035 25.215 57.285" stroke="#007BC0" stroke-width="2" stroke-linecap="round"/><path d="M124.478 107.961c0 28.735 24.523 42.273 34.831 45.525H84.965c-30.363 0-54.976-23.294-54.976-52.029V55.166c0-.55.184-1.072.729-1.148 7.762-1.083 73.098.184 91.779.282a1.98 1.98 0 011.981 1.992v51.669z" fill="#E5F0F6"/><path d="M30.721 102.061h-1 1zm93.515-45.76h-1 1zm0 52.346h1-1zm35.697 46.605a1 1 0 10.614-1.903l-.614 1.903zM30.721 55.159h-1 1zm.714-1.134l-.142-.99.142.99zm90.821.284l-.005 1 .005-1zM85.13 155.187c-29.492 0-53.409-24.576-53.409-53.126h-2c0 29.645 24.803 55.126 55.409 55.126v-2zm38.106-98.886v52.346h2V56.301h-2zm0 52.346c0 14.88 6.609 25.718 14.487 33.227 7.858 7.491 17.001 11.697 22.21 13.378l.614-1.903c-4.993-1.612-13.851-5.685-21.444-12.923-7.574-7.219-13.867-17.562-13.867-31.779h-2zm-91.515-6.586V55.159h-2v46.902h2zm-.144-47.047c1.826-.262 7.213-.39 14.675-.422 7.419-.033 16.79.028 26.506.126 19.42.195 40.233.54 49.493.59l.01-2c-9.259-.049-30.033-.394-49.483-.59-9.718-.098-19.101-.159-26.535-.126-7.39.032-12.952.156-14.95.443l.284 1.98zm.144.145c0-.083.007-.15.017-.2.01-.05.02-.07.02-.066a.24.24 0 01-.068.071.27.27 0 01-.113.05l-.284-1.98a1.723 1.723 0 00-1.296.908c-.22.408-.276.858-.276 1.217h2zm93.515 1.142a2.98 2.98 0 00-2.975-2.992l-.01 2a.98.98 0 01.985.992h2z" fill="#007BC0"/><path d="M51.337 76.68h53.162M51.337 93.86h53.162m-49.527 17.18H104.5m-38.409 17.18h41.573" stroke="#007BC0" stroke-width="2" stroke-linecap="round"/></svg>