<svg width="310" height="271" fill="none" xmlns="http://www.w3.org/2000/svg"><path d="M57.815 42.732L11.457 220.676a3 3 0 002.903 3.756h247.958a3 3 0 002.914-2.287l43.537-177.944a3 3 0 00-2.914-3.713H60.718a3 3 0 00-2.903 2.244z" fill="#DAF7F7" stroke="#A4EFEE" stroke-width="2"/><path d="M20.742 189.506l-8.42 31.241a2 2 0 001.93 2.521H262.41a2 2 0 001.94-1.514l8.074-32.248H20.743z" fill="#02A4A4"/><path d="M20.742 189.506l-8.42 31.241a2 2 0 001.93 2.521H262.41a2 2 0 001.94-1.514l8.074-32.248H20.743z" fill="#11DCD0"/><path d="M48.273 171.408l29.98-115.842h93.364L143.35 171.408H48.273z" fill="url(#paint0_linear_469_4406)"/><path d="M174.117 125.571l18.028-70.005h56.144l-16.997 70.005h-57.175z" stroke="#A4EFEE" stroke-width="2"/><path d="M140.712 265.179l-3.336-38.419h52.545l3.336 38.419h-52.545z" fill="#11DCD0" stroke="#70E9E2" stroke-width="2"/><path d="M104.528 264.666a2 2 0 012-2h117.676a2 2 0 012 2V271H104.528v-6.334z" fill="url(#paint1_radial_469_4406)"/><path d="M89.11 76.4h60.838" stroke="#E8F9F9" stroke-width="2"/><path d="M200.786 67.233h31.669" stroke="#A4EFEE" stroke-width="2"/><path d="M84.943 91.402h60.838" stroke="#E8F9F9" stroke-width="2"/><path d="M197.452 78.067h32.503" stroke="#A4EFEE" stroke-width="2"/><path d="M81.61 106.403h60.838" stroke="#E8F9F9" stroke-width="2"/><path d="M194.952 88.902h31.669" stroke="#A4EFEE" stroke-width="2"/><path d="M77.443 121.404h60.838m-65.006 15.002h60.838" stroke="#E8F9F9" stroke-width="2"/><path d="M245.781 170.879H188.45l16.079-62.13 13.054-7.722h45.242l-17.044 69.852z" fill="#02A4A4"/><path d="M215.477 109.451l-10.881-.702 12.987-7.722-2.106 8.424z" fill="#057575"/><path d="M213.074 113.59h36.685m-39.198 9.046h36.685m-38.695 9.045h36.685m-39.197 9.046h36.685m-39.198 9.045h36.685m-38.695 9.046h36.685" stroke="#F9F9F9"/><path d="M68.165 25.1L51.797 98.379m39.369-.306l-77.031.62" stroke="#2CE0D5" stroke-width="3" stroke-linecap="round"/><path d="M64.647 98.382H40.655" stroke="#2CE0D5" stroke-width="7" stroke-linecap="round"/><mask id="a" fill="#fff"><path fill-rule="evenodd" clip-rule="evenodd" d="M93.43 6.723C83.105-1.788 66.826.846 57.14 12.595a31.109 31.109 0 00-4.047 6.32c-7.487-4.773-18.216-2.581-24.774 5.375-2.918 3.54-4.558 7.673-4.941 11.737-5.271.49-10.706 2.774-16.09 7.792-8.275 7.713-11.063 19.725 0 28.843 4.726 3.897 10.618 5.613 16.626 5.318 18.162 1.63 59.678.3 64.667-.025 7.912-.516 15.98-4.507 21.814-11.584 10.376-12.588 9.818-30.247-1.244-39.366a23.093 23.093 0 00-7.693-4.186c-.452-6.253-3.142-12.068-8.03-16.096z"/></mask><path fill-rule="evenodd" clip-rule="evenodd" d="M93.43 6.723C83.105-1.788 66.826.846 57.14 12.595a31.109 31.109 0 00-4.047 6.32c-7.487-4.773-18.216-2.581-24.774 5.375-2.918 3.54-4.558 7.673-4.941 11.737-5.271.49-10.706 2.774-16.09 7.792-8.275 7.713-11.063 19.725 0 28.843 4.726 3.897 10.618 5.613 16.626 5.318 18.162 1.63 59.678.3 64.667-.025 7.912-.516 15.98-4.507 21.814-11.584 10.376-12.588 9.818-30.247-1.244-39.366a23.093 23.093 0 00-7.693-4.186c-.452-6.253-3.142-12.068-8.03-16.096z" fill="url(#paint2_linear_469_4406)"/><path d="M57.141 12.595l2.315 1.908-2.315-1.908zM93.43 6.723l1.908-2.315-1.908 2.315zM53.094 18.915l2.705 1.299-1.465 3.05-2.853-1.82 1.613-2.529zM28.32 24.29l2.315 1.908-2.315-1.908zm-4.941 11.737l2.986.282-.233 2.475-2.476.23-.277-2.987zM7.289 43.82l2.045 2.195-2.045-2.195zm0 28.843l-1.91 2.315 1.91-2.315zm16.626 5.318l-.147-2.996.208-.01.207.018-.268 2.988zm64.667-.025l.196 2.994-.196-2.994zm21.814-11.584l-2.315-1.908 2.315 1.908zm-1.244-39.366l1.908-2.315-1.908 2.315zm-7.693-4.186l-.913 2.858-1.934-.617-.146-2.025 2.993-.216zM54.826 10.687c10.5-12.738 28.637-16.068 40.512-6.28l-3.817 4.63c-8.774-7.232-23.195-5.294-32.065 5.466l-4.63-3.816zm-4.436 6.93a34.113 34.113 0 014.436-6.93l4.63 3.816a28.111 28.111 0 00-3.657 5.71l-5.41-2.596zM26.005 22.38c7.337-8.9 19.705-11.73 28.702-5.995l-3.226 5.059c-5.977-3.81-15.067-2.258-20.846 4.753l-4.63-3.817zm-5.613 13.365c.44-4.668 2.317-9.366 5.613-13.365l4.63 3.817c-2.54 3.082-3.943 6.65-4.27 10.11l-5.973-.562zm-15.149 5.88c5.818-5.423 11.86-8.027 17.858-8.585l.555 5.974c-4.543.423-9.371 2.386-14.322 7l-4.09-4.39zm.137 33.352C-.81 69.876-3.378 63.691-2.956 57.51c.413-6.047 3.653-11.647 8.2-15.884l4.09 4.389c-3.729 3.475-6.02 7.737-6.304 11.904-.275 4.032 1.293 8.413 6.166 12.43l-3.816 4.63zm18.682 6c-6.678.327-13.322-1.582-18.682-6l3.816-4.63c4.095 3.376 9.234 4.899 14.572 4.637l.294 5.993zm64.716-.028c-5.029.328-46.731 1.67-65.131.02l.536-5.977c17.925 1.608 59.253.293 64.204-.03l.39 5.987zm23.933-12.67c-6.341 7.692-15.165 12.097-23.933 12.67l-.391-5.987c7.055-.461 14.366-4.036 19.694-10.5l4.63 3.817zM111.06 24.69c12.612 10.397 12.841 30.013 1.651 43.589l-4.63-3.816c9.561-11.6 8.674-27.302-.837-35.143l3.816-4.63zm-8.689-4.73a26.082 26.082 0 018.689 4.73l-3.816 4.63a20.08 20.08 0 00-6.698-3.643l1.825-5.716zM95.338 4.409c5.591 4.609 8.609 11.22 9.113 18.195l-5.985.432c-.399-5.532-2.762-10.55-6.945-13.998l3.817-4.63z" fill="#02A4A4" mask="url(#a)"/><path d="M199.933 48.221a1 1 0 001.412-.081l5.985-6.721a1 1 0 10-1.493-1.33l-5.321 5.974-5.974-5.32a1 1 0 00-1.33 1.493l6.721 5.985zm-92.491-27.71c2.606-6.034 9.347-11.072 18.304-14.27 8.92-3.184 19.857-4.471 30.562-3.151 10.704 1.32 21.111 5.238 29.038 12.396 7.908 7.14 13.416 17.564 14.253 32.046l1.997-.115c-.866-14.974-6.587-25.9-14.91-33.415-8.303-7.498-19.128-11.54-30.133-12.897-11.005-1.357-22.256-.04-31.479 3.253-9.187 3.28-16.543 8.588-19.468 15.36l1.836.793zm-53.946 90.191a1 1 0 00-1.388-.269l-7.46 5.034a1 1 0 101.119 1.658l6.631-4.475 4.475 6.631a1 1 0 101.658-1.118l-5.035-7.461zm29.964 18.607c-4.488 1.334-8.952 2.482-13.043 3.046-4.105.566-7.74.528-10.612-.428-2.817-.937-4.933-2.762-6.082-5.918-1.172-3.219-1.366-7.901-.074-14.557l-1.963-.381c-1.323 6.816-1.192 11.914.158 15.622 1.372 3.77 3.975 6.016 7.33 7.132 3.298 1.097 7.288 1.094 11.516.512 4.242-.585 8.82-1.768 13.34-3.111l-.57-1.917z" fill="#02A4A4"/><defs><linearGradient id="paint0_linear_469_4406" x1="121.659" y1="170.879" x2="83.24" y2="-.841" gradientUnits="userSpaceOnUse"><stop stop-color="#2CE0D5"/><stop offset=".852" stop-color="#A4EFEE"/></linearGradient><linearGradient id="paint2_linear_469_4406" x1="47.723" y1="78.422" x2="65.961" y2="-38.662" gradientUnits="userSpaceOnUse"><stop stop-color="#2CE0D5"/><stop offset=".852" stop-color="#A4EFEE"/></linearGradient><radialGradient id="paint1_radial_469_4406" cx="0" cy="0" r="1" gradientUnits="userSpaceOnUse" gradientTransform="matrix(107.6556 4.36342 -2.86575 70.70475 103.782 264.05)"><stop stop-color="#11DCD0"/></radialGradient></defs></svg>