<svg width="568" height="271" fill="none" xmlns="http://www.w3.org/2000/svg"><rect y="80" width="258" height="43" rx="21.5" fill="#2F6F6F"/><rect x="28" y="142" width="265" height="43" rx="21.5" fill="#2F6F6F"/><rect x="57" y="204" width="278" height="43" rx="21.5" fill="#2F6F6F"/><path d="M315.815 42.732l-46.358 177.944a3 3 0 002.903 3.756h247.958a3 3 0 002.914-2.287l43.537-177.944a3 3 0 00-2.914-3.713H318.719a3.001 3.001 0 00-2.904 2.244z" fill="#DAF7F7" stroke="#A4EFEE" stroke-width="2"/><path d="M278.742 189.506l-8.421 31.241a2 2 0 001.932 2.521h248.156a2 2 0 001.94-1.514l8.074-32.248H278.742z" fill="#02A4A4"/><path d="M278.742 189.506l-8.421 31.241a2 2 0 001.932 2.521h248.156a2 2 0 001.94-1.514l8.074-32.248H278.742z" fill="#11DCD0"/><path d="M306.273 171.408l29.98-115.842h93.364L401.35 171.408h-95.077z" fill="url(#paint0_linear_2936_1844)"/><path d="M432.117 125.571l18.028-70.005h56.144l-16.997 70.005h-57.175z" stroke="#A4EFEE" stroke-width="2"/><path d="M398.712 265.179l-3.336-38.419h52.545l3.336 38.419h-52.545z" fill="#11DCD0" stroke="#70E9E2" stroke-width="2"/><path d="M362.528 264.666a2 2 0 012-2h117.676a2 2 0 012 2V271H362.528v-6.334z" fill="url(#paint1_radial_2936_1844)"/><path d="M347.11 76.4h60.838" stroke="#E8F9F9" stroke-width="2"/><path d="M458.786 67.233h31.669" stroke="#A4EFEE" stroke-width="2"/><path d="M342.943 91.402h60.838" stroke="#E8F9F9" stroke-width="2"/><path d="M455.452 78.067h32.503" stroke="#A4EFEE" stroke-width="2"/><path d="M339.609 106.403h60.839" stroke="#E8F9F9" stroke-width="2"/><path d="M452.952 88.902h31.669" stroke="#A4EFEE" stroke-width="2"/><path d="M335.443 121.404h60.838m-65.006 15.002h60.838" stroke="#E8F9F9" stroke-width="2"/><path d="M503.781 170.879H446.45l16.079-62.13 13.054-7.722h45.242l-17.044 69.852z" fill="#02A4A4"/><path d="M473.477 109.451l-10.881-.702 12.987-7.722-2.106 8.424z" fill="#057575"/><path d="M471.074 113.59h36.685m-39.198 9.046h36.685m-38.695 9.045h36.685m-39.197 9.046h36.685m-39.198 9.045h36.685m-38.695 9.046h36.685" stroke="#F9F9F9"/><path d="M326.165 25.1l-16.368 73.279m39.369-.306l-77.031.62" stroke="#2CE0D5" stroke-width="3" stroke-linecap="round"/><path d="M322.647 98.382h-23.992" stroke="#2CE0D5" stroke-width="7" stroke-linecap="round"/><mask id="a" fill="#fff"><path fill-rule="evenodd" clip-rule="evenodd" d="M351.429 6.723c-10.324-8.511-26.603-5.877-36.288 5.872a31.131 31.131 0 00-4.047 6.32c-7.487-4.773-18.216-2.581-24.774 5.375-2.918 3.54-4.558 7.673-4.941 11.737-5.271.49-10.706 2.774-16.09 7.792-8.275 7.713-11.063 19.725-.001 28.843 4.727 3.897 10.619 5.613 16.627 5.318 18.162 1.63 59.678.3 64.667-.025 7.912-.516 15.98-4.507 21.814-11.584 10.376-12.588 9.818-30.247-1.244-39.366a23.093 23.093 0 00-7.693-4.186c-.452-6.253-3.142-12.068-8.03-16.096z"/></mask><path fill-rule="evenodd" clip-rule="evenodd" d="M351.429 6.723c-10.324-8.511-26.603-5.877-36.288 5.872a31.131 31.131 0 00-4.047 6.32c-7.487-4.773-18.216-2.581-24.774 5.375-2.918 3.54-4.558 7.673-4.941 11.737-5.271.49-10.706 2.774-16.09 7.792-8.275 7.713-11.063 19.725-.001 28.843 4.727 3.897 10.619 5.613 16.627 5.318 18.162 1.63 59.678.3 64.667-.025 7.912-.516 15.98-4.507 21.814-11.584 10.376-12.588 9.818-30.247-1.244-39.366a23.093 23.093 0 00-7.693-4.186c-.452-6.253-3.142-12.068-8.03-16.096z" fill="url(#paint2_linear_2936_1844)"/><path d="M315.141 12.595l2.315 1.908-2.315-1.908zm36.288-5.872l1.909-2.315-1.909 2.315zm-40.335 12.192l2.705 1.299-1.465 3.05-2.852-1.82 1.612-2.529zM286.32 24.29l2.315 1.908-2.315-1.908zm-4.941 11.737l2.986.282-.233 2.475-2.476.23-.277-2.987zm-16.09 7.792l2.045 2.195-2.045-2.195zm-.001 28.843l-1.908 2.315 1.908-2.315zm16.627 5.318l-.147-2.996.208-.01.207.018-.268 2.988zm64.667-.025l.196 2.994-.196-2.994zm21.814-11.584l-2.315-1.908 2.315 1.908zm-1.244-39.366l1.908-2.315-1.908 2.315zm-7.693-4.186l-.913 2.858-1.934-.617-.146-2.025 2.993-.216zm-46.633-12.132c10.499-12.738 28.637-16.068 40.512-6.28l-3.817 4.63c-8.774-7.232-23.195-5.294-32.065 5.466l-4.63-3.816zm-4.436 6.93a34.081 34.081 0 014.436-6.93l4.63 3.816a28.092 28.092 0 00-3.657 5.71l-5.409-2.596zm-24.385 4.764c7.337-8.9 19.705-11.73 28.702-5.995l-3.225 5.059c-5.978-3.81-15.068-2.258-20.847 4.753l-4.63-3.817zm-5.613 13.365c.44-4.668 2.317-9.366 5.613-13.365l4.63 3.817c-2.541 3.082-3.943 6.65-4.27 10.11l-5.973-.562zm-15.149 5.879c5.818-5.423 11.859-8.027 17.858-8.585l.555 5.974c-4.543.423-9.371 2.386-14.322 7l-4.091-4.39zm.137 33.352c-6.189-5.101-8.758-11.286-8.336-17.468.413-6.047 3.653-11.647 8.199-15.884l4.091 4.389c-3.729 3.475-6.019 7.737-6.304 11.904-.275 4.032 1.293 8.413 6.166 12.43l-3.816 4.63zm18.682 6c-6.678.327-13.322-1.582-18.682-6l3.816-4.63c4.095 3.376 9.234 4.899 14.572 4.637l.294 5.993zm64.716-.028c-5.029.328-46.731 1.67-65.131.02l.536-5.977c17.925 1.608 59.253.293 64.204-.03l.391 5.987zm23.933-12.67c-6.341 7.692-15.165 12.097-23.933 12.67l-.391-5.987c7.055-.461 14.366-4.036 19.694-10.5l4.63 3.817zM369.06 24.69c12.612 10.397 12.841 30.013 1.651 43.589l-4.63-3.816c9.561-11.6 8.674-27.302-.837-35.143l3.816-4.63zm-8.689-4.73a26.082 26.082 0 018.689 4.73l-3.816 4.63a20.08 20.08 0 00-6.698-3.643l1.825-5.716zm-7.033-15.552c5.591 4.609 8.609 11.22 9.113 18.195l-5.985.432c-.399-5.532-2.762-10.55-6.945-13.998l3.817-4.63z" fill="#02A4A4" mask="url(#a)"/><path d="M457.933 48.221a1 1 0 001.412-.081l5.985-6.721a1 1 0 10-1.493-1.33l-5.321 5.974-5.974-5.32a1 1 0 00-1.33 1.493l6.721 5.985zm-92.491-27.71c2.606-6.034 9.347-11.072 18.304-14.27 8.92-3.184 19.857-4.471 30.562-3.151 10.704 1.32 21.111 5.238 29.038 12.396 7.908 7.14 13.416 17.564 14.253 32.046l1.997-.115c-.866-14.974-6.587-25.9-14.91-33.415-8.303-7.498-19.128-11.54-30.133-12.897-11.005-1.357-22.256-.04-31.479 3.253-9.187 3.28-16.543 8.588-19.468 15.36l1.836.793zm-53.945 90.191a1 1 0 00-1.389-.269l-7.46 5.034a1 1 0 001.119 1.658l6.631-4.475 4.475 6.631a1 1 0 101.658-1.118l-5.034-7.461zm29.963 18.607c-4.488 1.334-8.952 2.482-13.043 3.046-4.105.566-7.739.528-10.612-.428-2.817-.937-4.933-2.762-6.082-5.918-1.172-3.219-1.366-7.901-.074-14.557l-1.963-.381c-1.323 6.816-1.192 11.914.158 15.622 1.372 3.77 3.975 6.016 7.329 7.132 3.299 1.097 7.289 1.094 11.517.512 4.242-.585 8.82-1.768 13.34-3.111l-.57-1.917z" fill="#02A4A4"/><path d="M29.994 107.27c-1.296 0-2.4-.282-3.312-.846-.912-.57-1.61-1.362-2.097-2.376-.48-1.014-.72-2.19-.72-3.528s.24-2.514.72-3.528c.486-1.014 1.185-1.803 2.097-2.367.912-.57 2.016-.855 3.312-.855 1.29 0 2.391.285 3.303.855.918.564 1.617 1.353 2.097 2.367s.72 2.19.72 3.528-.24 2.514-.72 3.528c-.48 1.014-1.179 1.806-2.097 2.376-.912.564-2.013.846-3.303.846zm0-1.791c.918.012 1.68-.189 2.286-.603.612-.42 1.071-1.002 1.377-1.746.306-.75.46-1.62.46-2.61 0-.99-.154-1.854-.46-2.592-.306-.744-.765-1.323-1.377-1.737-.606-.414-1.368-.624-2.286-.63-.918-.012-1.683.189-2.295.603-.606.414-1.062.996-1.368 1.746-.306.75-.462 1.62-.468 2.61-.006.99.144 1.857.45 2.601.306.738.765 1.314 1.377 1.728.618.414 1.386.624 2.304.63zM37.9 107v-9.72h8.2V107h-1.882v-7.947h-4.437V107h-1.88zm13.226 0v-8.028h-3.322V97.28h8.523v1.692h-3.32V107h-1.881zm15.1-9.72V107h-1.809v-6.759L59.557 107h-1.53v-9.72h1.81v6.624l4.868-6.624h1.521zm2.506 9.72v-9.72h1.575l3.591 7.128 3.582-7.128h1.584V107h-1.818v-5.868L74.321 107h-.855l-2.925-5.868V107h-1.809zm21.05-9.72V107h-1.81v-6.759L83.112 107h-1.53v-9.72h1.81v6.624l4.868-6.624h1.521zm5.98 9.99c-.943 0-1.789-.201-2.539-.603a4.573 4.573 0 01-1.764-1.665l1.494-.981c.348.468.75.831 1.206 1.089.462.258.981.387 1.557.387.6 0 1.074-.135 1.422-.405.354-.276.531-.645.531-1.107 0-.366-.102-.636-.306-.81-.198-.18-.474-.297-.828-.351a7.81 7.81 0 00-1.188-.081h-.864v-1.512h.864c.588 0 1.071-.081 1.45-.243.383-.168.575-.483.575-.945 0-.45-.165-.774-.495-.972-.324-.198-.71-.297-1.16-.297-.505 0-.994.108-1.468.324-.474.21-.888.471-1.242.783l-1.098-1.287a5.668 5.668 0 011.764-1.161 5.436 5.436 0 012.142-.423c.624 0 1.2.111 1.728.333.534.216.96.537 1.278.963.324.426.486.951.486 1.575 0 .486-.108.93-.324 1.332-.216.402-.546.768-.99 1.098l-.054-.639c.366.114.672.297.918.549.246.252.43.549.55.891.125.336.188.693.188 1.071 0 .654-.174 1.212-.522 1.674-.342.462-.804.813-1.386 1.053-.582.24-1.224.36-1.926.36zm8.56 0c-.72 0-1.323-.132-1.809-.396a2.821 2.821 0 01-1.107-1.062 2.958 2.958 0 01-.369-1.458c0-.492.087-.924.261-1.296.174-.372.432-.687.774-.945a4.14 4.14 0 011.26-.639c.432-.126.921-.237 1.467-.333a49.86 49.86 0 011.719-.27l1.8-.252-.684.378c.012-.762-.15-1.326-.486-1.692-.33-.372-.9-.558-1.71-.558-.51 0-.978.12-1.404.36-.426.234-.723.624-.891 1.17l-1.755-.54c.24-.834.696-1.497 1.368-1.989.678-.492 1.578-.738 2.7-.738.87 0 1.626.15 2.268.45a2.797 2.797 0 011.422 1.404c.156.318.252.654.288 1.008.036.354.054.735.054 1.143V107h-1.665v-2.223l.324.288c-.402.744-.915 1.299-1.539 1.665-.618.36-1.38.54-2.286.54zm.333-1.539c.534 0 .993-.093 1.377-.279a2.71 2.71 0 00.927-.729c.234-.294.387-.6.459-.918.102-.288.159-.612.171-.972.018-.36.027-.648.027-.864l.612.225-1.62.243c-.486.072-.927.144-1.323.216-.39.066-.738.147-1.044.243-.258.09-.489.198-.693.324a1.587 1.587 0 00-.477.459c-.114.18-.171.399-.171.657 0 .252.063.486.189.702.126.21.318.378.576.504.258.126.588.189.99.189zm15.378 3.186V107h-8.217v-9.72h1.881v7.947h4.437V97.28h1.881v8.028h1.899v3.609h-1.881zm11.514-11.637V107h-1.809v-6.759l-4.86 6.759h-1.53v-9.72h1.809v6.624l4.869-6.624h1.521zm8.428 9.72v-3.375h-1.926c-.228 0-.501-.009-.819-.027a7.762 7.762 0 01-.882-.099c-.726-.132-1.332-.447-1.818-.945-.486-.504-.729-1.197-.729-2.079 0-.852.228-1.536.684-2.052a3.15 3.15 0 011.755-1.008 4.44 4.44 0 01.936-.117c.324-.012.597-.018.819-.018h3.861l.009 9.72h-1.89zm-6.453 0l2.457-3.843h1.989L135.529 107h-2.007zm4.365-4.887h2.088v-3.321h-2.088a8 8 0 00-.486.018 2.472 2.472 0 00-.558.099c-.186.054-.366.15-.54.288a1.603 1.603 0 00-.576 1.26c0 .414.117.756.351 1.026.234.264.513.438.837.522.174.048.348.078.522.09.174.012.324.018.45.018zm14.66 5.157c-.93 0-1.71-.225-2.34-.675-.63-.456-1.107-1.071-1.431-1.845-.324-.774-.486-1.647-.486-2.619 0-.972.159-1.845.477-2.619.324-.774.798-1.383 1.422-1.827.63-.45 1.404-.675 2.322-.675.912 0 1.698.225 2.358.675.666.444 1.179 1.053 1.539 1.827.36.768.54 1.641.54 2.619 0 .972-.18 1.848-.54 2.628-.354.774-.861 1.386-1.521 1.836-.654.45-1.434.675-2.34.675zm-4.572 4.05V97.28h1.674v6.993h.216v7.047h-1.89zm4.311-5.751c.6 0 1.095-.153 1.485-.459.396-.306.69-.717.882-1.233a4.89 4.89 0 00.297-1.746 4.79 4.79 0 00-.297-1.728 2.684 2.684 0 00-.891-1.233c-.402-.306-.915-.459-1.539-.459-.588 0-1.074.144-1.458.432-.378.288-.66.69-.846 1.206-.18.516-.27 1.11-.27 1.782 0 .672.09 1.266.27 1.782.18.516.465.921.855 1.215.39.294.894.441 1.512.441zm9.394 1.701c-.72 0-1.323-.132-1.809-.396a2.821 2.821 0 01-1.107-1.062 2.958 2.958 0 01-.369-1.458c0-.492.087-.924.261-1.296.174-.372.432-.687.774-.945a4.14 4.14 0 011.26-.639c.432-.126.921-.237 1.467-.333a49.86 49.86 0 011.719-.27l1.8-.252-.684.378c.012-.762-.15-1.326-.486-1.692-.33-.372-.9-.558-1.71-.558-.51 0-.978.12-1.404.36-.426.234-.723.624-.891 1.17l-1.755-.54c.24-.834.696-1.497 1.368-1.989.678-.492 1.578-.738 2.7-.738.87 0 1.626.15 2.268.45a2.797 2.797 0 011.422 1.404c.156.318.252.654.288 1.008.036.354.054.735.054 1.143V107h-1.665v-2.223l.324.288c-.402.744-.915 1.299-1.539 1.665-.618.36-1.38.54-2.286.54zm.333-1.539c.534 0 .993-.093 1.377-.279a2.71 2.71 0 00.927-.729c.234-.294.387-.6.459-.918.102-.288.159-.612.171-.972.018-.36.027-.648.027-.864l.612.225-1.62.243c-.486.072-.927.144-1.323.216-.39.066-.738.147-1.044.243-.258.09-.489.198-.693.324a1.587 1.587 0 00-.477.459c-.114.18-.171.399-.171.657 0 .252.063.486.189.702.126.21.318.378.576.504.258.126.588.189.99.189zm11.166 1.548c-.924-.006-1.71-.207-2.358-.603-.648-.396-1.155-.966-1.521-1.71-.36-.75-.57-1.653-.63-2.709-.03-.51-.027-1.074.009-1.692a17.2 17.2 0 01.198-1.809c.102-.582.231-1.068.387-1.458.174-.432.411-.828.711-1.188.3-.366.63-.672.99-.918.384-.264.81-.468 1.278-.612.468-.15.957-.267 1.467-.351a33.49 33.49 0 011.557-.216 23.586 23.586 0 001.539-.243l.18 1.683c-.33.078-.72.141-1.17.189-.444.048-.906.102-1.386.162-.474.06-.927.144-1.359.252a3.91 3.91 0 00-1.125.459c-.45.276-.795.678-1.035 1.206a5.205 5.205 0 00-.423 1.719c.372-.564.846-.969 1.422-1.215a4.423 4.423 0 011.791-.378c.864 0 1.608.204 2.232.612.63.408 1.113.963 1.449 1.665.336.702.504 1.497.504 2.385 0 .96-.198 1.8-.594 2.52a4.21 4.21 0 01-1.647 1.674c-.708.396-1.53.588-2.466.576zm.099-1.773c.864 0 1.515-.267 1.953-.801.444-.534.666-1.245.666-2.133 0-.912-.228-1.629-.684-2.151-.456-.522-1.101-.783-1.935-.783-.846 0-1.494.261-1.944.783-.444.522-.666 1.239-.666 2.151 0 .924.225 1.644.675 2.16.45.516 1.095.774 1.935.774zm10.813 1.764c-.972 0-1.815-.219-2.529-.657a4.428 4.428 0 01-1.656-1.809c-.384-.774-.576-1.665-.576-2.673 0-1.014.198-1.905.594-2.673a4.354 4.354 0 011.665-1.8c.714-.432 1.548-.648 2.502-.648.972 0 1.815.219 2.529.657a4.428 4.428 0 011.656 1.809c.39.768.585 1.653.585 2.655 0 1.014-.198 1.908-.594 2.682a4.428 4.428 0 01-1.656 1.809c-.714.432-1.554.648-2.52.648zm0-1.773c.93 0 1.623-.312 2.079-.936.462-.63.693-1.44.693-2.43 0-1.014-.234-1.824-.702-2.43-.462-.612-1.152-.918-2.07-.918-.63 0-1.149.144-1.557.432a2.503 2.503 0 00-.909 1.179c-.198.498-.297 1.077-.297 1.737 0 1.02.234 1.836.702 2.448.468.612 1.155.918 2.061.918zm9.048 1.503v-8.028h-3.321V97.28h8.523v1.692h-3.321V107h-1.881zm6.902 0v-9.72h1.89v3.375h1.278c.276 0 .573.006.891.018.318.012.588.042.81.09.522.108.975.288 1.359.54.384.252.678.588.882 1.008.21.414.315.924.315 1.53 0 .846-.219 1.521-.657 2.025-.438.498-1.032.834-1.782 1.008-.24.054-.525.09-.855.108-.324.012-.624.018-.9.018h-3.231zm1.89-1.512h1.449c.156 0 .33-.006.522-.018.192-.012.369-.039.531-.081a1.65 1.65 0 00.765-.513c.228-.258.342-.603.342-1.035 0-.444-.114-.798-.342-1.062a1.516 1.516 0 00-.846-.513 2.584 2.584 0 00-.495-.081 6.71 6.71 0 00-.477-.018h-1.449v3.321zm6.606 1.512v-9.72h1.881V107h-1.881zM54.058 169.27c-.9 0-1.683-.132-2.349-.396-.666-.264-1.224-.606-1.674-1.026a4.822 4.822 0 01-1.017-1.359l1.638-1.062c.144.354.36.687.648.999a3.34 3.34 0 001.134.765c.468.192 1.035.288 1.701.288.666 0 1.215-.099 1.647-.297.432-.204.753-.474.963-.81.216-.342.324-.726.324-1.152 0-.498-.132-.882-.396-1.152-.258-.276-.603-.468-1.035-.576a6.39 6.39 0 00-1.404-.198l-.909-.027a7.171 7.171 0 00-.378-.018h-.17v-1.782h.863c.18-.006.327-.012.441-.018.744-.036 1.344-.219 1.8-.549.462-.33.693-.798.693-1.404 0-.606-.225-1.083-.675-1.431-.444-.348-1.029-.522-1.755-.522-.69 0-1.284.159-1.782.477a3.382 3.382 0 00-1.152 1.161l-1.386-1.305c.432-.6 1.023-1.101 1.773-1.503.75-.402 1.617-.603 2.601-.603.558 0 1.098.075 1.62.225.522.144.99.366 1.404.666.414.3.741.681.981 1.143.246.456.37.999.37 1.629s-.13 1.2-.388 1.71a3.16 3.16 0 01-1.017 1.215c.594.222 1.06.573 1.395 1.053.336.474.504 1.08.504 1.818 0 .828-.219 1.545-.657 2.151-.432.6-1.026 1.065-1.782 1.395-.75.33-1.608.495-2.574.495zm9.681 0c-.72 0-1.323-.132-1.809-.396a2.821 2.821 0 01-1.107-1.062 2.958 2.958 0 01-.369-1.458c0-.492.087-.924.261-1.296.174-.372.432-.687.774-.945a4.14 4.14 0 011.26-.639c.432-.126.921-.237 1.467-.333a49.86 49.86 0 011.72-.27l1.8-.252-.685.378c.012-.762-.15-1.326-.486-1.692-.33-.372-.9-.558-1.71-.558-.51 0-.978.12-1.404.36-.426.234-.723.624-.89 1.17l-1.756-.54c.24-.834.696-1.497 1.368-1.989.678-.492 1.578-.738 2.7-.738.87 0 1.626.15 2.268.45a2.797 2.797 0 011.422 1.404c.156.318.252.654.288 1.008.036.354.054.735.054 1.143V169H67.24v-2.223l.324.288c-.402.744-.915 1.299-1.539 1.665-.618.36-1.38.54-2.286.54zm.333-1.539c.534 0 .993-.093 1.377-.279a2.71 2.71 0 00.927-.729c.234-.294.387-.6.46-.918.101-.288.158-.612.17-.972.018-.36.027-.648.027-.864l.612.225-1.62.243c-.486.072-.927.144-1.323.216-.39.066-.738.147-1.044.243-.258.09-.489.198-.693.324a1.587 1.587 0 00-.477.459c-.114.18-.17.399-.17.657 0 .252.062.486.188.702.126.21.318.378.576.504.258.126.588.189.99.189zm17.835 3.186V169H71.233v-9.72h1.81v8.028h3.05v-8.028h1.81v8.028h3.041v-8.028h1.81v8.028h1.034v3.609h-1.88zm11.518-11.637V169h-1.81v-6.759L86.756 169h-1.53v-9.72h1.81v6.624l4.869-6.624h1.52zM98.45 169v-8.028h-3.32v-1.692h8.523v1.692h-3.321V169h-1.881zm9.374.27c-.72 0-1.323-.132-1.809-.396a2.821 2.821 0 01-1.107-1.062 2.958 2.958 0 01-.369-1.458c0-.492.087-.924.261-1.296.174-.372.432-.687.774-.945a4.14 4.14 0 011.26-.639c.432-.126.921-.237 1.467-.333a49.86 49.86 0 011.719-.27l1.8-.252-.684.378c.012-.762-.15-1.326-.486-1.692-.33-.372-.9-.558-1.71-.558-.51 0-.978.12-1.404.36-.426.234-.723.624-.891 1.17l-1.755-.54c.24-.834.696-1.497 1.368-1.989.678-.492 1.578-.738 2.7-.738.87 0 1.626.15 2.268.45a2.797 2.797 0 011.422 1.404c.156.318.252.654.288 1.008.036.354.054.735.054 1.143V169h-1.665v-2.223l.324.288c-.402.744-.915 1.299-1.539 1.665-.618.36-1.38.54-2.286.54zm.333-1.539c.534 0 .993-.093 1.377-.279a2.71 2.71 0 00.927-.729c.234-.294.387-.6.459-.918.102-.288.159-.612.171-.972.018-.36.027-.648.027-.864l.612.225-1.62.243c-.486.072-.927.144-1.323.216-.39.066-.738.147-1.044.243-.258.09-.489.198-.693.324a1.587 1.587 0 00-.477.459c-.114.18-.171.399-.171.657 0 .252.063.486.189.702.126.21.318.378.576.504.258.126.588.189.99.189zm18.964-8.451V169h-1.809v-6.759l-4.86 6.759h-1.53v-9.72h1.809v6.624l4.869-6.624h1.521zm6.109 9.72v-9.72h1.809v8.028h3.051v-8.028h1.809v8.028h3.042v-8.028h1.809V169h-11.52zm22.227-9.72V169h-1.809v-6.759l-4.86 6.759h-1.53v-9.72h1.809v6.624l4.869-6.624h1.521zm7.087 13.77v-3.879c-.948.15-1.809.048-2.583-.306-.774-.354-1.389-.93-1.845-1.728-.456-.798-.684-1.794-.684-2.988s.228-2.193.684-2.997c.456-.804 1.071-1.383 1.845-1.737.774-.354 1.635-.456 2.583-.306v-2.943h1.692v2.943c.948-.15 1.809-.048 2.583.306.774.354 1.389.933 1.845 1.737.456.804.684 1.803.684 2.997s-.228 2.19-.684 2.988c-.456.798-1.071 1.374-1.845 1.728-.774.354-1.635.456-2.583.306v3.879h-1.692zm0-5.58v-6.651c-.486-.084-.927-.069-1.323.045-.39.114-.723.315-.999.603-.276.282-.489.651-.639 1.107-.15.45-.225.975-.225 1.575s.075 1.125.225 1.575c.156.45.375.819.657 1.107.288.282.627.48 1.017.594.39.108.819.123 1.287.045zm1.692 0c.468.078.897.063 1.287-.045a2.25 2.25 0 001.008-.585c.288-.282.507-.648.657-1.098.156-.456.234-.987.234-1.593 0-.612-.075-1.143-.225-1.593-.15-.456-.363-.825-.639-1.107a2.153 2.153 0 00-1.008-.594c-.39-.108-.828-.12-1.314-.036v6.651zm11.658 1.8c-.93 0-1.71-.225-2.34-.675-.63-.456-1.107-1.071-1.431-1.845-.324-.774-.486-1.647-.486-2.619 0-.972.159-1.845.477-2.619.324-.774.798-1.383 1.422-1.827.63-.45 1.404-.675 2.322-.675.912 0 1.698.225 2.358.675.666.444 1.179 1.053 1.539 1.827.36.768.54 1.641.54 2.619 0 .972-.18 1.848-.54 2.628-.354.774-.861 1.386-1.521 1.836-.654.45-1.434.675-2.34.675zm-4.572 4.05v-14.04h1.674v6.993h.216v7.047h-1.89zm4.311-5.751c.6 0 1.095-.153 1.485-.459.396-.306.69-.717.882-1.233a4.89 4.89 0 00.297-1.746 4.79 4.79 0 00-.297-1.728 2.684 2.684 0 00-.891-1.233c-.402-.306-.915-.459-1.539-.459-.588 0-1.074.144-1.458.432-.378.288-.66.69-.846 1.206-.18.516-.27 1.11-.27 1.782 0 .672.09 1.266.27 1.782.18.516.465.921.855 1.215.39.294.894.441 1.512.441zm10.87 1.701c-.972 0-1.815-.219-2.529-.657a4.428 4.428 0 01-1.656-1.809c-.384-.774-.576-1.665-.576-2.673 0-1.014.198-1.905.594-2.673a4.354 4.354 0 011.665-1.8c.714-.432 1.548-.648 2.502-.648.972 0 1.815.219 2.529.657a4.428 4.428 0 011.656 1.809c.39.768.585 1.653.585 2.655 0 1.014-.198 1.908-.594 2.682a4.428 4.428 0 01-1.656 1.809c-.714.432-1.554.648-2.52.648zm0-1.773c.93 0 1.623-.312 2.079-.936.462-.63.693-1.44.693-2.43 0-1.014-.234-1.824-.702-2.43-.462-.612-1.152-.918-2.07-.918-.63 0-1.149.144-1.557.432a2.503 2.503 0 00-.909 1.179c-.198.498-.297 1.077-.297 1.737 0 1.02.234 1.836.702 2.448.468.612 1.155.918 2.061.918zm6.739 1.503v-9.72h4.275c.282 0 .564.018.846.054.282.03.531.075.747.135.492.138.912.414 1.26.828.348.408.522.954.522 1.638 0 .39-.06.72-.18.99-.12.264-.285.492-.495.684a2.23 2.23 0 01-.306.225 1.582 1.582 0 01-.324.153c.222.036.441.114.657.234.33.174.6.426.81.756.216.324.324.759.324 1.305 0 .654-.159 1.203-.477 1.647-.318.438-.768.738-1.35.9a3.981 3.981 0 01-.774.135 9.972 9.972 0 01-.846.036h-4.689zm1.908-1.485h2.664c.126 0 .27-.012.432-.036.162-.024.306-.057.432-.099.27-.084.462-.237.576-.459.12-.222.18-.459.18-.711 0-.342-.09-.615-.27-.819a1.217 1.217 0 00-.684-.405 1.366 1.366 0 00-.396-.072 9.064 9.064 0 00-.369-.009h-2.565v2.61zm0-4.122h2.106c.174 0 .351-.009.531-.027.18-.024.336-.063.468-.117a.967.967 0 00.522-.45c.114-.216.171-.45.171-.702 0-.276-.063-.522-.189-.738a.995.995 0 00-.567-.45 2.012 2.012 0 00-.603-.099 10.744 10.744 0 00-.423-.018h-2.016v2.601zm10.778 5.877c-.72 0-1.323-.132-1.809-.396a2.821 2.821 0 01-1.107-1.062 2.958 2.958 0 01-.369-1.458c0-.492.087-.924.261-1.296.174-.372.432-.687.774-.945a4.14 4.14 0 011.26-.639c.432-.126.921-.237 1.467-.333a49.86 49.86 0 011.719-.27l1.8-.252-.684.378c.012-.762-.15-1.326-.486-1.692-.33-.372-.9-.558-1.71-.558-.51 0-.978.12-1.404.36-.426.234-.723.624-.891 1.17l-1.755-.54c.24-.834.696-1.497 1.368-1.989.678-.492 1.578-.738 2.7-.738.87 0 1.626.15 2.268.45a2.797 2.797 0 011.422 1.404c.156.318.252.654.288 1.008.036.354.054.735.054 1.143V169h-1.665v-2.223l.324.288c-.402.744-.915 1.299-1.539 1.665-.618.36-1.38.54-2.286.54zm.333-1.539c.534 0 .993-.093 1.377-.279a2.71 2.71 0 00.927-.729c.234-.294.387-.6.459-.918.102-.288.159-.612.171-.972.018-.36.027-.648.027-.864l.612.225-1.62.243c-.486.072-.927.144-1.323.216-.39.066-.738.147-1.044.243-.258.09-.489.198-.693.324a1.587 1.587 0 00-.477.459c-.114.18-.171.399-.171.657 0 .252.063.486.189.702.126.21.318.378.576.504.258.126.588.189.99.189zm7.161 1.269v-9.72h1.881v3.969h4.743v-3.969h1.881V169h-1.881v-3.978h-4.743V169h-1.881zm19.22-9.72V169h-1.809v-6.759l-4.86 6.759h-1.53v-9.72h1.809v6.624l4.869-6.624h1.521zm6.826 9.99c-.966 0-1.815-.21-2.547-.63a4.48 4.48 0 01-1.701-1.773c-.402-.762-.603-1.644-.603-2.646 0-1.062.198-1.983.594-2.763.402-.78.96-1.383 1.674-1.809.714-.426 1.545-.639 2.493-.639.99 0 1.833.231 2.529.693.696.456 1.215 1.107 1.557 1.953.348.846.486 1.851.414 3.015h-1.881v-.684c-.012-1.128-.228-1.962-.648-2.502-.414-.54-1.047-.81-1.899-.81-.942 0-1.65.297-2.124.891-.474.594-.711 1.452-.711 2.574 0 1.068.237 1.896.711 2.484.474.582 1.158.873 2.052.873.588 0 1.095-.132 1.521-.396.432-.27.768-.654 1.008-1.152l1.845.585c-.378.87-.951 1.545-1.719 2.025a4.786 4.786 0 01-2.565.711zm-3.465-4.599v-1.467h6.939v1.467h-6.939zM79.489 231.65v-12.96h1.88v5.589h6.48v-5.589h1.89v12.96h-1.89v-5.598h-6.48v5.598h-1.88zm15.524.27c-.72 0-1.323-.132-1.81-.396a2.821 2.821 0 01-1.106-1.062 2.958 2.958 0 01-.37-1.458c0-.492.088-.924.262-1.296.174-.372.432-.687.774-.945a4.14 4.14 0 011.26-.639c.432-.126.92-.237 1.467-.333a49.86 49.86 0 011.719-.27l1.8-.252-.684.378c.012-.762-.15-1.326-.486-1.692-.33-.372-.9-.558-1.71-.558-.51 0-.978.12-1.404.36-.426.234-.723.624-.891 1.17l-1.755-.54c.24-.834.696-1.497 1.368-1.989.678-.492 1.578-.738 2.7-.738.87 0 1.626.15 2.268.45a2.797 2.797 0 011.422 1.404c.156.318.252.654.288 1.008.036.354.054.735.054 1.143v5.985h-1.665v-2.223l.324.288c-.402.744-.915 1.299-1.54 1.665-.617.36-1.38.54-2.285.54zm.333-1.539c.534 0 .993-.093 1.377-.279a2.71 2.71 0 00.927-.729c.234-.294.387-.6.459-.918.102-.288.159-.612.17-.972.019-.36.028-.648.028-.864l.612.225-1.62.243c-.486.072-.927.144-1.323.216-.39.066-.738.147-1.044.243-.258.09-.49.198-.693.324a1.587 1.587 0 00-.477.459c-.114.18-.171.399-.171.657 0 .252.063.486.189.702.126.21.318.378.576.504.258.126.588.189.99.189zm6.45 3.429v-3.672c.534 0 .915-.177 1.143-.531.234-.36.42-.969.558-1.827.084-.522.153-1.077.207-1.665.06-.588.111-1.224.153-1.908.042-.69.084-1.449.126-2.277h6.966v8.208h.954v3.672h-1.782v-2.16h-6.534v2.16h-1.791zm2.691-3.672h4.572v-6.696h-3.402c-.024.396-.051.804-.081 1.224-.024.42-.054.837-.09 1.251-.03.414-.066.81-.108 1.188-.042.378-.09.72-.144 1.026-.072.474-.159.87-.261 1.188a1.926 1.926 0 01-.486.819zm13.52 1.782c-.966 0-1.815-.21-2.547-.63a4.48 4.48 0 01-1.701-1.773c-.402-.762-.603-1.644-.603-2.646 0-1.062.198-1.983.594-2.763.402-.78.96-1.383 1.674-1.809.714-.426 1.545-.639 2.493-.639.99 0 1.833.231 2.529.693.696.456 1.215 1.107 1.557 1.953.348.846.486 1.851.414 3.015h-1.881v-.684c-.012-1.128-.228-1.962-.648-2.502-.414-.54-1.047-.81-1.899-.81-.942 0-1.65.297-2.124.891-.474.594-.711 1.452-.711 2.574 0 1.068.237 1.896.711 2.484.474.582 1.158.873 2.052.873.588 0 1.095-.132 1.521-.396.432-.27.768-.654 1.008-1.152l1.845.585c-.378.87-.951 1.545-1.719 2.025a4.786 4.786 0 01-2.565.711zm-3.465-4.599v-1.467h6.939v1.467h-6.939zm8.462 4.329l3.744-4.86-3.537-4.86h2.07l3.384 4.743v-4.743h1.692v4.743l3.384-4.743h2.079l-3.537 4.86 3.744 4.86h-2.187l-3.483-4.743v4.743h-1.692v-4.743l-3.474 4.743h-2.187zm14.448 0v-9.72h1.881v3.969h4.743v-3.969h1.881v9.72h-1.881v-3.978h-4.743v3.978h-1.881zm15.252.27c-.972 0-1.815-.219-2.529-.657a4.428 4.428 0 01-1.656-1.809c-.384-.774-.576-1.665-.576-2.673 0-1.014.198-1.905.594-2.673a4.354 4.354 0 011.665-1.8c.714-.432 1.548-.648 2.502-.648.972 0 1.815.219 2.529.657a4.428 4.428 0 011.656 1.809c.39.768.585 1.653.585 2.655 0 1.014-.198 1.908-.594 2.682a4.428 4.428 0 01-1.656 1.809c-.714.432-1.554.648-2.52.648zm0-1.773c.93 0 1.623-.312 2.079-.936.462-.63.693-1.44.693-2.43 0-1.014-.234-1.824-.702-2.43-.462-.612-1.152-.918-2.07-.918-.63 0-1.149.144-1.557.432a2.503 2.503 0 00-.909 1.179c-.198.498-.297 1.077-.297 1.737 0 1.02.234 1.836.702 2.448.468.612 1.155.918 2.061.918zm11.058 1.773c-.966 0-1.815-.21-2.547-.63a4.48 4.48 0 01-1.701-1.773c-.402-.762-.603-1.644-.603-2.646 0-1.062.198-1.983.594-2.763.402-.78.96-1.383 1.674-1.809.714-.426 1.545-.639 2.493-.639.99 0 1.833.231 2.529.693.696.456 1.215 1.107 1.557 1.953.348.846.486 1.851.414 3.015h-1.881v-.684c-.012-1.128-.228-1.962-.648-2.502-.414-.54-1.047-.81-1.899-.81-.942 0-1.65.297-2.124.891-.474.594-.711 1.452-.711 2.574 0 1.068.237 1.896.711 2.484.474.582 1.158.873 2.052.873.588 0 1.095-.132 1.521-.396.432-.27.768-.654 1.008-1.152l1.845.585c-.378.87-.951 1.545-1.719 2.025a4.786 4.786 0 01-2.565.711zm-3.465-4.599v-1.467h6.939v1.467h-6.939zm12.418 4.329l3.636-4.914-3.555-4.806h2.232l2.421 3.339 2.394-3.339h2.232l-3.555 4.806 3.645 4.914h-2.241l-2.475-3.447-2.493 3.447h-2.241zm15.452.27c-.93 0-1.71-.225-2.34-.675-.63-.456-1.107-1.071-1.431-1.845-.324-.774-.486-1.647-.486-2.619 0-.972.159-1.845.477-2.619.324-.774.798-1.383 1.422-1.827.63-.45 1.404-.675 2.322-.675.912 0 1.698.225 2.358.675.666.444 1.179 1.053 1.539 1.827.36.768.54 1.641.54 2.619 0 .972-.18 1.848-.54 2.628-.354.774-.861 1.386-1.521 1.836-.654.45-1.434.675-2.34.675zm-4.572 4.05v-14.04h1.674v6.993h.216v7.047h-1.89zm4.311-5.751c.6 0 1.095-.153 1.485-.459.396-.306.69-.717.882-1.233a4.89 4.89 0 00.297-1.746 4.79 4.79 0 00-.297-1.728 2.684 2.684 0 00-.891-1.233c-.402-.306-.915-.459-1.539-.459-.588 0-1.074.144-1.458.432-.378.288-.66.69-.846 1.206-.18.516-.27 1.11-.27 1.782 0 .672.09 1.266.27 1.782.18.516.465.921.855 1.215.39.294.894.441 1.512.441zm9.394 1.701c-.72 0-1.323-.132-1.809-.396a2.821 2.821 0 01-1.107-1.062 2.958 2.958 0 01-.369-1.458c0-.492.087-.924.261-1.296.174-.372.432-.687.774-.945a4.14 4.14 0 011.26-.639c.432-.126.921-.237 1.467-.333a49.86 49.86 0 011.719-.27l1.8-.252-.684.378c.012-.762-.15-1.326-.486-1.692-.33-.372-.9-.558-1.71-.558-.51 0-.978.12-1.404.36-.426.234-.723.624-.891 1.17l-1.755-.54c.24-.834.696-1.497 1.368-1.989.678-.492 1.578-.738 2.7-.738.87 0 1.626.15 2.268.45a2.797 2.797 0 011.422 1.404c.156.318.252.654.288 1.008.036.354.054.735.054 1.143v5.985h-1.665v-2.223l.324.288c-.402.744-.915 1.299-1.539 1.665-.618.36-1.38.54-2.286.54zm.333-1.539c.534 0 .993-.093 1.377-.279a2.71 2.71 0 00.927-.729c.234-.294.387-.6.459-.918.102-.288.159-.612.171-.972.018-.36.027-.648.027-.864l.612.225-1.62.243c-.486.072-.927.144-1.323.216-.39.066-.738.147-1.044.243-.258.09-.489.198-.693.324a1.587 1.587 0 00-.477.459c-.114.18-.171.399-.171.657 0 .252.063.486.189.702.126.21.318.378.576.504.258.126.588.189.99.189zm7.161 1.269v-9.72h1.881v3.969h4.743v-3.969h1.881v9.72h-1.881v-3.978h-4.743v3.978h-1.881zm15.341.27c-.966 0-1.815-.21-2.547-.63a4.48 4.48 0 01-1.701-1.773c-.402-.762-.603-1.644-.603-2.646 0-1.062.198-1.983.594-2.763.402-.78.96-1.383 1.674-1.809.714-.426 1.545-.639 2.493-.639.99 0 1.833.231 2.529.693.696.456 1.215 1.107 1.557 1.953.348.846.486 1.851.414 3.015h-1.881v-.684c-.012-1.128-.228-1.962-.648-2.502-.414-.54-1.047-.81-1.899-.81-.942 0-1.65.297-2.124.891-.474.594-.711 1.452-.711 2.574 0 1.068.237 1.896.711 2.484.474.582 1.158.873 2.052.873.588 0 1.095-.132 1.521-.396.432-.27.768-.654 1.008-1.152l1.845.585c-.378.87-.951 1.545-1.719 2.025a4.786 4.786 0 01-2.565.711zm-3.465-4.599v-1.467h6.939v1.467h-6.939zm9.886 4.329v-9.72h1.881v3.969h4.743v-3.969h1.881v9.72h-1.881v-3.978h-4.743v3.978h-1.881zm19.22-9.72v9.72h-1.809v-6.759l-4.86 6.759h-1.53v-9.72h1.809v6.624l4.869-6.624h1.521zm6.826 9.99c-.966 0-1.815-.21-2.547-.63a4.48 4.48 0 01-1.701-1.773c-.402-.762-.603-1.644-.603-2.646 0-1.062.198-1.983.594-2.763.402-.78.96-1.383 1.674-1.809.714-.426 1.545-.639 2.493-.639.99 0 1.833.231 2.529.693.696.456 1.215 1.107 1.557 1.953.348.846.486 1.851.414 3.015h-1.881v-.684c-.012-1.128-.228-1.962-.648-2.502-.414-.54-1.047-.81-1.899-.81-.942 0-1.65.297-2.124.891-.474.594-.711 1.452-.711 2.574 0 1.068.237 1.896.711 2.484.474.582 1.158.873 2.052.873.588 0 1.095-.132 1.521-.396.432-.27.768-.654 1.008-1.152l1.845.585c-.378.87-.951 1.545-1.719 2.025a4.786 4.786 0 01-2.565.711zm-3.465-4.599v-1.467h6.939v1.467h-6.939z" fill="#fff"/><defs><linearGradient id="paint0_linear_2936_1844" x1="379.659" y1="170.879" x2="341.24" y2="-.841" gradientUnits="userSpaceOnUse"><stop stop-color="#2CE0D5"/><stop offset=".852" stop-color="#A4EFEE"/></linearGradient><linearGradient id="paint2_linear_2936_1844" x1="305.723" y1="78.422" x2="323.961" y2="-38.662" gradientUnits="userSpaceOnUse"><stop stop-color="#2CE0D5"/><stop offset=".852" stop-color="#A4EFEE"/></linearGradient><radialGradient id="paint1_radial_2936_1844" cx="0" cy="0" r="1" gradientUnits="userSpaceOnUse" gradientTransform="matrix(107.6556 4.36342 -2.86575 70.70475 361.745 264.048)"><stop stop-color="#11DCD0"/></radialGradient></defs></svg>