<svg width="770" height="415" fill="none" xmlns="http://www.w3.org/2000/svg"><ellipse opacity=".65" cx="393" cy="369" rx="393" ry="46" fill="#E2EDF6"/><path d="M316.013 341.108l71.937 46.64 122.53.396c-24.506-26.878-111.067-47.036-111.067-47.036h-83.4z" fill="#E2EDF6"/><path d="M288.085 325.387l43.204-14.169.619 62.788-43.203 14.152-.62-62.771z" fill="#62839A"/><path d="M239.353 313.24l43.203-14.169 48.733 12.147-43.204 14.168-48.732-12.146z" fill="#D9E7F2"/><path d="M288.085 325.386l-48.732-12.146.619 62.771 48.733 12.146-.62-62.771z" fill="url(#paint0_radial_307_1972)"/><path d="M245.55 74.693c-3.686 1.207-7.03 3.277-10.079 6.228-7.389 7.142-12.281 20.772-14.565 40.532l-1.256 10.941 43.204-14.169 1.256-10.94c2.283-19.76 7.176-33.39 14.564-40.532 3.05-2.935 6.393-5.022 10.079-6.228L245.55 74.693z" fill="#E2EDF6"/><path d="M371.981 49.308c-16.929-23.853-39.453-39.44-66.967-46.288-16.244-4.043-30.645-4.027-43.056.05l-43.204 14.168c12.411-4.076 26.813-4.093 43.057-.05 27.514 6.865 50.037 22.435 66.966 46.288 17.158 24.212 25.981 50.918 26.258 79.401.163 16.5-2.756 31.207-8.644 43.695-5.724 12.098-16.358 25.06-32.504 39.636-12.053 10.875-16.832 16.614-18.707 19.516-2.447 3.782-4.29 8.494-5.448 14.005-.864 4.109-1.924 12.995-2.006 31.973l-.049 11.608 43.204-14.168.049-11.609c.098-18.978 1.142-27.863 2.006-31.972 1.174-5.511 3.001-10.223 5.447-14.005 1.876-2.903 6.638-8.625 18.707-19.516 16.147-14.576 26.78-27.538 32.505-39.636 5.888-12.489 8.807-27.195 8.644-43.695-.277-28.483-9.117-55.19-26.258-79.401z" fill="#62839A"/><path d="M328.777 63.46c-16.93-23.853-39.453-39.44-66.967-46.288-26.062-6.489-47.379-2.51-63.378 11.854-16 14.38-25.573 38.428-28.444 71.493l-1.011 11.511 50.673 20.364 1.256-10.94c2.284-19.761 7.176-33.391 14.564-40.532 7.258-7.011 16.228-9.082 27.433-6.294 11.612 2.886 21.153 10.076 29.161 21.962 7.943 11.739 11.873 23.625 11.988 36.293.065 6.75-1.093 12.473-3.54 17.494-1.859 3.815-6.719 10.745-19.261 21.995-11.319 10.157-19 17.95-23.518 23.885-6.296 8.299-10.911 17.201-13.716 26.348-3.8 12.016-5.643 26.95-5.464 44.396.033 2.902.13 7.157.31 12.636l.359 11.592 48.471 12.081.049-11.608c.098-18.978 1.142-27.864 2.006-31.973 1.174-5.511 3.001-10.223 5.448-14.005 1.875-2.902 6.637-8.625 18.706-19.516 16.147-14.576 26.78-27.538 32.505-39.636 5.888-12.489 8.791-27.195 8.644-43.695-.277-28.483-9.117-55.19-26.258-79.4l-.016-.017z" fill="url(#paint1_radial_307_1972)"/><path d="M510.349 283.052v29.223L387.95 387.9V283.052a4 4 0 014-4h114.399a4 4 0 014 4z" fill="url(#paint2_radial_307_1972)"/><path d="M496.361 286.484v43.277h-94.422v-43.277h94.422z" fill="#fff" fill-opacity=".62" stroke="#ACD1EC"/><path d="M503.355 296.538v25.354H395.819v-25.354h107.536z" fill="#fff" fill-opacity=".74" stroke="#ACD1EC"/><path d="M387.95 387.9h121.962l9.343-73.932a5 5 0 00-4.96-5.627h-60.337l-10.491 8.889h-48.086l-7.431 70.67z" fill="#62839A"/><path d="M527.081 155.732c-46.397 29.249-50.593 83.399-46.397 105.663h-78.051c-2.557-47.943 6.19-78.428 13.777-87.286 7.863-5.028 37.271-17.879 53.985-18.365l56.686-.012z" fill="url(#paint3_radial_307_1972)" fill-opacity=".31" stroke="#ACD1EC" stroke-width="2"/><path d="M470.594 155.738c-8.75.494-17.583 12.165-19.281 21.435-11.988-7.103-31.362-6.885-35.354-2.562m51.661 71.452h-55.014m58.66-30.252h-57.077m60.731-13.845h-57.765m65.49-14.019h-63.266m75.832-14.459h-34.056m6.121 56.473h-55.013" stroke="#ACD1EC" stroke-width="2"/><mask id="a" fill="#fff"><path fill-rule="evenodd" clip-rule="evenodd" d="M488.504 69.805c-1.03-4.954-6.144-8.728-12.309-8.746-6.462-.019-11.794 4.095-12.485 9.396-4.501 1.593-7.666 5.342-7.679 9.722-.017 5.842 5.579 10.594 12.499 10.614l22.182.066v-.008c6.706-.186 12.08-4.824 12.097-10.534.017-5.842-5.579-10.594-12.499-10.614a14.935 14.935 0 00-1.806.104z"/></mask><path d="M488.504 69.805l-1.958.407.374 1.795 1.82-.216-.236-1.986zm-24.794.65l.667 1.885 1.157-.41.159-1.216-1.983-.26zm27.002 20.401l-.006 2 2 .006.006-2-2-.005zm0-.007l-.055-2-1.939.055-.006 1.94 2 .005zm-.249-21.452c-1.265-6.077-7.37-10.318-14.262-10.338l-.012 4c5.438.016 9.561 3.323 10.357 7.153l3.917-.815zM476.201 59.06c-7.209-.021-13.622 4.6-14.474 11.137l3.966.518c.53-4.066 4.781-7.672 10.496-7.655l.012-4zm-13.159 9.51c-5.101 1.806-8.995 6.187-9.011 11.602l4 .012c.01-3.345 2.447-6.463 6.346-7.843l-1.335-3.77zm-9.011 11.602c-.021 7.25 6.799 12.597 14.493 12.62l.012-4c-6.147-.018-10.518-4.175-10.505-8.608l-4-.012zm14.493 12.62l22.182.066.012-4-22.182-.066-.012 4zm24.188-1.929v-.007l-4-.012v.007c0 .002 0 .001 0 0l4 .012zm8.097-10.553c-.013 4.336-4.207 8.376-10.152 8.54l.111 4c7.466-.208 14.02-5.444 14.041-12.528l-4-.012zm-10.505-8.61c6.147.018 10.518 4.175 10.505 8.608l4 .012c.022-7.25-6.799-12.597-14.493-12.62l-.012 4zm-1.564.09c.51-.061 1.032-.092 1.564-.09l.012-4a16.927 16.927 0 00-2.048.118l.472 3.972z" fill="#ACD1EC" mask="url(#a)"/><mask id="b" fill="#fff"><path fill-rule="evenodd" clip-rule="evenodd" d="M202 256.832l.475.001v-.009c9.171-.255 16.522-6.597 16.545-14.407.023-7.99-7.63-14.489-17.094-14.517a20.476 20.476 0 00-2.47.142c-1.41-6.775-8.404-11.936-16.836-11.961-8.838-.026-16.129 5.6-17.076 12.85-6.155 2.178-10.484 7.306-10.502 13.297-.023 7.989 7.63 14.488 17.095 14.516l29.543.087.16.001h.16z"/></mask><path d="M202 256.832l.006-2h-.015l.009 2zm.475.001l-.006 2 2 .006.006-2-2-.006zm0-.009l-.055-1.999-1.944.054-.001 1.944 2 .001zm-3.019-28.782l-1.959.407.374 1.796 1.821-.217-.236-1.986zm-33.912.889l.668 1.885 1.157-.409.159-1.217-1.984-.259zm6.593 27.813l-.006 2 .006-2zm29.543.087l.022-2h-.016l-.006 2zm.315 2.001l.474.001.012-4-.475-.001-.011 4zm2.48-1.993v-.014l-4-.002v.005l4 .011zm12.545-14.428c-.019 6.435-6.189 12.18-14.6 12.414l.111 3.999c9.931-.277 18.462-7.217 18.489-16.401l-4-.012zm-15.1-12.511c8.691.026 15.119 5.93 15.1 12.511l4 .012c.028-9.398-8.851-16.492-19.089-16.523l-.011 4zm-2.228.128c.726-.086 1.47-.13 2.228-.128l.011-4a22.64 22.64 0 00-2.711.156l.472 3.972zm1.722-2.393c-1.643-7.899-9.629-13.527-18.788-13.554l-.012 4c7.705.023 13.708 4.717 14.883 10.368l3.917-.814zm-18.788-13.554c-9.585-.028-17.957 6.105-19.065 14.591l3.967.518c.785-6.015 6.996-11.133 15.086-11.109l.012-4zm-17.749 12.964c-6.756 2.392-11.814 8.151-11.835 15.177l4 .012c.015-4.956 3.616-9.452 9.17-11.418l-1.335-3.771zm-11.835 15.177c-.027 9.398 8.851 16.492 19.089 16.522l.012-4c-8.691-.026-15.12-5.93-15.101-12.51l-4-.012zm19.089 16.522l29.543.087.012-4-29.543-.087-.012 4zm29.715-3.912l-.144-.001-.043 4 .175.001.012-4zm.145 0h-.145l-.012 4h.176l-.019-4z" fill="#ACD1EC" mask="url(#b)"/><defs><radialGradient id="paint0_radial_307_1972" cx="0" cy="0" r="1" gradientUnits="userSpaceOnUse" gradientTransform="matrix(43.66533 39.23 -316.50021 352.2836 239.056 326.011)"><stop stop-color="#C2EEF1"/><stop offset="1" stop-color="#ABD0EB"/></radialGradient><radialGradient id="paint1_radial_307_1972" cx="0" cy="0" r="1" gradientUnits="userSpaceOnUse" gradientTransform="matrix(105.14151 138.05295 -1116.26453 850.1502 167.858 63.447)"><stop stop-color="#5484FF" stop-opacity=".43"/><stop offset="1" stop-color="#ABD0EB"/></radialGradient><radialGradient id="paint2_radial_307_1972" cx="0" cy="0" r="1" gradientUnits="userSpaceOnUse" gradientTransform="rotate(152.241 218.774 211.947) scale(122.379 818.522)"><stop stop-color="#C2EEF1"/><stop offset="1" stop-color="#ABD0EB"/></radialGradient><radialGradient id="paint3_radial_307_1972" cx="0" cy="0" r="1" gradientUnits="userSpaceOnUse" gradientTransform="rotate(-153.404 292.678 59.314) scale(123.586 802.891)"><stop stop-color="#C2EEF1"/><stop offset="1" stop-color="#ABD0EB"/></radialGradient></defs></svg>