<svg width="1904" height="413" fill="none" xmlns="http://www.w3.org/2000/svg"><g opacity=".46"><path opacity=".6" d="M1294.45 274.832l-46.37-60.79c-9.47 1.743-37.89 1.189-64.62-10.272 37.5 71.564 87.01 73.659 110.99 71.062z" fill="url(#paint0_radial_304_1620)"/><path d="M1105.51 141.08l63.19 21.152c8 31.451 23.58 72.91 67.61 100.875-58.08-19.499-113.41-90.382-130.8-122.027z" fill="url(#paint1_radial_304_1620)"/></g><path opacity=".27" d="M823.789 145.531l60.07-97.797C897.892 44.715 955.463 49.063 1023.67 1 975.527 111.395 877.3 135.037 823.789 145.53z" fill="url(#paint2_radial_304_1620)"/><path opacity=".52" d="M1752.79 168.531l60.07-97.797c14.03-3.019 71.6 1.329 139.81-46.734-48.14 110.395-146.37 134.037-199.88 144.531z" fill="url(#paint3_radial_304_1620)"/><path d="M1823 90l-29 47m58-55l-29 47m55-52l-23 37" stroke="#ACD1EC" stroke-width="2"/><path opacity=".56" d="M660.741 175.132c-53.435 46.536-132.025 64.804-164.64 68.122 19.867-45.002 10.636-79.528 3.537-91.166 40.48-8.401 50.811-2.678 151.997-43.512-5.2 19.973 1.086 30.501 9.106 66.556z" fill="url(#paint4_radial_304_1620)" fill-opacity=".45"/><path d="M175.141 185.939C100.13 170.5 32.935 114.919 8.714 89.059c51.698-12.41 75.326-42.965 80.677-56.692 33.744 29.29 35.595 41.919 136.991 102.137-20.575 8.616-25.506 20.918-51.241 51.435z" fill="url(#paint5_radial_304_1620)" fill-opacity=".57"/><path opacity=".5" d="M97 65c-4.454 7.628-20.49 23.333-49 35m62-24c-4.455 7.628-20.49 23.333-49 35m65-24c-6.5 7-21.491 22.833-50 34.5m66-21.5c-6.235 6.811-29.735 22.865-47 36m62-26c-5.704 6.243-27.204 20.959-43 33m57.5-22c-5.704 6.243-28 20.5-39.5 34m56.5-26c-5.704 6.243-28 20.5-39.5 34" stroke="#86D7E1" stroke-width="2"/><path opacity=".36" d="M1233.15 378.126l-51.37-10.634c-2.48 2.181-10.95 7.022-20.84 8.35 23.64 14.481 72.21 9.554 72.21 2.284z" fill="#C9E0F1"/><path opacity=".6" d="M871.195 376.155l31.798-15.163c4.119 1.565 18.222 12.296 43.815 11.302-30.83 20.398-60.078 10.091-75.613 3.861z" fill="#C9E0F1"/><path opacity=".49" d="M655.224 375.114c-32.258 8.167-91.673 11.913-117.348 12.766 5.383-7.599-10.347-13.199-18.885-15.049 30.844-1.764 40.594-.918 112.961-8.593.545 3.338 8.159 5.013 23.272 10.876z" fill="#C9E0F1"/><path opacity=".37" fill-rule="evenodd" clip-rule="evenodd" d="M1612.47 348.215a5.04 5.04 0 011.25-.159h271.4c2.35 0 2.77 3.349.5 3.936l-79.24 20.483c-.41.106-.83.159-1.25.159H1701.2l-40.99 15.12h-63.25l40.99-15.12h-104.22c-2.35 0-2.78-3.348-.5-3.936l79.24-20.483zm-1355.311 6.736c-2.836-1.413-1.831-5.685 1.337-5.685h59.601a3 3 0 012.943 2.415l7.74 38.946-71.621-35.676z" fill="#C9E0F1"/><path d="M1527.95 150.245l-48.97 188.224c-.5 1.9.94 3.755 2.9 3.755h261.81a3.01 3.01 0 002.92-2.288l45.99-188.224a3.002 3.002 0 00-2.92-3.712h-258.83c-1.36 0-2.56.923-2.9 2.245z" fill="#fff" fill-opacity=".48" stroke="#ACD1EC" stroke-width="2"/><path opacity=".64" d="M1517.55 285.978l31.61-122.159h98.46l-29.81 122.159h-100.26z" fill="url(#paint6_radial_304_1620)"/><path d="M1650.25 237.642l19.01-73.823h59.21l-17.92 73.823h-60.3z" stroke="#ACD1EC" stroke-width="2"/><path opacity=".85" d="M1668.71 285.978l19.01-73.822h59.21L1729 285.978h-60.29z" fill="url(#paint7_radial_304_1620)"/><path d="M1487.67 304.873l-9.67 37.351h268.05l8.98-37.351h-267.36z" fill="#6B8ADB"/><path d="M1614.66 384.848l-3.52-42.184h55.37l3.52 42.184h-55.37z" fill="#6B8ADB" stroke="#ACD1EC" stroke-width="2"/><path d="M1576.87 384.212c0-1.105.9-2 2-2h124.31c1.11 0 2 .895 2 2V391h-128.31v-6.788z" fill="url(#paint8_radial_304_1620)"/><path d="M1560.61 185.79h64.16m53.61-9.667h33.39m-155.55 25.486h64.15m54.49-14.061h34.28m-156.44 29.881h64.16m55.36-18.456h33.4m-157.31 34.275h64.15m-68.55 15.819h64.16m-67.67 15.819h64.15" stroke="#ACD1EC" stroke-width="2"/><path d="M230.694 389.557L205 273.489h55.819l19.492 19.492h75.311l19.492 96.576h-144.42z" fill="#6B8ADB" stroke="#ACD1EC" stroke-width="2"/><path d="M403.159 292.988h-48.476l20.743 97.37 27.733-97.37z" fill="#6B8ADB" stroke="#ACD1EC" stroke-width="2"/><path fill-rule="evenodd" clip-rule="evenodd" d="M246.643 225h130.243v164.315h-1.821l-19.443-96.334h-75.311l-19.493-19.492h-14.175V225z" fill="url(#paint9_radial_304_1620)" fill-opacity=".45"/><path d="M278.539 248.197h72.653m-38.098 11.519h37.212" stroke="#ACD1EC" stroke-width="2"/><defs><radialGradient id="paint0_radial_304_1620" cx="0" cy="0" r="1" gradientUnits="userSpaceOnUse" gradientTransform="rotate(-154.255 671.673 -18.02) scale(109.355 852.832)"><stop stop-color="#C2EEF1"/><stop offset="1" stop-color="#ABD0EB"/></radialGradient><radialGradient id="paint1_radial_304_1620" cx="0" cy="0" r="1" gradientUnits="userSpaceOnUse" gradientTransform="matrix(-50.302 124.03411 -826.4885 -335.18217 1203.22 130.814)"><stop stop-color="#C2EEF1"/><stop offset="1" stop-color="#ABD0EB"/></radialGradient><radialGradient id="paint2_radial_304_1620" cx="0" cy="0" r="1" gradientUnits="userSpaceOnUse" gradientTransform="matrix(197.67914 37.63065 -179.05533 940.60297 810.201 48.208)"><stop stop-color="#C2EEF1"/><stop offset="1" stop-color="#ABD0EB"/></radialGradient><radialGradient id="paint3_radial_304_1620" cx="0" cy="0" r="1" gradientUnits="userSpaceOnUse" gradientTransform="matrix(197.67914 37.63065 -179.05533 940.60297 1739.166 71.204)"><stop stop-color="#C2EEF1"/><stop offset="1" stop-color="#ABD0EB"/></radialGradient><radialGradient id="paint4_radial_304_1620" cx="0" cy="0" r="1" gradientUnits="userSpaceOnUse" gradientTransform="matrix(125.32749 -122.88753 839.60041 856.27084 499.935 245.511)"><stop stop-color="#C2EEF1"/><stop offset="1" stop-color="#ABD0EB"/></radialGradient><radialGradient id="paint5_radial_304_1620" cx="0" cy="0" r="1" gradientUnits="userSpaceOnUse" gradientTransform="matrix(187.74174 27.20787 -185.89124 1282.70014 9.286 93.839)"><stop stop-color="#C2EEF1"/><stop offset="1" stop-color="#ABD0EB"/></radialGradient><radialGradient id="paint6_radial_304_1620" cx="0" cy="0" r="1" gradientUnits="userSpaceOnUse" gradientTransform="matrix(115.08065 63.9676 -440.81982 793.05517 1516.77 184.644)"><stop stop-color="#C2D8F1"/><stop offset="1" stop-color="#ABD0EB"/></radialGradient><radialGradient id="paint7_radial_304_1620" cx="0" cy="0" r="1" gradientUnits="userSpaceOnUse" gradientTransform="matrix(56.43956 51.39747 -355.11279 389.94927 1681.011 212.006)"><stop stop-color="#C2E3F1"/><stop offset="1" stop-color="#ABD0EB"/></radialGradient><radialGradient id="paint8_radial_304_1620" cx="0" cy="0" r="1" gradientUnits="userSpaceOnUse" gradientTransform="matrix(113.52576 4.602 -3.02244 74.55986 1576.1 383.71)"><stop stop-color="#C2D8F1"/><stop offset="1" stop-color="#ABD0EB"/></radialGradient><radialGradient id="paint9_radial_304_1620" cx="0" cy="0" r="1" gradientUnits="userSpaceOnUse" gradientTransform="matrix(115.23542 86.04222 -669.38881 896.5052 245.86 253.012)"><stop stop-color="#C2EEF1"/><stop offset="1" stop-color="#ABD0EB"/></radialGradient></defs></svg>