<svg width="995" height="615" fill="none" xmlns="http://www.w3.org/2000/svg"><mask id="a" fill="#fff"><path fill-rule="evenodd" clip-rule="evenodd" d="M766.997 72.725c-1.601-11.538-13.203-20.513-27.306-20.555-13.636-.04-24.984 8.285-27.229 19.257-1.077-.251-2.096-.385-3.045-.388-15.222-.044-27.593 10.336-27.631 23.186-.038 12.85 12.272 23.303 27.494 23.348l48.797.143v-.015c14.75-.41 26.573-10.612 26.61-23.173.029-9.934-7.32-18.435-17.69-21.803z"/></mask><path d="M766.997 72.725l-1.981.275.172 1.24 1.191.387.618-1.902zm-54.535-1.298l-.454 1.948 2.002.467.412-2.014-1.96-.4zm45.615 46.289l-.006 2 2 .006.006-2-2-.006zm0-.015l-.056-2-1.939.054-.005 1.94 2 .006zm10.901-45.25c-1.769-12.756-14.435-22.237-29.281-22.28l-.012 4c13.359.038 23.899 8.508 25.331 18.829l3.962-.55zm-29.281-22.28c-14.366-.043-26.717 8.748-29.194 20.855l3.919.802c2.012-9.837 12.356-17.696 25.263-17.658l.012-4zm-26.78 19.309c-1.193-.279-2.365-.437-3.494-.44l-.011 4c.767.002 1.634.11 2.596.335l.909-3.895zm-3.494-.44c-15.996-.048-29.595 10.92-29.637 25.179l4 .012c.034-11.441 11.177-21.234 25.626-21.192l.011-4zm-29.637 25.179c-.042 14.259 13.493 25.307 29.489 25.354l.011-4c-14.449-.043-25.533-9.901-25.5-21.342l-4-.012zm29.489 25.354l48.796.143.011-4-48.796-.143-.011 4zm50.802-1.851v-.016l-4-.011v.016l4 .011zm22.61-23.2c-.033 11.187-10.675 20.791-24.666 21.179l.111 3.999c15.511-.431 28.514-11.23 28.555-25.166l-4-.012zm-16.308-19.895c9.752 3.167 16.334 11.03 16.308 19.895l4 .012c.032-11.003-8.085-20.143-19.073-23.711l-1.235 3.804z" fill="#ACD1EC" mask="url(#a)"/><mask id="b" fill="#fff"><path fill-rule="evenodd" clip-rule="evenodd" d="M161.445 444.47c-1.576-7.579-9.4-13.352-18.832-13.379-9.885-.03-18.042 6.264-19.1 14.374-6.885 2.437-11.728 8.172-11.747 14.873-.027 8.937 8.534 16.207 19.121 16.238l33.936.1v-.012c10.258-.285 18.48-7.38 18.506-16.115.026-8.937-8.534-16.207-19.121-16.238a22.637 22.637 0 00-2.763.159z"/></mask><path d="M161.445 444.47l-1.958.407.373 1.795 1.821-.216-.236-1.986zm-37.932.995l.667 1.885 1.157-.41.159-1.217-1.983-.258zm7.374 31.111l-.006 2 .006-2zm33.936.1l-.006 2 2 .006.006-2-2-.006zm0-.012l-.056-1.999-1.942.054-.002 1.944 2 .001zm-1.42-32.602c-1.81-8.702-10.625-14.941-20.784-14.971l-.011 4c8.704.025 15.536 5.331 16.879 11.786l3.916-.815zm-20.784-14.971c-10.633-.032-19.87 6.769-21.089 16.115l3.966.517c.897-6.874 7.973-12.659 17.112-12.632l.011-4zm-19.773 14.488c-7.487 2.65-13.058 9.017-13.08 16.753l4 .012c.016-5.666 4.13-10.77 10.414-12.994l-1.334-3.771zm-13.08 16.753c-.031 10.346 9.755 18.21 21.115 18.244l.012-4c-9.813-.029-17.15-6.704-17.127-14.232l-4-.012zm21.115 18.244l33.936.1.012-4-33.936-.1-.012 4zm35.942-1.894v-.016l-4-.003v.007l4 .012zm14.506-16.139c-.022 7.361-7.063 13.858-16.562 14.122l.111 3.999c11.019-.307 20.421-7.999 20.451-18.11l-4-.011zm-17.127-14.232c9.813.029 17.149 6.704 17.127 14.232l4 .011c.031-10.345-9.755-18.21-21.115-18.243l-.012 4zm-2.521.145a20.685 20.685 0 012.521-.145l.012-4a24.802 24.802 0 00-3.005.173l.472 3.972z" fill="#ACD1EC" mask="url(#b)"/><ellipse opacity=".65" cx="497.311" cy="555.406" rx="497.311" ry="59.594" fill="#E2EDF6"/><path d="M635.57 232.004l70.342 270.36a3 3 0 01-2.903 3.755H327.843a3 3 0 01-2.914-2.288l-66.061-270.359a3 3 0 012.914-3.712h370.884a3 3 0 012.904 2.244z" fill="#fff" fill-opacity=".48" stroke="#ACD1EC" stroke-width="2"/><path opacity=".18" fill-rule="evenodd" clip-rule="evenodd" d="M519.179 514.417c.422 0 .843.054 1.251.16l119.453 30.876c2.275.588 1.849 3.937-.5 3.937H484.434l58.327 21.513H452.76l-58.328-21.513H246.294c-.423 0-.843-.054-1.252-.159l-119.453-30.877c-2.274-.588-1.848-3.937.501-3.937h393.089z" fill="#ACD1EC"/><path d="M693.134 452.973l13.755 53.146H325.488l-12.778-53.146h380.424z" fill="url(#paint0_radial_62_1346)"/><path d="M512.437 566.768l5.002-60.024h-78.781l-5.002 60.024h78.781z" fill="#FAFAFA" stroke="#ACD1EC" stroke-width="2"/><path d="M566.209 565.017a2 2 0 00-2-2H385.636a2 2 0 00-2 2v10.505h182.573v-10.505z" fill="url(#paint1_radial_62_1346)"/><path d="M456.199 357.31l-27.051-105.041h-84.243l25.504 105.041h85.79z" stroke="#ACD1EC" stroke-width="2"/><path d="M444.395 426.087l-27.051-105.041H333.1l25.505 105.041h85.79z" fill="#C7DDF3"/><path d="M416.184 269.776h-47.519m52.52 16.256h-48.769m52.521 16.257h-47.519" stroke="#ACD1EC" stroke-width="2"/><path opacity=".3" d="M601.817 414.296L573.459 304.72a8.999 8.999 0 00-8.713-6.745h-84.393c-5.834 0-10.126 5.465-8.743 11.133l26.737 109.576a8.999 8.999 0 008.743 6.867h86.014c5.886 0 10.187-5.557 8.713-11.255z" fill="url(#paint2_radial_62_1346)"/><ellipse cx="534.315" cy="340.33" rx="17.244" ry="18.73" transform="rotate(-8.37 534.315 340.33)" fill="#BAE3EF"/><path d="M581.786 401.307h-69.733c-2.365-21.436 10.228-35.165 29.251-35.165 21.876 0 38.117 13.729 40.482 35.165z" fill="#BAE3EF"/><path d="M518.393 319.289l-10.488-40.727h-32.664l9.889 40.727h33.263zm-15.516-33.939h-18.424m4.499 6.303h-3.044m18.308 0h-13.883m18.227 12.606h-18.909m6.208-6.303h-8.012m15.03 0h-4.045m2.582 12.606h-9.825" stroke="#ACD1EC" stroke-width="2"/><path d="M705.082 333.008l-31.729-122.606h-98.815l29.916 122.606h100.628z" fill="url(#paint3_linear_62_1346)"/><g opacity=".37" filter="url(#filter0_f_62_1346)"><path d="M674.606 344.642l-30.118-115.641h-78.846l28.489 115.641h80.475z" fill="url(#paint4_radial_62_1346)"/></g><path d="M661.861 232.454h-64.39m68.8 15.877h-64.39m67.918 15.877h-64.39m68.8 15.877h-64.39m68.801 15.877h-64.39m67.918 15.877h-64.39" stroke="#ACD1EC" stroke-width="2"/><g opacity=".26" filter="url(#filter1_f_62_1346)"><path fill-rule="evenodd" clip-rule="evenodd" d="M358.479 322.777c-3.59-25.884-29.619-46.018-61.256-46.111-30.59-.09-56.047 18.586-61.082 43.2-2.417-.564-4.703-.864-6.83-.87-34.149-.101-61.901 23.186-61.986 52.012-.084 28.826 27.53 52.276 61.679 52.377l109.465.322v-.035c33.091-.92 59.613-23.805 59.696-51.985.066-22.284-16.422-41.355-39.686-48.91z" fill="url(#paint5_radial_62_1346)"/></g><path opacity=".7" fill-rule="evenodd" clip-rule="evenodd" d="M355.307 316.867c-3.59-25.883-29.619-46.018-61.256-46.111-30.589-.09-56.046 18.586-61.081 43.2-2.417-.564-4.703-.864-6.831-.87-34.148-.101-61.9 23.186-61.985 52.012-.085 28.827 27.529 52.277 61.678 52.377l109.466.323v-.036c33.091-.919 59.613-23.805 59.696-51.984.065-22.285-16.423-41.356-39.687-48.911z" fill="url(#paint6_radial_62_1346)"/><mask id="c" fill="#fff"><path fill-rule="evenodd" clip-rule="evenodd" d="M360.588 310.088c-3.59-25.884-29.619-46.018-61.256-46.111-30.59-.09-56.047 18.586-61.082 43.2-2.417-.564-4.704-.864-6.831-.87-34.149-.101-61.901 23.186-61.986 52.012-.085 28.826 27.529 52.276 61.678 52.377l109.466.322v-.035c33.091-.919 59.614-23.805 59.697-51.984.065-22.285-16.423-41.356-39.686-48.911z"/></mask><path d="M360.588 310.088l-1.981.275.172 1.24 1.191.387.618-1.902zm-122.338-2.911l-.455 1.948 2.002.467.412-2.014-1.959-.401zm102.327 103.841l-.006 2 2 .006.006-2-2-.006zm0-.035l-.056-1.999-1.943.054-.001 1.944 2 .001zm21.992-101.17c-3.759-27.101-30.85-47.741-63.231-47.836l-.012 4c30.893.091 55.859 19.72 59.281 44.386l3.962-.55zm-63.231-47.836c-31.32-.092-57.78 19.05-63.047 44.799l3.918.802c4.803-23.479 29.257-41.689 59.117-41.601l.012-4zm-60.634 43.252c-2.532-.591-4.971-.916-7.279-.922l-.012 4c1.947.005 4.08.28 6.382.818l.909-3.896zm-7.279-.922c-34.923-.103-63.903 23.771-63.992 54.006l4 .012c.081-27.417 26.604-50.117 59.98-50.018l.012-4zm-63.992 54.006c-.089 30.235 28.75 54.28 63.672 54.383l.012-4c-33.375-.098-59.765-22.953-59.684-50.371l-4-.012zm63.672 54.383l109.466.322.012-4-109.466-.322-.012 4zm111.472-1.672v-.04l-4-.002v.03l4 .012zm55.697-52.031c-.079 26.805-25.421 49.093-57.753 49.991l.111 3.998c33.852-.94 61.555-24.423 61.642-53.977l-4-.012zM359.97 311.99c22.646 7.354 38.366 25.788 38.304 47.003l4 .012c.068-23.354-17.187-43.064-41.069-50.819l-1.235 3.804z" fill="#ACD1EC" mask="url(#c)"/><path d="M617.7 429.555l15.505 145.966h163.802l-13.705-122.603H682.501l-16.2-23.363H617.7z" fill="url(#paint7_radial_62_1346)"/><path d="M646.341 418.902v111.969l127.899 8.772V418.902H646.341z" fill="#fff" fill-opacity=".77"/><path d="M664.833 434.983h91.584m-91.584 11.919h65.325m-65.325 11.92h65.325" stroke="#6B8ADB" stroke-width="2" stroke-linecap="round"/><path d="M639.4 471.453l-6.196 104.068h163.612l7.994-104.068H639.4z" fill="#6B8ADB"/><path d="M45.718 88.86c63.206-12.028 76.589-55.509 75.38-75.746L200.2 32.446c-4.961 43.038-18.441 63.628-35.572 72.071-9.76 3.597-35.615 3.436-49.263 1.363L45.718 88.86z" fill="url(#paint8_radial_62_1346)" fill-opacity=".38" stroke="#ACD1EC" stroke-width="2"/><path d="M115.84 105.84s14.137-5.001 17.763-12.376c10.689 8.942 30.322 11.31 35.257 8.663m-37.672-72.883l55.755 13.625m-65.668 10.913l57.846 14.137m-64.394-3.399l58.542 14.306m-69.252-4.43l64.118 15.67m-79.826-6.623l34.515 8.435m5.402-49.008l55.755 13.625" stroke="#ACD1EC" stroke-width="2"/><path d="M591.861 195.92L565.627 81H222.709l24.21 114.92h344.942z" fill="#5484FF"/><path d="M266.894 126.735l-6.494-24.514h3.554l3.031 11.443 7.241-11.443h4.426l-7.673 11.966 14.964 12.548h-4.559l-14.034-11.709 3.106 11.709h-3.562zm26.764.514c-1.362 0-2.566-.249-3.621-.755-1.054-.507-1.926-1.171-2.615-2.01-.69-.839-1.171-1.752-1.437-2.749-.249-.93-.299-1.744-.158-2.449a3.325 3.325 0 01.988-1.794c.515-.49 1.205-.897 2.068-1.204a21.763 21.763 0 012.608-.631 97.102 97.102 0 013.122-.515c1.096-.158 2.192-.316 3.272-.474l-1.105.715c-.357-1.437-.946-2.508-1.76-3.206-.814-.697-1.985-1.046-3.521-1.046-.963 0-1.794.224-2.475.673-.681.448-1.054 1.187-1.096 2.225l-3.587-1.021c.033-1.578.573-2.832 1.603-3.762 1.029-.93 2.607-1.395 4.725-1.395 1.644 0 3.155.282 4.525.839a7.823 7.823 0 013.388 2.665 7.055 7.055 0 011.047 1.91c.24.673.473 1.387.672 2.159l2.998 11.319h-3.147l-1.113-4.202.756.548c-.391 1.403-1.08 2.458-2.068 3.139-.996.689-2.35 1.03-4.061 1.03l-.008-.009zm-.141-2.915c1.013 0 1.827-.182 2.466-.539.631-.357 1.096-.814 1.387-1.37a3.323 3.323 0 00.407-1.736c.05-.548 0-1.154-.158-1.835a39.26 39.26 0 00-.39-1.636l1.27.423c-1.079.175-2.059.324-2.939.457-.881.133-1.678.274-2.392.399-.706.133-1.329.29-1.86.465-.44.166-.822.373-1.138.614a2.012 2.012 0 00-.672.872c-.133.341-.133.756 0 1.246.124.473.365.913.706 1.32.348.407.797.723 1.345.963.548.241 1.204.357 1.968.357zm14.183 2.4l-4.858-18.385h3.612l2.342 8.852 4.874-8.852h4.526l-5.19 9.193 10.845 9.192h-4.833l-10.039-8.852 2.341 8.852h-3.629.009zm28.475-18.385l4.875 18.385h-3.422l-3.388-12.788-5.804 12.788h-2.89l-4.875-18.385h3.422l3.321 12.531 5.888-12.531h2.873zm17.929 18.9c-1.827 0-3.538-.399-5.124-1.204-1.594-.797-2.956-1.918-4.102-3.355-1.146-1.437-1.968-3.097-2.475-4.999-.531-2.01-.614-3.754-.249-5.223.365-1.478 1.113-2.616 2.25-3.422 1.138-.805 2.6-1.212 4.393-1.212 1.794 0 3.579.432 5.132 1.304 1.545.872 2.857 2.101 3.936 3.703 1.08 1.603 1.836 3.505 2.284 5.705h-3.554l-.341-1.295c-.589-2.134-1.411-3.712-2.474-4.734-1.063-1.021-2.392-1.536-4.011-1.536-1.786 0-2.973.565-3.571 1.686-.598 1.121-.614 2.749-.058 4.866.531 2.018 1.395 3.579 2.591 4.692 1.196 1.113 2.632 1.661 4.318 1.661 1.113 0 2.01-.249 2.682-.756.681-.506 1.121-1.229 1.321-2.167l3.786 1.104c-.282 1.644-1.021 2.923-2.242 3.82-1.212.905-2.715 1.354-4.492 1.354v.008zm-8.861-8.703l-.739-2.773h13.129l.739 2.773h-13.129zm27.669 8.188l-4.875-18.385h15.504l4.874 18.385h-3.554l-3.986-15.03h-8.395l3.986 15.03h-3.554zm22.429 8.18l-7.033-26.557h3.163l3.505 13.229h.407l3.529 13.328h-3.571zm6.619-7.665c-1.761 0-3.347-.432-4.767-1.287-1.42-.855-2.632-2.018-3.629-3.48-1.005-1.461-1.744-3.114-2.234-4.957-.49-1.835-.622-3.488-.398-4.958.216-1.461.814-2.615 1.768-3.462.964-.848 2.309-1.271 4.045-1.271 1.735 0 3.33.423 4.808 1.271 1.478.847 2.748 2.001 3.82 3.454 1.071 1.462 1.843 3.114 2.333 4.966.49 1.835.59 3.496.299 4.966-.291 1.47-.938 2.632-1.952 3.479-1.013.855-2.383 1.279-4.093 1.279zm-1.346-3.214c1.138 0 1.993-.29 2.591-.863.59-.582.939-1.362 1.046-2.342.108-.98 0-2.076-.323-3.297a11.283 11.283 0 00-1.42-3.272 7.456 7.456 0 00-2.309-2.333c-.913-.581-1.96-.872-3.139-.872-1.113 0-1.96.274-2.533.814-.581.548-.905 1.304-.996 2.283-.091.972.033 2.101.374 3.372.34 1.27.805 2.391 1.403 3.371s1.345 1.744 2.225 2.301c.889.556 1.91.83 3.081.83v.008zm21.391 3.214c-1.835 0-3.546-.415-5.115-1.246a12.26 12.26 0 01-4.036-3.429c-1.121-1.462-1.926-3.139-2.433-5.049-.506-1.918-.581-3.604-.216-5.066.366-1.461 1.113-2.591 2.251-3.404 1.137-.814 2.607-1.221 4.409-1.221 1.802 0 3.546.415 5.115 1.246a12.33 12.33 0 014.036 3.421c1.121 1.453 1.935 3.131 2.442 5.024.506 1.918.581 3.604.224 5.065-.357 1.462-1.105 2.6-2.234 3.422-1.129.822-2.616 1.237-4.443 1.237zm-.888-3.355c1.76 0 2.914-.589 3.471-1.777.556-1.187.581-2.715.083-4.584-.507-1.918-1.354-3.454-2.541-4.6-1.188-1.155-2.649-1.728-4.385-1.728-1.196 0-2.101.266-2.732.806-.631.54-1.005 1.287-1.129 2.234-.125.946-.017 2.043.307 3.296.515 1.927 1.362 3.472 2.558 4.634 1.196 1.154 2.64 1.736 4.359 1.736l.009-.017zm21.226 3.372c-1.752-.009-3.338-.391-4.767-1.138-1.42-.747-2.665-1.827-3.728-3.247-1.063-1.412-1.91-3.114-2.558-5.115a29.115 29.115 0 01-.83-3.206 33.442 33.442 0 01-.524-3.413c-.108-1.104-.108-2.018 0-2.757a6.207 6.207 0 01.748-2.258 6.036 6.036 0 011.411-1.728 6.409 6.409 0 012.11-1.162 17.126 17.126 0 012.607-.656c.93-.158 1.869-.299 2.832-.415a34.406 34.406 0 002.782-.449l1.187 3.181c-.589.149-1.287.265-2.109.357-.822.091-1.669.191-2.541.307-.872.116-1.686.274-2.45.473-.764.208-1.395.49-1.901.864-.715.523-1.163 1.287-1.346 2.284-.182.996-.166 2.084.05 3.255.424-1.063 1.113-1.835 2.076-2.309.963-.473 2.035-.706 3.197-.706 1.636 0 3.148.391 4.534 1.155a11.094 11.094 0 013.563 3.147c.988 1.329 1.702 2.832 2.151 4.509.481 1.819.531 3.405.141 4.758-.382 1.354-1.146 2.408-2.284 3.164-1.138.756-2.599 1.121-4.376 1.096l.025.009zm-.698-3.355c1.636 0 2.732-.507 3.305-1.512.565-1.013.623-2.358.183-4.035-.457-1.728-1.246-3.081-2.375-4.069-1.121-.989-2.475-1.479-4.052-1.479-1.578 0-2.691.49-3.281 1.479-.581.988-.647 2.341-.191 4.069.465 1.743 1.246 3.105 2.359 4.085s2.458 1.462 4.052 1.462zm11.501 2.823l-.797-3.014c.714.125 1.229.108 1.545-.058.315-.166.498-.465.556-.914.058-.44.058-1.013 0-1.719a47.38 47.38 0 00-.432-3.529c-.207-1.32-.456-2.757-.755-4.301a282.005 282.005 0 00-.98-4.85h13.212l4.874 18.385h-3.571l-3.986-15.03h-6.435c.166.897.348 1.852.523 2.848.182 1.005.349 2.002.515 2.99.157.988.299 1.91.415 2.773.116.864.191 1.603.232 2.218.1 1.229.025 2.2-.224 2.923-.249.722-.739 1.187-1.478 1.395-.739.207-1.802.174-3.197-.108l-.017-.009zm30.269.515c-1.827 0-3.538-.399-5.124-1.204-1.594-.797-2.956-1.918-4.102-3.355-1.146-1.437-1.968-3.097-2.475-4.999-.531-2.01-.614-3.754-.249-5.223.365-1.478 1.113-2.616 2.25-3.422 1.138-.805 2.6-1.212 4.393-1.212 1.794 0 3.579.432 5.132 1.304 1.545.872 2.857 2.101 3.936 3.703 1.08 1.603 1.836 3.505 2.284 5.705h-3.554l-.341-1.295c-.589-2.134-1.411-3.712-2.474-4.734-1.063-1.021-2.392-1.536-4.011-1.536-1.786 0-2.973.565-3.571 1.686-.598 1.121-.614 2.749-.058 4.866.531 2.018 1.395 3.579 2.591 4.692 1.196 1.113 2.632 1.661 4.318 1.661 1.113 0 2.01-.249 2.682-.756.681-.506 1.121-1.229 1.321-2.167l3.778 1.104c-.282 1.644-1.021 2.923-2.242 3.82-1.213.905-2.716 1.354-4.493 1.354l.009.008zm-8.861-8.703l-.731-2.773h13.129l.739 2.773h-13.137zm20.345 8.188l-4.874-18.385h2.981l10.364 13.486 3.205-13.486h2.998l4.874 18.385h-3.438l-2.939-11.102-2.591 11.102h-1.619l-8.471-11.102 2.94 11.102h-3.43zm24.298 0l-4.874-18.385h3.571l1.694 6.386h2.416c.523 0 1.088.008 1.694.033a9.778 9.778 0 014.418 1.196 6.916 6.916 0 012.176 1.902c.597.789 1.054 1.752 1.353 2.906.424 1.603.349 2.873-.232 3.82-.582.947-1.528 1.586-2.865 1.918-.424.1-.947.166-1.561.199-.615.025-1.18.042-1.703.042h-6.112l.025-.017zm2.815-2.856h2.741c.299 0 .623-.009.98-.033.357-.025.681-.075.963-.15.49-.158.888-.482 1.187-.971.299-.49.349-1.138.125-1.96-.224-.839-.615-1.512-1.171-2.01a4.05 4.05 0 00-1.868-.971 4.777 4.777 0 00-.972-.15c-.332-.017-.639-.033-.922-.033h-2.74l1.661 6.278h.016zm13.254 2.856l-4.875-18.385h3.554l4.875 18.385h-3.554zm-255.401 49.028l-7.034-26.556h3.164l3.504 13.228h.407l3.529 13.328h-3.57zm6.618-7.665c-1.76 0-3.347-.431-4.767-1.287-1.42-.855-2.632-2.018-3.628-3.479-1.005-1.462-1.744-3.114-2.234-4.958-.49-1.835-.623-3.487-.399-4.949.216-1.462.814-2.616 1.769-3.463.963-.847 2.308-1.27 4.044-1.27 1.736 0 3.322.423 4.808 1.27 1.478.847 2.749 2.001 3.82 3.455 1.071 1.453 1.843 3.114 2.333 4.957.49 1.835.59 3.496.299 4.966-.282 1.47-.938 2.633-1.951 3.48-1.013.855-2.383 1.278-4.094 1.278zm-1.345-3.213c1.137 0 2.001-.291 2.591-.864.589-.581.938-1.362 1.046-2.342.108-.98 0-2.076-.316-3.296a11.244 11.244 0 00-1.42-3.272c-.631-.972-1.395-1.752-2.308-2.334-.914-.581-1.96-.872-3.139-.872-1.113 0-1.96.274-2.533.814-.573.548-.905 1.304-.996 2.284-.092.971.033 2.101.373 3.371.341 1.271.806 2.392 1.404 3.372.598.98 1.337 1.744 2.225 2.3.889.556 1.91.83 3.081.83l-.008.009zm21.573 3.222c-1.826 0-3.537-.399-5.123-1.204-1.595-.798-2.956-1.919-4.102-3.355-1.146-1.437-1.968-3.098-2.475-4.999-.531-2.01-.615-3.754-.249-5.224.365-1.478 1.113-2.615 2.25-3.421 1.138-.805 2.599-1.212 4.393-1.212 1.794 0 3.579.431 5.132 1.303 1.545.872 2.857 2.101 3.936 3.704 1.08 1.603 1.835 3.504 2.284 5.705h-3.554l-.341-1.295c-.589-2.135-1.411-3.712-2.474-4.734-1.063-1.021-2.392-1.528-4.011-1.528-1.786 0-2.973.565-3.571 1.686-.598 1.121-.615 2.749-.058 4.866.531 2.018 1.395 3.579 2.591 4.692 1.196 1.113 2.632 1.661 4.318 1.661 1.113 0 2.009-.249 2.682-.756.681-.506 1.121-1.229 1.32-2.167l3.787 1.104c-.282 1.644-1.021 2.923-2.242 3.82-1.212.905-2.715 1.354-4.493 1.354zm-8.86-8.703l-.739-2.774h13.129l.739 2.774h-13.129zm20.86 8.188l-4.875-18.385h3.422l4.019 15.188h5.771l-4.019-15.188h3.421l4.028 15.188h5.755l-4.02-15.188h3.422l4.874 18.385h-21.798zm31.888.514c-1.362 0-2.566-.249-3.621-.756-1.054-.506-1.926-1.17-2.615-2.009a7.17 7.17 0 01-1.437-2.749c-.249-.93-.299-1.744-.158-2.449a3.325 3.325 0 01.988-1.794c.515-.49 1.204-.897 2.068-1.204a21.347 21.347 0 012.608-.631 97.102 97.102 0 013.122-.515c1.096-.158 2.192-.316 3.272-.474l-1.105.715c-.357-1.445-.946-2.508-1.76-3.206-.814-.697-1.985-1.046-3.521-1.046-.963 0-1.794.224-2.475.673-.681.448-1.054 1.187-1.096 2.225l-3.587-1.021c.033-1.578.573-2.832 1.602-3.762 1.03-.93 2.608-1.395 4.725-1.395 1.645 0 3.156.282 4.518.838a7.838 7.838 0 013.388 2.666 7.172 7.172 0 011.046 1.91c.249.673.474 1.387.673 2.159l2.998 11.319h-3.148l-1.112-4.202.755.548c-.39 1.403-1.079 2.458-2.067 3.139-.997.689-2.35 1.029-4.061 1.029v-.008zm-.141-2.906c1.013 0 1.827-.183 2.466-.54.631-.357 1.096-.814 1.387-1.37a3.323 3.323 0 00.407-1.736c.05-.548 0-1.154-.158-1.835a39.26 39.26 0 00-.39-1.636l1.27.424c-1.079.174-2.059.323-2.939.456-.881.133-1.678.266-2.392.399s-1.329.282-1.86.465c-.44.174-.822.374-1.138.614a1.96 1.96 0 00-.672.872c-.133.341-.133.756 0 1.246.124.473.365.913.705 1.32.349.407.798.723 1.346.964.548.24 1.204.357 1.968.357zm22.487 2.907c-1.827 0-3.537-.399-5.123-1.204-1.595-.798-2.957-1.919-4.103-3.355-1.145-1.437-1.968-3.098-2.474-4.999-.532-2.01-.615-3.754-.249-5.224.365-1.478 1.112-2.615 2.25-3.421 1.138-.805 2.599-1.212 4.393-1.212 1.794 0 3.579.431 5.132 1.303 1.545.872 2.857 2.101 3.936 3.704 1.08 1.603 1.835 3.504 2.284 5.705h-3.554l-.341-1.295c-.589-2.135-1.412-3.712-2.475-4.734-1.062-1.021-2.391-1.528-4.01-1.528-1.786 0-2.973.565-3.571 1.686-.598 1.121-.615 2.749-.058 4.866.531 2.018 1.395 3.579 2.591 4.692 1.195 1.113 2.632 1.661 4.318 1.661 1.112 0 2.009-.249 2.682-.756.681-.506 1.121-1.229 1.32-2.167l3.779 1.104c-.283 1.644-1.022 2.923-2.242 3.82-1.213.905-2.716 1.354-4.493 1.354h.008zm-8.86-8.703l-.731-2.774h13.129l.739 2.774h-13.137zm25.635 8.188l-4.019-15.188h-6.278l-.847-3.197h16.118l.847 3.197h-6.278l4.019 15.188h-3.562zm19.88 0l-6.494-24.514h3.562l3.031 11.443 7.233-11.443h4.426l-7.673 11.966 14.973 12.548h-4.559l-14.034-11.709 3.106 11.709H409.6zm31.082.515c-1.802 0-3.504-.291-5.091-.881a13.222 13.222 0 01-4.334-2.615c-1.304-1.155-2.417-2.591-3.339-4.294l3.256-.888c.913 1.603 2.109 2.89 3.604 3.853 1.486.972 3.089 1.445 4.808 1.42 1.187-.025 2.25-.249 3.189-.689.938-.44 1.627-1.113 2.067-2.035a5.67 5.67 0 00.623-2.383 12.268 12.268 0 00-.191-2.608h-8.786l-.888-3.354h8.802c-.565-1.528-1.32-2.874-2.267-4.036a10.59 10.59 0 00-3.322-2.716c-1.27-.656-2.665-.971-4.193-.946-1.81.025-3.205.531-4.177 1.528-.972.996-1.453 2.333-1.437 4.027l-3.728-.506c-.1-2.683.606-4.75 2.117-6.22 1.512-1.47 3.687-2.201 6.527-2.201 2.384 0 4.559.54 6.536 1.611 1.976 1.071 3.67 2.566 5.074 4.476 1.411 1.91 2.458 4.136 3.155 6.685.656 2.383.789 4.542.415 6.469-.382 1.926-1.27 3.463-2.682 4.6-1.412 1.138-3.322 1.703-5.738 1.703zm13.818 3.57l-1.968-7.44c.839 0 1.478-.216 1.91-.64.432-.423.714-1.013.838-1.752.125-.739.15-1.594.075-2.549a30.245 30.245 0 00-.398-3.015 169.968 169.968 0 00-.764-4.193 269.488 269.488 0 00-.856-4.244c-.299-1.461-.631-3.056-.988-4.783l15.703.017 5.605 21.159h1.819l1.968 7.44h-3.571l-1.079-4.086h-15.811l1.079 4.086H454.5zm3.87-7.44h11.725l-4.717-17.804-8.86-.017c.249 1.246.498 2.433.739 3.554s.473 2.259.689 3.396c.216 1.138.44 2.367.656 3.671.208 1.245.357 2.308.449 3.172.091.864.091 1.619 0 2.259a4.446 4.446 0 01-.681 1.769zm32.103 3.87c-2.45 0-4.683-.54-6.693-1.611-2.01-1.072-3.729-2.566-5.149-4.485-1.42-1.918-2.466-4.143-3.139-6.676-.672-2.533-.805-4.758-.398-6.677.407-1.918 1.328-3.413 2.765-4.484 1.445-1.071 3.388-1.611 5.838-1.611s4.667.54 6.685 1.611 3.728 2.566 5.148 4.484c1.42 1.919 2.458 4.144 3.131 6.677.673 2.533.805 4.758.407 6.676-.399 1.919-1.321 3.413-2.766 4.485-1.444 1.071-3.388 1.611-5.829 1.611zm-.897-3.388c1.744.025 3.081-.357 4.028-1.146.946-.789 1.519-1.894 1.719-3.305.207-1.412.058-3.056-.441-4.925-.498-1.868-1.22-3.512-2.167-4.907-.947-1.404-2.109-2.492-3.463-3.281-1.362-.78-2.906-1.179-4.65-1.195-1.744-.025-3.081.357-4.027 1.137-.947.781-1.52 1.885-1.719 3.305-.208 1.42-.067 3.065.423 4.941.49 1.877 1.204 3.513 2.151 4.908.947 1.403 2.109 2.491 3.479 3.28 1.37.781 2.923 1.179 4.667 1.188z" fill="#fff"/><path d="M564.927 198.282l-10.851-42.135a1 1 0 00-.968-.75h-33.349a1 1 0 00-.972 1.236l10.231 42.134a1 1 0 00.972.764h33.968a1 1 0 00.969-1.249z" fill="#FAFAFA" stroke="#ACD1EC" stroke-width="2"/><path d="M548.435 162.752H528.47m4.874 6.831h-3.298m19.839 0h-15.044m5.989 6.83h-8.683m16.288 0h-4.383m2.798 13.661h-10.647" stroke="#ACD1EC" stroke-width="2"/><defs><radialGradient id="paint0_radial_62_1346" cx="0" cy="0" r="1" gradientUnits="userSpaceOnUse" gradientTransform="matrix(-222.72547 25.37242 -47.8671 -420.18933 709.259 462.033)"><stop stop-color="#5484FF" stop-opacity=".43"/><stop offset="1" stop-color="#ABD0EB"/></radialGradient><radialGradient id="paint1_radial_62_1346" cx="0" cy="0" r="1" gradientUnits="userSpaceOnUse" gradientTransform="rotate(176.219 259.465 290.366) scale(132.028 120.57)"><stop stop-color="#C2EEF1"/><stop offset="1" stop-color="#ABD0EB"/></radialGradient><radialGradient id="paint2_radial_62_1346" cx="0" cy="0" r="1" gradientUnits="userSpaceOnUse" gradientTransform="matrix(-98.01784 88.82105 -613.38801 -676.89995 583.379 297.706)"><stop stop-color="#C2EEF1"/><stop offset="1" stop-color="#ABD0EB"/></radialGradient><radialGradient id="paint4_radial_62_1346" cx="0" cy="0" r="1" gradientUnits="userSpaceOnUse" gradientTransform="matrix(84.21131 83.88887 -126.28534 126.77074 598.88 264.848)"><stop stop-color="#92A9E3"/><stop offset="1" stop-color="#BAD5ED"/></radialGradient><radialGradient id="paint5_radial_62_1346" cx="0" cy="0" r="1" gradientUnits="userSpaceOnUse" gradientTransform="rotate(156.148 136.58 195.567) scale(194.806 1356.34)"><stop stop-color="#C2EEF1"/><stop offset="1" stop-color="#ACEBAB"/></radialGradient><radialGradient id="paint6_radial_62_1346" cx="0" cy="0" r="1" gradientUnits="userSpaceOnUse" gradientTransform="rotate(-67.361 471.426 -18.285) scale(138.24 967.331)"><stop stop-color="#5484FF" stop-opacity=".43"/><stop offset="1" stop-color="#ABD0EB"/></radialGradient><radialGradient id="paint7_radial_62_1346" cx="0" cy="0" r="1" gradientUnits="userSpaceOnUse" gradientTransform="matrix(-160.2419 74.37501 -501.42857 -1080.33414 777.886 444.415)"><stop stop-color="#C2EEF1"/><stop offset="1" stop-color="#ABD0EB"/></radialGradient><radialGradient id="paint8_radial_62_1346" cx="0" cy="0" r="1" gradientUnits="userSpaceOnUse" gradientTransform="matrix(81.8516 85.56427 -538.46305 515.09895 88.602 4.975)"><stop stop-color="#C2EEF1"/><stop offset="1" stop-color="#ABD0EB"/></radialGradient><filter id="filter0_f_62_1346" x="532.643" y="196.001" width="174.963" height="181.641" filterUnits="userSpaceOnUse" color-interpolation-filters="sRGB"><feFlood flood-opacity="0" result="BackgroundImageFix"/><feBlend in="SourceGraphic" in2="BackgroundImageFix" result="shape"/><feGaussianBlur stdDeviation="16.5" result="effect1_foregroundBlur_62_1346"/></filter><filter id="filter1_f_62_1346" x="144.325" y="253.665" width="276.84" height="193.042" filterUnits="userSpaceOnUse" color-interpolation-filters="sRGB"><feFlood flood-opacity="0" result="BackgroundImageFix"/><feBlend in="SourceGraphic" in2="BackgroundImageFix" result="shape"/><feGaussianBlur stdDeviation="11.5" result="effect1_foregroundBlur_62_1346"/></filter><linearGradient id="paint3_linear_62_1346" x1="670.253" y1="224.31" x2="603.737" y2="367.015" gradientUnits="userSpaceOnUse"><stop stop-color="#ECF9FF"/><stop offset="1" stop-color="#B3DAED"/></linearGradient></defs></svg>