<svg width="78" height="94" fill="none" xmlns="http://www.w3.org/2000/svg"><g opacity=".69"><path opacity=".5" fill-rule="evenodd" clip-rule="evenodd" d="M7.378 30.149L30.735 7.216H73v72.489c-4.073-7.435-13.2-12.192-23.806-12.192-14.17 0-28.111 8.49-28.554 20.514H7.378V30.149zM62.822 48.5c0 7.456-6.135 13.5-13.703 13.5s-13.703-6.044-13.703-13.5S41.55 35 49.119 35s13.703 6.044 13.703 13.5z" fill="#00DAD6"/></g><path d="M77 93H19.81c0-13.733 12.803-24.865 28.595-24.865C64.198 68.135 77 79.267 77 93z" stroke="#11DCD0" stroke-width="2"/><circle cx="48.405" cy="48.243" r="13.676" stroke="#11DCD0" stroke-width="2"/><path d="M73.27 66.27V1h-46L1.162 27.108V93H11.73" stroke="#11DCD0" stroke-width="2"/><path d="M1.162 27.108H27.27V1.5m10.568 13.797H62.08m-47.242 26.73h11.19m-11.19 19.892h11.19m11.81-37.297H62.08M14.838 51.973h11.19" stroke="#11DCD0" stroke-width="2"/></svg>