<svg width="79" height="91" fill="none" xmlns="http://www.w3.org/2000/svg"><path fill="#F5CC8A" d="M16 45h62v45H16z"/><path d="M68 35.071V1H1v72h5.317" stroke="#F47957" stroke-width="2"/><path stroke="#F47957" stroke-width="2" d="M11 40h67v50H11zm1-6.367c1.228 2.846 4.199 7.574 6.261 3.713 2.063-3.862 2.333-4.085 2.21-3.713 0 1.856.663 5.198 3.314 3.713 3.315-1.857 8.471-6.684 6.63-9.654-1.842-2.97-10.68-4.827-4.42 1.856 6.261 6.684 4.42 13.367 9.576 6.684 5.156-6.684 5.524-9.654 2.578-10.397M12 11h45.5M12 16.5h45.5"/><path d="M35.49 71.358l-.196-.18.207.168-.003.002-.004.005-.002.003h-.001l-.001.001h0zm-4.835-.914l-.02.032-.007.01-.01.017a2.468 2.468 0 00-.084.132l-.011.018-.015.027-.005.01a.488.488 0 00-.025.049s0 0 0 0c-.293.496-.505.924-.916 1.755-.334.675-.8 1.617-1.549 3.08-.362.707-.664 1.059-.86 1.228a.836.836 0 01-.2.136.25.25 0 01-.037.014l-.01.002c-.04.004-.458-.012-1.301-.815-1.64-1.563-3.307-4.611-4.338-7.105l-.397-.958-.943.431-2.343 1.071-.877.4.369.892c1.098 2.654 3.07 6.453 5.433 8.706 1.155 1.102 2.828 2.239 4.83 2.042 2.13-.209 3.652-1.806 4.703-3.86.272-.53.525-1.02.76-1.474.069.145.14.29.217.43.591 1.093 1.556 2.26 3.074 2.745 1.55.496 3.15.114 4.639-.756 2.184-1.275 4.753-3.237 7.039-5.506.449.91.848 1.776 1.224 2.591l.011.025c.51 1.106.987 2.14 1.476 3.022.45.812 1.05 1.746 1.899 2.383 1.017.763 2.252.998 3.528.57 1.076-.36 2.034-1.144 2.9-2.024.901-.916 1.904-2.15 3.046-3.693 4.475-6.049 7.161-10.774 7.917-14.349.39-1.844.333-3.7-.597-5.279-.935-1.587-2.48-2.434-4.098-2.86l-.99-.26-.237.996-.62 2.606-.225.95.944.248c.934.245 1.227.572 1.33.749.11.185.29.68.043 1.854l.93.197-.93-.197c-.522 2.467-2.625 6.47-7.091 12.507-1.093 1.477-1.946 2.51-2.624 3.198a6.897 6.897 0 01-.787.705 7.141 7.141 0 01-.383-.625l-.874.485.874-.485c-.337-.608-.713-1.423-1.183-2.444l-.004-.008c-.595-1.295-1.319-2.868-2.245-4.59 1.149-1.578 2.117-3.297 2.636-5.058.605-2.056.639-4.347-.596-6.424-1.116-1.876-3.102-3.341-4.997-4.314C46.135 52.691 43.905 52 42.002 52c-.934 0-2.075.166-3.039.846l.576.817-.576-.817c-1.114.785-1.674 2.032-1.632 3.417.038 1.226.535 2.47 1.235 3.674.722 1.24 1.78 2.64 3.2 4.22a36.328 36.328 0 013.658 4.827c-2.184 2.338-4.823 4.407-6.941 5.645-.405.236-.676.32-.835.35a.685.685 0 01-.16.012c-.028-.002-.04-.006-.042-.006h0a.354.354 0 01-.12-.088 1.886 1.886 0 01-.327-.461c-.546-1.01-.829-2.728-.86-4.22a2.491 2.491 0 00-.06-1.159 2.356 2.356 0 00-1.06-1.368 2.24 2.24 0 00-1.797-.21l.282.913-.282-.913a1.4 1.4 0 00-.323.15 2.46 2.46 0 00-.194.136 5.6 5.6 0 00-.319.268c-.097.086-.187.17-.252.232l-.007.007a13.338 13.338 0 01-.076.07c-.134.11-.234.243-.274.295l-.002.003a5.83 5.83 0 00-.204.293c-.136.206-.29.457-.434.696-.145.24-.285.478-.39.659l-.092.156zm-.075.124s0 0 0 0h0zm23.918 6.765c-.014.005-.012.004.001 0 0 0 0 0 0 0zm.568.1l-.002-.002.002.002zM32.04 68.35l.003-.003-.003.003zm17.241-5.3c-.188.639-.496 1.333-.916 2.067a40.494 40.494 0 00-3.255-4.141c-1.294-1.441-2.131-2.58-2.637-3.448a6.866 6.866 0 01-.425-.843c.973.012 2.47.412 3.965 1.18 1.538.79 2.665 1.758 3.146 2.567.363.61.474 1.425.122 2.619zm-7.399-6.94v.004-.004z" fill="#fff" stroke="#F47957" stroke-width="2"/></svg>