<svg width="79" height="93" fill="none" xmlns="http://www.w3.org/2000/svg"><path d="M7 9h33.498M7 16h33.498" stroke="#6449BC" stroke-width="2"/><path fill="#D0C5F9" d="M7 24h33.498v19H7zm5 30h66v38H12z"/><path d="M53.172 73.872h-5.548l-.032-.968a2.465 2.465 0 00-2.456-2.39 2.465 2.465 0 00-2.461 2.47c0 .936.52 1.75 1.29 2.167h0l.005.002.016.008.046.02a5.048 5.048 0 00.556.188c.247.055.669.101 1.012.13 0 0 0 0 0 0l.016.002h.016l.036.002.165.004.453.008c.325.004.65.005.75.005h20.963v4.58H68V85H46.998c-.354-.001-1.66-.015-2.066-.046h-.001c-1.119-.085-2.39-.288-3.451-.605h0l-.008-.002c-.353-.109-1.3-.47-1.982-.831h0l-.007-.004a12 12 0 01-6.078-8.287v9.764H24.21V70.214H21v-4.818h3.21V61h9.195v9.74c1.05-5.53 5.91-9.723 11.73-9.723 6.548 0 11.873 5.304 11.94 11.845l.011 1.01h-3.914z" fill="#fff" stroke="#6449BC" stroke-width="2"/><path stroke="#6449BC" stroke-width="2" d="M7 49h71v43H7z"/><path d="M46.5 47.14V1H1v63h3m47.421-12.036l2.182 6.403 6.403-2.182" stroke="#6449BC" stroke-width="2"/><path d="M28.573 32.565c8.317-5.571 19.576-3.345 25.148 4.972 4.164 6.217 3.972 14.077.136 19.977" stroke="#6449BC" stroke-width="2"/></svg>