<svg width="88" height="98" fill="none" xmlns="http://www.w3.org/2000/svg"><path stroke="#528285" stroke-width="2" d="M31.496 29.702H80.44v6.83H31.496z"/><path fill="#88F1D2" d="M36.033 46.361h44.299V67.33H36.033z"/><path stroke="#528285" stroke-width="2" d="M31.496 41.842H80.44v25.591H31.496z"/><path fill="#88F1D2" d="M35.802 77.865h17.066v9.6H35.802z"/><path stroke="#528285" stroke-width="2" d="M31.496 73.848h21.257v13.451H31.496z"/><path stroke="#528285" stroke-width="2" d="M24.959 23.184h62.019v72.841H24.959z"/><path fill-rule="evenodd" clip-rule="evenodd" d="M36.756 7.918c-1.228-3.199-5.755-3.199-6.983 0-.911 2.371-3.878 3.158-5.853 1.56-2.66-2.15-6.586.1-6.046 3.478.4 2.506-1.775 4.67-4.282 4.272-3.375-.536-5.652 3.375-3.494 6.025 1.602 1.968.81 4.926-1.561 5.83-3.197 1.22-3.197 5.744 0 6.964 2.37.904 3.163 3.862 1.561 5.83-2.158 2.65.119 6.56 3.494 6.025 2.507-.398 4.682 1.766 4.282 4.272-.54 3.377 3.387 5.628 6.046 3.477 1.975-1.597 4.942-.81 5.853 1.56 1.229 3.2 5.755 3.2 6.983 0 .911-2.37 3.878-3.157 5.853-1.56 2.66 2.15 6.586-.1 6.046-3.477-.4-2.506 1.775-4.67 4.282-4.272 3.375.536 5.652-3.375 3.494-6.025-1.602-1.968-.81-4.926 1.561-5.83 3.197-1.22 3.197-5.744 0-6.963-2.37-.905-3.163-3.863-1.561-5.83 2.158-2.651-.119-6.562-3.494-6.026-2.507.398-4.682-1.766-4.282-4.272.54-3.377-3.386-5.628-6.046-3.477-1.975 1.597-4.942.81-5.853-1.56zm-3.19 40.913c8.848 0 16.02-7.148 16.02-15.965s-7.172-15.964-16.02-15.964c-8.847 0-16.02 7.147-16.02 15.964s7.173 15.965 16.02 15.965z" fill="#88F1D2"/><mask id="a" fill="#fff"><path fill-rule="evenodd" clip-rule="evenodd" d="M35.594 2.742c-1.404-3.656-6.577-3.656-7.981 0-1.041 2.71-4.432 3.608-6.689 1.783-3.04-2.457-7.527.114-6.91 3.974.458 2.864-2.029 5.338-4.893 4.883-3.858-.613-6.46 3.856-3.993 6.885 1.83 2.249.924 5.63-1.785 6.664-3.653 1.393-3.653 6.564 0 7.957 2.71 1.034 3.615 4.415 1.785 6.664-2.466 3.029.135 7.498 3.993 6.885 2.864-.454 5.35 2.019 4.893 4.883-.617 3.86 3.87 6.431 6.91 3.974 2.257-1.825 5.648-.926 6.689 1.783 1.404 3.656 6.577 3.656 7.981 0 1.04-2.71 4.431-3.608 6.688-1.783 3.04 2.457 7.528-.114 6.91-3.974-.457-2.864 2.03-5.337 4.894-4.883 3.858.613 6.46-3.856 3.993-6.885-1.83-2.249-.925-5.63 1.785-6.664 3.653-1.393 3.653-6.563 0-7.957-2.71-1.034-3.615-4.415-1.785-6.664 2.466-3.029-.135-7.498-3.993-6.885-2.864.455-5.351-2.019-4.893-4.883.617-3.86-3.87-6.431-6.91-3.974-2.258 1.825-5.648.926-6.689-1.783zM31.95 49.499c10.111 0 18.309-8.169 18.309-18.245 0-10.077-8.198-18.246-18.31-18.246-10.11 0-18.308 8.17-18.308 18.246 0 10.076 8.197 18.245 18.309 18.245z"/></mask><path d="M27.613 2.742l1.867.717-1.867-.717zm7.981 0l-1.867.717 1.867-.717zm-14.67 1.783l1.258-1.555-1.258 1.555zM14.014 8.5l-1.975.316 1.975-.316zM9.12 13.382l-.314 1.975.314-1.975zm-3.993 6.885l1.55-1.262-1.55 1.262zm-1.785 6.664l-.713-1.869.713 1.869zm0 7.957l-.713 1.869.713-1.869zm1.785 6.664l-1.551-1.263 1.55 1.263zm3.993 6.885l.314 1.976-.314-1.976zm4.893 4.883l-1.975-.316 1.975.316zm6.91 3.974l-1.257-1.555 1.257 1.555zm6.689 1.783l-1.867.717 1.867-.717zm7.981 0l-1.867-.717 1.867.717zm6.688-1.783l1.258-1.555-1.258 1.555zm6.91-3.974l-1.974.316 1.975-.316zm4.894-4.883l-.314 1.976.314-1.976zm3.993-6.885l-1.55 1.262 1.55-1.262zm1.785-6.664l.713 1.869-.713-1.869zm0-7.957l.713-1.869-.713 1.869zm-1.785-6.664l1.551 1.263-1.55-1.263zm-3.993-6.885l.314 1.975-.314-1.975zm-4.893-4.883l-1.975-.315 1.975.315zm-6.91-3.974L41.024 2.97l1.258 1.555zM29.48 3.46c.747-1.945 3.5-1.945 4.247 0l3.734-1.434c-2.061-5.367-9.654-5.367-11.715 0L29.48 3.46zm-9.813 2.622c3.306 2.673 8.282 1.364 9.813-2.622l-3.734-1.434c-.55 1.433-2.356 1.922-3.564.945l-2.515 3.11zm-3.678 2.103c-.324-2.025 2.044-3.424 3.678-2.103l2.515-3.11c-4.446-3.595-11.054.148-10.143 5.844l3.95-.631zm-7.182 7.173c4.198.667 7.856-2.957 7.182-7.173l-3.95.631c.242 1.511-1.074 2.835-2.604 2.592l-.628 3.95zM6.68 19.005c-1.29-1.584.056-3.977 2.128-3.648l.628-3.95C3.79 10.51-.066 17.056 3.577 21.53l3.102-2.525zm-2.623 9.794c3.982-1.518 5.314-6.488 2.623-9.794L3.577 21.53a2.256 2.256 0 01-.947 3.532L4.056 28.8zm0 4.22c-1.937-.738-1.937-3.48 0-4.22L2.63 25.062c-5.37 2.048-5.37 9.647 0 11.695l1.426-3.737zm2.623 9.795c2.691-3.306 1.359-8.275-2.623-9.794L2.63 36.757a2.256 2.256 0 01.947 3.532l3.102 2.525zm2.128 3.648c-2.072.329-3.418-2.064-2.128-3.648L3.577 40.29c-3.643 4.474.214 11.02 5.858 10.123l-.628-3.95zm7.182 7.173c.674-4.216-2.984-7.84-7.182-7.173l.628 3.95c1.53-.242 2.846 1.081 2.604 2.592l3.95.632zm3.678 2.104c-1.634 1.32-4.002-.08-3.678-2.103l-3.95-.632c-.91 5.696 5.697 9.44 10.143 5.845l-2.515-3.11zm9.813 2.62c-1.531-3.985-6.507-5.294-9.813-2.62l2.515 3.11c1.208-.977 3.013-.488 3.564.945l3.734-1.434zm4.247 0c-.747 1.947-3.5 1.947-4.247 0l-3.734 1.435c2.061 5.367 9.654 5.367 11.715 0l-3.734-1.434zm9.813-2.62c-3.306-2.673-8.282-1.364-9.813 2.62l3.734 1.435c.55-1.433 2.356-1.922 3.564-.945l2.515-3.11zm3.678-2.103c.324 2.024-2.044 3.423-3.678 2.102l-2.515 3.111c4.446 3.594 11.053-.15 10.143-5.845l-3.95.632zm7.182-7.174c-4.199-.667-7.856 2.957-7.182 7.173l3.95-.631c-.242-1.511 1.074-2.834 2.604-2.591l.628-3.951zm2.128-3.648c1.29 1.584-.056 3.977-2.128 3.648l-.628 3.95c5.644.897 9.5-5.649 5.858-10.123l-3.102 2.525zm2.623-9.794c-3.982 1.519-5.314 6.488-2.623 9.794l3.102-2.525a2.256 2.256 0 01.947-3.532L59.15 33.02zm0-4.22c1.937.738 1.937 3.48 0 4.22l1.425 3.737c5.37-2.048 5.37-9.646 0-11.695L59.152 28.8zm-2.623-9.795c-2.691 3.306-1.359 8.276 2.623 9.794l1.425-3.737a2.256 2.256 0 01-.946-3.532l-3.102-2.525zM54.4 15.357c2.072-.329 3.418 2.064 2.128 3.648l3.102 2.525c3.643-4.474-.215-11.02-5.858-10.123l.628 3.95zm-7.182-7.173c-.674 4.216 2.983 7.84 7.182 7.173l-.628-3.95c-1.53.243-2.846-1.08-2.604-2.592l-3.95-.631zM43.54 6.08c1.634-1.321 4.002.078 3.678 2.103l3.95.631c.91-5.696-5.697-9.44-10.143-5.845l2.515 3.11zm-9.813-2.622c1.531 3.986 6.507 5.295 9.813 2.622l-2.515-3.11c-1.208.976-3.013.487-3.564-.946l-3.734 1.434zm14.53 27.795c0 8.965-7.294 16.245-16.308 16.245v4c11.21 0 20.309-9.058 20.309-20.245h-4zM31.95 15.008c9.013 0 16.309 7.28 16.309 16.246h4c0-11.188-9.1-20.246-20.31-20.246v4zM15.64 31.254c0-8.966 7.295-16.246 16.309-16.246v-4c-11.21 0-20.309 9.058-20.309 20.246h4zm16.31 16.245c-9.014 0-16.309-7.28-16.309-16.245h-4c0 11.187 9.1 20.245 20.309 20.245v-4z" fill="#528285" mask="url(#a)"/><path d="M66 66v15l3-1 4.7 10.363L78.5 88l-4.8-10.264 6.8-1.153L66 66z" fill="#88F1D2"/><path d="M63 63v20.306l5.029-3.57L72.829 90l4.8-2.231-4.8-10.265L79 76.388 63 63z" stroke="#528285" stroke-width="2"/></svg>