<svg viewBox="0 0 161 59" xmlns="http://www.w3.org/2000/svg" xmlns:xlink="http://www.w3.org/1999/xlink"><style>:root&gt;svg{display:none}:root&gt;svg:target{display:block}</style><svg fill="none" viewBox="0 0 19 10" id="css--btn_arrow" xmlns="http://www.w3.org/2000/svg"><path d="M1 5h15m-3-4l4 4-4 4" stroke="#5484FF" stroke-width="1.5" stroke-linecap="round"/></svg><svg fill="none" viewBox="0 0 161 59" id="logo" xmlns="http://www.w3.org/2000/svg"><path fill-rule="evenodd" clip-rule="evenodd" d="M21.416 29.4a19.63 19.63 0 01-.859-5.763C20.557 12.792 29.348 4 40.192 4c9.328 0 17.136 6.504 19.138 15.224 8.72 2.002 15.224 9.81 15.224 19.138C74.554 49.208 65.764 58 54.92 58c-.2 0-.4-.004-.598-.01V58h-38.08C7.824 58 1 51.284 1 43c0-8.284 6.824-15 15.242-15 1.288 0 3.074.509 5.174 1.4z" fill="#97DEF6"/><path d="M21.416 29.4l-.39.92 1.975.838-.629-2.052-.956.293zM59.33 19.224l-.974.224.14.61.61.141.224-.975zM54.321 57.99l.03-.999-1.032-.03.002 1.031 1-.002zm0 .011v1h1.002l-.002-1.002-1 .002zm-38.079 0v1-1zm6.13-28.894a18.63 18.63 0 01-.815-5.47h-2c0 2.107.316 4.14.903 6.057l1.912-.587zm-.815-5.47c0-10.291 8.343-18.634 18.635-18.634v-2c-11.396 0-20.635 9.238-20.635 20.635h2zM40.192 5.003c8.852 0 16.264 6.171 18.163 14.447l1.95-.447c-2.104-9.165-10.309-16-20.113-16v2zM59.106 20.2c8.276 1.9 14.448 9.312 14.448 18.163h2c0-9.804-6.836-18.008-16-20.112l-.448 1.95zm14.448 18.163C73.554 48.655 65.211 57 54.92 57v2c11.397 0 20.635-9.24 20.635-20.636h-2zM54.92 57c-.19 0-.38-.003-.568-.009l-.06 2c.209.005.418.008.628.008v-2zm-1.598.992v.01l2-.003v-.01l-2 .003zm1-.991h-38.08v2h38.08v-2zm-38.079 0C8.362 57 2 50.717 2 43H0c0 8.852 7.287 16 16.242 16v-2zM2 43c0-7.717 6.361-14 14.242-14v-2C7.287 27 0 34.148 0 43h2zm14.242-14c1.078 0 2.71.44 4.784 1.32l.78-1.841C19.68 27.577 17.74 27 16.243 27v2z" fill="#007BC0"/><path d="M59.27 27.846C61.602 17.255 54.906 6.78 44.315 4.449 33.723 2.12 23.248 8.816 20.918 19.407c-1.885 8.564 2.133 17.052 9.34 21.219" stroke="#007BC0" stroke-width="2" stroke-linecap="round"/><path d="M47.01 40.142c0 10.644 9.672 15.659 13.49 16.863H32.374c-11.247 0-20.364-8.628-20.364-19.272V21.128c0-.55.254-.98.803-1.017 4.29-.291 24.415.074 32.21.145a2.005 2.005 0 011.987 2.01v17.876z" fill="#E5F0F6"/><path d="M12.01 37.957h-1 1zm34.64-15.688h1-1zm0 18.127h1-1zM59.677 58.26a1 1 0 10.615-1.904l-.615 1.904zM12.01 21.117h-1 1zm.788-1.004l-.07-.998.07.998zm31.863.146l-.01 1 .01-1zM32.164 57.006c-10.574 0-19.154-8.819-19.154-19.05h-2c0 11.327 9.466 21.05 21.154 21.05v-2zm13.485-34.737v18.127h2V22.27h-2zm0 18.127c0 5.72 2.548 9.891 5.561 12.764 2.995 2.855 6.471 4.454 8.468 5.099l.615-1.904c-1.782-.575-4.974-2.041-7.703-4.643-2.71-2.583-4.94-6.258-4.94-11.316h-2zm-32.639-2.44V21.118h-2v16.84h2zm-.142-16.846c4.177-.291 23.996.076 31.784.15l.018-2c-7.678-.073-27.659-.444-31.942-.145l.14 1.995zm.142.007c0-.06.007-.099.012-.118.005-.018.006-.01-.01.014a.27.27 0 01-.09.076c-.038.021-.063.022-.054.021l-.14-1.995a1.767 1.767 0 00-1.336.725c-.29.4-.382.869-.382 1.277h2zm34.64 1.152a3.005 3.005 0 00-2.98-3.01l-.018 2c.554.005.997.452.997 1.01h2z" fill="#007BC0"/><path d="M19.646 28.556H39.34M19.646 34.92H39.34m-18.347 6.363h18.346m-14.227 6.364H40.51" stroke="#007BC0" stroke-width="2" stroke-linecap="round"/><path d="M102.064 28.555L93.84 18.252l-2.592 2.784v7.52h-3.04v-22.4h3.04v11.04l10.24-11.04h3.776l-9.344 9.92 9.92 12.48h-3.776zm11.085.256c-1.878 0-3.392-.533-4.544-1.6-1.131-1.087-1.696-2.506-1.696-4.255V18.54c0-1.878.565-3.382 1.696-4.512 1.152-1.131 2.666-1.697 4.544-1.697h2.624c1.813 0 3.274.555 4.384 1.665 1.109 1.109 1.664 2.58 1.664 4.415v3.008h-11.936v1.537c0 .98.298 1.77.896 2.367.597.598 1.386.896 2.368.896h2.464c.96 0 1.738-.245 2.336-.736.597-.512.896-1.184.896-2.015h2.912c0 1.6-.566 2.89-1.696 3.872-1.131.98-2.624 1.471-4.48 1.471h-2.432zm5.696-9.76v-.64c0-1.066-.288-1.92-.864-2.56-.555-.64-1.291-.96-2.208-.96h-2.624c-.982 0-1.771.342-2.368 1.024-.598.662-.896 1.547-.896 2.657v.48h8.96zm11.857 9.76c-1.749 0-3.168-.565-4.256-1.695-1.067-1.131-1.6-2.625-1.6-4.48V18.86c0-1.28.256-2.411.768-3.393.512-1.002 1.227-1.77 2.144-2.303.939-.555 2.016-.832 3.232-.832h2.176c.683 0 1.355.16 2.016.48.661.32 1.195.746 1.6 1.28V6.155h3.008v22.4h-2.848v-2.273a5.616 5.616 0 01-1.856 1.825c-.768.469-1.536.703-2.304.703h-2.08zm2.208-2.623c1.003 0 1.877-.406 2.624-1.216a4.83 4.83 0 001.248-2.945v-3.616c-.149-1.045-.544-1.877-1.184-2.496-.619-.64-1.365-.96-2.24-.96h-2.144c-1.003 0-1.824.374-2.464 1.12-.619.726-.928 1.697-.928 2.913v3.552c0 1.088.288 1.973.864 2.655.597.662 1.344.992 2.24.992h1.984zm16.957 2.623c-1.877 0-3.392-.565-4.544-1.695-1.13-1.131-1.696-2.614-1.696-4.448v-4.16c0-1.857.576-3.35 1.728-4.48 1.152-1.131 2.678-1.697 4.576-1.697h2.688c1.899 0 3.424.566 4.576 1.697 1.152 1.13 1.728 2.623 1.728 4.48v4.16c0 1.834-.586 3.317-1.76 4.448-1.152 1.13-2.677 1.695-4.576 1.695h-2.72zm2.688-2.623c1.024 0 1.846-.331 2.464-.992.619-.662.928-1.547.928-2.657v-3.936c0-1.109-.309-1.994-.928-2.656-.597-.66-1.397-.991-2.4-.991h-2.688c-1.002 0-1.813.33-2.432.992-.597.66-.896 1.546-.896 2.655v3.936c0 1.11.299 1.995.896 2.656.598.662 1.398.992 2.4.992h2.656zm-64.475 9.4h2.848v2.015a5.062 5.062 0 011.728-1.632c.725-.426 1.45-.64 2.176-.64h2.208c1.792 0 3.232.555 4.32 1.664 1.109 1.11 1.664 2.571 1.664 4.385v3.807c0 1.302-.256 2.454-.768 3.457-.491 1.002-1.195 1.78-2.112 2.336-.918.554-1.974.832-3.168.832h-2.24c-.64 0-1.312-.171-2.016-.512a4.726 4.726 0 01-1.664-1.344v7.967H88.08V35.587zm8.64 13.6c1.002 0 1.802-.374 2.4-1.12.597-.747.896-1.74.896-2.976v-3.617c0-1.045-.299-1.888-.896-2.528-.576-.66-1.344-.992-2.304-.992h-2.144c-.79 0-1.525.31-2.208.928-.662.62-1.13 1.43-1.408 2.432v4.257c.128 1.066.523 1.94 1.184 2.623.683.662 1.493.992 2.432.992h2.048zm10.141-13.6h2.848v2.335c.427-.704 1.045-1.28 1.856-1.727a5.398 5.398 0 012.592-.672h1.664v2.655h-1.664c-1.301 0-2.347.406-3.136 1.216-.789.79-1.184 1.835-1.184 3.136v9.025h-2.976V35.588zm16.756 16.224c-1.877 0-3.392-.566-4.544-1.697-1.13-1.13-1.696-2.613-1.696-4.448v-4.16c0-1.855.576-3.349 1.728-4.48 1.152-1.13 2.678-1.696 4.576-1.696h2.688c1.899 0 3.424.566 4.576 1.697 1.152 1.13 1.728 2.623 1.728 4.48v4.16c0 1.834-.586 3.317-1.76 4.447-1.152 1.131-2.677 1.697-4.576 1.697h-2.72zm2.688-2.624c1.024 0 1.846-.331 2.464-.992.619-.662.928-1.547.928-2.657v-3.936c0-1.109-.309-1.994-.928-2.656-.597-.66-1.397-.992-2.4-.992h-2.688c-1.002 0-1.813.331-2.432.992-.597.662-.896 1.547-.896 2.656v3.936c0 1.11.299 1.995.896 2.657.598.66 1.398.992 2.4.992h2.656z" fill="#000"/></svg><svg fill="none" viewBox="0 0 19 10" id="sprite--btn_arrow" xmlns="http://www.w3.org/2000/svg"><path d="M1 5h15m-3-4l4 4-4 4" stroke="#5484FF" stroke-width="1.5" stroke-linecap="round"/></svg><svg fill="none" viewBox="0 0 19 10" id="sprite--btn_arrow_black" xmlns="http://www.w3.org/2000/svg"><path d="M1 5h15m-3-4l4 4-4 4" stroke="#2D2D2D" stroke-width="1.5" stroke-linecap="round"/></svg><svg fill="none" viewBox="0 0 19 10" id="sprite--btn_arrow_cian" xmlns="http://www.w3.org/2000/svg"><path d="M1 5h15m-3-4l4 4-4 4" stroke="#11DCD0" stroke-width="1.5" stroke-linecap="round"/></svg><svg fill="none" viewBox="0 0 19 10" id="sprite--btn_arrow_green" xmlns="http://www.w3.org/2000/svg"><path d="M1 5h15m-3-4l4 4-4 4" stroke="#528285" stroke-width="1.5" stroke-linecap="round"/></svg><svg fill="none" viewBox="0 0 19 10" id="sprite--btn_arrow_orange" xmlns="http://www.w3.org/2000/svg"><path d="M1.5 5h15m-3-4l4 4-4 4" stroke="#FFB640" stroke-width="1.5" stroke-linecap="round"/></svg><svg fill="none" viewBox="0 0 19 10" id="sprite--btn_arrow_purple" xmlns="http://www.w3.org/2000/svg"><path d="M1 5h15m-3-4l4 4-4 4" stroke="#6449BC" stroke-width="1.5" stroke-linecap="round"/></svg><svg fill="none" viewBox="0 0 19 10" id="sprite--btn_arrow_white" xmlns="http://www.w3.org/2000/svg"><path d="M1 5h15m-3-4l4 4-4 4" stroke="#fff" stroke-width="1.5" stroke-linecap="round"/></svg></svg>