<svg width="24" height="20" fill="none" xmlns="http://www.w3.org/2000/svg"><path d="M1.431 8.74l13.905-5.835c1.372-.608 6.027-2.553 6.027-2.553s2.148-.85 1.97 1.216c-.06.85-.538 3.829-1.015 7.05l-1.492 9.542s-.12 1.398-1.134 1.64c-1.015.244-2.685-.85-2.984-1.093-.238-.183-4.475-2.917-6.027-4.255-.418-.364-.895-1.094.06-1.944 2.148-2.006 4.714-4.498 6.266-6.078.716-.73 1.432-2.431-1.552-.365L7.041 11.84s-.955.608-2.745.06c-1.79-.546-3.88-1.275-3.88-1.275s-1.432-.912 1.015-1.885z" fill="#5484FF"/></svg>