<svg width="78" height="78" fill="none" xmlns="http://www.w3.org/2000/svg"><circle cx="39" cy="39" r="39" fill="#C9EAFC" fill-opacity=".5"/><circle cx="40.744" cy="42.452" r="6.193" fill="#97DEF6" stroke="#007BC0" stroke-width="2"/><path d="M46.938 35.533a5.528 5.528 0 014.555-2.371c3.043 0 5.509 2.426 5.509 5.419 0 2.993-2.466 5.419-5.509 5.419-.475 0-.937-.06-1.377-.17m-15.565-8.297a5.528 5.528 0 00-4.555-2.371c-3.042 0-5.509 2.426-5.509 5.419 0 2.993 2.467 5.419 5.51 5.419.475 0 .936-.06 1.376-.17" stroke="#007BC0" stroke-width="2"/><path d="M52.357 62.58H29.132c0-5.987 5.2-10.839 11.613-10.839 6.413 0 11.612 4.852 11.612 10.838z" fill="#97DEF6" stroke="#007BC0" stroke-width="2"/><path d="M54.68 57.16h7.741c0-5.13-4.646-9.29-10.377-9.29-1.521 0-2.967.294-4.269.82M26.81 57.16h-7.74c0-5.13 4.646-9.29 10.377-9.29 1.521 0 2.966.294 4.268.82M18 49.187V17a2 2 0 012-2h30.187a2 2 0 012 2v12.423" stroke="#007BC0" stroke-width="2"/><path d="M24.41 20.342h5.342m6.41 0h9.615M24.41 24.615h21.367M24.41 28.889h17.094" stroke="#007BC0" stroke-width="2" stroke-linecap="round"/></svg>