<svg width="78" height="79" fill="none" xmlns="http://www.w3.org/2000/svg"><circle cx="39" cy="39.219" r="39" fill="#C9EAFC" fill-opacity=".5"/><path d="M37.09 27H53v9.6M42.976 46H28v-7.5" stroke="#007BC0" stroke-width="2"/><mask id="a" fill="#fff"><rect x="41" y="33" width="19" height="22" rx="1"/></mask><rect x="41" y="33" width="19" height="22" rx="1" fill="#97DEF6" stroke="#007BC0" stroke-width="4" mask="url(#a)"/><mask id="b" fill="#fff"><rect x="44" y="36" width="19" height="22" rx="1"/></mask><rect x="44" y="36" width="19" height="22" rx="1" fill="#97DEF6" stroke="#007BC0" stroke-width="4" mask="url(#b)"/><path d="M49 42h9m-9 5h2m4.446.169h2.421M49 52h9" stroke="#007BC0" stroke-width="2" stroke-linecap="round"/><mask id="c" fill="#fff"><rect x="16" y="15" width="19" height="21.9" rx="1"/></mask><rect x="16" y="15" width="19" height="21.9" rx="1" fill="#97DEF6" stroke="#007BC0" stroke-width="4" mask="url(#c)"/><mask id="d" fill="#fff"><rect x="19" y="18" width="19" height="21" rx="1"/></mask><rect x="19" y="18" width="19" height="21" rx="1" fill="#97DEF6" stroke="#007BC0" stroke-width="4" mask="url(#d)"/><path d="M24 24h8.877M24 28.439h4.439m4.438 0h-1.11M24 32.877h4.439" stroke="#007BC0" stroke-width="2" stroke-linecap="round"/></svg>