<svg width="78" height="78" fill="none" xmlns="http://www.w3.org/2000/svg"><circle cx="39" cy="39" r="39" fill="#C9EAFC" fill-opacity=".5"/><path d="M44 26v-7a4 4 0 00-4-4H19a4 4 0 00-4 4v30a4 4 0 004 4h3.5" stroke="#007BC0" stroke-width="2"/><rect x="23" y="26" width="32" height="38" rx="4" fill="#97DEF6" stroke="#007BC0" stroke-width="2"/><rect x="48" y="21" width="15" height="16" rx="4" fill="#DCF1FE" stroke="#007BC0" stroke-width="2"/><path d="M21 21h16.5M52 26h1m3 0h3m-7 3h1m3 0h3m-7 3h1m3 0h3m-38-5h3m-3 6h2m-2 6h2m-2 6h2" stroke="#007BC0" stroke-width="2" stroke-linecap="round"/><circle cx="39.5" cy="38.5" r="5.5" fill="#DCF1FE" stroke="#007BC0" stroke-width="2"/><path d="M29.06 57h-.008c.526-5.02 4.966-9 10.448-9s9.922 3.98 10.448 9H29.059z" fill="#DCF1FE" stroke="#007BC0" stroke-width="2"/></svg>