<svg width="534" height="257" viewBox="0 0 534 257" fill="none" xmlns="http://www.w3.org/2000/svg">
<rect x="39" y="125" width="292" height="43" rx="21.5" fill="#564D73"/>
<rect x="79" y="187" width="247" height="43" rx="21.5" fill="#564D73"/>
<rect y="48" width="331" height="57" rx="28.5" fill="#564D73"/>
<path d="M29.8389 71.2903C28.5429 71.2903 27.4389 71.0083 26.5269 70.4443C25.6149 69.8743 24.9159 69.0823 24.4299 68.0683C23.9499 67.0543 23.7099 65.8783 23.7099 64.5403C23.7099 63.2023 23.9499 62.0263 24.4299 61.0123C24.9159 59.9983 25.6149 59.2093 26.5269 58.6453C27.4389 58.0753 28.5429 57.7903 29.8389 57.7903C31.1289 57.7903 32.2299 58.0753 33.1419 58.6453C34.0599 59.2093 34.7589 59.9983 35.2389 61.0123C35.7189 62.0263 35.9589 63.2023 35.9589 64.5403C35.9589 65.8783 35.7189 67.0543 35.2389 68.0683C34.7589 69.0823 34.0599 69.8743 33.1419 70.4443C32.2299 71.0083 31.1289 71.2903 29.8389 71.2903ZM29.8389 69.4993C30.7569 69.5113 31.5189 69.3103 32.1249 68.8963C32.7369 68.4763 33.1959 67.8943 33.5019 67.1503C33.8079 66.4003 33.9609 65.5303 33.9609 64.5403C33.9609 63.5503 33.8079 62.6863 33.5019 61.9483C33.1959 61.2043 32.7369 60.6253 32.1249 60.2113C31.5189 59.7973 30.7569 59.5873 29.8389 59.5813C28.9209 59.5693 28.1559 59.7703 27.5439 60.1843C26.9379 60.5983 26.4819 61.1803 26.1759 61.9303C25.8699 62.6803 25.7139 63.5503 25.7079 64.5403C25.7019 65.5303 25.8519 66.3973 26.1579 67.1413C26.4639 67.8793 26.9229 68.4553 27.5349 68.8693C28.1529 69.2833 28.9209 69.4933 29.8389 69.4993ZM37.7451 71.0203V61.3003H45.9441V71.0203H44.0631V63.0733H39.6261V71.0203H37.7451ZM52.7702 71.2903C51.8042 71.2903 50.9552 71.0803 50.2232 70.6603C49.4972 70.2343 48.9302 69.6433 48.5222 68.8873C48.1202 68.1253 47.9192 67.2433 47.9192 66.2413C47.9192 65.1793 48.1172 64.2583 48.5132 63.4783C48.9152 62.6983 49.4732 62.0953 50.1872 61.6693C50.9012 61.2433 51.7322 61.0303 52.6802 61.0303C53.6702 61.0303 54.5132 61.2613 55.2092 61.7233C55.9052 62.1793 56.4242 62.8303 56.7662 63.6763C57.1142 64.5223 57.2522 65.5273 57.1802 66.6913H55.2992V66.0073C55.2872 64.8793 55.0712 64.0453 54.6512 63.5053C54.2372 62.9653 53.6042 62.6953 52.7522 62.6953C51.8102 62.6953 51.1022 62.9923 50.6282 63.5863C50.1542 64.1803 49.9172 65.0383 49.9172 66.1603C49.9172 67.2283 50.1542 68.0563 50.6282 68.6443C51.1022 69.2263 51.7862 69.5173 52.6802 69.5173C53.2682 69.5173 53.7752 69.3853 54.2012 69.1213C54.6332 68.8513 54.9692 68.4673 55.2092 67.9693L57.0542 68.5543C56.6762 69.4243 56.1032 70.0993 55.3352 70.5793C54.5672 71.0533 53.7122 71.2903 52.7702 71.2903ZM49.3052 66.6913V65.2243H56.2442V66.6913H49.3052ZM63.7625 71.2903C62.8325 71.2903 62.0525 71.0653 61.4225 70.6153C60.7925 70.1593 60.3155 69.5443 59.9915 68.7703C59.6675 67.9963 59.5055 67.1233 59.5055 66.1513C59.5055 65.1793 59.6645 64.3063 59.9825 63.5323C60.3065 62.7583 60.7805 62.1493 61.4045 61.7053C62.0345 61.2553 62.8085 61.0303 63.7265 61.0303C64.6385 61.0303 65.4245 61.2553 66.0845 61.7053C66.7505 62.1493 67.2635 62.7583 67.6235 63.5323C67.9835 64.3003 68.1635 65.1733 68.1635 66.1513C68.1635 67.1233 67.9835 67.9993 67.6235 68.7793C67.2695 69.5533 66.7625 70.1653 66.1025 70.6153C65.4485 71.0653 64.6685 71.2903 63.7625 71.2903ZM59.1905 75.3403V61.3003H60.8645V68.2933H61.0805V75.3403H59.1905ZM63.5015 69.5893C64.1015 69.5893 64.5965 69.4363 64.9865 69.1303C65.3825 68.8243 65.6765 68.4133 65.8685 67.8973C66.0665 67.3753 66.1655 66.7933 66.1655 66.1513C66.1655 65.5153 66.0665 64.9393 65.8685 64.4233C65.6765 63.9073 65.3795 63.4963 64.9775 63.1903C64.5755 62.8843 64.0625 62.7313 63.4385 62.7313C62.8505 62.7313 62.3645 62.8753 61.9805 63.1633C61.6025 63.4513 61.3205 63.8533 61.1345 64.3693C60.9545 64.8853 60.8645 65.4793 60.8645 66.1513C60.8645 66.8233 60.9545 67.4173 61.1345 67.9333C61.3145 68.4493 61.5995 68.8543 61.9895 69.1483C62.3795 69.4423 62.8835 69.5893 63.5015 69.5893ZM72.8956 71.2903C72.1756 71.2903 71.5726 71.1583 71.0866 70.8943C70.6006 70.6243 70.2316 70.2703 69.9796 69.8323C69.7336 69.3883 69.6106 68.9023 69.6106 68.3743C69.6106 67.8823 69.6976 67.4503 69.8716 67.0783C70.0456 66.7063 70.3036 66.3913 70.6456 66.1333C70.9876 65.8693 71.4076 65.6563 71.9056 65.4943C72.3376 65.3683 72.8266 65.2573 73.3726 65.1613C73.9186 65.0653 74.4916 64.9753 75.0916 64.8913C75.6976 64.8073 76.2976 64.7233 76.8916 64.6393L76.2076 65.0173C76.2196 64.2553 76.0576 63.6913 75.7216 63.3253C75.3916 62.9533 74.8216 62.7673 74.0116 62.7673C73.5016 62.7673 73.0336 62.8873 72.6076 63.1273C72.1816 63.3613 71.8846 63.7513 71.7166 64.2973L69.9616 63.7573C70.2016 62.9233 70.6576 62.2603 71.3296 61.7683C72.0076 61.2763 72.9076 61.0303 74.0296 61.0303C74.8996 61.0303 75.6556 61.1803 76.2976 61.4803C76.9456 61.7743 77.4196 62.2423 77.7196 62.8843C77.8756 63.2023 77.9716 63.5383 78.0076 63.8923C78.0436 64.2463 78.0616 64.6273 78.0616 65.0353V71.0203H76.3966V68.7973L76.7206 69.0853C76.3186 69.8293 75.8056 70.3843 75.1816 70.7503C74.5636 71.1103 73.8016 71.2903 72.8956 71.2903ZM73.2286 69.7513C73.7626 69.7513 74.2216 69.6583 74.6056 69.4723C74.9896 69.2803 75.2986 69.0373 75.5326 68.7433C75.7666 68.4493 75.9196 68.1433 75.9916 67.8253C76.0936 67.5373 76.1506 67.2133 76.1626 66.8533C76.1806 66.4933 76.1896 66.2053 76.1896 65.9893L76.8016 66.2143C76.2076 66.3043 75.6676 66.3853 75.1816 66.4573C74.6956 66.5293 74.2546 66.6013 73.8586 66.6733C73.4686 66.7393 73.1206 66.8203 72.8146 66.9163C72.5566 67.0063 72.3256 67.1143 72.1216 67.2403C71.9236 67.3663 71.7646 67.5193 71.6446 67.6993C71.5306 67.8793 71.4736 68.0983 71.4736 68.3563C71.4736 68.6083 71.5366 68.8423 71.6626 69.0583C71.7886 69.2683 71.9806 69.4363 72.2386 69.5623C72.4966 69.6883 72.8266 69.7513 73.2286 69.7513ZM82.9097 71.0203V62.9923H79.5887V61.3003H88.1117V62.9923H84.7907V71.0203H82.9097ZM98.0105 61.3003V71.0203H96.2015V64.2613L91.3415 71.0203H89.8115V61.3003H91.6205V67.9243L96.4895 61.3003H98.0105ZM100.517 71.0203V61.3003H104.792C105.074 61.3003 105.356 61.3183 105.638 61.3543C105.92 61.3843 106.169 61.4293 106.385 61.4893C106.877 61.6273 107.297 61.9033 107.645 62.3173C107.993 62.7253 108.167 63.2713 108.167 63.9553C108.167 64.3453 108.107 64.6753 107.987 64.9453C107.867 65.2093 107.702 65.4373 107.492 65.6293C107.396 65.7133 107.294 65.7883 107.186 65.8543C107.078 65.9203 106.97 65.9713 106.862 66.0073C107.084 66.0433 107.303 66.1213 107.519 66.2413C107.849 66.4153 108.119 66.6673 108.329 66.9973C108.545 67.3213 108.653 67.7563 108.653 68.3023C108.653 68.9563 108.494 69.5053 108.176 69.9493C107.858 70.3873 107.408 70.6873 106.826 70.8493C106.598 70.9153 106.34 70.9603 106.052 70.9843C105.77 71.0083 105.488 71.0203 105.206 71.0203H100.517ZM102.425 69.5353H105.089C105.215 69.5353 105.359 69.5233 105.521 69.4993C105.683 69.4753 105.827 69.4423 105.953 69.4003C106.223 69.3163 106.415 69.1633 106.529 68.9413C106.649 68.7193 106.709 68.4823 106.709 68.2303C106.709 67.8883 106.619 67.6153 106.439 67.4113C106.259 67.2013 106.031 67.0663 105.755 67.0063C105.635 66.9643 105.503 66.9403 105.359 66.9343C105.215 66.9283 105.092 66.9253 104.99 66.9253H102.425V69.5353ZM102.425 65.4133H104.531C104.705 65.4133 104.882 65.4043 105.062 65.3863C105.242 65.3623 105.398 65.3233 105.53 65.2693C105.764 65.1793 105.938 65.0293 106.052 64.8193C106.166 64.6033 106.223 64.3693 106.223 64.1173C106.223 63.8413 106.16 63.5953 106.034 63.3793C105.908 63.1633 105.719 63.0133 105.467 62.9293C105.293 62.8693 105.092 62.8363 104.864 62.8303C104.642 62.8183 104.501 62.8123 104.441 62.8123H102.425V65.4133ZM110.448 71.0203V61.3003H112.329V65.2693H117.072V61.3003H118.953V71.0203H117.072V67.0423H112.329V71.0203H110.448ZM125.7 71.2903C124.728 71.2903 123.885 71.0713 123.171 70.6333C122.457 70.1953 121.905 69.5923 121.515 68.8243C121.131 68.0503 120.939 67.1593 120.939 66.1513C120.939 65.1373 121.137 64.2463 121.533 63.4783C121.929 62.7043 122.484 62.1043 123.198 61.6783C123.912 61.2463 124.746 61.0303 125.7 61.0303C126.672 61.0303 127.515 61.2493 128.229 61.6873C128.943 62.1253 129.495 62.7283 129.885 63.4963C130.275 64.2643 130.47 65.1493 130.47 66.1513C130.47 67.1653 130.272 68.0593 129.876 68.8333C129.486 69.6013 128.934 70.2043 128.22 70.6423C127.506 71.0743 126.666 71.2903 125.7 71.2903ZM125.7 69.5173C126.63 69.5173 127.323 69.2053 127.779 68.5813C128.241 67.9513 128.472 67.1413 128.472 66.1513C128.472 65.1373 128.238 64.3273 127.77 63.7213C127.308 63.1093 126.618 62.8033 125.7 62.8033C125.07 62.8033 124.551 62.9473 124.143 63.2353C123.735 63.5173 123.432 63.9103 123.234 64.4143C123.036 64.9123 122.937 65.4913 122.937 66.1513C122.937 67.1713 123.171 67.9873 123.639 68.5993C124.107 69.2113 124.794 69.5173 125.7 69.5173ZM136.606 71.2903C135.61 71.2903 134.764 71.0683 134.068 70.6243C133.372 70.1803 132.838 69.5713 132.466 68.7973C132.1 68.0233 131.914 67.1443 131.908 66.1603C131.914 65.1583 132.106 64.2733 132.484 63.5053C132.862 62.7313 133.402 62.1253 134.104 61.6873C134.806 61.2493 135.649 61.0303 136.633 61.0303C137.695 61.0303 138.601 61.2943 139.351 61.8223C140.107 62.3503 140.605 63.0733 140.845 63.9913L138.973 64.5313C138.787 63.9853 138.481 63.5623 138.055 63.2623C137.635 62.9563 137.152 62.8033 136.606 62.8033C135.988 62.8033 135.481 62.9503 135.085 63.2443C134.689 63.5323 134.395 63.9283 134.203 64.4323C134.011 64.9363 133.912 65.5123 133.906 66.1603C133.912 67.1623 134.14 67.9723 134.59 68.5903C135.046 69.2083 135.718 69.5173 136.606 69.5173C137.212 69.5173 137.701 69.3793 138.073 69.1033C138.451 68.8213 138.739 68.4193 138.937 67.8973L140.845 68.3473C140.527 69.2953 140.002 70.0243 139.27 70.5343C138.538 71.0383 137.65 71.2903 136.606 71.2903ZM145.084 71.0203V62.9923H141.763V61.3003H150.286V62.9923H146.965V71.0203H145.084ZM151.985 71.0203V61.3003H153.875V64.6753H155.792C156.068 64.6753 156.362 64.6813 156.674 64.6933C156.992 64.7053 157.265 64.7353 157.493 64.7833C158.015 64.8913 158.465 65.0713 158.843 65.3233C159.227 65.5753 159.524 65.9113 159.734 66.3313C159.944 66.7453 160.049 67.2553 160.049 67.8613C160.049 68.7073 159.827 69.3823 159.383 69.8863C158.945 70.3843 158.351 70.7203 157.601 70.8943C157.361 70.9483 157.076 70.9843 156.746 71.0023C156.422 71.0143 156.125 71.0203 155.855 71.0203H151.985ZM153.875 69.5083H155.963C156.113 69.5083 156.284 69.5023 156.476 69.4903C156.668 69.4783 156.845 69.4513 157.007 69.4093C157.295 69.3253 157.553 69.1543 157.781 68.8963C158.009 68.6383 158.123 68.2933 158.123 67.8613C158.123 67.4173 158.009 67.0633 157.781 66.7993C157.559 66.5353 157.277 66.3643 156.935 66.2863C156.773 66.2443 156.608 66.2173 156.44 66.2053C156.272 66.1933 156.113 66.1873 155.963 66.1873H153.875V69.5083ZM169.631 71.2993C168.707 71.2933 167.921 71.0923 167.273 70.6963C166.625 70.3003 166.118 69.7303 165.752 68.9863C165.392 68.2363 165.182 67.3333 165.122 66.2773C165.092 65.7673 165.095 65.2033 165.131 64.5853C165.167 63.9613 165.233 63.3583 165.329 62.7763C165.431 62.1943 165.56 61.7083 165.716 61.3183C165.89 60.8863 166.127 60.4903 166.427 60.1303C166.727 59.7643 167.057 59.4583 167.417 59.2123C167.801 58.9483 168.227 58.7443 168.695 58.6003C169.163 58.4503 169.652 58.3333 170.162 58.2493C170.678 58.1653 171.197 58.0933 171.719 58.0333C172.247 57.9673 172.76 57.8863 173.258 57.7903L173.438 59.4733C173.108 59.5513 172.718 59.6143 172.268 59.6623C171.824 59.7103 171.362 59.7643 170.882 59.8243C170.408 59.8843 169.955 59.9683 169.523 60.0763C169.091 60.1843 168.716 60.3373 168.398 60.5353C167.948 60.8113 167.603 61.2133 167.363 61.7413C167.129 62.2693 166.988 62.8423 166.94 63.4603C167.312 62.8963 167.786 62.4913 168.362 62.2453C168.938 61.9933 169.535 61.8673 170.153 61.8673C171.017 61.8673 171.761 62.0713 172.385 62.4793C173.015 62.8873 173.498 63.4423 173.834 64.1443C174.17 64.8463 174.338 65.6413 174.338 66.5293C174.338 67.4893 174.14 68.3293 173.744 69.0493C173.354 69.7633 172.805 70.3213 172.097 70.7233C171.389 71.1193 170.567 71.3113 169.631 71.2993ZM169.73 69.5263C170.594 69.5263 171.245 69.2593 171.683 68.7253C172.127 68.1913 172.349 67.4803 172.349 66.5923C172.349 65.6803 172.121 64.9633 171.665 64.4413C171.209 63.9193 170.564 63.6583 169.73 63.6583C168.884 63.6583 168.236 63.9193 167.786 64.4413C167.342 64.9633 167.12 65.6803 167.12 66.5923C167.12 67.5163 167.345 68.2363 167.795 68.7523C168.245 69.2683 168.89 69.5263 169.73 69.5263ZM184.513 61.3003V71.0203H182.704V64.2613L177.844 71.0203H176.314V61.3003H178.123V67.9243L182.992 61.3003H184.513ZM190.493 71.2903C189.551 71.2903 188.705 71.0893 187.955 70.6873C187.211 70.2853 186.623 69.7303 186.191 69.0223L187.685 68.0413C188.033 68.5093 188.435 68.8723 188.891 69.1303C189.353 69.3883 189.872 69.5173 190.448 69.5173C191.048 69.5173 191.522 69.3823 191.87 69.1123C192.224 68.8363 192.401 68.4673 192.401 68.0053C192.401 67.6393 192.299 67.3693 192.095 67.1953C191.897 67.0153 191.621 66.8983 191.267 66.8443C190.919 66.7903 190.523 66.7633 190.079 66.7633H189.215V65.2513H190.079C190.667 65.2513 191.15 65.1703 191.528 65.0083C191.912 64.8403 192.104 64.5253 192.104 64.0633C192.104 63.6133 191.939 63.2893 191.609 63.0913C191.285 62.8933 190.898 62.7943 190.448 62.7943C189.944 62.7943 189.455 62.9023 188.981 63.1183C188.507 63.3283 188.093 63.5893 187.739 63.9013L186.641 62.6143C187.157 62.1163 187.745 61.7293 188.405 61.4533C189.071 61.1713 189.785 61.0303 190.547 61.0303C191.171 61.0303 191.747 61.1413 192.275 61.3633C192.809 61.5793 193.235 61.9003 193.553 62.3263C193.877 62.7523 194.039 63.2773 194.039 63.9013C194.039 64.3873 193.931 64.8313 193.715 65.2333C193.499 65.6353 193.169 66.0013 192.725 66.3313L192.671 65.6923C193.037 65.8063 193.343 65.9893 193.589 66.2413C193.835 66.4933 194.018 66.7903 194.138 67.1323C194.264 67.4683 194.327 67.8253 194.327 68.2033C194.327 68.8573 194.153 69.4153 193.805 69.8773C193.463 70.3393 193.001 70.6903 192.419 70.9303C191.837 71.1703 191.195 71.2903 190.493 71.2903ZM196.3 71.0203V61.3003H198.181V65.2693H202.924V61.3003H204.805V71.0203H202.924V67.0423H198.181V71.0203H196.3ZM211.641 71.2903C210.675 71.2903 209.826 71.0803 209.094 70.6603C208.368 70.2343 207.801 69.6433 207.393 68.8873C206.991 68.1253 206.79 67.2433 206.79 66.2413C206.79 65.1793 206.988 64.2583 207.384 63.4783C207.786 62.6983 208.344 62.0953 209.058 61.6693C209.772 61.2433 210.603 61.0303 211.551 61.0303C212.541 61.0303 213.384 61.2613 214.08 61.7233C214.776 62.1793 215.295 62.8303 215.637 63.6763C215.985 64.5223 216.123 65.5273 216.051 66.6913H214.17V66.0073C214.158 64.8793 213.942 64.0453 213.522 63.5053C213.108 62.9653 212.475 62.6953 211.623 62.6953C210.681 62.6953 209.973 62.9923 209.499 63.5863C209.025 64.1803 208.788 65.0383 208.788 66.1603C208.788 67.2283 209.025 68.0563 209.499 68.6443C209.973 69.2263 210.657 69.5173 211.551 69.5173C212.139 69.5173 212.646 69.3853 213.072 69.1213C213.504 68.8513 213.84 68.4673 214.08 67.9693L215.925 68.5543C215.547 69.4243 214.974 70.0993 214.206 70.5793C213.438 71.0533 212.583 71.2903 211.641 71.2903ZM208.176 66.6913V65.2243H215.115V66.6913H208.176ZM222.229 71.2903C221.233 71.2903 220.387 71.0683 219.691 70.6243C218.995 70.1803 218.461 69.5713 218.089 68.7973C217.723 68.0233 217.537 67.1443 217.531 66.1603C217.537 65.1583 217.729 64.2733 218.107 63.5053C218.485 62.7313 219.025 62.1253 219.727 61.6873C220.429 61.2493 221.272 61.0303 222.256 61.0303C223.318 61.0303 224.224 61.2943 224.974 61.8223C225.73 62.3503 226.228 63.0733 226.468 63.9913L224.596 64.5313C224.41 63.9853 224.104 63.5623 223.678 63.2623C223.258 62.9563 222.775 62.8033 222.229 62.8033C221.611 62.8033 221.104 62.9503 220.708 63.2443C220.312 63.5323 220.018 63.9283 219.826 64.4323C219.634 64.9363 219.535 65.5123 219.529 66.1603C219.535 67.1623 219.763 67.9723 220.213 68.5903C220.669 69.2083 221.341 69.5173 222.229 69.5173C222.835 69.5173 223.324 69.3793 223.696 69.1033C224.074 68.8213 224.362 68.4193 224.56 67.8973L226.468 68.3473C226.15 69.2953 225.625 70.0243 224.893 70.5343C224.161 71.0383 223.273 71.2903 222.229 71.2903ZM228.121 66.0973V64.5853H233.521V66.0973H228.121ZM24.4209 91.0203V81.3003H32.6199V91.0203H30.7389V83.0733H26.3019V91.0203H24.4209ZM39.698 91.2903C38.768 91.2903 37.988 91.0653 37.358 90.6153C36.728 90.1593 36.251 89.5443 35.927 88.7703C35.603 87.9963 35.441 87.1233 35.441 86.1513C35.441 85.1793 35.6 84.3063 35.918 83.5323C36.242 82.7583 36.716 82.1493 37.34 81.7053C37.97 81.2553 38.744 81.0303 39.662 81.0303C40.574 81.0303 41.36 81.2553 42.02 81.7053C42.686 82.1493 43.199 82.7583 43.559 83.5323C43.919 84.3003 44.099 85.1733 44.099 86.1513C44.099 87.1233 43.919 87.9993 43.559 88.7793C43.205 89.5533 42.698 90.1653 42.038 90.6153C41.384 91.0653 40.604 91.2903 39.698 91.2903ZM35.126 95.3403V81.3003H36.8V88.2933H37.016V95.3403H35.126ZM39.437 89.5893C40.037 89.5893 40.532 89.4363 40.922 89.1303C41.318 88.8243 41.612 88.4133 41.804 87.8973C42.002 87.3753 42.101 86.7933 42.101 86.1513C42.101 85.5153 42.002 84.9393 41.804 84.4233C41.612 83.9073 41.315 83.4963 40.913 83.1903C40.511 82.8843 39.998 82.7313 39.374 82.7313C38.786 82.7313 38.3 82.8753 37.916 83.1633C37.538 83.4513 37.256 83.8533 37.07 84.3693C36.89 84.8853 36.8 85.4793 36.8 86.1513C36.8 86.8233 36.89 87.4173 37.07 87.9333C37.25 88.4493 37.535 88.8543 37.925 89.1483C38.315 89.4423 38.819 89.5893 39.437 89.5893ZM50.3072 91.2903C49.3352 91.2903 48.4922 91.0713 47.7782 90.6333C47.0642 90.1953 46.5122 89.5923 46.1222 88.8243C45.7382 88.0503 45.5462 87.1593 45.5462 86.1513C45.5462 85.1373 45.7442 84.2463 46.1402 83.4783C46.5362 82.7043 47.0912 82.1043 47.8052 81.6783C48.5192 81.2463 49.3532 81.0303 50.3072 81.0303C51.2792 81.0303 52.1222 81.2493 52.8362 81.6873C53.5502 82.1253 54.1022 82.7283 54.4922 83.4963C54.8822 84.2643 55.0772 85.1493 55.0772 86.1513C55.0772 87.1653 54.8792 88.0593 54.4832 88.8333C54.0932 89.6013 53.5412 90.2043 52.8272 90.6423C52.1132 91.0743 51.2732 91.2903 50.3072 91.2903ZM50.3072 89.5173C51.2372 89.5173 51.9302 89.2053 52.3862 88.5813C52.8482 87.9513 53.0792 87.1413 53.0792 86.1513C53.0792 85.1373 52.8452 84.3273 52.3772 83.7213C51.9152 83.1093 51.2252 82.8033 50.3072 82.8033C49.6772 82.8033 49.1582 82.9473 48.7502 83.2353C48.3422 83.5173 48.0392 83.9103 47.8412 84.4143C47.6432 84.9123 47.5442 85.4913 47.5442 86.1513C47.5442 87.1713 47.7782 87.9873 48.2462 88.5993C48.7142 89.2113 49.4012 89.5173 50.3072 89.5173ZM65.2629 92.9373V91.0203H57.0459V81.3003H58.9269V89.2473H63.3639V81.3003H65.2449V89.3283H67.1439V92.9373H65.2629ZM72.8972 91.2903C71.9312 91.2903 71.0822 91.0803 70.3502 90.6603C69.6242 90.2343 69.0572 89.6433 68.6492 88.8873C68.2472 88.1253 68.0462 87.2433 68.0462 86.2413C68.0462 85.1793 68.2442 84.2583 68.6402 83.4783C69.0422 82.6983 69.6002 82.0953 70.3142 81.6693C71.0282 81.2433 71.8592 81.0303 72.8072 81.0303C73.7972 81.0303 74.6402 81.2613 75.3362 81.7233C76.0322 82.1793 76.5512 82.8303 76.8932 83.6763C77.2412 84.5223 77.3792 85.5273 77.3072 86.6913H75.4262V86.0073C75.4142 84.8793 75.1982 84.0453 74.7782 83.5053C74.3642 82.9653 73.7312 82.6953 72.8792 82.6953C71.9372 82.6953 71.2292 82.9923 70.7552 83.5863C70.2812 84.1803 70.0442 85.0383 70.0442 86.1603C70.0442 87.2283 70.2812 88.0563 70.7552 88.6443C71.2292 89.2263 71.9132 89.5173 72.8072 89.5173C73.3952 89.5173 73.9022 89.3853 74.3282 89.1213C74.7602 88.8513 75.0962 88.4673 75.3362 87.9693L77.1812 88.5543C76.8032 89.4243 76.2302 90.0993 75.4622 90.5793C74.6942 91.0533 73.8392 91.2903 72.8972 91.2903ZM69.4322 86.6913V85.2243H76.3712V86.6913H69.4322ZM83.4844 91.2903C82.4884 91.2903 81.6424 91.0683 80.9464 90.6243C80.2504 90.1803 79.7164 89.5713 79.3444 88.7973C78.9784 88.0233 78.7924 87.1443 78.7864 86.1603C78.7924 85.1583 78.9844 84.2733 79.3624 83.5053C79.7404 82.7313 80.2804 82.1253 80.9824 81.6873C81.6844 81.2493 82.5274 81.0303 83.5114 81.0303C84.5734 81.0303 85.4794 81.2943 86.2294 81.8223C86.9854 82.3503 87.4834 83.0733 87.7234 83.9913L85.8514 84.5313C85.6654 83.9853 85.3594 83.5623 84.9334 83.2623C84.5134 82.9563 84.0304 82.8033 83.4844 82.8033C82.8664 82.8033 82.3594 82.9503 81.9634 83.2443C81.5674 83.5323 81.2734 83.9283 81.0814 84.4323C80.8894 84.9363 80.7904 85.5123 80.7844 86.1603C80.7904 87.1623 81.0184 87.9723 81.4684 88.5903C81.9244 89.2083 82.5964 89.5173 83.4844 89.5173C84.0904 89.5173 84.5794 89.3793 84.9514 89.1033C85.3294 88.8213 85.6174 88.4193 85.8154 87.8973L87.7234 88.3473C87.4054 89.2953 86.8804 90.0243 86.1484 90.5343C85.4164 91.0383 84.5284 91.2903 83.4844 91.2903ZM93.4512 91.2903C92.4552 91.2903 91.6092 91.0683 90.9132 90.6243C90.2172 90.1803 89.6832 89.5713 89.3112 88.7973C88.9452 88.0233 88.7592 87.1443 88.7532 86.1603C88.7592 85.1583 88.9512 84.2733 89.3292 83.5053C89.7072 82.7313 90.2472 82.1253 90.9492 81.6873C91.6512 81.2493 92.4942 81.0303 93.4782 81.0303C94.5402 81.0303 95.4462 81.2943 96.1962 81.8223C96.9522 82.3503 97.4502 83.0733 97.6902 83.9913L95.8182 84.5313C95.6322 83.9853 95.3262 83.5623 94.9002 83.2623C94.4802 82.9563 93.9972 82.8033 93.4512 82.8033C92.8332 82.8033 92.3262 82.9503 91.9302 83.2443C91.5342 83.5323 91.2402 83.9283 91.0482 84.4323C90.8562 84.9363 90.7572 85.5123 90.7512 86.1603C90.7572 87.1623 90.9852 87.9723 91.4352 88.5903C91.8912 89.2083 92.5632 89.5173 93.4512 89.5173C94.0572 89.5173 94.5462 89.3793 94.9182 89.1033C95.2962 88.8213 95.5842 88.4193 95.7822 87.8973L97.6902 88.3473C97.3722 89.2953 96.8472 90.0243 96.1152 90.5343C95.3832 91.0383 94.4952 91.2903 93.4512 91.2903ZM103.481 91.2903C102.509 91.2903 101.666 91.0713 100.952 90.6333C100.238 90.1953 99.686 89.5923 99.296 88.8243C98.912 88.0503 98.72 87.1593 98.72 86.1513C98.72 85.1373 98.918 84.2463 99.314 83.4783C99.71 82.7043 100.265 82.1043 100.979 81.6783C101.693 81.2463 102.527 81.0303 103.481 81.0303C104.453 81.0303 105.296 81.2493 106.01 81.6873C106.724 82.1253 107.276 82.7283 107.666 83.4963C108.056 84.2643 108.251 85.1493 108.251 86.1513C108.251 87.1653 108.053 88.0593 107.657 88.8333C107.267 89.6013 106.715 90.2043 106.001 90.6423C105.287 91.0743 104.447 91.2903 103.481 91.2903ZM103.481 89.5173C104.411 89.5173 105.104 89.2053 105.56 88.5813C106.022 87.9513 106.253 87.1413 106.253 86.1513C106.253 85.1373 106.019 84.3273 105.551 83.7213C105.089 83.1093 104.399 82.8033 103.481 82.8033C102.851 82.8033 102.332 82.9473 101.924 83.2353C101.516 83.5173 101.213 83.9103 101.015 84.4143C100.817 84.9123 100.718 85.4913 100.718 86.1513C100.718 87.1713 100.952 87.9873 101.42 88.5993C101.888 89.2113 102.575 89.5173 103.481 89.5173ZM110.22 91.0203V81.3003H114.495C114.777 81.3003 115.059 81.3183 115.341 81.3543C115.623 81.3843 115.872 81.4293 116.088 81.4893C116.58 81.6273 117 81.9033 117.348 82.3173C117.696 82.7253 117.87 83.2713 117.87 83.9553C117.87 84.3453 117.81 84.6753 117.69 84.9453C117.57 85.2093 117.405 85.4373 117.195 85.6293C117.099 85.7133 116.997 85.7883 116.889 85.8543C116.781 85.9203 116.673 85.9713 116.565 86.0073C116.787 86.0433 117.006 86.1213 117.222 86.2413C117.552 86.4153 117.822 86.6673 118.032 86.9973C118.248 87.3213 118.356 87.7563 118.356 88.3023C118.356 88.9563 118.197 89.5053 117.879 89.9493C117.561 90.3873 117.111 90.6873 116.529 90.8493C116.301 90.9153 116.043 90.9603 115.755 90.9843C115.473 91.0083 115.191 91.0203 114.909 91.0203H110.22ZM112.128 89.5353H114.792C114.918 89.5353 115.062 89.5233 115.224 89.4993C115.386 89.4753 115.53 89.4423 115.656 89.4003C115.926 89.3163 116.118 89.1633 116.232 88.9413C116.352 88.7193 116.412 88.4823 116.412 88.2303C116.412 87.8883 116.322 87.6153 116.142 87.4113C115.962 87.2013 115.734 87.0663 115.458 87.0063C115.338 86.9643 115.206 86.9403 115.062 86.9343C114.918 86.9283 114.795 86.9253 114.693 86.9253H112.128V89.5353ZM112.128 85.4133H114.234C114.408 85.4133 114.585 85.4043 114.765 85.3863C114.945 85.3623 115.101 85.3233 115.233 85.2693C115.467 85.1793 115.641 85.0293 115.755 84.8193C115.869 84.6033 115.926 84.3693 115.926 84.1173C115.926 83.8413 115.863 83.5953 115.737 83.3793C115.611 83.1633 115.422 83.0133 115.17 82.9293C114.996 82.8693 114.795 82.8363 114.567 82.8303C114.345 82.8183 114.204 82.8123 114.144 82.8123H112.128V85.4133Z" fill="white"/>
<path d="M62.5955 151.22V140.033H58.2845V138.26H68.7875V140.033H64.4765V151.22H62.5955ZM73.0074 151.49C72.0354 151.49 71.1924 151.271 70.4784 150.833C69.7644 150.395 69.2124 149.792 68.8224 149.024C68.4384 148.25 68.2464 147.359 68.2464 146.351C68.2464 145.337 68.4444 144.446 68.8404 143.678C69.2364 142.904 69.7914 142.304 70.5054 141.878C71.2194 141.446 72.0534 141.23 73.0074 141.23C73.9794 141.23 74.8224 141.449 75.5364 141.887C76.2504 142.325 76.8024 142.928 77.1924 143.696C77.5824 144.464 77.7774 145.349 77.7774 146.351C77.7774 147.365 77.5794 148.259 77.1834 149.033C76.7934 149.801 76.2414 150.404 75.5274 150.842C74.8134 151.274 73.9734 151.49 73.0074 151.49ZM73.0074 149.717C73.9374 149.717 74.6304 149.405 75.0864 148.781C75.5484 148.151 75.7794 147.341 75.7794 146.351C75.7794 145.337 75.5454 144.527 75.0774 143.921C74.6154 143.309 73.9254 143.003 73.0074 143.003C72.3774 143.003 71.8584 143.147 71.4504 143.435C71.0424 143.717 70.7394 144.11 70.5414 144.614C70.3434 145.112 70.2444 145.691 70.2444 146.351C70.2444 147.371 70.4784 148.187 70.9464 148.799C71.4144 149.411 72.1014 149.717 73.0074 149.717ZM85.5061 151.22V147.836C85.1761 148.004 84.7891 148.142 84.3451 148.25C83.9011 148.352 83.4331 148.403 82.9411 148.403C81.9451 148.403 81.1441 148.181 80.5381 147.737C79.9381 147.287 79.5481 146.639 79.3681 145.793C79.3201 145.541 79.2841 145.283 79.2601 145.019C79.2361 144.749 79.2211 144.503 79.2151 144.281C79.2151 144.059 79.2151 143.894 79.2151 143.786V141.5H81.1231V143.786C81.1231 143.942 81.1291 144.149 81.1411 144.407C81.1531 144.659 81.1861 144.905 81.2401 145.145C81.3541 145.685 81.5821 146.087 81.9241 146.351C82.2661 146.609 82.7491 146.738 83.3731 146.738C83.8231 146.738 84.2281 146.681 84.5881 146.567C84.9541 146.447 85.2601 146.294 85.5061 146.108V141.5H87.4051V151.22H85.5061ZM89.9239 151.22V141.5H91.8049V145.469H96.5479V141.5H98.4289V151.22H96.5479V147.242H91.8049V151.22H89.9239ZM105.175 151.49C104.203 151.49 103.36 151.271 102.646 150.833C101.932 150.395 101.38 149.792 100.99 149.024C100.606 148.25 100.414 147.359 100.414 146.351C100.414 145.337 100.612 144.446 101.008 143.678C101.404 142.904 101.959 142.304 102.673 141.878C103.387 141.446 104.221 141.23 105.175 141.23C106.147 141.23 106.99 141.449 107.704 141.887C108.418 142.325 108.97 142.928 109.36 143.696C109.75 144.464 109.945 145.349 109.945 146.351C109.945 147.365 109.747 148.259 109.351 149.033C108.961 149.801 108.409 150.404 107.695 150.842C106.981 151.274 106.141 151.49 105.175 151.49ZM105.175 149.717C106.105 149.717 106.798 149.405 107.254 148.781C107.716 148.151 107.947 147.341 107.947 146.351C107.947 145.337 107.713 144.527 107.245 143.921C106.783 143.309 106.093 143.003 105.175 143.003C104.545 143.003 104.026 143.147 103.618 143.435C103.21 143.717 102.907 144.11 102.709 144.614C102.511 145.112 102.412 145.691 102.412 146.351C102.412 147.371 102.646 148.187 103.114 148.799C103.582 149.411 104.269 149.717 105.175 149.717ZM116.081 151.49C115.085 151.49 114.239 151.268 113.543 150.824C112.847 150.38 112.313 149.771 111.941 148.997C111.575 148.223 111.389 147.344 111.383 146.36C111.389 145.358 111.581 144.473 111.959 143.705C112.337 142.931 112.877 142.325 113.579 141.887C114.281 141.449 115.124 141.23 116.108 141.23C117.17 141.23 118.076 141.494 118.826 142.022C119.582 142.55 120.08 143.273 120.32 144.191L118.448 144.731C118.262 144.185 117.956 143.762 117.53 143.462C117.11 143.156 116.627 143.003 116.081 143.003C115.463 143.003 114.956 143.15 114.56 143.444C114.164 143.732 113.87 144.128 113.678 144.632C113.486 145.136 113.387 145.712 113.381 146.36C113.387 147.362 113.615 148.172 114.065 148.79C114.521 149.408 115.193 149.717 116.081 149.717C116.687 149.717 117.176 149.579 117.548 149.303C117.926 149.021 118.214 148.619 118.412 148.097L120.32 148.547C120.002 149.495 119.477 150.224 118.745 150.734C118.013 151.238 117.125 151.49 116.081 151.49ZM124.559 151.22V143.192H121.238V141.5H129.761V143.192H126.44V151.22H124.559ZM131.461 151.22V141.5H133.351V144.875H135.268C135.544 144.875 135.838 144.881 136.15 144.893C136.468 144.905 136.741 144.935 136.969 144.983C137.491 145.091 137.941 145.271 138.319 145.523C138.703 145.775 139 146.111 139.21 146.531C139.42 146.945 139.525 147.455 139.525 148.061C139.525 148.907 139.303 149.582 138.859 150.086C138.421 150.584 137.827 150.92 137.077 151.094C136.837 151.148 136.552 151.184 136.222 151.202C135.898 151.214 135.601 151.22 135.331 151.22H131.461ZM133.351 149.708H135.439C135.589 149.708 135.76 149.702 135.952 149.69C136.144 149.678 136.321 149.651 136.483 149.609C136.771 149.525 137.029 149.354 137.257 149.096C137.485 148.838 137.599 148.493 137.599 148.061C137.599 147.617 137.485 147.263 137.257 146.999C137.035 146.735 136.753 146.564 136.411 146.486C136.249 146.444 136.084 146.417 135.916 146.405C135.748 146.393 135.589 146.387 135.439 146.387H133.351V149.708ZM153.301 141.5V151.22H151.492V144.461L146.632 151.22H145.102V141.5H146.911V148.124L151.78 141.5H153.301ZM155.807 151.22V141.5H157.688V145.469H162.431V141.5H164.312V151.22H162.431V147.242H157.688V151.22H155.807ZM171.409 155.27V151.391C170.461 151.541 169.6 151.439 168.826 151.085C168.052 150.731 167.437 150.155 166.981 149.357C166.525 148.559 166.297 147.563 166.297 146.369C166.297 145.175 166.525 144.176 166.981 143.372C167.437 142.568 168.052 141.989 168.826 141.635C169.6 141.281 170.461 141.179 171.409 141.329V138.386H173.101V141.329C174.049 141.179 174.91 141.281 175.684 141.635C176.458 141.989 177.073 142.568 177.529 143.372C177.985 144.176 178.213 145.175 178.213 146.369C178.213 147.563 177.985 148.559 177.529 149.357C177.073 150.155 176.458 150.731 175.684 151.085C174.91 151.439 174.049 151.541 173.101 151.391V155.27H171.409ZM171.409 149.69V143.039C170.923 142.955 170.482 142.97 170.086 143.084C169.696 143.198 169.363 143.399 169.087 143.687C168.811 143.969 168.598 144.338 168.448 144.794C168.298 145.244 168.223 145.769 168.223 146.369C168.223 146.969 168.298 147.494 168.448 147.944C168.604 148.394 168.823 148.763 169.105 149.051C169.393 149.333 169.732 149.531 170.122 149.645C170.512 149.753 170.941 149.768 171.409 149.69ZM173.101 149.69C173.569 149.768 173.998 149.753 174.388 149.645C174.778 149.537 175.114 149.342 175.396 149.06C175.684 148.778 175.903 148.412 176.053 147.962C176.209 147.506 176.287 146.975 176.287 146.369C176.287 145.757 176.212 145.226 176.062 144.776C175.912 144.32 175.699 143.951 175.423 143.669C175.147 143.381 174.811 143.183 174.415 143.075C174.025 142.967 173.587 142.955 173.101 143.039V149.69ZM184.418 151.49C183.446 151.49 182.603 151.271 181.889 150.833C181.175 150.395 180.623 149.792 180.233 149.024C179.849 148.25 179.657 147.359 179.657 146.351C179.657 145.337 179.855 144.446 180.251 143.678C180.647 142.904 181.202 142.304 181.916 141.878C182.63 141.446 183.464 141.23 184.418 141.23C185.39 141.23 186.233 141.449 186.947 141.887C187.661 142.325 188.213 142.928 188.603 143.696C188.993 144.464 189.188 145.349 189.188 146.351C189.188 147.365 188.99 148.259 188.594 149.033C188.204 149.801 187.652 150.404 186.938 150.842C186.224 151.274 185.384 151.49 184.418 151.49ZM184.418 149.717C185.348 149.717 186.041 149.405 186.497 148.781C186.959 148.151 187.19 147.341 187.19 146.351C187.19 145.337 186.956 144.527 186.488 143.921C186.026 143.309 185.336 143.003 184.418 143.003C183.788 143.003 183.269 143.147 182.861 143.435C182.453 143.717 182.15 144.11 181.952 144.614C181.754 145.112 181.655 145.691 181.655 146.351C181.655 147.371 181.889 148.187 182.357 148.799C182.825 149.411 183.512 149.717 184.418 149.717ZM195.728 151.49C194.798 151.49 194.018 151.265 193.388 150.815C192.758 150.359 192.281 149.744 191.957 148.97C191.633 148.196 191.471 147.323 191.471 146.351C191.471 145.379 191.63 144.506 191.948 143.732C192.272 142.958 192.746 142.349 193.37 141.905C194 141.455 194.774 141.23 195.692 141.23C196.604 141.23 197.39 141.455 198.05 141.905C198.716 142.349 199.229 142.958 199.589 143.732C199.949 144.5 200.129 145.373 200.129 146.351C200.129 147.323 199.949 148.199 199.589 148.979C199.235 149.753 198.728 150.365 198.068 150.815C197.414 151.265 196.634 151.49 195.728 151.49ZM191.156 155.54V141.5H192.83V148.493H193.046V155.54H191.156ZM195.467 149.789C196.067 149.789 196.562 149.636 196.952 149.33C197.348 149.024 197.642 148.613 197.834 148.097C198.032 147.575 198.131 146.993 198.131 146.351C198.131 145.715 198.032 145.139 197.834 144.623C197.642 144.107 197.345 143.696 196.943 143.39C196.541 143.084 196.028 142.931 195.404 142.931C194.816 142.931 194.33 143.075 193.946 143.363C193.568 143.651 193.286 144.053 193.1 144.569C192.92 145.085 192.83 145.679 192.83 146.351C192.83 147.023 192.92 147.617 193.1 148.133C193.28 148.649 193.565 149.054 193.955 149.348C194.345 149.642 194.849 149.789 195.467 149.789ZM202.107 151.22V141.5H203.682L207.273 148.628L210.855 141.5H212.439V151.22H210.621V145.352L207.696 151.22H206.841L203.916 145.352V151.22H202.107ZM217.711 151.49C216.991 151.49 216.388 151.358 215.902 151.094C215.416 150.824 215.047 150.47 214.795 150.032C214.549 149.588 214.426 149.102 214.426 148.574C214.426 148.082 214.513 147.65 214.687 147.278C214.861 146.906 215.119 146.591 215.461 146.333C215.803 146.069 216.223 145.856 216.721 145.694C217.153 145.568 217.642 145.457 218.188 145.361C218.734 145.265 219.307 145.175 219.907 145.091C220.513 145.007 221.113 144.923 221.707 144.839L221.023 145.217C221.035 144.455 220.873 143.891 220.537 143.525C220.207 143.153 219.637 142.967 218.827 142.967C218.317 142.967 217.849 143.087 217.423 143.327C216.997 143.561 216.7 143.951 216.532 144.497L214.777 143.957C215.017 143.123 215.473 142.46 216.145 141.968C216.823 141.476 217.723 141.23 218.845 141.23C219.715 141.23 220.471 141.38 221.113 141.68C221.761 141.974 222.235 142.442 222.535 143.084C222.691 143.402 222.787 143.738 222.823 144.092C222.859 144.446 222.877 144.827 222.877 145.235V151.22H221.212V148.997L221.536 149.285C221.134 150.029 220.621 150.584 219.997 150.95C219.379 151.31 218.617 151.49 217.711 151.49ZM218.044 149.951C218.578 149.951 219.037 149.858 219.421 149.672C219.805 149.48 220.114 149.237 220.348 148.943C220.582 148.649 220.735 148.343 220.807 148.025C220.909 147.737 220.966 147.413 220.978 147.053C220.996 146.693 221.005 146.405 221.005 146.189L221.617 146.414C221.023 146.504 220.483 146.585 219.997 146.657C219.511 146.729 219.07 146.801 218.674 146.873C218.284 146.939 217.936 147.02 217.63 147.116C217.372 147.206 217.141 147.314 216.937 147.44C216.739 147.566 216.58 147.719 216.46 147.899C216.346 148.079 216.289 148.298 216.289 148.556C216.289 148.808 216.352 149.042 216.478 149.258C216.604 149.468 216.796 149.636 217.054 149.762C217.312 149.888 217.642 149.951 218.044 149.951ZM233.422 153.137V151.22H225.205V141.5H227.086V149.447H231.523V141.5H233.404V149.528H235.303V153.137H233.422ZM244.935 141.5V151.22H243.126V144.461L238.266 151.22H236.736V141.5H238.545V148.124L243.414 141.5H244.935ZM255.64 141.5V151.22H253.831V144.461L248.971 151.22H247.441V141.5H249.25V148.124L254.119 141.5H255.64Z" fill="#F6F9F6"/>
<path d="M100.074 213.724V200.764H110.379V213.724H108.498V202.537H101.955V213.724H100.074ZM117.127 213.994C116.155 213.994 115.312 213.775 114.598 213.337C113.884 212.899 113.332 212.296 112.942 211.528C112.558 210.754 112.366 209.863 112.366 208.855C112.366 207.841 112.564 206.95 112.96 206.182C113.356 205.408 113.911 204.808 114.625 204.382C115.339 203.95 116.173 203.734 117.127 203.734C118.099 203.734 118.942 203.953 119.656 204.391C120.37 204.829 120.922 205.432 121.312 206.2C121.702 206.968 121.897 207.853 121.897 208.855C121.897 209.869 121.699 210.763 121.303 211.537C120.913 212.305 120.361 212.908 119.647 213.346C118.933 213.778 118.093 213.994 117.127 213.994ZM117.127 212.221C118.057 212.221 118.75 211.909 119.206 211.285C119.668 210.655 119.899 209.845 119.899 208.855C119.899 207.841 119.665 207.031 119.197 206.425C118.735 205.813 118.045 205.507 117.127 205.507C116.497 205.507 115.978 205.651 115.57 205.939C115.162 206.221 114.859 206.614 114.661 207.118C114.463 207.616 114.364 208.195 114.364 208.855C114.364 209.875 114.598 210.691 115.066 211.303C115.534 211.915 116.221 212.221 117.127 212.221ZM123.155 215.884V212.212C123.689 212.212 124.07 212.035 124.298 211.681C124.532 211.321 124.718 210.712 124.856 209.854C124.94 209.332 125.009 208.777 125.063 208.189C125.123 207.601 125.174 206.965 125.216 206.281C125.258 205.591 125.3 204.832 125.342 204.004H132.308V212.212H133.262V215.884H131.48V213.724H124.946V215.884H123.155ZM125.846 212.212H130.418V205.516H127.016C126.992 205.912 126.965 206.32 126.935 206.74C126.911 207.16 126.881 207.577 126.845 207.991C126.815 208.405 126.779 208.801 126.737 209.179C126.695 209.557 126.647 209.899 126.593 210.205C126.521 210.679 126.434 211.075 126.332 211.393C126.236 211.711 126.074 211.984 125.846 212.212ZM139.618 213.994C138.688 213.994 137.908 213.769 137.278 213.319C136.648 212.863 136.171 212.248 135.847 211.474C135.523 210.7 135.361 209.827 135.361 208.855C135.361 207.883 135.52 207.01 135.838 206.236C136.162 205.462 136.636 204.853 137.26 204.409C137.89 203.959 138.664 203.734 139.582 203.734C140.494 203.734 141.28 203.959 141.94 204.409C142.606 204.853 143.119 205.462 143.479 206.236C143.839 207.004 144.019 207.877 144.019 208.855C144.019 209.827 143.839 210.703 143.479 211.483C143.125 212.257 142.618 212.869 141.958 213.319C141.304 213.769 140.524 213.994 139.618 213.994ZM135.046 218.044V204.004H136.72V210.997H136.936V218.044H135.046ZM139.357 212.293C139.957 212.293 140.452 212.14 140.842 211.834C141.238 211.528 141.532 211.117 141.724 210.601C141.922 210.079 142.021 209.497 142.021 208.855C142.021 208.219 141.922 207.643 141.724 207.127C141.532 206.611 141.235 206.2 140.833 205.894C140.431 205.588 139.918 205.435 139.294 205.435C138.706 205.435 138.22 205.579 137.836 205.867C137.458 206.155 137.176 206.557 136.99 207.073C136.81 207.589 136.72 208.183 136.72 208.855C136.72 209.527 136.81 210.121 136.99 210.637C137.17 211.153 137.455 211.558 137.845 211.852C138.235 212.146 138.739 212.293 139.357 212.293ZM150.227 213.994C149.255 213.994 148.412 213.775 147.698 213.337C146.984 212.899 146.432 212.296 146.042 211.528C145.658 210.754 145.466 209.863 145.466 208.855C145.466 207.841 145.664 206.95 146.06 206.182C146.456 205.408 147.011 204.808 147.725 204.382C148.439 203.95 149.273 203.734 150.227 203.734C151.199 203.734 152.042 203.953 152.756 204.391C153.47 204.829 154.022 205.432 154.412 206.2C154.802 206.968 154.997 207.853 154.997 208.855C154.997 209.869 154.799 210.763 154.403 211.537C154.013 212.305 153.461 212.908 152.747 213.346C152.033 213.778 151.193 213.994 150.227 213.994ZM150.227 212.221C151.157 212.221 151.85 211.909 152.306 211.285C152.768 210.655 152.999 209.845 152.999 208.855C152.999 207.841 152.765 207.031 152.297 206.425C151.835 205.813 151.145 205.507 150.227 205.507C149.597 205.507 149.078 205.651 148.67 205.939C148.262 206.221 147.959 206.614 147.761 207.118C147.563 207.616 147.464 208.195 147.464 208.855C147.464 209.875 147.698 210.691 148.166 211.303C148.634 211.915 149.321 212.221 150.227 212.221ZM160.971 214.003C160.047 213.997 159.261 213.796 158.613 213.4C157.965 213.004 157.458 212.434 157.092 211.69C156.732 210.94 156.522 210.037 156.462 208.981C156.432 208.471 156.435 207.907 156.471 207.289C156.507 206.665 156.573 206.062 156.669 205.48C156.771 204.898 156.9 204.412 157.056 204.022C157.23 203.59 157.467 203.194 157.767 202.834C158.067 202.468 158.397 202.162 158.757 201.916C159.141 201.652 159.567 201.448 160.035 201.304C160.503 201.154 160.992 201.037 161.502 200.953C162.018 200.869 162.537 200.797 163.059 200.737C163.587 200.671 164.1 200.59 164.598 200.494L164.778 202.177C164.448 202.255 164.058 202.318 163.608 202.366C163.164 202.414 162.702 202.468 162.222 202.528C161.748 202.588 161.295 202.672 160.863 202.78C160.431 202.888 160.056 203.041 159.738 203.239C159.288 203.515 158.943 203.917 158.703 204.445C158.469 204.973 158.328 205.546 158.28 206.164C158.652 205.6 159.126 205.195 159.702 204.949C160.278 204.697 160.875 204.571 161.493 204.571C162.357 204.571 163.101 204.775 163.725 205.183C164.355 205.591 164.838 206.146 165.174 206.848C165.51 207.55 165.678 208.345 165.678 209.233C165.678 210.193 165.48 211.033 165.084 211.753C164.694 212.467 164.145 213.025 163.437 213.427C162.729 213.823 161.907 214.015 160.971 214.003ZM161.07 212.23C161.934 212.23 162.585 211.963 163.023 211.429C163.467 210.895 163.689 210.184 163.689 209.296C163.689 208.384 163.461 207.667 163.005 207.145C162.549 206.623 161.904 206.362 161.07 206.362C160.224 206.362 159.576 206.623 159.126 207.145C158.682 207.667 158.46 208.384 158.46 209.296C158.46 210.22 158.685 210.94 159.135 211.456C159.585 211.972 160.23 212.23 161.07 212.23ZM167.653 213.724V204.004H169.534V207.973H174.277V204.004H176.158V213.724H174.277V209.746H169.534V213.724H167.653ZM178.675 213.724V204.004H180.565V207.379H181.843C182.119 207.379 182.416 207.385 182.734 207.397C183.052 207.409 183.322 207.439 183.544 207.487C184.066 207.595 184.519 207.775 184.903 208.027C185.287 208.279 185.581 208.615 185.785 209.035C185.995 209.449 186.1 209.959 186.1 210.565C186.1 211.411 185.881 212.086 185.443 212.59C185.005 213.088 184.411 213.424 183.661 213.598C183.421 213.652 183.136 213.688 182.806 213.706C182.482 213.718 182.182 213.724 181.906 213.724H178.675ZM180.565 212.212H182.014C182.17 212.212 182.344 212.206 182.536 212.194C182.728 212.182 182.905 212.155 183.067 212.113C183.349 212.029 183.604 211.858 183.832 211.6C184.06 211.342 184.174 210.997 184.174 210.565C184.174 210.121 184.06 209.767 183.832 209.503C183.61 209.239 183.328 209.068 182.986 208.99C182.83 208.948 182.665 208.921 182.491 208.909C182.323 208.897 182.164 208.891 182.014 208.891H180.565V212.212ZM187.171 213.724V204.004H189.052V213.724H187.171ZM195.88 213.994C194.914 213.994 194.065 213.784 193.333 213.364C192.607 212.938 192.04 212.347 191.632 211.591C191.23 210.829 191.029 209.947 191.029 208.945C191.029 207.883 191.227 206.962 191.623 206.182C192.025 205.402 192.583 204.799 193.297 204.373C194.011 203.947 194.842 203.734 195.79 203.734C196.78 203.734 197.623 203.965 198.319 204.427C199.015 204.883 199.534 205.534 199.876 206.38C200.224 207.226 200.362 208.231 200.29 209.395H198.409V208.711C198.397 207.583 198.181 206.749 197.761 206.209C197.347 205.669 196.714 205.399 195.862 205.399C194.92 205.399 194.212 205.696 193.738 206.29C193.264 206.884 193.027 207.742 193.027 208.864C193.027 209.932 193.264 210.76 193.738 211.348C194.212 211.93 194.896 212.221 195.79 212.221C196.378 212.221 196.885 212.089 197.311 211.825C197.743 211.555 198.079 211.171 198.319 210.673L200.164 211.258C199.786 212.128 199.213 212.803 198.445 213.283C197.677 213.757 196.822 213.994 195.88 213.994ZM192.415 209.395V207.928H199.354V209.395H192.415ZM210.133 213.994C209.161 213.994 208.318 213.775 207.604 213.337C206.89 212.899 206.338 212.296 205.948 211.528C205.564 210.754 205.372 209.863 205.372 208.855C205.372 207.841 205.57 206.95 205.966 206.182C206.362 205.408 206.917 204.808 207.631 204.382C208.345 203.95 209.179 203.734 210.133 203.734C211.105 203.734 211.948 203.953 212.662 204.391C213.376 204.829 213.928 205.432 214.318 206.2C214.708 206.968 214.903 207.853 214.903 208.855C214.903 209.869 214.705 210.763 214.309 211.537C213.919 212.305 213.367 212.908 212.653 213.346C211.939 213.778 211.099 213.994 210.133 213.994ZM210.133 212.221C211.063 212.221 211.756 211.909 212.212 211.285C212.674 210.655 212.905 209.845 212.905 208.855C212.905 207.841 212.671 207.031 212.203 206.425C211.741 205.813 211.051 205.507 210.133 205.507C209.503 205.507 208.984 205.651 208.576 205.939C208.168 206.221 207.865 206.614 207.667 207.118C207.469 207.616 207.37 208.195 207.37 208.855C207.37 209.875 207.604 210.691 208.072 211.303C208.54 211.915 209.227 212.221 210.133 212.221ZM219.181 213.724V205.696H215.86V204.004H224.383V205.696H221.062V213.724H219.181ZM231.843 213.724V210.34C231.513 210.508 231.126 210.646 230.682 210.754C230.238 210.856 229.77 210.907 229.278 210.907C228.282 210.907 227.481 210.685 226.875 210.241C226.275 209.791 225.885 209.143 225.705 208.297C225.657 208.045 225.621 207.787 225.597 207.523C225.573 207.253 225.558 207.007 225.552 206.785C225.552 206.563 225.552 206.398 225.552 206.29V204.004H227.46V206.29C227.46 206.446 227.466 206.653 227.478 206.911C227.49 207.163 227.523 207.409 227.577 207.649C227.691 208.189 227.919 208.591 228.261 208.855C228.603 209.113 229.086 209.242 229.71 209.242C230.16 209.242 230.565 209.185 230.925 209.071C231.291 208.951 231.597 208.798 231.843 208.612V204.004H233.742V213.724H231.843ZM240.581 213.994C239.615 213.994 238.766 213.784 238.034 213.364C237.308 212.938 236.741 212.347 236.333 211.591C235.931 210.829 235.73 209.947 235.73 208.945C235.73 207.883 235.928 206.962 236.324 206.182C236.726 205.402 237.284 204.799 237.998 204.373C238.712 203.947 239.543 203.734 240.491 203.734C241.481 203.734 242.324 203.965 243.02 204.427C243.716 204.883 244.235 205.534 244.577 206.38C244.925 207.226 245.063 208.231 244.991 209.395H243.11V208.711C243.098 207.583 242.882 206.749 242.462 206.209C242.048 205.669 241.415 205.399 240.563 205.399C239.621 205.399 238.913 205.696 238.439 206.29C237.965 206.884 237.728 207.742 237.728 208.864C237.728 209.932 237.965 210.76 238.439 211.348C238.913 211.93 239.597 212.221 240.491 212.221C241.079 212.221 241.586 212.089 242.012 211.825C242.444 211.555 242.78 211.171 243.02 210.673L244.865 211.258C244.487 212.128 243.914 212.803 243.146 213.283C242.378 213.757 241.523 213.994 240.581 213.994ZM237.116 209.395V207.928H244.055V209.395H237.116ZM249.275 213.724V205.696H245.954V204.004H254.477V205.696H251.156V213.724H249.275ZM256.177 213.724V204.004H258.067V207.379H259.345C259.621 207.379 259.918 207.385 260.236 207.397C260.554 207.409 260.824 207.439 261.046 207.487C261.568 207.595 262.021 207.775 262.405 208.027C262.789 208.279 263.083 208.615 263.287 209.035C263.497 209.449 263.602 209.959 263.602 210.565C263.602 211.411 263.383 212.086 262.945 212.59C262.507 213.088 261.913 213.424 261.163 213.598C260.923 213.652 260.638 213.688 260.308 213.706C259.984 213.718 259.684 213.724 259.408 213.724H256.177ZM258.067 212.212H259.516C259.672 212.212 259.846 212.206 260.038 212.194C260.23 212.182 260.407 212.155 260.569 212.113C260.851 212.029 261.106 211.858 261.334 211.6C261.562 211.342 261.676 210.997 261.676 210.565C261.676 210.121 261.562 209.767 261.334 209.503C261.112 209.239 260.83 209.068 260.488 208.99C260.332 208.948 260.167 208.921 259.993 208.909C259.825 208.897 259.666 208.891 259.516 208.891H258.067V212.212ZM264.673 213.724V204.004H266.554V213.724H264.673Z" fill="#F6F9F6"/>
<path d="M433.529 51.3743C409.316 31.4152 370.357 37.1912 346.792 65.7797C323.227 94.367 324.991 133.713 349.204 153.672C373.418 173.631 412.376 167.855 435.942 139.267C459.507 110.678 457.742 71.3334 433.529 51.3743Z" stroke="#86D7E1" stroke-width="8"/>
<path d="M433.529 51.3743C409.316 31.4152 370.357 37.1912 346.792 65.7797C323.227 94.367 324.991 133.713 349.204 153.672C373.418 173.631 412.376 167.855 435.942 139.267C459.507 110.678 457.742 71.3334 433.529 51.3743Z" stroke="#CDC1F8" stroke-width="8"/>
<path d="M530.97 121.412L532.362 105.091H293.857L291.605 121.412H530.97Z" fill="url(#paint0_radial_2936_1845)"/>
<path d="M515.215 255.238L531.839 104.457H293.333L272 255.238H515.215Z" fill="#D0C5F9" stroke="#6449BC" stroke-width="3"/>
<path fill-rule="evenodd" clip-rule="evenodd" d="M429.251 79.8744L429.101 87.89C429.085 88.7131 429.58 89.3913 430.336 89.5836L437.966 91.5231C438.721 91.7154 439.577 91.3774 440.097 90.6854L445.179 83.9239L449.903 83.1594L455.359 88.2155C455.919 88.7348 456.785 88.7923 457.521 88.3585L464.951 83.9821C465.184 83.8445 465.389 83.6674 465.557 83.4636C465.919 83.024 466.113 82.4613 466.068 81.9081L465.415 74.0221L468.649 70.0995L476.514 69.2348C477.322 69.1458 478.052 68.5492 478.337 67.7431L481.215 59.6142C481.5 58.809 481.279 57.9697 480.662 57.5188L474.657 53.1288L474.506 48.3455L480.174 42.0663C480.757 41.4244 480.922 40.5198 480.589 39.8144L477.229 32.6951C476.897 31.9895 476.136 31.6335 475.331 31.8056L467.492 33.4819L464.044 30.6401L464.194 22.625C464.21 21.8018 463.715 21.1236 462.959 20.9314L455.329 18.9923C454.573 18.8 453.716 19.1366 453.198 19.8299L448.116 26.5915L443.391 27.3561L437.936 22.2998C437.376 21.7806 436.51 21.7231 435.774 22.1568L428.344 26.5334C427.608 26.9669 427.161 27.7975 427.227 28.6073L427.88 36.4928L424.646 40.4155L416.781 41.2802C415.974 41.3693 415.243 41.9664 414.958 42.7718L412.08 50.901C411.795 51.7062 412.016 52.5455 412.633 52.9963L418.637 57.3866L418.789 62.1697L413.121 68.4488C412.538 69.0958 412.373 69.9956 412.706 70.7008L416.066 77.8201C416.398 78.5256 417.159 78.8816 417.964 78.7096L425.803 77.0325L429.251 79.8744ZM433.482 44.4051C440.292 36.1444 451.738 34.2923 458.997 40.2762C466.256 46.2601 466.622 57.8491 459.813 66.1098C453.004 74.3704 441.558 76.2225 434.299 70.2387C427.039 64.2545 426.673 52.6655 433.482 44.4051ZM457.028 63.8137C462.397 57.3006 462.108 48.1638 456.384 43.4457C450.661 38.7277 441.636 40.188 436.268 46.7011C430.899 53.2142 431.188 62.3511 436.911 67.0691C442.635 71.7872 451.659 70.3265 457.028 63.8137ZM453.702 46.6997C449.555 43.2815 443.017 44.3393 439.127 49.0583C435.237 53.777 435.446 60.3971 439.593 63.8153C443.74 67.2335 450.278 66.1757 454.168 61.4567C458.058 56.7378 457.848 50.1179 453.702 46.6997ZM451.089 49.8692C453.7 52.0216 453.832 56.1897 451.383 59.1607C448.934 62.1315 444.817 62.7981 442.206 60.6457C439.595 58.4934 439.463 54.3255 441.912 51.3543C444.361 48.3831 448.478 47.7169 451.089 49.8692Z" fill="#C9BDF7"/>
<path d="M429.101 87.89L427.601 87.8622L427.601 87.8619L429.101 87.89ZM429.251 79.8744L430.205 78.7169L430.764 79.1779L430.75 79.9024L429.251 79.8744ZM430.336 89.5836L429.966 91.0373L429.966 91.0373L430.336 89.5836ZM437.966 91.5231L438.335 90.0693L438.336 90.0694L437.966 91.5231ZM440.097 90.6854L441.296 91.5867L441.296 91.587L440.097 90.6854ZM445.179 83.9239L443.98 83.0226L444.343 82.5397L444.94 82.4431L445.179 83.9239ZM449.903 83.1594L449.664 81.6787L450.386 81.5618L450.923 82.0593L449.903 83.1594ZM455.359 88.2155L456.378 87.1154L456.378 87.1155L455.359 88.2155ZM457.521 88.3585L456.76 87.0661L456.76 87.0661L457.521 88.3585ZM464.951 83.9821L465.714 85.2739L465.713 85.2745L464.951 83.9821ZM466.068 81.9081L467.562 81.7844L467.562 81.7851L466.068 81.9081ZM465.415 74.0221L463.92 74.1458L463.87 73.5383L464.258 73.068L465.415 74.0221ZM468.649 70.0995L467.491 69.1454L467.879 68.6751L468.485 68.6085L468.649 70.0995ZM476.514 69.2348L476.678 70.7258L476.678 70.7258L476.514 69.2348ZM478.337 67.7431L476.922 67.2437L476.923 67.2425L478.337 67.7431ZM481.215 59.6142L479.801 59.1136L479.801 59.1133L481.215 59.6142ZM480.662 57.5188L479.777 58.7298L479.776 58.7297L480.662 57.5188ZM474.657 53.1288L473.772 54.3397L473.181 53.9077L473.158 53.1761L474.657 53.1288ZM474.506 48.3455L473.007 48.3928L472.988 47.789L473.393 47.3405L474.506 48.3455ZM480.174 42.0663L479.06 41.0613L479.064 41.0575L480.174 42.0663ZM480.589 39.8144L479.233 40.4547L479.233 40.4546L480.589 39.8144ZM477.229 32.6951L475.873 33.3353L475.873 33.3348L477.229 32.6951ZM475.331 31.8056L475.017 30.3387L475.018 30.3387L475.331 31.8056ZM467.492 33.4819L467.805 34.9488L467.097 35.1003L466.538 34.6394L467.492 33.4819ZM464.044 30.6401L463.09 31.7976L462.531 31.3366L462.545 30.612L464.044 30.6401ZM464.194 22.625L465.694 22.6527L465.694 22.6531L464.194 22.625ZM462.959 20.9314L463.328 19.4776L463.329 19.4777L462.959 20.9314ZM455.329 18.9923L454.96 20.446L454.959 20.4459L455.329 18.9923ZM453.198 19.8299L454.399 20.7285L454.397 20.7312L453.198 19.8299ZM448.116 26.5915L449.315 27.4927L448.952 27.9756L448.355 28.0722L448.116 26.5915ZM443.391 27.3561L443.631 28.8368L442.909 28.9538L442.372 28.4562L443.391 27.3561ZM437.936 22.2998L436.916 23.3999L436.916 23.3998L437.936 22.2998ZM435.774 22.1568L436.535 23.4492L436.535 23.4493L435.774 22.1568ZM428.344 26.5334L427.582 25.241L427.582 25.241L428.344 26.5334ZM427.227 28.6073L425.732 28.731L425.732 28.7303L427.227 28.6073ZM427.88 36.4928L429.375 36.3691L429.425 36.9766L429.037 37.4469L427.88 36.4928ZM424.646 40.4155L425.804 41.3696L425.416 41.8399L424.81 41.9065L424.646 40.4155ZM416.781 41.2802L416.616 39.7892L416.617 39.7892L416.781 41.2802ZM414.958 42.7718L416.372 43.2716L416.372 43.2725L414.958 42.7718ZM412.08 50.901L413.494 51.4016L413.494 51.4019L412.08 50.901ZM412.633 52.9963L413.518 51.7854L413.518 51.7855L412.633 52.9963ZM418.637 57.3866L419.523 56.1757L420.114 56.6077L420.137 57.3392L418.637 57.3866ZM418.789 62.1697L420.288 62.1223L420.307 62.7262L419.902 63.1747L418.789 62.1697ZM413.121 68.4488L412.007 67.4447L412.008 67.4438L413.121 68.4488ZM412.706 70.7008L411.349 71.341L411.349 71.3407L412.706 70.7008ZM416.066 77.8201L417.422 77.1799L417.422 77.1803L416.066 77.8201ZM417.964 78.7096L418.278 80.1764L418.277 80.1765L417.964 78.7096ZM425.803 77.0325L425.489 75.5657L426.198 75.4141L426.757 75.8751L425.803 77.0325ZM434.299 70.2387L433.344 71.3961L433.344 71.3961L434.299 70.2387ZM427.601 87.8619L427.751 79.8463L430.75 79.9024L430.6 87.918L427.601 87.8619ZM429.966 91.0373C428.483 90.6601 427.574 89.3262 427.601 87.8622L430.6 87.9177C430.598 88.0185 430.627 88.0702 430.641 88.0894C430.653 88.1063 430.669 88.1206 430.706 88.1298L429.966 91.0373ZM437.596 92.9768L429.966 91.0373L430.706 88.1298L438.335 90.0693L437.596 92.9768ZM441.296 91.587C440.466 92.6903 439.021 93.3394 437.596 92.9768L438.336 90.0694C438.422 90.0914 438.687 90.0645 438.898 89.7839L441.296 91.587ZM446.378 84.8251L441.296 91.5867L438.898 89.7842L443.98 83.0226L446.378 84.8251ZM450.143 84.6402L445.419 85.4046L444.94 82.4431L449.664 81.6787L450.143 84.6402ZM454.339 89.3157L448.884 84.2596L450.923 82.0593L456.378 87.1154L454.339 89.3157ZM458.282 89.6509C457.067 90.3671 455.459 90.3537 454.339 89.3155L456.378 87.1155C456.389 87.1255 456.414 87.1438 456.473 87.1477C456.535 87.1518 456.637 87.1381 456.76 87.0661L458.282 89.6509ZM465.713 85.2745L458.282 89.651L456.76 87.0661L464.19 82.6896L465.713 85.2745ZM466.714 84.4177C466.438 84.7526 466.101 85.0453 465.714 85.2739L464.189 82.6902C464.268 82.6438 464.339 82.5823 464.399 82.5095L466.714 84.4177ZM467.562 81.7851C467.643 82.7643 467.301 83.7064 466.714 84.4177L464.399 82.5095C464.538 82.3416 464.583 82.1583 464.573 82.031L467.562 81.7851ZM466.91 73.8985L467.562 81.7844L464.573 82.0317L463.92 74.1458L466.91 73.8985ZM469.806 71.0536L466.573 74.9762L464.258 73.068L467.491 69.1454L469.806 71.0536ZM476.678 70.7258L468.813 71.5905L468.485 68.6085L476.35 67.7438L476.678 70.7258ZM479.751 68.2425C479.287 69.558 478.093 70.5699 476.678 70.7258L476.35 67.7438C476.55 67.7217 476.818 67.5404 476.922 67.2437L479.751 68.2425ZM482.629 60.1148L479.751 68.2437L476.923 67.2425L479.801 59.1136L482.629 60.1148ZM481.547 56.3079C482.78 57.2092 483.1 58.7853 482.629 60.1151L479.801 59.1133C479.848 58.9798 479.842 58.8766 479.826 58.8164C479.811 58.7591 479.788 58.7384 479.777 58.7298L481.547 56.3079ZM475.543 51.9179L481.547 56.3079L479.776 58.7297L473.772 54.3397L475.543 51.9179ZM476.006 48.2982L476.157 53.0815L473.158 53.1761L473.007 48.3928L476.006 48.2982ZM481.287 43.0713L475.62 49.3505L473.393 47.3405L479.06 41.0613L481.287 43.0713ZM481.946 39.1741C482.571 40.4998 482.22 42.0453 481.284 43.0751L479.064 41.0575C479.294 40.8034 479.273 40.5399 479.233 40.4547L481.946 39.1741ZM478.586 32.0549L481.946 39.1742L479.233 40.4546L475.873 33.3353L478.586 32.0549ZM475.018 30.3387C476.449 30.0328 477.933 30.6702 478.586 32.0553L475.873 33.3348C475.857 33.3013 475.84 33.2884 475.821 33.2796C475.799 33.2695 475.743 33.2514 475.644 33.2724L475.018 30.3387ZM467.178 32.0151L475.017 30.3387L475.645 33.2724L467.805 34.9488L467.178 32.0151ZM464.998 29.4827L468.446 32.3245L466.538 34.6394L463.09 31.7976L464.998 29.4827ZM465.694 22.6531L465.544 30.6682L462.545 30.612L462.695 22.5969L465.694 22.6531ZM463.329 19.4777C464.812 19.8548 465.721 21.1887 465.694 22.6527L462.695 22.5973C462.697 22.4965 462.668 22.4447 462.654 22.4255C462.642 22.4086 462.626 22.3944 462.589 22.3851L463.329 19.4777ZM455.698 17.5385L463.329 19.4776L462.59 22.3852L454.96 20.446L455.698 17.5385ZM451.997 18.9314C452.827 17.8211 454.277 17.1766 455.699 17.5386L454.959 20.4459C454.87 20.4233 454.606 20.452 454.399 20.7285L451.997 18.9314ZM446.917 25.6902L451.999 18.9287L454.397 20.7312L449.315 27.4927L446.917 25.6902ZM443.152 25.8754L447.876 25.1107L448.355 28.0722L443.631 28.8368L443.152 25.8754ZM438.956 21.1997L444.411 26.256L442.372 28.4562L436.916 23.3999L438.956 21.1997ZM435.012 20.8644C436.228 20.1482 437.836 20.1616 438.956 21.1998L436.916 23.3998C436.906 23.3899 436.881 23.3716 436.822 23.3677C436.76 23.3636 436.657 23.3772 436.535 23.4492L435.012 20.8644ZM427.582 25.241L435.012 20.8644L436.535 23.4493L429.105 27.8259L427.582 25.241ZM425.732 28.7303C425.615 27.3105 426.383 25.9475 427.582 25.241L429.105 27.8258C428.833 27.9863 428.706 28.2844 428.722 28.4842L425.732 28.7303ZM426.385 36.6165L425.732 28.731L428.722 28.4836L429.375 36.3691L426.385 36.6165ZM423.489 39.4614L426.722 35.5387L429.037 37.4469L425.804 41.3696L423.489 39.4614ZM416.617 39.7892L424.482 38.9245L424.81 41.9065L416.945 42.7712L416.617 39.7892ZM413.544 42.2721C414.008 40.9579 415.202 39.9453 416.616 39.7892L416.945 42.7711C416.745 42.7932 416.477 42.975 416.372 43.2716L413.544 42.2721ZM410.666 50.4003L413.544 42.2712L416.372 43.2725L413.494 51.4016L410.666 50.4003ZM411.748 54.2073C410.515 53.306 410.195 51.7298 410.666 50.4L413.494 51.4019C413.447 51.5353 413.453 51.6385 413.469 51.6987C413.484 51.756 413.506 51.7767 413.518 51.7854L411.748 54.2073ZM417.752 58.5974L411.748 54.2072L413.518 51.7855L419.523 56.1757L417.752 58.5974ZM417.289 62.217L417.138 57.4339L420.137 57.3392L420.288 62.1223L417.289 62.217ZM412.008 67.4438L417.675 61.1646L419.902 63.1747L414.235 69.4539L412.008 67.4438ZM411.349 71.3407C410.723 70.013 411.078 68.4751 412.007 67.4447L414.236 69.453C413.998 69.7166 414.023 69.9782 414.062 70.0608L411.349 71.3407ZM414.709 78.4603L411.349 71.341L414.062 70.0606L417.422 77.1799L414.709 78.4603ZM418.277 80.1765C416.846 80.4823 415.362 79.8449 414.709 78.4598L417.422 77.1803C417.438 77.2138 417.455 77.2267 417.474 77.2356C417.495 77.2457 417.552 77.2638 417.65 77.2427L418.277 80.1765ZM426.117 78.4994L418.278 80.1764L417.65 77.2428L425.489 75.5657L426.117 78.4994ZM428.296 81.0318L424.849 78.19L426.757 75.8751L430.205 78.7169L428.296 81.0318ZM458.043 41.4336C451.559 36.0888 441.042 37.5927 434.64 45.3592L432.325 43.451C439.542 34.6961 451.917 32.4959 459.951 39.1187L458.043 41.4336ZM458.656 65.1557C465.058 57.3892 464.527 46.7786 458.043 41.4336L459.951 39.1187C467.986 45.7417 468.187 58.309 460.971 67.0638L458.656 65.1557ZM435.253 69.0812C441.737 74.426 452.254 72.9221 458.656 65.1557L460.971 67.0638C453.754 75.8187 441.379 78.019 433.344 71.3961L435.253 69.0812ZM434.64 45.3592C428.238 53.1254 428.769 63.7361 435.253 69.0812L433.344 71.3961C425.31 64.7729 425.108 52.2057 432.325 43.451L434.64 45.3592ZM457.338 42.2883C463.837 47.6453 463.961 57.7605 458.185 64.7678L455.87 62.8596C460.832 56.8407 460.379 48.6822 455.43 44.6032L457.338 42.2883ZM435.11 45.747C440.886 38.7397 450.839 36.9312 457.338 42.2883L455.43 44.6032C450.482 40.5241 442.387 41.6363 437.425 47.6552L435.11 45.747ZM435.957 68.2266C429.458 62.8695 429.334 52.7543 435.11 45.747L437.425 47.6552C432.464 53.6741 432.917 61.8326 437.865 65.9117L435.957 68.2266ZM458.185 64.7678C452.409 71.7748 442.456 73.5837 435.957 68.2266L437.865 65.9117C442.814 69.9907 450.909 68.8782 455.87 62.8596L458.185 64.7678ZM437.969 48.1042C442.267 42.891 449.734 41.485 454.656 45.5422L452.748 47.8571C449.376 45.0779 443.767 45.7877 440.284 50.0124L437.969 48.1042ZM438.639 64.9728C433.717 60.9155 433.672 53.3171 437.969 48.1042L440.284 50.0124C436.802 54.2369 437.176 59.8786 440.547 62.6578L438.639 64.9728ZM455.325 62.4108C451.028 67.624 443.561 69.03 438.639 64.9728L440.547 62.6578C443.919 65.4371 449.528 64.7273 453.01 60.5026L455.325 62.4108ZM454.656 45.5422C459.578 49.5995 459.623 57.1977 455.325 62.4108L453.01 60.5026C456.493 56.2779 456.119 50.6364 452.748 47.8571L454.656 45.5422ZM450.225 58.2066C452.267 55.7298 451.971 52.54 450.135 51.0267L452.043 48.7118C455.429 51.5032 455.396 56.6496 452.54 60.1148L450.225 58.2066ZM443.16 59.4883C444.996 61.0015 448.184 60.6833 450.225 58.2066L452.54 60.1148C449.684 63.5798 444.638 64.5946 441.252 61.8032L443.16 59.4883ZM443.07 52.3084C441.028 54.7854 441.324 57.975 443.16 59.4883L441.252 61.8032C437.865 59.0119 437.898 53.8656 440.755 50.4002L443.07 52.3084ZM450.135 51.0267C448.299 49.5134 445.111 49.8314 443.07 52.3084L440.755 50.4002C443.611 46.9348 448.657 45.9204 452.043 48.7118L450.135 51.0267Z" fill="#6449BC"/>
<path d="M260.999 128.121H362.829L375.46 20.7077L353.878 0.925295H295.363H278.075L260.999 128.121Z" fill="url(#paint1_radial_2936_1845)"/>
<path d="M354.671 20.4351L375.411 20.6556L353.749 0.925294L354.671 20.4351Z" fill="#AB99EE"/>
<path d="M302.278 24.6879L286.255 24.6879" stroke="white" stroke-width="3"/>
<path d="M325.993 24.6879L308.688 24.6879" stroke="white" stroke-width="3"/>
<path d="M364.173 34.3018H284.925" stroke="white" stroke-width="3"/>
<path d="M342.214 43.9157L283.89 43.9157" stroke="white" stroke-width="3"/>
<path d="M317.983 53.5296L282.721 53.5296" stroke="white" stroke-width="3"/>
<path d="M317.983 83.8829H278.246" stroke="white" stroke-width="3"/>
<path d="M357.522 53.5296L323.553 53.5296" stroke="white" stroke-width="3"/>
<path d="M301.874 63.1435H281.365" stroke="white" stroke-width="3"/>
<path d="M297.558 92.8693H277.048" stroke="white" stroke-width="3"/>
<path d="M307.322 101.869H275.917" stroke="white" stroke-width="3"/>
<path d="M356.319 63.1435L308.89 63.1435" stroke="white" stroke-width="3"/>
<path d="M316.161 92.8693H303.343" stroke="white" stroke-width="3"/>
<ellipse cx="2.90695" cy="3.04682" rx="2.90695" ry="3.04682" transform="matrix(-0.990479 -0.137664 -0.137664 0.990479 340.177 110.572)" fill="white"/>
<ellipse cx="2.90695" cy="3.04682" rx="2.90695" ry="3.04682" transform="matrix(-0.990479 -0.137664 -0.137664 0.990479 330.916 110.572)" fill="white"/>
<ellipse cx="2.90695" cy="3.04682" rx="2.90695" ry="3.04682" transform="matrix(-0.990479 -0.137664 -0.137664 0.990479 321.656 110.572)" fill="white"/>
<ellipse cx="2.90695" cy="3.04682" rx="2.90695" ry="3.04682" transform="matrix(-0.990479 -0.137664 -0.137664 0.990479 306.101 110.572)" fill="white"/>
<path d="M400.914 204.722C398.414 204.556 395.568 204.111 393.368 203.449C392.954 203.325 391.266 202.672 390.842 202.46C383.373 198.759 378.942 190.685 380.262 181.311C382.068 168.459 393.999 157.987 406.857 157.987C419.714 157.987 428.544 168.277 426.935 180.985H435.361C437.623 163.635 425.433 149.576 408.042 149.576C390.65 149.576 374.299 163.811 371.841 181.311C370.143 193.376 375.453 203.873 384.636 209.23C386.297 210.178 388.735 211.156 389.569 211.425C392.281 212.269 395.681 212.828 398.741 213.066C399.781 213.144 403.446 213.185 404.512 213.19H462.525L463.705 204.8H405.79C405.019 204.8 401.66 204.769 400.909 204.722M407.649 191.549C407.038 191.549 403.834 191.528 403.249 191.477C402.26 191.394 400.826 191.244 399.921 191.026C398.906 190.742 397.969 190.369 397.555 190.126C394.662 188.433 392.995 185.126 393.533 181.311C394.315 175.762 399.434 171.269 404.983 171.269C410.532 171.269 414.222 175.591 413.642 180.99H421.738C422.954 171.124 416.029 163.179 406.122 163.179C396.215 163.179 386.841 171.3 385.433 181.316C384.439 188.381 387.633 194.479 393.109 197.47C393.942 198.004 395.573 198.557 396.039 198.687C397.643 199.127 399.838 199.422 401.634 199.556C402.297 199.613 405.578 199.639 406.272 199.639V199.65H464.425L465.563 191.549H407.654H407.649ZM362.167 213.164H353.688L361.442 158.013H349.05L350.246 149.525H371.116L362.172 213.159L362.167 213.164ZM339.143 162.247L338 170.405H347.311L341.302 213.159H349.449L356.602 162.242H339.143V162.247Z" fill="#6449BC"/>
<defs>
<radialGradient id="paint0_radial_2936_1845" cx="0" cy="0" r="1" gradientUnits="userSpaceOnUse" gradientTransform="translate(431.569 164.721) rotate(44.651) scale(229.647 345.684)">
<stop stop-color="#92E3D5"/>
<stop offset="1" stop-color="#BAEDC2"/>
</radialGradient>
<radialGradient id="paint1_radial_2936_1845" cx="0" cy="0" r="1" gradientUnits="userSpaceOnUse" gradientTransform="translate(317.636 36.5097) rotate(44.651) scale(137.044 206.29)">
<stop stop-color="#D0C5F9"/>
<stop offset="1" stop-color="#9883E8"/>
</radialGradient>
</defs>
</svg>
