<svg width="78" height="78" viewBox="0 0 78 78" fill="none" xmlns="http://www.w3.org/2000/svg">
<circle cx="39" cy="39" r="39" fill="#EDE9FF"/>
<rect x="20" y="25" width="29" height="33" rx="1" fill="#D0C5F9" stroke="#6449BC" stroke-width="2"/>
<circle cx="35" cy="36" r="5" fill="#EDE9FF" stroke="#6449BC" stroke-width="2"/>
<path d="M25.0632 52H25.0583C25.582 47.5353 29.5697 44 34.5 44C39.4303 44 43.418 47.5353 43.9417 52H43.9368H43.9227H43.9086H43.8944H43.8801H43.8658H43.8513H43.8368H43.8222H43.8074H43.7927H43.7778H43.7628H43.7478H43.7327H43.7175H43.7022H43.6869H43.6714H43.6559H43.6403H43.6246H43.6089H43.593H43.5771H43.5611H43.545H43.5289H43.5126H43.4963H43.4799H43.4634H43.4468H43.4302H43.4135H43.3967H43.3798H43.3628H43.3458H43.3287H43.3115H43.2943H43.2769H43.2595H43.242H43.2244H43.2068H43.189H43.1712H43.1534H43.1354H43.1174H43.0993H43.0811H43.0628H43.0445H43.0261H43.0076H42.989H42.9704H42.9517H42.9329H42.914H42.8951H42.8761H42.857H42.8378H42.8186H42.7993H42.7799H42.7605H42.741H42.7214H42.7017H42.682H42.6622H42.6423H42.6223H42.6023H42.5822H42.562H42.5418H42.5215H42.5011H42.4807H42.4601H42.4395H42.4189H42.3982H42.3773H42.3565H42.3355H42.3145H42.2934H42.2723H42.2511H42.2298H42.2084H42.187H42.1655H42.1439H42.1223H42.1006H42.0789H42.057H42.0351H42.0132H41.9911H41.969H41.9469H41.9246H41.9023H41.88H41.8575H41.835H41.8125H41.7898H41.7671H41.7444H41.7215H41.6987H41.6757H41.6527H41.6296H41.6065H41.5832H41.56H41.5366H41.5132H41.4897H41.4662H41.4426H41.419H41.3953H41.3715H41.3476H41.3237H41.2997H41.2757H41.2516H41.2275H41.2033H41.179H41.1546H41.1302H41.1058H41.0813H41.0567H41.032H41.0073H40.9826H40.9577H40.9329H40.9079H40.8829H40.8579H40.8327H40.8076H40.7823H40.757H40.7317H40.7063H40.6808H40.6553H40.6297H40.604H40.5783H40.5526H40.5267H40.5009H40.4749H40.4489H40.4229H40.3968H40.3706H40.3444H40.3182H40.2918H40.2655H40.239H40.2125H40.186H40.1594H40.1327H40.106H40.0793H40.0524H40.0256H39.9986H39.9717H39.9446H39.9175H39.8904H39.8632H39.836H39.8087H39.7813H39.7539H39.7264H39.6989H39.6714H39.6438H39.6161H39.5884H39.5606H39.5328H39.5049H39.477H39.449H39.421H39.3929H39.3648H39.3366H39.3084H39.2801H39.2518H39.2234H39.195H39.1666H39.138H39.1095H39.0808H39.0522H39.0235H38.9947H38.9659H38.937H38.9081H38.8792H38.8502H38.8211H38.792H38.7629H38.7337H38.7045H38.6752H38.6459H38.6165H38.5871H38.5576H38.5281H38.4985H38.4689H38.4393H38.4096H38.3799H38.3501H38.3203H38.2904H38.2605H38.2305H38.2005H38.1705H38.1404H38.1103H38.0801H38.0499H38.0196H37.9893H37.9589H37.9286H37.8981H37.8677H37.8371H37.8066H37.776H37.7453H37.7147H37.6839H37.6532H37.6224H37.5915H37.5606H37.5297H37.4988H37.4678H37.4367H37.4056H37.3745H37.3433H37.3121H37.2809H37.2496H37.2183H37.1869H37.1555H37.1241H37.0926H37.0611H37.0296H36.998H36.9664H36.9347H36.903H36.8713H36.8395H36.8077H36.7759H36.744H36.7121H36.6801H36.6481H36.6161H36.5841H36.552H36.5198H36.4877H36.4555H36.4232H36.391H36.3587H36.3263H36.294H36.2616H36.2291H36.1967H36.1642H36.1316H36.099H36.0664H36.0338H36.0011H35.9684H35.9357H35.9029H35.8701H35.8373H35.8045H35.7716H35.7386H35.7057H35.6727H35.6397H35.6066H35.5736H35.5405H35.5073H35.4742H35.441H35.4077H35.3745H35.3412H35.3079H35.2745H35.2412H35.2078H35.1743H35.1409H35.1074H35.0739H35.0403H35.0068H34.9732H34.9395H34.9059H34.8722H34.8385H34.8048H34.771H34.7372H34.7034H34.6696H34.6357H34.6018H34.5679H34.534H34.5H34.466H34.4321H34.3982H34.3643H34.3304H34.2966H34.2628H34.229H34.1952H34.1615H34.1278H34.0941H34.0605H34.0268H33.9932H33.9597H33.9261H33.8926H33.8591H33.8257H33.7922H33.7588H33.7255H33.6921H33.6588H33.6255H33.5923H33.559H33.5258H33.4927H33.4595H33.4264H33.3934H33.3603H33.3273H33.2943H33.2614H33.2284H33.1955H33.1627H33.1299H33.0971H33.0643H33.0316H32.9989H32.9662H32.9336H32.901H32.8684H32.8358H32.8033H32.7709H32.7384H32.706H32.6737H32.6413H32.609H32.5768H32.5445H32.5123H32.4802H32.448H32.4159H32.3839H32.3519H32.3199H32.2879H32.256H32.2241H32.1923H32.1605H32.1287H32.097H32.0653H32.0336H32.002H31.9704H31.9389H31.9074H31.8759H31.8445H31.8131H31.7817H31.7504H31.7191H31.6879H31.6567H31.6255H31.5944H31.5633H31.5322H31.5012H31.4703H31.4393H31.4085H31.3776H31.3468H31.3161H31.2853H31.2547H31.224H31.1934H31.1629H31.1323H31.1019H31.0714H31.0411H31.0107H30.9804H30.9501H30.9199H30.8897H30.8596H30.8295H30.7995H30.7695H30.7395H30.7096H30.6797H30.6499H30.6201H30.5904H30.5607H30.5311H30.5015H30.4719H30.4424H30.4129H30.3835H30.3541H30.3248H30.2955H30.2663H30.2371H30.208H30.1789H30.1498H30.1208H30.0919H30.063H30.0341H30.0053H29.9765H29.9478H29.9191H29.8905H29.862H29.8334H29.805H29.7766H29.7482H29.7199H29.6916H29.6634H29.6352H29.6071H29.579H29.551H29.523H29.4951H29.4672H29.4394H29.4116H29.3839H29.3562H29.3286H29.3011H29.2736H29.2461H29.2187H29.1913H29.164H29.1368H29.1096H29.0825H29.0554H29.0283H29.0014H28.9744H28.9476H28.9207H28.894H28.8673H28.8406H28.814H28.7875H28.761H28.7345H28.7082H28.6818H28.6556H28.6293H28.6032H28.5771H28.551H28.5251H28.4991H28.4733H28.4474H28.4217H28.396H28.3703H28.3447H28.3192H28.2937H28.2683H28.243H28.2177H28.1924H28.1673H28.1421H28.1171H28.0921H28.0671H28.0423H28.0174H27.9927H27.968H27.9433H27.9187H27.8942H27.8698H27.8454H27.821H27.7967H27.7725H27.7484H27.7243H27.7003H27.6763H27.6524H27.6285H27.6047H27.581H27.5574H27.5338H27.5102H27.4868H27.4634H27.44H27.4168H27.3935H27.3704H27.3473H27.3243H27.3013H27.2785H27.2556H27.2329H27.2102H27.1875H27.165H27.1425H27.12H27.0977H27.0754H27.0531H27.031H27.0089H26.9868H26.9649H26.943H26.9211H26.8994H26.8777H26.8561H26.8345H26.813H26.7916H26.7702H26.7489H26.7277H26.7066H26.6855H26.6645H26.6435H26.6227H26.6018H26.5811H26.5605H26.5399H26.5193H26.4989H26.4785H26.4582H26.438H26.4178H26.3977H26.3777H26.3577H26.3378H26.318H26.2983H26.2786H26.259H26.2395H26.2201H26.2007H26.1814H26.1622H26.143H26.1239H26.1049H26.086H26.0671H26.0483H26.0296H26.011H25.9924H25.9739H25.9555H25.9372H25.9189H25.9007H25.8826H25.8646H25.8466H25.8288H25.811H25.7932H25.7756H25.758H25.7405H25.7231H25.7057H25.6885H25.6713H25.6542H25.6372H25.6202H25.6033H25.5865H25.5698H25.5532H25.5366H25.5201H25.5037H25.4874H25.4711H25.455H25.4389H25.4229H25.407H25.3911H25.3754H25.3597H25.3441H25.3286H25.3131H25.2978H25.2825H25.2673H25.2522H25.2371H25.2222H25.2073H25.1925H25.1778H25.1632H25.1487H25.1342H25.1199H25.1056H25.0914H25.0773H25.0632Z" fill="#EDE9FF" stroke="#6449BC" stroke-width="2"/>
<path d="M66 28.5C66 35.4395 60.5922 41 54 41C47.4078 41 42 35.4395 42 28.5C42 21.5605 47.4078 16 54 16C60.5922 16 66 21.5605 66 28.5Z" fill="#EDE9FF" stroke="#6449BC" stroke-width="2"/>
<circle cx="49.5" cy="28.5" r="3.5" fill="#D0C5F9" stroke="#6449BC" stroke-width="2"/>
<path d="M53 28L62 28" stroke="#6449BC" stroke-width="2" stroke-linecap="round"/>
<path d="M60 28L60 30" stroke="#6449BC" stroke-width="2" stroke-linecap="round"/>
<path d="M57 28L57 31" stroke="#6449BC" stroke-width="2" stroke-linecap="round"/>
</svg>
