<svg width="78" height="78" viewBox="0 0 78 78" fill="none" xmlns="http://www.w3.org/2000/svg">
<circle cx="39" cy="39" r="39" fill="#EDE9FF"/>
<mask id="path-2-inside-1_238_547" fill="white">
<rect x="37" y="17" width="18.2963" height="19" rx="1"/>
</mask>
<rect x="37" y="17" width="18.2963" height="19" rx="1" stroke="#6449BC" stroke-width="4" mask="url(#path-2-inside-1_238_547)"/>
<circle cx="46.1482" cy="23.3333" r="2.51852" fill="#D0C5F9" stroke="#6449BC" stroke-width="2"/>
<path d="M40.9503 32.1852H40.9423C41.4616 30.1721 43.5135 28.5555 46.148 28.5555C48.7825 28.5555 50.8345 30.1721 51.3537 32.1852H51.3458H51.3349H51.3239H51.3129H51.3018H51.2907H51.2796H51.2684H51.2571H51.2459H51.2345H51.2232H51.2117H51.2003H51.1888H51.1772H51.1656H51.154H51.1423H51.1306H51.1188H51.107H51.0951H51.0832H51.0712H51.0593H51.0472H51.0351H51.023H51.0109H50.9986H50.9864H50.9741H50.9618H50.9494H50.937H50.9245H50.912H50.8994H50.8869H50.8742H50.8616H50.8488H50.8361H50.8233H50.8104H50.7976H50.7846H50.7717H50.7587H50.7456H50.7325H50.7194H50.7062H50.693H50.6798H50.6665H50.6532H50.6398H50.6264H50.6129H50.5994H50.5859H50.5723H50.5587H50.5451H50.5314H50.5177H50.5039H50.4901H50.4762H50.4623H50.4484H50.4345H50.4205H50.4064H50.3923H50.3782H50.3641H50.3499H50.3356H50.3214H50.3071H50.2927H50.2783H50.2639H50.2495H50.235H50.2204H50.2059H50.1913H50.1766H50.1619H50.1472H50.1325H50.1177H50.1028H50.088H50.0731H50.0581H50.0432H50.0282H50.0131H49.998H49.9829H49.9678H49.9526H49.9374H49.9221H49.9068H49.8915H49.8761H49.8607H49.8453H49.8298H49.8143H49.7988H49.7832H49.7676H49.752H49.7363H49.7206H49.7048H49.6891H49.6732H49.6574H49.6415H49.6256H49.6097H49.5937H49.5777H49.5616H49.5456H49.5294H49.5133H49.4971H49.4809H49.4647H49.4484H49.4321H49.4158H49.3994H49.383H49.3665H49.3501H49.3336H49.3171H49.3005H49.2839H49.2673H49.2506H49.2339H49.2172H49.2005H49.1837H49.1669H49.15H49.1332H49.1163H49.0993H49.0824H49.0654H49.0483H49.0313H49.0142H48.9971H48.9799H48.9628H48.9456H48.9283H48.9111H48.8938H48.8765H48.8591H48.8417H48.8243H48.8069H48.7894H48.7719H48.7544H48.7369H48.7193H48.7017H48.6841H48.6664H48.6487H48.631H48.6132H48.5955H48.5777H48.5598H48.542H48.5241H48.5062H48.4883H48.4703H48.4523H48.4343H48.4163H48.3982H48.3801H48.362H48.3438H48.3256H48.3074H48.2892H48.271H48.2527H48.2344H48.2161H48.1977H48.1793H48.1609H48.1425H48.124H48.1055H48.087H48.0685H48.0499H48.0314H48.0128H47.9941H47.9755H47.9568H47.9381H47.9194H47.9006H47.8819H47.8631H47.8442H47.8254H47.8065H47.7876H47.7687H47.7498H47.7308H47.7118H47.6928H47.6738H47.6548H47.6357H47.6166H47.5975H47.5783H47.5592H47.54H47.5208H47.5015H47.4823H47.463H47.4437H47.4244H47.4051H47.3857H47.3663H47.3469H47.3275H47.3081H47.2886H47.2691H47.2496H47.2301H47.2106H47.191H47.1714H47.1518H47.1322H47.1125H47.0929H47.0732H47.0535H47.0338H47.014H46.9942H46.9745H46.9547H46.9348H46.915H46.8951H46.8753H46.8554H46.8355H46.8155H46.7956H46.7756H46.7556H46.7356H46.7156H46.6955H46.6755H46.6554H46.6353H46.6152H46.5951H46.5749H46.5548H46.5346H46.5144H46.4942H46.4739H46.4537H46.4334H46.4131H46.3929H46.3725H46.3522H46.3319H46.3115H46.2911H46.2707H46.2503H46.2299H46.2094H46.189H46.1685H46.148H46.1275H46.1071H46.0866H46.0662H46.0457H46.0253H46.0049H45.9846H45.9642H45.9439H45.9235H45.9032H45.8829H45.8626H45.8424H45.8221H45.8019H45.7817H45.7615H45.7413H45.7211H45.701H45.6809H45.6607H45.6406H45.6206H45.6005H45.5805H45.5604H45.5404H45.5205H45.5005H45.4805H45.4606H45.4407H45.4208H45.4009H45.3811H45.3612H45.3414H45.3216H45.3018H45.282H45.2623H45.2426H45.2229H45.2032H45.1835H45.1639H45.1443H45.1246H45.1051H45.0855H45.066H45.0464H45.0269H45.0074H44.988H44.9685H44.9491H44.9297H44.9103H44.891H44.8716H44.8523H44.833H44.8138H44.7945H44.7753H44.7561H44.7369H44.7177H44.6986H44.6795H44.6604H44.6413H44.6222H44.6032H44.5842H44.5652H44.5463H44.5273H44.5084H44.4895H44.4707H44.4518H44.433H44.4142H44.3954H44.3767H44.358H44.3393H44.3206H44.3019H44.2833H44.2647H44.2461H44.2276H44.209H44.1905H44.172H44.1536H44.1352H44.1167H44.0984H44.08H44.0617H44.0434H44.0251H44.0068H43.9886H43.9704H43.9522H43.9341H43.916H43.8979H43.8798H43.8618H43.8437H43.8258H43.8078H43.7899H43.7719H43.7541H43.7362H43.7184H43.7006H43.6828H43.6651H43.6473H43.6297H43.612H43.5944H43.5768H43.5592H43.5416H43.5241H43.5066H43.4892H43.4717H43.4543H43.4369H43.4196H43.4023H43.385H43.3677H43.3505H43.3333H43.3161H43.299H43.2819H43.2648H43.2477H43.2307H43.2137H43.1967H43.1798H43.1629H43.146H43.1292H43.1124H43.0956H43.0788H43.0621H43.0454H43.0288H43.0122H42.9956H42.979H42.9625H42.946H42.9295H42.9131H42.8967H42.8803H42.864H42.8477H42.8314H42.8151H42.7989H42.7828H42.7666H42.7505H42.7344H42.7184H42.7024H42.6864H42.6704H42.6545H42.6387H42.6228H42.607H42.5912H42.5755H42.5598H42.5441H42.5285H42.5129H42.4973H42.4817H42.4662H42.4508H42.4353H42.4199H42.4046H42.3892H42.374H42.3587H42.3435H42.3283H42.3131H42.298H42.2829H42.2679H42.2529H42.2379H42.223H42.2081H42.1932H42.1784H42.1636H42.1488H42.1341H42.1194H42.1048H42.0902H42.0756H42.0611H42.0466H42.0321H42.0177H42.0033H41.989H41.9747H41.9604H41.9462H41.932H41.9178H41.9037H41.8896H41.8756H41.8616H41.8476H41.8337H41.8198H41.806H41.7922H41.7784H41.7647H41.751H41.7373H41.7237H41.7102H41.6966H41.6831H41.6697H41.6563H41.6429H41.6296H41.6163H41.603H41.5898H41.5767H41.5635H41.5504H41.5374H41.5244H41.5114H41.4985H41.4856H41.4728H41.46H41.4472H41.4345H41.4218H41.4092H41.3966H41.3841H41.3716H41.3591H41.3467H41.3343H41.322H41.3097H41.2974H41.2852H41.273H41.2609H41.2488H41.2368H41.2248H41.2129H41.201H41.1891H41.1773H41.1655H41.1538H41.1421H41.1305H41.1189H41.1073H41.0958H41.0843H41.0729H41.0615H41.0502H41.0389H41.0277H41.0165H41.0053H40.9942H40.9832H40.9721H40.9612H40.9503Z" fill="#D0C5F9" stroke="#6449BC" stroke-width="2"/>
<mask id="path-5-inside-2_238_547" fill="white">
<rect x="37" y="41" width="19" height="19.7308" rx="1"/>
</mask>
<rect x="37" y="41" width="19" height="19.7308" rx="1" stroke="#6449BC" stroke-width="4" mask="url(#path-5-inside-2_238_547)"/>
<circle cx="46.5" cy="47.5769" r="2.65385" fill="#D0C5F9" stroke="#6449BC" stroke-width="2"/>
<path d="M41.0463 56.8077H41.0447C41.568 54.6759 43.7287 52.9615 46.5 52.9615C49.2714 52.9615 51.432 54.6759 51.9554 56.8077H51.9537H51.9426H51.9314H51.9202H51.909H51.8977H51.8864H51.875H51.8635H51.852H51.8405H51.8289H51.8173H51.8056H51.7939H51.7822H51.7703H51.7585H51.7466H51.7346H51.7226H51.7106H51.6985H51.6864H51.6742H51.6619H51.6497H51.6374H51.625H51.6126H51.6001H51.5876H51.5751H51.5625H51.5499H51.5372H51.5245H51.5117H51.4989H51.486H51.4731H51.4602H51.4472H51.4342H51.4211H51.408H51.3948H51.3816H51.3684H51.3551H51.3418H51.3284H51.315H51.3015H51.288H51.2744H51.2608H51.2472H51.2335H51.2198H51.2061H51.1923H51.1784H51.1645H51.1506H51.1366H51.1226H51.1086H51.0945H51.0803H51.0662H51.052H51.0377H51.0234H51.0091H50.9947H50.9803H50.9658H50.9513H50.9368H50.9222H50.9076H50.8929H50.8782H50.8635H50.8487H50.8339H50.819H50.8041H50.7892H50.7742H50.7592H50.7441H50.7291H50.7139H50.6988H50.6836H50.6683H50.653H50.6377H50.6223H50.6069H50.5915H50.576H50.5605H50.545H50.5294H50.5138H50.4981H50.4824H50.4667H50.4509H50.4351H50.4193H50.4034H50.3875H50.3715H50.3555H50.3395H50.3234H50.3073H50.2912H50.275H50.2588H50.2426H50.2263H50.21H50.1936H50.1772H50.1608H50.1444H50.1279H50.1114H50.0948H50.0782H50.0616H50.0449H50.0282H50.0115H49.9947H49.9779H49.9611H49.9442H49.9273H49.9104H49.8934H49.8764H49.8594H49.8423H49.8252H49.8081H49.7909H49.7737H49.7565H49.7392H49.7219H49.7046H49.6872H49.6699H49.6524H49.635H49.6175H49.6H49.5824H49.5648H49.5472H49.5296H49.5119H49.4942H49.4764H49.4587H49.4409H49.423H49.4052H49.3873H49.3693H49.3514H49.3334H49.3154H49.2973H49.2793H49.2612H49.243H49.2249H49.2067H49.1884H49.1702H49.1519H49.1336H49.1152H49.0969H49.0785H49.0601H49.0416H49.0231H49.0046H48.9861H48.9675H48.9489H48.9303H48.9116H48.8929H48.8742H48.8555H48.8367H48.8179H48.7991H48.7803H48.7614H48.7425H48.7236H48.7046H48.6856H48.6666H48.6476H48.6285H48.6094H48.5903H48.5712H48.552H48.5328H48.5136H48.4944H48.4751H48.4558H48.4365H48.4171H48.3978H48.3784H48.3589H48.3395H48.32H48.3005H48.281H48.2615H48.2419H48.2223H48.2027H48.183H48.1634H48.1437H48.124H48.1042H48.0845H48.0647H48.0449H48.0251H48.0052H47.9853H47.9654H47.9455H47.9256H47.9056H47.8856H47.8656H47.8456H47.8255H47.8054H47.7853H47.7652H47.745H47.7249H47.7047H47.6845H47.6642H47.644H47.6237H47.6034H47.5831H47.5628H47.5424H47.522H47.5016H47.4812H47.4608H47.4403H47.4198H47.3993H47.3788H47.3582H47.3377H47.3171H47.2965H47.2759H47.2552H47.2346H47.2139H47.1932H47.1725H47.1517H47.131H47.1102H47.0894H47.0686H47.0478H47.0269H47.006H46.9852H46.9643H46.9433H46.9224H46.9014H46.8805H46.8595H46.8385H46.8174H46.7964H46.7753H46.7543H46.7332H46.712H46.6909H46.6698H46.6486H46.6274H46.6062H46.585H46.5638H46.5426H46.5213H46.5H46.4787H46.4575H46.4362H46.415H46.3938H46.3726H46.3514H46.3303H46.3091H46.288H46.2669H46.2458H46.2247H46.2036H46.1826H46.1616H46.1406H46.1196H46.0986H46.0776H46.0567H46.0358H46.0149H45.994H45.9731H45.9523H45.9314H45.9106H45.8898H45.8691H45.8483H45.8276H45.8068H45.7861H45.7655H45.7448H45.7242H45.7035H45.6829H45.6624H45.6418H45.6213H45.6007H45.5802H45.5597H45.5393H45.5188H45.4984H45.478H45.4576H45.4373H45.4169H45.3966H45.3763H45.356H45.3358H45.3156H45.2953H45.2752H45.255H45.2348H45.2147H45.1946H45.1745H45.1545H45.1344H45.1144H45.0944H45.0745H45.0545H45.0346H45.0147H44.9948H44.975H44.9551H44.9353H44.9156H44.8958H44.8761H44.8563H44.8367H44.817H44.7973H44.7777H44.7581H44.7386H44.719H44.6995H44.68H44.6605H44.6411H44.6217H44.6023H44.5829H44.5636H44.5442H44.5249H44.5057H44.4864H44.4672H44.448H44.4289H44.4097H44.3906H44.3715H44.3525H44.3334H44.3144H44.2954H44.2765H44.2576H44.2387H44.2198H44.2009H44.1821H44.1633H44.1446H44.1258H44.1071H44.0884H44.0698H44.0511H44.0325H44.014H43.9954H43.9769H43.9584H43.94H43.9216H43.9032H43.8848H43.8664H43.8481H43.8299H43.8116H43.7934H43.7752H43.757H43.7389H43.7208H43.7027H43.6847H43.6666H43.6487H43.6307H43.6128H43.5949H43.577H43.5592H43.5414H43.5236H43.5059H43.4882H43.4705H43.4528H43.4352H43.4176H43.4001H43.3826H43.3651H43.3476H43.3302H43.3128H43.2954H43.2781H43.2608H43.2435H43.2263H43.2091H43.1919H43.1748H43.1577H43.1406H43.1236H43.1066H43.0896H43.0727H43.0558H43.0389H43.0221H43.0053H42.9886H42.9718H42.9551H42.9385H42.9218H42.9052H42.8887H42.8722H42.8557H42.8392H42.8228H42.8064H42.7901H42.7738H42.7575H42.7412H42.725H42.7089H42.6927H42.6766H42.6606H42.6445H42.6285H42.6126H42.5967H42.5808H42.5649H42.5491H42.5334H42.5176H42.5019H42.4863H42.4706H42.4551H42.4395H42.424H42.4085H42.3931H42.3777H42.3623H42.347H42.3317H42.3165H42.3013H42.2861H42.271H42.2559H42.2408H42.2258H42.2108H42.1959H42.181H42.1662H42.1513H42.1366H42.1218H42.1071H42.0925H42.0778H42.0633H42.0487H42.0342H42.0198H42.0053H41.991H41.9766H41.9623H41.9481H41.9339H41.9197H41.9056H41.8915H41.8774H41.8634H41.8494H41.8355H41.8216H41.8078H41.794H41.7802H41.7665H41.7528H41.7392H41.7256H41.7121H41.6985H41.6851H41.6717H41.6583H41.645H41.6317H41.6184H41.6052H41.592H41.5789H41.5659H41.5528H41.5398H41.5269H41.514H41.5011H41.4883H41.4756H41.4628H41.4502H41.4375H41.4249H41.4124H41.3999H41.3875H41.375H41.3627H41.3504H41.3381H41.3259H41.3137H41.3015H41.2895H41.2774H41.2654H41.2535H41.2416H41.2297H41.2179H41.2061H41.1944H41.1827H41.1711H41.1595H41.148H41.1365H41.1251H41.1137H41.1023H41.091H41.0798H41.0686H41.0574H41.0463Z" fill="#D0C5F9" stroke="#6449BC" stroke-width="2"/>
<mask id="path-8-inside-3_238_547" fill="white">
<rect x="19" y="25" width="26" height="27" rx="1"/>
</mask>
<rect x="19" y="25" width="26" height="27" rx="1" fill="#D0C5F9" stroke="#6449BC" stroke-width="4" mask="url(#path-8-inside-3_238_547)"/>
<circle cx="32" cy="34" r="4" fill="#EDE9FF" stroke="#6449BC" stroke-width="2"/>
<path d="M24.0863 47H24.0825C24.6327 43.6844 27.8755 41 32 41C36.1245 41 39.3673 43.6844 39.9175 47H39.9137H39.9007H39.8876H39.8745H39.8612H39.8479H39.8346H39.8211H39.8076H39.794H39.7804H39.7667H39.7529H39.739H39.7251H39.7111H39.697H39.6829H39.6687H39.6545H39.6401H39.6257H39.6113H39.5967H39.5821H39.5675H39.5527H39.5379H39.5231H39.5081H39.4931H39.4781H39.4629H39.4477H39.4325H39.4172H39.4018H39.3863H39.3708H39.3552H39.3395H39.3238H39.3081H39.2922H39.2763H39.2603H39.2443H39.2282H39.212H39.1958H39.1795H39.1631H39.1467H39.1302H39.1137H39.0971H39.0804H39.0637H39.0469H39.03H39.0131H38.9961H38.9791H38.962H38.9448H38.9276H38.9103H38.893H38.8756H38.8581H38.8406H38.823H38.8053H38.7876H38.7698H38.752H38.7341H38.7162H38.6982H38.6801H38.662H38.6438H38.6255H38.6072H38.5889H38.5704H38.552H38.5334H38.5148H38.4962H38.4774H38.4587H38.4398H38.421H38.402H38.383H38.364H38.3448H38.3257H38.3064H38.2872H38.2678H38.2484H38.229H38.2095H38.1899H38.1703H38.1506H38.1309H38.1111H38.0912H38.0713H38.0514H38.0314H38.0113H37.9912H37.971H37.9508H37.9305H37.9102H37.8898H37.8694H37.8489H37.8284H37.8078H37.7871H37.7664H37.7456H37.7248H37.704H37.6831H37.6621H37.6411H37.62H37.5989H37.5777H37.5565H37.5352H37.5139H37.4925H37.4711H37.4496H37.4281H37.4065H37.3848H37.3632H37.3414H37.3196H37.2978H37.2759H37.254H37.232H37.21H37.1879H37.1658H37.1436H37.1214H37.0991H37.0768H37.0544H37.032H37.0095H36.987H36.9644H36.9418H36.9192H36.8965H36.8737H36.8509H36.8281H36.8052H36.7822H36.7592H36.7362H36.7131H36.69H36.6668H36.6436H36.6203H36.597H36.5737H36.5503H36.5268H36.5033H36.4798H36.4562H36.4326H36.4089H36.3852H36.3615H36.3377H36.3138H36.2899H36.266H36.242H36.218H36.1939H36.1698H36.1457H36.1215H36.0973H36.073H36.0487H36.0243H35.9999H35.9755H35.951H35.9264H35.9019H35.8773H35.8526H35.8279H35.8032H35.7784H35.7536H35.7287H35.7038H35.6789H35.6539H35.6289H35.6038H35.5787H35.5536H35.5284H35.5032H35.4779H35.4527H35.4273H35.4019H35.3765H35.3511H35.3256H35.3001H35.2745H35.2489H35.2233H35.1976H35.1719H35.1461H35.1203H35.0945H35.0686H35.0427H35.0168H34.9908H34.9648H34.9388H34.9127H34.8866H34.8604H34.8342H34.808H34.7817H34.7554H34.7291H34.7027H34.6763H34.6499H34.6234H34.5969H34.5704H34.5438H34.5172H34.4905H34.4639H34.4371H34.4104H34.3836H34.3568H34.33H34.3031H34.2762H34.2492H34.2223H34.1953H34.1682H34.1411H34.114H34.0869H34.0597H34.0325H34.0053H33.978H33.9507H33.9234H33.8961H33.8687H33.8413H33.8138H33.7863H33.7588H33.7313H33.7037H33.6761H33.6485H33.6208H33.5931H33.5654H33.5377H33.5099H33.4821H33.4543H33.4264H33.3985H33.3706H33.3427H33.3147H33.2867H33.2587H33.2306H33.2025H33.1744H33.1463H33.1181H33.0899H33.0617H33.0334H33.0052H32.9769H32.9485H32.9202H32.8918H32.8634H32.835H32.8065H32.7781H32.7495H32.721H32.6925H32.6639H32.6353H32.6066H32.578H32.5493H32.5206H32.4919H32.4631H32.4344H32.4056H32.3767H32.3479H32.319H32.2901H32.2612H32.2323H32.2033H32.1744H32.1453H32.1163H32.0873H32.0582H32.0291H32H31.9709H31.9418H31.9127H31.8837H31.8546H31.8256H31.7967H31.7677H31.7388H31.7099H31.681H31.6521H31.6233H31.5944H31.5656H31.5369H31.5081H31.4794H31.4507H31.422H31.3933H31.3647H31.3361H31.3075H31.279H31.2505H31.2219H31.1935H31.165H31.1366H31.1082H31.0798H31.0514H31.0231H30.9948H30.9666H30.9383H30.9101H30.8819H30.8537H30.8256H30.7975H30.7694H30.7413H30.7133H30.6853H30.6573H30.6294H30.6015H30.5736H30.5457H30.5179H30.4901H30.4623H30.4346H30.4068H30.3792H30.3515H30.3239H30.2963H30.2687H30.2412H30.2137H30.1862H30.1587H30.1313H30.1039H30.0766H30.0493H30.022H29.9947H29.9675H29.9403H29.9131H29.886H29.8589H29.8318H29.8047H29.7777H29.7508H29.7238H29.6969H29.67H29.6432H29.6164H29.5896H29.5628H29.5361H29.5095H29.4828H29.4562H29.4296H29.4031H29.3766H29.3501H29.3237H29.2973H29.2709H29.2446H29.2183H29.192H29.1658H29.1396H29.1134H29.0873H29.0612H29.0352H29.0092H28.9832H28.9573H28.9314H28.9055H28.8797H28.8539H28.8281H28.8024H28.7767H28.7511H28.7255H28.6999H28.6744H28.6489H28.6235H28.5981H28.5727H28.5473H28.522H28.4968H28.4716H28.4464H28.4213H28.3962H28.3711H28.3461H28.3211H28.2962H28.2713H28.2464H28.2216H28.1968H28.1721H28.1474H28.1227H28.0981H28.0736H28.049H28.0245H28.0001H27.9757H27.9513H27.927H27.9027H27.8785H27.8543H27.8302H27.8061H27.782H27.758H27.734H27.7101H27.6862H27.6623H27.6385H27.6148H27.5911H27.5674H27.5438H27.5202H27.4967H27.4732H27.4497H27.4263H27.403H27.3797H27.3564H27.3332H27.31H27.2869H27.2638H27.2408H27.2178H27.1948H27.1719H27.1491H27.1263H27.1035H27.0808H27.0582H27.0356H27.013H26.9905H26.968H26.9456H26.9232H26.9009H26.8786H26.8564H26.8342H26.8121H26.79H26.768H26.746H26.7241H26.7022H26.6804H26.6586H26.6368H26.6152H26.5935H26.5719H26.5504H26.5289H26.5075H26.4861H26.4648H26.4435H26.4223H26.4011H26.38H26.3589H26.3379H26.3169H26.296H26.2752H26.2544H26.2336H26.2129H26.1922H26.1716H26.1511H26.1306H26.1102H26.0898H26.0695H26.0492H26.029H26.0088H25.9887H25.9686H25.9486H25.9287H25.9088H25.8889H25.8691H25.8494H25.8297H25.8101H25.7905H25.771H25.7516H25.7322H25.7128H25.6936H25.6743H25.6552H25.636H25.617H25.598H25.579H25.5602H25.5413H25.5226H25.5038H25.4852H25.4666H25.448H25.4296H25.4111H25.3928H25.3745H25.3562H25.338H25.3199H25.3018H25.2838H25.2659H25.248H25.2302H25.2124H25.1947H25.177H25.1594H25.1419H25.1244H25.107H25.0897H25.0724H25.0552H25.038H25.0209H25.0039H24.9869H24.97H24.9531H24.9363H24.9196H24.9029H24.8863H24.8698H24.8533H24.8369H24.8205H24.8042H24.788H24.7718H24.7557H24.7397H24.7237H24.7078H24.6919H24.6762H24.6605H24.6448H24.6292H24.6137H24.5982H24.5828H24.5675H24.5523H24.5371H24.5219H24.5069H24.4919H24.4769H24.4621H24.4473H24.4325H24.4179H24.4033H24.3887H24.3743H24.3599H24.3455H24.3313H24.3171H24.303H24.2889H24.2749H24.261H24.2471H24.2333H24.2196H24.206H24.1924H24.1789H24.1654H24.1521H24.1388H24.1255H24.1124H24.0993H24.0863Z" fill="#EDE9FF" stroke="#6449BC" stroke-width="2"/>
</svg>
