<svg width="78" height="78" viewBox="0 0 78 78" fill="none" xmlns="http://www.w3.org/2000/svg">
<circle cx="39" cy="39" r="39" fill="#EDE9FF"/>
<path d="M21.3415 39V26.6415L18.5065 28.374V25.581L21.3415 23.88H23.9245V39H21.3415ZM32.1141 39.315C30.6021 39.315 29.3071 38.986 28.2291 38.328C27.1511 37.663 26.3216 36.739 25.7406 35.556C25.1666 34.373 24.8796 33.001 24.8796 31.44C24.8796 29.879 25.1666 28.507 25.7406 27.324C26.3216 26.141 27.1511 25.2205 28.2291 24.5625C29.3071 23.8975 30.6021 23.565 32.1141 23.565C33.8571 23.565 35.3096 24.0025 36.4716 24.8775C37.6336 25.7455 38.4491 26.918 38.9181 28.395L36.3666 29.0985C36.0726 28.1115 35.5721 27.3415 34.8651 26.7885C34.1581 26.2285 33.2411 25.9485 32.1141 25.9485C31.0991 25.9485 30.2521 26.176 29.5731 26.631C28.9011 27.086 28.3936 27.7265 28.0506 28.5525C27.7146 29.3715 27.5431 30.334 27.5361 31.44C27.5361 32.546 27.7041 33.512 28.0401 34.338C28.3831 35.157 28.8941 35.794 29.5731 36.249C30.2521 36.704 31.0991 36.9315 32.1141 36.9315C33.2411 36.9315 34.1581 36.6515 34.8651 36.0915C35.5721 35.5315 36.0726 34.7615 36.3666 33.7815L38.9181 34.485C38.4491 35.962 37.6336 37.138 36.4716 38.013C35.3096 38.881 33.8571 39.315 32.1141 39.315Z" fill="#6449BC"/>
<mask id="path-3-inside-1_238_522" fill="white">
<path fill-rule="evenodd" clip-rule="evenodd" d="M49.8399 37.3301C48.8107 35.5566 46.2496 35.5566 45.2204 37.3301C44.5722 38.4471 43.2175 38.9401 42.003 38.5011C40.0746 37.8041 38.1127 39.4504 38.4643 41.4704C38.6857 42.7428 37.9649 43.9913 36.7523 44.4357C34.8271 45.1413 34.3824 47.6634 35.9502 48.9849C36.9376 49.8173 37.188 51.237 36.5447 52.3569C35.5235 54.1349 36.804 56.3528 38.8544 56.3574C40.1459 56.3603 41.2502 57.2869 41.4773 58.5583C41.8379 60.5768 44.2445 61.4527 45.8182 60.1382C46.8093 59.3103 48.251 59.3103 49.2421 60.1382C50.8158 61.4527 53.2224 60.5768 53.583 58.5583C53.8101 57.2869 54.9144 56.3603 56.2059 56.3574C58.2563 56.3528 59.5368 54.1349 58.5156 52.3569C57.8723 51.237 58.1227 49.8173 59.1101 48.9849C60.6779 47.6634 60.2332 45.1413 58.308 44.4357C57.0954 43.9913 56.3746 42.7428 56.596 41.4704C56.9476 39.4504 54.9857 37.8041 53.0573 38.5011C51.8428 38.9401 50.4881 38.4471 49.8399 37.3301ZM47.6031 52.1337C49.5981 52.1337 51.2153 50.5164 51.2153 48.5215C51.2153 46.5265 49.5981 44.9092 47.6031 44.9092C45.6081 44.9092 43.9909 46.5265 43.9909 48.5215C43.9909 50.5164 45.6081 52.1337 47.6031 52.1337Z"/>
</mask>
<path fill-rule="evenodd" clip-rule="evenodd" d="M49.8399 37.3301C48.8107 35.5566 46.2496 35.5566 45.2204 37.3301C44.5722 38.4471 43.2175 38.9401 42.003 38.5011C40.0746 37.8041 38.1127 39.4504 38.4643 41.4704C38.6857 42.7428 37.9649 43.9913 36.7523 44.4357C34.8271 45.1413 34.3824 47.6634 35.9502 48.9849C36.9376 49.8173 37.188 51.237 36.5447 52.3569C35.5235 54.1349 36.804 56.3528 38.8544 56.3574C40.1459 56.3603 41.2502 57.2869 41.4773 58.5583C41.8379 60.5768 44.2445 61.4527 45.8182 60.1382C46.8093 59.3103 48.251 59.3103 49.2421 60.1382C50.8158 61.4527 53.2224 60.5768 53.583 58.5583C53.8101 57.2869 54.9144 56.3603 56.2059 56.3574C58.2563 56.3528 59.5368 54.1349 58.5156 52.3569C57.8723 51.237 58.1227 49.8173 59.1101 48.9849C60.6779 47.6634 60.2332 45.1413 58.308 44.4357C57.0954 43.9913 56.3746 42.7428 56.596 41.4704C56.9476 39.4504 54.9857 37.8041 53.0573 38.5011C51.8428 38.9401 50.4881 38.4471 49.8399 37.3301ZM47.6031 52.1337C49.5981 52.1337 51.2153 50.5164 51.2153 48.5215C51.2153 46.5265 49.5981 44.9092 47.6031 44.9092C45.6081 44.9092 43.9909 46.5265 43.9909 48.5215C43.9909 50.5164 45.6081 52.1337 47.6031 52.1337Z" fill="#D0C5F9"/>
<path d="M45.2204 37.3301L43.4906 36.3262V36.3262L45.2204 37.3301ZM49.8399 37.3301L51.5697 36.3262V36.3262L49.8399 37.3301ZM42.003 38.5011L42.6828 36.6202V36.6202L42.003 38.5011ZM38.4643 41.4704L36.4939 41.8134V41.8134L38.4643 41.4704ZM36.7523 44.4357L37.4405 46.3135H37.4405L36.7523 44.4357ZM35.9502 48.9849L34.6612 50.5141H34.6612L35.9502 48.9849ZM36.5447 52.3569L34.8104 51.3607L34.8104 51.3607L36.5447 52.3569ZM38.8544 56.3574L38.85 58.3574H38.85L38.8544 56.3574ZM41.4773 58.5583L43.4462 58.2066L41.4773 58.5583ZM45.8182 60.1382L47.1003 61.6732L47.1003 61.6732L45.8182 60.1382ZM49.2421 60.1382L47.96 61.6732L47.96 61.6732L49.2421 60.1382ZM53.583 58.5583L51.6141 58.2066H51.6141L53.583 58.5583ZM56.2059 56.3574L56.2103 58.3574L56.2059 56.3574ZM58.5156 52.3569L56.7813 53.353H56.7813L58.5156 52.3569ZM59.1101 48.9849L60.3991 50.5141L59.1101 48.9849ZM58.308 44.4357L57.6198 46.3135L57.6198 46.3135L58.308 44.4357ZM56.596 41.4704L54.6256 41.1275V41.1275L56.596 41.4704ZM53.0573 38.5011L53.7372 40.3821H53.7372L53.0573 38.5011ZM46.9503 38.3339C47.2086 37.8887 47.8516 37.8887 48.11 38.3339L51.5697 36.3262C49.7697 33.2246 45.2906 33.2246 43.4906 36.3262L46.9503 38.3339ZM41.3231 40.3821C43.4473 41.1498 45.8166 40.2875 46.9503 38.3339L43.4906 36.3262C43.3279 36.6067 42.9878 36.7305 42.6828 36.6202L41.3231 40.3821ZM40.4347 41.1275C40.3464 40.6204 40.839 40.2071 41.3231 40.3821L42.6828 36.6202C39.3103 35.4012 35.8791 38.2804 36.4939 41.8134L40.4347 41.1275ZM37.4405 46.3135C39.5613 45.5363 40.8219 43.3528 40.4347 41.1275L36.4939 41.8134C36.5495 42.1328 36.3685 42.4463 36.0641 42.5578L37.4405 46.3135ZM37.2391 47.4557C36.8455 47.1239 36.9572 46.4907 37.4405 46.3135L36.0641 42.5578C32.697 43.7918 31.9192 48.2029 34.6612 50.5141L37.2391 47.4557ZM38.279 53.353C39.404 51.3944 38.9662 48.9114 37.2391 47.4557L34.6612 50.5141C34.9091 50.7231 34.9719 51.0796 34.8104 51.3607L38.279 53.353ZM38.8589 54.3574C38.3441 54.3563 38.0226 53.7994 38.279 53.353L34.8104 51.3607C33.0243 54.4704 35.2639 58.3494 38.85 58.3574L38.8589 54.3574ZM43.4462 58.2066C43.049 55.9831 41.1176 54.3624 38.8589 54.3574L38.85 58.3574C39.1742 58.3581 39.4515 58.5908 39.5085 58.91L43.4462 58.2066ZM44.536 58.6033C44.1409 58.9333 43.5367 58.7134 43.4462 58.2066L39.5085 58.91C40.1391 62.4402 44.3481 63.9721 47.1003 61.6732L44.536 58.6033ZM50.5243 58.6033C48.7908 57.1553 46.2695 57.1553 44.536 58.6033L47.1003 61.6732C47.3492 61.4653 47.7111 61.4653 47.96 61.6732L50.5243 58.6033ZM51.6141 58.2066C51.5236 58.7134 50.9194 58.9333 50.5243 58.6033L47.96 61.6732C50.7122 63.9721 54.9212 62.4402 55.5518 58.91L51.6141 58.2066ZM56.2014 54.3574C53.9427 54.3624 52.0113 55.9831 51.6141 58.2066L55.5518 58.91C55.6088 58.5908 55.8861 58.3581 56.2103 58.3574L56.2014 54.3574ZM56.7813 53.353C57.0377 53.7994 56.7162 54.3563 56.2014 54.3574L56.2103 58.3574C59.7964 58.3494 62.036 54.4704 60.2498 51.3607L56.7813 53.353ZM57.8211 47.4557C56.0941 48.9114 55.6563 51.3944 56.7813 53.353L60.2498 51.3607C60.0884 51.0796 60.1512 50.7231 60.3991 50.5141L57.8211 47.4557ZM57.6198 46.3135C58.1031 46.4907 58.2148 47.1239 57.8211 47.4557L60.3991 50.5141C63.1411 48.2029 62.3633 43.7918 58.9962 42.5578L57.6198 46.3135ZM54.6256 41.1275C54.2384 43.3528 55.499 45.5363 57.6198 46.3135L58.9962 42.5578C58.6918 42.4463 58.5108 42.1328 58.5664 41.8134L54.6256 41.1275ZM53.7372 40.3821C54.2213 40.2071 54.7139 40.6204 54.6256 41.1275L58.5664 41.8134C59.1812 38.2804 55.75 35.4012 52.3775 36.6202L53.7372 40.3821ZM48.11 38.3339C49.2437 40.2875 51.613 41.1498 53.7372 40.3821L52.3775 36.6202C52.0725 36.7305 51.7324 36.6067 51.5697 36.3262L48.11 38.3339ZM49.2153 48.5215C49.2153 49.4119 48.4935 50.1337 47.6031 50.1337V54.1337C50.7026 54.1337 53.2153 51.621 53.2153 48.5215H49.2153ZM47.6031 46.9092C48.4935 46.9092 49.2153 47.6311 49.2153 48.5215H53.2153C53.2153 45.4219 50.7026 42.9092 47.6031 42.9092V46.9092ZM45.9909 48.5215C45.9909 47.6311 46.7127 46.9092 47.6031 46.9092V42.9092C44.5035 42.9092 41.9909 45.4219 41.9909 48.5215H45.9909ZM47.6031 50.1337C46.7127 50.1337 45.9909 49.4119 45.9909 48.5215H41.9909C41.9909 51.621 44.5035 54.1337 47.6031 54.1337V50.1337Z" fill="#6449BC" mask="url(#path-3-inside-1_238_522)"/>
<path d="M51 35C51 30.0294 46.9706 26 42 26" stroke="#6449BC" stroke-width="2" stroke-linecap="round"/>
<path d="M24 43C24 47.9706 28.0294 52 33 52" stroke="#6449BC" stroke-width="2" stroke-linecap="round"/>
</svg>
