<svg width="78" height="78" viewBox="0 0 78 78" fill="none" xmlns="http://www.w3.org/2000/svg">
<circle cx="39" cy="39" r="39" fill="#C9EAFC" fill-opacity="0.5"/>
<path d="M44 26V19C44 16.7909 42.2091 15 40 15H19C16.7909 15 15 16.7909 15 19V49C15 51.2091 16.7909 53 19 53H22.5" stroke="#007BC0" stroke-width="2"/>
<rect x="23" y="26" width="32" height="38" rx="4" fill="#97DEF6" stroke="#007BC0" stroke-width="2"/>
<rect x="48" y="21" width="15" height="16" rx="4" fill="#DCF1FE" stroke="#007BC0" stroke-width="2"/>
<path d="M21 21H37.5" stroke="#007BC0" stroke-width="2" stroke-linecap="round"/>
<path d="M52 26H53" stroke="#007BC0" stroke-width="2" stroke-linecap="round"/>
<path d="M56 26H59" stroke="#007BC0" stroke-width="2" stroke-linecap="round"/>
<path d="M52 29H53" stroke="#007BC0" stroke-width="2" stroke-linecap="round"/>
<path d="M56 29H59" stroke="#007BC0" stroke-width="2" stroke-linecap="round"/>
<path d="M52 32H53" stroke="#007BC0" stroke-width="2" stroke-linecap="round"/>
<path d="M56 32H59" stroke="#007BC0" stroke-width="2" stroke-linecap="round"/>
<path d="M21 27H24" stroke="#007BC0" stroke-width="2" stroke-linecap="round"/>
<path d="M21 33H23" stroke="#007BC0" stroke-width="2" stroke-linecap="round"/>
<path d="M21 39H23" stroke="#007BC0" stroke-width="2" stroke-linecap="round"/>
<path d="M21 45H23" stroke="#007BC0" stroke-width="2" stroke-linecap="round"/>
<circle cx="39.5" cy="38.5" r="5.5" fill="#DCF1FE" stroke="#007BC0" stroke-width="2"/>
<path d="M29.0595 57H29.0521C29.5777 51.9797 34.0181 48 39.5 48C44.9819 48 49.4223 51.9797 49.9479 57H49.9405H49.9258H49.911H49.8961H49.8811H49.866H49.8508H49.8355H49.8201H49.8047H49.7891H49.7735H49.7577H49.7419H49.726H49.71H49.6939H49.6777H49.6614H49.645H49.6286H49.612H49.5954H49.5786H49.5618H49.5449H49.5279H49.5108H49.4936H49.4764H49.459H49.4416H49.4241H49.4064H49.3887H49.3709H49.3531H49.3351H49.3171H49.2989H49.2807H49.2624H49.244H49.2255H49.2069H49.1883H49.1695H49.1507H49.1318H49.1128H49.0937H49.0746H49.0553H49.036H49.0166H48.9971H48.9775H48.9578H48.9381H48.9182H48.8983H48.8783H48.8582H48.8381H48.8178H48.7975H48.7771H48.7566H48.736H48.7154H48.6946H48.6738H48.6529H48.6319H48.6109H48.5897H48.5685H48.5472H48.5258H48.5044H48.4828H48.4612H48.4395H48.4177H48.3959H48.374H48.3519H48.3299H48.3077H48.2854H48.2631H48.2407H48.2182H48.1957H48.1731H48.1504H48.1276H48.1047H48.0818H48.0588H48.0357H48.0125H47.9893H47.966H47.9426H47.9191H47.8956H47.8719H47.8483H47.8245H47.8007H47.7767H47.7528H47.7287H47.7046H47.6804H47.6561H47.6317H47.6073H47.5828H47.5582H47.5336H47.5089H47.4841H47.4592H47.4343H47.4093H47.3842H47.3591H47.3339H47.3086H47.2833H47.2578H47.2323H47.2068H47.1811H47.1554H47.1297H47.1038H47.0779H47.0519H47.0259H46.9998H46.9736H46.9473H46.921H46.8946H46.8682H46.8417H46.8151H46.7884H46.7617H46.7349H46.708H46.6811H46.6541H46.6271H46.6H46.5728H46.5455H46.5182H46.4908H46.4634H46.4359H46.4083H46.3806H46.3529H46.3252H46.2973H46.2694H46.2415H46.2134H46.1854H46.1572H46.129H46.1007H46.0724H46.044H46.0155H45.987H45.9584H45.9298H45.9011H45.8723H45.8434H45.8146H45.7856H45.7566H45.7275H45.6984H45.6692H45.6399H45.6106H45.5812H45.5518H45.5223H45.4928H45.4632H45.4335H45.4038H45.374H45.3441H45.3142H45.2843H45.2543H45.2242H45.1941H45.1639H45.1336H45.1033H45.073H45.0426H45.0121H44.9816H44.951H44.9204H44.8897H44.8589H44.8281H44.7973H44.7664H44.7354H44.7044H44.6733H44.6422H44.611H44.5798H44.5485H44.5171H44.4857H44.4543H44.4228H44.3912H44.3596H44.328H44.2962H44.2645H44.2327H44.2008H44.1689H44.1369H44.1049H44.0728H44.0407H44.0085H43.9763H43.944H43.9117H43.8794H43.8469H43.8145H43.7819H43.7494H43.7168H43.6841H43.6514H43.6186H43.5858H43.5529H43.52H43.4871H43.4541H43.421H43.3879H43.3548H43.3216H43.2884H43.2551H43.2218H43.1884H43.155H43.1215H43.088H43.0544H43.0208H42.9872H42.9535H42.9197H42.886H42.8521H42.8183H42.7844H42.7504H42.7164H42.6824H42.6483H42.6141H42.58H42.5457H42.5115H42.4772H42.4428H42.4085H42.374H42.3396H42.305H42.2705H42.2359H42.2013H42.1666H42.1319H42.0971H42.0623H42.0275H41.9926H41.9577H41.9228H41.8878H41.8527H41.8177H41.7825H41.7474H41.7122H41.677H41.6417H41.6064H41.5711H41.5357H41.5003H41.4648H41.4293H41.3938H41.3582H41.3226H41.287H41.2513H41.2156H41.1799H41.1441H41.1083H41.0724H41.0366H41.0006H40.9647H40.9287H40.8927H40.8566H40.8205H40.7844H40.7482H40.712H40.6758H40.6395H40.6033H40.5669H40.5306H40.4942H40.4578H40.4213H40.3848H40.3483H40.3117H40.2752H40.2386H40.2019H40.1652H40.1285H40.0918H40.055H40.0182H39.9814H39.9445H39.9077H39.8707H39.8338H39.7968H39.7598H39.7228H39.6857H39.6486H39.6115H39.5744H39.5372H39.5H39.4628H39.4256H39.3885H39.3514H39.3143H39.2772H39.2402H39.2032H39.1662H39.1293H39.0923H39.0555H39.0186H38.9818H38.945H38.9082H38.8715H38.8348H38.7981H38.7614H38.7248H38.6883H38.6517H38.6152H38.5787H38.5422H38.5058H38.4694H38.4331H38.3967H38.3605H38.3242H38.288H38.2518H38.2156H38.1795H38.1434H38.1073H38.0713H38.0353H37.9994H37.9634H37.9276H37.8917H37.8559H37.8201H37.7844H37.7487H37.713H37.6774H37.6418H37.6062H37.5707H37.5352H37.4997H37.4643H37.4289H37.3936H37.3583H37.323H37.2878H37.2526H37.2175H37.1823H37.1473H37.1122H37.0772H37.0423H37.0074H36.9725H36.9377H36.9029H36.8681H36.8334H36.7987H36.7641H36.7295H36.695H36.6604H36.626H36.5915H36.5572H36.5228H36.4885H36.4543H36.42H36.3859H36.3517H36.3176H36.2836H36.2496H36.2156H36.1817H36.1479H36.114H36.0803H36.0465H36.0128H35.9792H35.9456H35.912H35.8785H35.845H35.8116H35.7782H35.7449H35.7116H35.6784H35.6452H35.6121H35.579H35.5459H35.5129H35.48H35.4471H35.4142H35.3814H35.3486H35.3159H35.2832H35.2506H35.2181H35.1855H35.1531H35.1206H35.0883H35.056H35.0237H34.9915H34.9593H34.9272H34.8951H34.8631H34.8311H34.7992H34.7673H34.7355H34.7038H34.672H34.6404H34.6088H34.5772H34.5457H34.5143H34.4829H34.4515H34.4202H34.389H34.3578H34.3267H34.2956H34.2646H34.2336H34.2027H34.1719H34.1411H34.1103H34.0796H34.049H34.0184H33.9879H33.9574H33.927H33.8967H33.8664H33.8361H33.8059H33.7758H33.7457H33.7157H33.6858H33.6559H33.626H33.5962H33.5665H33.5368H33.5072H33.4777H33.4482H33.4187H33.3894H33.3601H33.3308H33.3016H33.2725H33.2434H33.2144H33.1854H33.1566H33.1277H33.0989H33.0702H33.0416H33.013H32.9845H32.956H32.9276H32.8993H32.871H32.8428H32.8146H32.7866H32.7585H32.7306H32.7027H32.6748H32.6471H32.6194H32.5917H32.5641H32.5366H32.5092H32.4818H32.4545H32.4272H32.4H32.3729H32.3459H32.3189H32.292H32.2651H32.2383H32.2116H32.1849H32.1583H32.1318H32.1054H32.079H32.0527H32.0264H32.0002H31.9741H31.9481H31.9221H31.8962H31.8703H31.8446H31.8189H31.7932H31.7677H31.7422H31.7167H31.6914H31.6661H31.6409H31.6158H31.5907H31.5657H31.5408H31.5159H31.4911H31.4664H31.4418H31.4172H31.3927H31.3683H31.3439H31.3196H31.2954H31.2713H31.2472H31.2233H31.1993H31.1755H31.1517H31.1281H31.1044H31.0809H31.0574H31.034H31.0107H30.9875H30.9643H30.9412H30.9182H30.8953H30.8724H30.8496H30.8269H30.8043H30.7818H30.7593H30.7369H30.7146H30.6923H30.6701H30.6481H30.626H30.6041H30.5823H30.5605H30.5388H30.5172H30.4956H30.4742H30.4528H30.4315H30.4103H30.3891H30.3681H30.3471H30.3262H30.3054H30.2846H30.264H30.2434H30.2229H30.2025H30.1822H30.1619H30.1418H30.1217H30.1017H30.0818H30.0619H30.0422H30.0225H30.0029H29.9834H29.964H29.9447H29.9254H29.9063H29.8872H29.8682H29.8493H29.8305H29.8117H29.7931H29.7745H29.756H29.7376H29.7193H29.7011H29.6829H29.6649H29.6469H29.6291H29.6113H29.5936H29.5759H29.5584H29.541H29.5236H29.5064H29.4892H29.4721H29.4551H29.4382H29.4214H29.4046H29.388H29.3714H29.355H29.3386H29.3223H29.3061H29.29H29.274H29.2581H29.2423H29.2265H29.2109H29.1953H29.1799H29.1645H29.1492H29.134H29.1189H29.1039H29.089H29.0742H29.0595Z" fill="#DCF1FE" stroke="#007BC0" stroke-width="2"/>
</svg>
