<svg width="78" height="79" viewBox="0 0 78 79" fill="none" xmlns="http://www.w3.org/2000/svg">
<circle cx="39" cy="39.4246" r="39" fill="#F5CC8A" fill-opacity="0.16"/>
<path d="M36.9906 18.9598C38.1323 17.9302 39.8675 17.9302 41.0091 18.9598L42.2187 20.0508C43.3473 21.0687 44.8775 21.518 46.3773 21.2718L47.9846 21.008C49.5017 20.759 50.9615 21.6972 51.3652 23.1806L51.7929 24.7523C52.1921 26.2187 53.2365 27.424 54.6312 28.0278L56.126 28.6749C57.5369 29.2856 58.2577 30.864 57.7953 32.3302L57.3055 33.8837C56.8484 35.3331 57.0754 36.9117 57.9223 38.1737L58.83 39.5262C59.6867 40.8027 59.4397 42.5203 58.2581 43.5038L57.0061 44.5458C55.838 45.518 55.1755 46.9687 55.2057 48.4882L55.238 50.1167C55.2686 51.6538 54.1322 52.9652 52.6065 53.1537L50.9899 53.3535C49.4816 53.5398 48.1399 54.4021 47.3438 55.6966L46.4906 57.0842C45.6853 58.3937 44.0203 58.8826 42.6349 58.2163L41.1669 57.5103C39.7973 56.8517 38.2025 56.8517 36.8328 57.5103L35.3649 58.2163C33.9794 58.8826 32.3145 58.3937 31.5092 57.0842L30.656 55.6966C29.8599 54.4021 28.5182 53.5398 27.0099 53.3535L25.3933 53.1537C23.8676 52.9652 22.7312 51.6538 22.7618 50.1167L22.7941 48.4882C22.8243 46.9687 22.1618 45.518 20.9937 44.5458L19.7417 43.5038C18.5601 42.5203 18.3131 40.8027 19.1698 39.5262L20.0775 38.1737C20.9244 36.9117 21.1514 35.3331 20.6943 33.8837L20.2044 32.3302C19.7421 30.864 20.4629 29.2856 21.8738 28.6749L23.3686 28.0278L22.9714 27.1101L23.3686 28.0278C24.7633 27.424 25.8077 26.2187 26.2068 24.7523L26.6346 23.1806C27.0383 21.6972 28.4981 20.759 30.0152 21.008L31.6225 21.2718C33.1222 21.518 34.6525 21.0687 35.7811 20.0508L36.9906 18.9598Z" fill="#F5CC8A" stroke="#F47957" stroke-width="2"/>
<circle cx="39.0004" cy="38.2409" r="11.8281" fill="#F9F3E8" stroke="#F47957" stroke-width="2"/>
<circle cx="50.4068" cy="52.2797" r="9.76813" fill="#F9F3E8" stroke="#F47957" stroke-width="2"/>
<path d="M45.8867 52.1922L49.2787 55.1378L54.9267 49.0029" stroke="#F47957" stroke-width="2" stroke-linecap="round"/>
</svg>
