<svg width="78" height="78" viewBox="0 0 78 78" fill="none" xmlns="http://www.w3.org/2000/svg">
<circle cx="39" cy="39" r="39" fill="#C9EAFC" fill-opacity="0.5"/>
<circle cx="40.7444" cy="42.4515" r="6.19316" fill="#97DEF6" stroke="#007BC0" stroke-width="2"/>
<path d="M46.938 35.5326C47.9295 34.1014 49.5998 33.1617 51.4932 33.1617C54.5356 33.1617 57.0019 35.5879 57.0019 38.5808C57.0019 41.5736 54.5356 43.9998 51.4932 43.9998C51.0177 43.9998 50.5562 43.9405 50.116 43.8291" stroke="#007BC0" stroke-width="2"/>
<path d="M34.5513 35.5326C33.5597 34.1014 31.8894 33.1617 29.9961 33.1617C26.9537 33.1617 24.4874 35.5879 24.4874 38.5808C24.4874 41.5736 26.9537 43.9998 29.9961 43.9998C30.4716 43.9998 30.9331 43.9405 31.3732 43.8291" stroke="#007BC0" stroke-width="2"/>
<path d="M52.3567 62.5791C52.3567 62.5791 47.1577 62.5791 40.7445 62.5791C34.3313 62.5791 29.1323 62.5791 29.1323 62.5791C29.1323 56.5934 34.3313 51.7411 40.7445 51.7411C47.1577 51.7411 52.3567 56.5934 52.3567 62.5791Z" fill="#97DEF6" stroke="#007BC0" stroke-width="2"/>
<path d="M54.6796 57.1602C58.3445 57.1602 62.4211 57.1602 62.4211 57.1602C62.4211 52.0296 57.7752 47.8705 52.0442 47.8705C50.5226 47.8705 49.0774 48.1637 47.7754 48.6905" stroke="#007BC0" stroke-width="2"/>
<path d="M26.8102 57.1602C23.1453 57.1602 19.0687 57.1602 19.0687 57.1602C19.0687 52.0296 23.7145 47.8705 29.4455 47.8705C30.9672 47.8705 32.4123 48.1637 33.7144 48.6905" stroke="#007BC0" stroke-width="2"/>
<path d="M18 49.187V17.0001C18 15.8955 18.8954 15.0001 20 15.0001H50.1868C51.2914 15.0001 52.1868 15.8956 52.1868 17.0001V29.4227" stroke="#007BC0" stroke-width="2"/>
<path d="M24.4102 20.3418H29.7519" stroke="#007BC0" stroke-width="2" stroke-linecap="round"/>
<path d="M36.1621 20.3418H45.7772" stroke="#007BC0" stroke-width="2" stroke-linecap="round"/>
<path d="M24.4102 24.6151H45.7769" stroke="#007BC0" stroke-width="2" stroke-linecap="round"/>
<path d="M24.4102 28.8885H41.5036" stroke="#007BC0" stroke-width="2" stroke-linecap="round"/>
</svg>
