<svg width="78" height="78" viewBox="0 0 78 78" fill="none" xmlns="http://www.w3.org/2000/svg">
<circle cx="39" cy="39" r="39" fill="#DEFFFF"/>
<path d="M36.6615 18.1588C37.8032 17.1292 39.5384 17.1292 40.68 18.1588L41.8896 19.2498C43.0182 20.2676 44.5484 20.717 46.0482 20.4708L47.6555 20.207C49.1726 19.958 50.6324 20.8962 51.0361 22.3796L51.4638 23.9513C51.863 25.4177 52.9074 26.623 54.3021 27.2268L55.7969 27.8738C57.2078 28.4846 57.9286 30.063 57.4662 31.5292L56.9764 33.0826C56.5193 34.5321 56.7463 36.1107 57.5932 37.3726L58.5009 38.7251C59.3576 40.0017 59.1106 41.7193 57.929 42.7027L56.677 43.7447C55.5089 44.717 54.8464 46.1677 54.8766 47.6872L54.9089 49.3157C54.9395 50.8528 53.8031 52.1642 52.2774 52.3527L50.6608 52.5524C49.1525 52.7388 47.8108 53.601 47.0147 54.8956L46.1615 56.2831C45.3562 57.5927 43.6912 58.0816 42.3058 57.4153L40.8378 56.7093C39.4682 56.0506 37.8734 56.0506 36.5037 56.7093L35.0358 57.4153C33.6503 58.0816 31.9854 57.5927 31.1801 56.2831L30.3269 54.8956C29.5308 53.601 28.1891 52.7388 26.6808 52.5524L25.0642 52.3527C23.5385 52.1642 22.4021 50.8528 22.4327 49.3157L22.465 47.6872C22.4952 46.1677 21.8327 44.717 20.6646 43.7447L19.4126 42.7027C18.231 41.7193 17.984 40.0017 18.8407 38.7251L19.7484 37.3726C20.5953 36.1107 20.8223 34.5321 20.3652 33.0826L19.8753 31.5292C19.413 30.063 20.1338 28.4846 21.5447 27.8738L23.0395 27.2268L22.6423 26.3091L23.0395 27.2268C24.4342 26.623 25.4786 25.4177 25.8777 23.9513L26.3055 22.3796C26.7092 20.8962 28.169 19.958 29.6861 20.207L31.2934 20.4708C32.7931 20.717 34.3234 20.2676 35.452 19.2498L36.6615 18.1588Z" fill="#A4EFEE" stroke="#11DCD0" stroke-width="2"/>
<circle cx="38.6713" cy="37.4399" r="11.8281" fill="#DEFFFF" stroke="#11DCD0" stroke-width="2"/>
<circle cx="50.0777" cy="51.4787" r="9.76813" fill="#DEFFFF" stroke="#11DCD0" stroke-width="2"/>
<path d="M45.5576 51.3912L48.9496 54.3368L54.5976 48.2019" stroke="#11DCD0" stroke-width="2" stroke-linecap="round"/>
</svg>
