<svg width="78" height="79" viewBox="0 0 78 79" fill="none" xmlns="http://www.w3.org/2000/svg">
<circle cx="39" cy="39.4246" r="39" fill="#DEFFFF"/>
<path d="M22.7637 23.2717H55.2358V48.6534C55.2358 51.8087 53.3812 54.6693 50.5006 55.9569L42.2645 59.6385C40.187 60.5672 37.8125 60.5671 35.735 59.6385L27.4989 55.9569C24.6183 54.6693 22.7637 51.8087 22.7637 48.6534V23.2717Z" stroke="#11DCD0" stroke-width="2"/>
<path d="M28.1587 27.7744H49.841V47.9045C49.841 49.4314 48.9716 50.8252 47.6003 51.4968L40.7591 54.8472C39.6492 55.3907 38.3504 55.3907 37.2405 54.8472L30.3994 51.4968C29.028 50.8252 28.1587 49.4314 28.1587 47.9045V27.7744Z" fill="#A4EFEE" stroke="#11DCD0" stroke-width="2"/>
<path d="M33.9136 39.2298L37.5219 43.1093L44.086 36.0518" stroke="#11DCD0" stroke-width="2" stroke-linecap="round"/>
</svg>
