<svg width="78" height="78" viewBox="0 0 78 78" fill="none" xmlns="http://www.w3.org/2000/svg">
<circle cx="39" cy="39" r="39" fill="#F5CC8A" fill-opacity="0.16"/>
<circle cx="36.5747" cy="34.1458" r="15.3811" stroke="#F47957" stroke-width="2"/>
<path d="M42.5168 34.1458C42.5168 38.5684 41.7552 42.525 40.5627 45.3388C39.9657 46.7475 39.2804 47.8232 38.5705 48.5318C37.8645 49.2364 37.191 49.5269 36.5747 49.5269C35.9584 49.5269 35.285 49.2364 34.579 48.5318C33.869 47.8232 33.1837 46.7475 32.5867 45.3388C31.3943 42.525 30.6327 38.5684 30.6327 34.1458C30.6327 29.7231 31.3943 25.7665 32.5867 22.9528C33.1837 21.544 33.869 20.4683 34.579 19.7597C35.285 19.0551 35.9584 18.7646 36.5747 18.7646C37.191 18.7646 37.8645 19.0551 38.5705 19.7597C39.2804 20.4683 39.9657 21.544 40.5627 22.9528C41.7552 25.7665 42.5168 29.7231 42.5168 34.1458Z" stroke="#F47957" stroke-width="2"/>
<path d="M21.9537 27.6777C24.1615 28.9483 29.8747 29.8534 36.5747 29.8534C43.2747 29.8534 48.988 28.9483 51.1957 27.6777" stroke="#F47957" stroke-width="2"/>
<path d="M51.1957 39.5959C48.9879 38.3253 43.2747 37.4202 36.5747 37.4202C29.8747 37.4202 24.1614 38.3253 21.9537 39.5959" stroke="#F47957" stroke-width="2"/>
<path d="M37.6774 34.1458L37.3601 58.8724L43.7418 54.2256L46.9636 60.2355L52.7876 57.5713L49.6897 51.1897L57.8062 49.4549L37.6774 34.1458Z" fill="#F5CC8A" stroke="#F47957" stroke-width="2" stroke-linecap="round"/>
</svg>
