<svg width="516" height="289" viewBox="0 0 516 289" fill="none" xmlns="http://www.w3.org/2000/svg">
<rect x="39" y="150" width="319" height="43" rx="21.5" fill="#528285"/>
<rect x="79" y="212" width="279" height="55" rx="27.5" fill="#528285"/>
<rect y="73" width="374" height="57" rx="28.5" fill="#528285"/>
<path d="M29.8389 96.2903C28.5429 96.2903 27.4389 96.0083 26.5269 95.4443C25.6149 94.8743 24.9159 94.0823 24.4299 93.0683C23.9499 92.0543 23.7099 90.8783 23.7099 89.5403C23.7099 88.2023 23.9499 87.0263 24.4299 86.0123C24.9159 84.9983 25.6149 84.2093 26.5269 83.6453C27.4389 83.0753 28.5429 82.7903 29.8389 82.7903C31.1289 82.7903 32.2299 83.0753 33.1419 83.6453C34.0599 84.2093 34.7589 84.9983 35.2389 86.0123C35.7189 87.0263 35.9589 88.2023 35.9589 89.5403C35.9589 90.8783 35.7189 92.0543 35.2389 93.0683C34.7589 94.0823 34.0599 94.8743 33.1419 95.4443C32.2299 96.0083 31.1289 96.2903 29.8389 96.2903ZM29.8389 94.4993C30.7569 94.5113 31.5189 94.3103 32.1249 93.8963C32.7369 93.4763 33.1959 92.8943 33.5019 92.1503C33.8079 91.4003 33.9609 90.5303 33.9609 89.5403C33.9609 88.5503 33.8079 87.6863 33.5019 86.9483C33.1959 86.2043 32.7369 85.6253 32.1249 85.2113C31.5189 84.7973 30.7569 84.5873 29.8389 84.5813C28.9209 84.5693 28.1559 84.7703 27.5439 85.1843C26.9379 85.5983 26.4819 86.1803 26.1759 86.9303C25.8699 87.6803 25.7139 88.5503 25.7079 89.5403C25.7019 90.5303 25.8519 91.3973 26.1579 92.1413C26.4639 92.8793 26.9229 93.4553 27.5349 93.8693C28.1529 94.2833 28.9209 94.4933 29.8389 94.4993ZM40.2651 96.0203V87.9923H36.9441V86.3003H45.4671V87.9923H42.1461V96.0203H40.2651ZM51.1582 96.2903C50.1622 96.2903 49.3162 96.0683 48.6202 95.6243C47.9242 95.1803 47.3902 94.5713 47.0182 93.7973C46.6522 93.0233 46.4662 92.1443 46.4602 91.1603C46.4662 90.1583 46.6582 89.2733 47.0362 88.5053C47.4142 87.7313 47.9542 87.1253 48.6562 86.6873C49.3582 86.2493 50.2012 86.0303 51.1852 86.0303C52.2472 86.0303 53.1532 86.2943 53.9032 86.8223C54.6592 87.3503 55.1572 88.0733 55.3972 88.9913L53.5252 89.5313C53.3392 88.9853 53.0332 88.5623 52.6072 88.2623C52.1872 87.9563 51.7042 87.8033 51.1582 87.8033C50.5402 87.8033 50.0332 87.9503 49.6372 88.2443C49.2412 88.5323 48.9472 88.9283 48.7552 89.4323C48.5632 89.9363 48.4642 90.5123 48.4582 91.1603C48.4642 92.1623 48.6922 92.9723 49.1422 93.5903C49.5982 94.2083 50.2702 94.5173 51.1582 94.5173C51.7642 94.5173 52.2532 94.3793 52.6252 94.1033C53.0032 93.8213 53.2912 93.4193 53.4892 92.8973L55.3972 93.3473C55.0792 94.2953 54.5542 95.0243 53.8222 95.5343C53.0902 96.0383 52.2022 96.2903 51.1582 96.2903ZM56.067 96.0203V94.4273C56.427 94.4933 56.7 94.4843 56.886 94.4003C57.078 94.3103 57.219 94.1483 57.309 93.9143C57.405 93.6803 57.486 93.3773 57.552 93.0053C57.654 92.4593 57.741 91.8383 57.813 91.1423C57.891 90.4403 57.96 89.6813 58.02 88.8653C58.08 88.0493 58.134 87.1943 58.182 86.3003H65.166V96.0203H63.276V88.0733H59.874C59.838 88.5473 59.796 89.0513 59.748 89.5853C59.706 90.1133 59.658 90.6383 59.604 91.1603C59.55 91.6823 59.493 92.1713 59.433 92.6273C59.373 93.0833 59.31 93.4733 59.244 93.7973C59.124 94.4453 58.947 94.9613 58.713 95.3453C58.485 95.7233 58.161 95.9663 57.741 96.0743C57.321 96.1883 56.763 96.1703 56.067 96.0203ZM72.0007 96.2903C71.0347 96.2903 70.1857 96.0803 69.4537 95.6603C68.7277 95.2343 68.1607 94.6433 67.7527 93.8873C67.3507 93.1253 67.1497 92.2433 67.1497 91.2413C67.1497 90.1793 67.3477 89.2583 67.7437 88.4783C68.1457 87.6983 68.7037 87.0953 69.4177 86.6693C70.1317 86.2433 70.9627 86.0303 71.9107 86.0303C72.9007 86.0303 73.7437 86.2613 74.4397 86.7233C75.1357 87.1793 75.6547 87.8303 75.9967 88.6763C76.3447 89.5223 76.4827 90.5273 76.4107 91.6913H74.5297V91.0073C74.5177 89.8793 74.3017 89.0453 73.8817 88.5053C73.4677 87.9653 72.8347 87.6953 71.9827 87.6953C71.0407 87.6953 70.3327 87.9923 69.8587 88.5863C69.3847 89.1803 69.1477 90.0383 69.1477 91.1603C69.1477 92.2283 69.3847 93.0563 69.8587 93.6443C70.3327 94.2263 71.0167 94.5173 71.9107 94.5173C72.4987 94.5173 73.0057 94.3853 73.4317 94.1213C73.8637 93.8513 74.1997 93.4673 74.4397 92.9693L76.2847 93.5543C75.9067 94.4243 75.3337 95.0993 74.5657 95.5793C73.7977 96.0533 72.9427 96.2903 72.0007 96.2903ZM68.5357 91.6913V90.2243H75.4747V91.6913H68.5357ZM76.9984 96.0203L80.7424 91.1603L77.2054 86.3003H79.2754L82.6594 91.0433V86.3003H84.3514V91.0433L87.7354 86.3003H89.8144L86.2774 91.1603L90.0214 96.0203H87.8344L84.3514 91.2773V96.0203H82.6594V91.2773L79.1854 96.0203H76.9984ZM99.6453 86.3003V96.0203H97.8363V89.2613L92.9763 96.0203H91.4463V86.3003H93.2553V92.9243L98.1243 86.3003H99.6453ZM102.151 96.0203V86.3003H106.426C106.708 86.3003 106.99 86.3183 107.272 86.3543C107.554 86.3843 107.803 86.4293 108.019 86.4893C108.511 86.6273 108.931 86.9033 109.279 87.3173C109.627 87.7253 109.801 88.2713 109.801 88.9553C109.801 89.3453 109.741 89.6753 109.621 89.9453C109.501 90.2093 109.336 90.4373 109.126 90.6293C109.03 90.7133 108.928 90.7883 108.82 90.8543C108.712 90.9203 108.604 90.9713 108.496 91.0073C108.718 91.0433 108.937 91.1213 109.153 91.2413C109.483 91.4153 109.753 91.6673 109.963 91.9973C110.179 92.3213 110.287 92.7563 110.287 93.3023C110.287 93.9563 110.128 94.5053 109.81 94.9493C109.492 95.3873 109.042 95.6873 108.46 95.8493C108.232 95.9153 107.974 95.9603 107.686 95.9843C107.404 96.0083 107.122 96.0203 106.84 96.0203H102.151ZM104.059 94.5353H106.723C106.849 94.5353 106.993 94.5233 107.155 94.4993C107.317 94.4753 107.461 94.4423 107.587 94.4003C107.857 94.3163 108.049 94.1633 108.163 93.9413C108.283 93.7193 108.343 93.4823 108.343 93.2303C108.343 92.8883 108.253 92.6153 108.073 92.4113C107.893 92.2013 107.665 92.0663 107.389 92.0063C107.269 91.9643 107.137 91.9403 106.993 91.9343C106.849 91.9283 106.726 91.9253 106.624 91.9253H104.059V94.5353ZM104.059 90.4133H106.165C106.339 90.4133 106.516 90.4043 106.696 90.3863C106.876 90.3623 107.032 90.3233 107.164 90.2693C107.398 90.1793 107.572 90.0293 107.686 89.8193C107.8 89.6033 107.857 89.3693 107.857 89.1173C107.857 88.8413 107.794 88.5953 107.668 88.3793C107.542 88.1633 107.353 88.0133 107.101 87.9293C106.927 87.8693 106.726 87.8363 106.498 87.8303C106.276 87.8183 106.135 87.8123 106.075 87.8123H104.059V90.4133ZM114.837 96.2903C114.117 96.2903 113.514 96.1583 113.028 95.8943C112.542 95.6243 112.173 95.2703 111.921 94.8323C111.675 94.3883 111.552 93.9023 111.552 93.3743C111.552 92.8823 111.639 92.4503 111.813 92.0783C111.987 91.7063 112.245 91.3913 112.587 91.1333C112.929 90.8693 113.349 90.6563 113.847 90.4943C114.279 90.3683 114.768 90.2573 115.314 90.1613C115.86 90.0653 116.433 89.9753 117.033 89.8913C117.639 89.8073 118.239 89.7233 118.833 89.6393L118.149 90.0173C118.161 89.2553 117.999 88.6913 117.663 88.3253C117.333 87.9533 116.763 87.7673 115.953 87.7673C115.443 87.7673 114.975 87.8873 114.549 88.1273C114.123 88.3613 113.826 88.7513 113.658 89.2973L111.903 88.7573C112.143 87.9233 112.599 87.2603 113.271 86.7683C113.949 86.2763 114.849 86.0303 115.971 86.0303C116.841 86.0303 117.597 86.1803 118.239 86.4803C118.887 86.7743 119.361 87.2423 119.661 87.8843C119.817 88.2023 119.913 88.5383 119.949 88.8923C119.985 89.2463 120.003 89.6273 120.003 90.0353V96.0203H118.338V93.7973L118.662 94.0853C118.26 94.8293 117.747 95.3843 117.123 95.7503C116.505 96.1103 115.743 96.2903 114.837 96.2903ZM115.17 94.7513C115.704 94.7513 116.163 94.6583 116.547 94.4723C116.931 94.2803 117.24 94.0373 117.474 93.7433C117.708 93.4493 117.861 93.1433 117.933 92.8253C118.035 92.5373 118.092 92.2133 118.104 91.8533C118.122 91.4933 118.131 91.2053 118.131 90.9893L118.743 91.2143C118.149 91.3043 117.609 91.3853 117.123 91.4573C116.637 91.5293 116.196 91.6013 115.8 91.6733C115.41 91.7393 115.062 91.8203 114.756 91.9163C114.498 92.0063 114.267 92.1143 114.063 92.2403C113.865 92.3663 113.706 92.5193 113.586 92.6993C113.472 92.8793 113.415 93.0983 113.415 93.3563C113.415 93.6083 113.478 93.8423 113.604 94.0583C113.73 94.2683 113.922 94.4363 114.18 94.5623C114.438 94.6883 114.768 94.7513 115.17 94.7513ZM122.331 96.0203V86.3003H124.212V90.2693H128.955V86.3003H130.836V96.0203H128.955V92.0423H124.212V96.0203H122.331ZM141.552 86.3003V96.0203H139.743V89.2613L134.883 96.0203H133.353V86.3003H135.162V92.9243L140.031 86.3003H141.552ZM148.378 96.2903C147.412 96.2903 146.563 96.0803 145.831 95.6603C145.105 95.2343 144.538 94.6433 144.13 93.8873C143.728 93.1253 143.527 92.2433 143.527 91.2413C143.527 90.1793 143.725 89.2583 144.121 88.4783C144.523 87.6983 145.081 87.0953 145.795 86.6693C146.509 86.2433 147.34 86.0303 148.288 86.0303C149.278 86.0303 150.121 86.2613 150.817 86.7233C151.513 87.1793 152.032 87.8303 152.374 88.6763C152.722 89.5223 152.86 90.5273 152.788 91.6913H150.907V91.0073C150.895 89.8793 150.679 89.0453 150.259 88.5053C149.845 87.9653 149.212 87.6953 148.36 87.6953C147.418 87.6953 146.71 87.9923 146.236 88.5863C145.762 89.1803 145.525 90.0383 145.525 91.1603C145.525 92.2283 145.762 93.0563 146.236 93.6443C146.71 94.2263 147.394 94.5173 148.288 94.5173C148.876 94.5173 149.383 94.3853 149.809 94.1213C150.241 93.8513 150.577 93.4673 150.817 92.9693L152.662 93.5543C152.284 94.4243 151.711 95.0993 150.943 95.5793C150.175 96.0533 149.32 96.2903 148.378 96.2903ZM144.913 91.6913V90.2243H151.852V91.6913H144.913ZM162.568 96.2903C161.572 96.2903 160.726 96.0683 160.03 95.6243C159.334 95.1803 158.8 94.5713 158.428 93.7973C158.062 93.0233 157.876 92.1443 157.87 91.1603C157.876 90.1583 158.068 89.2733 158.446 88.5053C158.824 87.7313 159.364 87.1253 160.066 86.6873C160.768 86.2493 161.611 86.0303 162.595 86.0303C163.657 86.0303 164.563 86.2943 165.313 86.8223C166.069 87.3503 166.567 88.0733 166.807 88.9913L164.935 89.5313C164.749 88.9853 164.443 88.5623 164.017 88.2623C163.597 87.9563 163.114 87.8033 162.568 87.8033C161.95 87.8033 161.443 87.9503 161.047 88.2443C160.651 88.5323 160.357 88.9283 160.165 89.4323C159.973 89.9363 159.874 90.5123 159.868 91.1603C159.874 92.1623 160.102 92.9723 160.552 93.5903C161.008 94.2083 161.68 94.5173 162.568 94.5173C163.174 94.5173 163.663 94.3793 164.035 94.1033C164.413 93.8213 164.701 93.4193 164.899 92.8973L166.807 93.3473C166.489 94.2953 165.964 95.0243 165.232 95.5343C164.5 96.0383 163.612 96.2903 162.568 96.2903ZM171.046 96.0203V87.9923H167.725V86.3003H176.248V87.9923H172.927V96.0203H171.046ZM180.421 96.2903C179.701 96.2903 179.098 96.1583 178.612 95.8943C178.126 95.6243 177.757 95.2703 177.505 94.8323C177.259 94.3883 177.136 93.9023 177.136 93.3743C177.136 92.8823 177.223 92.4503 177.397 92.0783C177.571 91.7063 177.829 91.3913 178.171 91.1333C178.513 90.8693 178.933 90.6563 179.431 90.4943C179.863 90.3683 180.352 90.2573 180.898 90.1613C181.444 90.0653 182.017 89.9753 182.617 89.8913C183.223 89.8073 183.823 89.7233 184.417 89.6393L183.733 90.0173C183.745 89.2553 183.583 88.6913 183.247 88.3253C182.917 87.9533 182.347 87.7673 181.537 87.7673C181.027 87.7673 180.559 87.8873 180.133 88.1273C179.707 88.3613 179.41 88.7513 179.242 89.2973L177.487 88.7573C177.727 87.9233 178.183 87.2603 178.855 86.7683C179.533 86.2763 180.433 86.0303 181.555 86.0303C182.425 86.0303 183.181 86.1803 183.823 86.4803C184.471 86.7743 184.945 87.2423 185.245 87.8843C185.401 88.2023 185.497 88.5383 185.533 88.8923C185.569 89.2463 185.587 89.6273 185.587 90.0353V96.0203H183.922V93.7973L184.246 94.0853C183.844 94.8293 183.331 95.3843 182.707 95.7503C182.089 96.1103 181.327 96.2903 180.421 96.2903ZM180.754 94.7513C181.288 94.7513 181.747 94.6583 182.131 94.4723C182.515 94.2803 182.824 94.0373 183.058 93.7433C183.292 93.4493 183.445 93.1433 183.517 92.8253C183.619 92.5373 183.676 92.2133 183.688 91.8533C183.706 91.4933 183.715 91.2053 183.715 90.9893L184.327 91.2143C183.733 91.3043 183.193 91.3853 182.707 91.4573C182.221 91.5293 181.78 91.6013 181.384 91.6733C180.994 91.7393 180.646 91.8203 180.34 91.9163C180.082 92.0063 179.851 92.1143 179.647 92.2403C179.449 92.3663 179.29 92.5193 179.17 92.6993C179.056 92.8793 178.999 93.0983 178.999 93.3563C178.999 93.6083 179.062 93.8423 179.188 94.0583C179.314 94.2683 179.506 94.4363 179.764 94.5623C180.022 94.6883 180.352 94.7513 180.754 94.7513ZM190.435 96.0203V87.9923H187.114V86.3003H195.637V87.9923H192.316V96.0203H190.435ZM198.414 100.34L200.295 95.2193L200.322 96.7313L196.083 86.3003H198.045L201.213 94.3553H200.637L203.661 86.3003H205.569L200.205 100.34H198.414ZM210.785 96.2903C209.789 96.2903 208.943 96.0683 208.247 95.6243C207.551 95.1803 207.017 94.5713 206.645 93.7973C206.279 93.0233 206.093 92.1443 206.087 91.1603C206.093 90.1583 206.285 89.2733 206.663 88.5053C207.041 87.7313 207.581 87.1253 208.283 86.6873C208.985 86.2493 209.828 86.0303 210.812 86.0303C211.874 86.0303 212.78 86.2943 213.53 86.8223C214.286 87.3503 214.784 88.0733 215.024 88.9913L213.152 89.5313C212.966 88.9853 212.66 88.5623 212.234 88.2623C211.814 87.9563 211.331 87.8033 210.785 87.8033C210.167 87.8033 209.66 87.9503 209.264 88.2443C208.868 88.5323 208.574 88.9283 208.382 89.4323C208.19 89.9363 208.091 90.5123 208.085 91.1603C208.091 92.1623 208.319 92.9723 208.769 93.5903C209.225 94.2083 209.897 94.5173 210.785 94.5173C211.391 94.5173 211.88 94.3793 212.252 94.1033C212.63 93.8213 212.918 93.4193 213.116 92.8973L215.024 93.3473C214.706 94.2953 214.181 95.0243 213.449 95.5343C212.717 96.0383 211.829 96.2903 210.785 96.2903ZM220.815 96.2903C219.843 96.2903 219 96.0713 218.286 95.6333C217.572 95.1953 217.02 94.5923 216.63 93.8243C216.246 93.0503 216.054 92.1593 216.054 91.1513C216.054 90.1373 216.252 89.2463 216.648 88.4783C217.044 87.7043 217.599 87.1043 218.313 86.6783C219.027 86.2463 219.861 86.0303 220.815 86.0303C221.787 86.0303 222.63 86.2493 223.344 86.6873C224.058 87.1253 224.61 87.7283 225 88.4963C225.39 89.2643 225.585 90.1493 225.585 91.1513C225.585 92.1653 225.387 93.0593 224.991 93.8333C224.601 94.6013 224.049 95.2043 223.335 95.6423C222.621 96.0743 221.781 96.2903 220.815 96.2903ZM220.815 94.5173C221.745 94.5173 222.438 94.2053 222.894 93.5813C223.356 92.9513 223.587 92.1413 223.587 91.1513C223.587 90.1373 223.353 89.3273 222.885 88.7213C222.423 88.1093 221.733 87.8033 220.815 87.8033C220.185 87.8033 219.666 87.9473 219.258 88.2353C218.85 88.5173 218.547 88.9103 218.349 89.4143C218.151 89.9123 218.052 90.4913 218.052 91.1513C218.052 92.1713 218.286 92.9873 218.754 93.5993C219.222 94.2113 219.909 94.5173 220.815 94.5173ZM227.554 96.0203V86.3003H231.829C232.111 86.3003 232.393 86.3183 232.675 86.3543C232.957 86.3843 233.206 86.4293 233.422 86.4893C233.914 86.6273 234.334 86.9033 234.682 87.3173C235.03 87.7253 235.204 88.2713 235.204 88.9553C235.204 89.3453 235.144 89.6753 235.024 89.9453C234.904 90.2093 234.739 90.4373 234.529 90.6293C234.433 90.7133 234.331 90.7883 234.223 90.8543C234.115 90.9203 234.007 90.9713 233.899 91.0073C234.121 91.0433 234.34 91.1213 234.556 91.2413C234.886 91.4153 235.156 91.6673 235.366 91.9973C235.582 92.3213 235.69 92.7563 235.69 93.3023C235.69 93.9563 235.531 94.5053 235.213 94.9493C234.895 95.3873 234.445 95.6873 233.863 95.8493C233.635 95.9153 233.377 95.9603 233.089 95.9843C232.807 96.0083 232.525 96.0203 232.243 96.0203H227.554ZM229.462 94.5353H232.126C232.252 94.5353 232.396 94.5233 232.558 94.4993C232.72 94.4753 232.864 94.4423 232.99 94.4003C233.26 94.3163 233.452 94.1633 233.566 93.9413C233.686 93.7193 233.746 93.4823 233.746 93.2303C233.746 92.8883 233.656 92.6153 233.476 92.4113C233.296 92.2013 233.068 92.0663 232.792 92.0063C232.672 91.9643 232.54 91.9403 232.396 91.9343C232.252 91.9283 232.129 91.9253 232.027 91.9253H229.462V94.5353ZM229.462 90.4133H231.568C231.742 90.4133 231.919 90.4043 232.099 90.3863C232.279 90.3623 232.435 90.3233 232.567 90.2693C232.801 90.1793 232.975 90.0293 233.089 89.8193C233.203 89.6033 233.26 89.3693 233.26 89.1173C233.26 88.8413 233.197 88.5953 233.071 88.3793C232.945 88.1633 232.756 88.0133 232.504 87.9293C232.33 87.8693 232.129 87.8363 231.901 87.8303C231.679 87.8183 231.538 87.8123 231.478 87.8123H229.462V90.4133ZM23.7099 118.18V114.508C24.2439 114.508 24.6249 114.331 24.8529 113.977C25.0869 113.617 25.2729 113.008 25.4109 112.15C25.4949 111.628 25.5639 111.073 25.6179 110.485C25.6779 109.897 25.7289 109.261 25.7709 108.577C25.8129 107.887 25.8549 107.128 25.8969 106.3H32.8629V114.508H33.8169V118.18H32.0349V116.02H25.5009V118.18H23.7099ZM26.4009 114.508H30.9729V107.812H27.5709C27.5469 108.208 27.5199 108.616 27.4899 109.036C27.4659 109.456 27.4359 109.873 27.3999 110.287C27.3699 110.701 27.3339 111.097 27.2919 111.475C27.2499 111.853 27.2019 112.195 27.1479 112.501C27.0759 112.975 26.9889 113.371 26.8869 113.689C26.7909 114.007 26.6289 114.28 26.4009 114.508ZM39.8306 116.29C38.8586 116.29 38.0156 116.071 37.3016 115.633C36.5876 115.195 36.0356 114.592 35.6456 113.824C35.2616 113.05 35.0696 112.159 35.0696 111.151C35.0696 110.137 35.2676 109.246 35.6636 108.478C36.0596 107.704 36.6146 107.104 37.3286 106.678C38.0426 106.246 38.8766 106.03 39.8306 106.03C40.8026 106.03 41.6456 106.249 42.3596 106.687C43.0736 107.125 43.6256 107.728 44.0156 108.496C44.4056 109.264 44.6006 110.149 44.6006 111.151C44.6006 112.165 44.4026 113.059 44.0066 113.833C43.6166 114.601 43.0646 115.204 42.3506 115.642C41.6366 116.074 40.7966 116.29 39.8306 116.29ZM39.8306 114.517C40.7606 114.517 41.4536 114.205 41.9096 113.581C42.3716 112.951 42.6026 112.141 42.6026 111.151C42.6026 110.137 42.3686 109.327 41.9006 108.721C41.4386 108.109 40.7486 107.803 39.8306 107.803C39.2006 107.803 38.6816 107.947 38.2736 108.235C37.8656 108.517 37.5626 108.91 37.3646 109.414C37.1666 109.912 37.0676 110.491 37.0676 111.151C37.0676 112.171 37.3016 112.987 37.7696 113.599C38.2376 114.211 38.9246 114.517 39.8306 114.517ZM46.5694 116.02L46.5784 106.3H48.4864V110.98L52.3024 106.3H54.6964L50.6644 111.16L55.1104 116.02H52.5544L48.4864 111.34V116.02H46.5694ZM57.3318 120.34L59.2128 115.219L59.2398 116.731L55.0008 106.3H56.9628L60.1308 114.355H59.5548L62.5788 106.3H64.4868L59.1228 120.34H57.3318ZM65.8877 116.02V106.3H67.4627L71.0537 113.428L74.6357 106.3H76.2197V116.02H74.4017V110.152L71.4767 116.02H70.6217L67.6967 110.152V116.02H65.8877ZM83.0573 116.29C82.0913 116.29 81.2423 116.08 80.5103 115.66C79.7843 115.234 79.2173 114.643 78.8093 113.887C78.4073 113.125 78.2063 112.243 78.2063 111.241C78.2063 110.179 78.4043 109.258 78.8003 108.478C79.2023 107.698 79.7603 107.095 80.4743 106.669C81.1883 106.243 82.0193 106.03 82.9673 106.03C83.9573 106.03 84.8003 106.261 85.4963 106.723C86.1923 107.179 86.7113 107.83 87.0533 108.676C87.4013 109.522 87.5393 110.527 87.4673 111.691H85.5863V111.007C85.5743 109.879 85.3583 109.045 84.9383 108.505C84.5243 107.965 83.8913 107.695 83.0393 107.695C82.0973 107.695 81.3893 107.992 80.9153 108.586C80.4413 109.18 80.2043 110.038 80.2043 111.16C80.2043 112.228 80.4413 113.056 80.9153 113.644C81.3893 114.226 82.0733 114.517 82.9673 114.517C83.5553 114.517 84.0623 114.385 84.4883 114.121C84.9203 113.851 85.2563 113.467 85.4963 112.969L87.3413 113.554C86.9633 114.424 86.3903 115.099 85.6223 115.579C84.8543 116.053 83.9993 116.29 83.0573 116.29ZM79.5923 111.691V110.224H86.5313V111.691H79.5923ZM89.4776 116.02V106.3H91.3586V110.269H96.1016V106.3H97.9826V116.02H96.1016V112.042H91.3586V116.02H89.4776ZM103.019 116.02V107.992H99.698V106.3H108.221V107.992H104.9V116.02H103.019ZM113.975 116.29C113.003 116.29 112.16 116.071 111.446 115.633C110.732 115.195 110.18 114.592 109.79 113.824C109.406 113.05 109.214 112.159 109.214 111.151C109.214 110.137 109.412 109.246 109.808 108.478C110.204 107.704 110.759 107.104 111.473 106.678C112.187 106.246 113.021 106.03 113.975 106.03C114.947 106.03 115.79 106.249 116.504 106.687C117.218 107.125 117.77 107.728 118.16 108.496C118.55 109.264 118.745 110.149 118.745 111.151C118.745 112.165 118.547 113.059 118.151 113.833C117.761 114.601 117.209 115.204 116.495 115.642C115.781 116.074 114.941 116.29 113.975 116.29ZM113.975 114.517C114.905 114.517 115.598 114.205 116.054 113.581C116.516 112.951 116.747 112.141 116.747 111.151C116.747 110.137 116.513 109.327 116.045 108.721C115.583 108.109 114.893 107.803 113.975 107.803C113.345 107.803 112.826 107.947 112.418 108.235C112.01 108.517 111.707 108.91 111.509 109.414C111.311 109.912 111.212 110.491 111.212 111.151C111.212 112.171 111.446 112.987 111.914 113.599C112.382 114.211 113.069 114.517 113.975 114.517ZM120.714 116.02V106.3H124.989C125.271 106.3 125.553 106.318 125.835 106.354C126.117 106.384 126.366 106.429 126.582 106.489C127.074 106.627 127.494 106.903 127.842 107.317C128.19 107.725 128.364 108.271 128.364 108.955C128.364 109.345 128.304 109.675 128.184 109.945C128.064 110.209 127.899 110.437 127.689 110.629C127.593 110.713 127.491 110.788 127.383 110.854C127.275 110.92 127.167 110.971 127.059 111.007C127.281 111.043 127.5 111.121 127.716 111.241C128.046 111.415 128.316 111.667 128.526 111.997C128.742 112.321 128.85 112.756 128.85 113.302C128.85 113.956 128.691 114.505 128.373 114.949C128.055 115.387 127.605 115.687 127.023 115.849C126.795 115.915 126.537 115.96 126.249 115.984C125.967 116.008 125.685 116.02 125.403 116.02H120.714ZM122.622 114.535H125.286C125.412 114.535 125.556 114.523 125.718 114.499C125.88 114.475 126.024 114.442 126.15 114.4C126.42 114.316 126.612 114.163 126.726 113.941C126.846 113.719 126.906 113.482 126.906 113.23C126.906 112.888 126.816 112.615 126.636 112.411C126.456 112.201 126.228 112.066 125.952 112.006C125.832 111.964 125.7 111.94 125.556 111.934C125.412 111.928 125.289 111.925 125.187 111.925H122.622V114.535ZM122.622 110.413H124.728C124.902 110.413 125.079 110.404 125.259 110.386C125.439 110.362 125.595 110.323 125.727 110.269C125.961 110.179 126.135 110.029 126.249 109.819C126.363 109.603 126.42 109.369 126.42 109.117C126.42 108.841 126.357 108.595 126.231 108.379C126.105 108.163 125.916 108.013 125.664 107.929C125.49 107.869 125.289 107.836 125.061 107.83C124.839 107.818 124.698 107.812 124.638 107.812H122.622V110.413Z" fill="white"/>
<path d="M65.8067 176.49C64.5107 176.49 63.4067 176.208 62.4947 175.644C61.5827 175.074 60.8837 174.282 60.3977 173.268C59.9177 172.254 59.6777 171.078 59.6777 169.74C59.6777 168.402 59.9177 167.226 60.3977 166.212C60.8837 165.198 61.5827 164.409 62.4947 163.845C63.4067 163.275 64.5107 162.99 65.8067 162.99C67.3007 162.99 68.5367 163.368 69.5147 164.124C70.4987 164.88 71.1827 165.897 71.5667 167.175L69.6587 167.688C69.4067 166.782 68.9567 166.071 68.3087 165.555C67.6667 165.039 66.8327 164.781 65.8067 164.781C64.8887 164.781 64.1237 164.988 63.5117 165.402C62.8997 165.816 62.4377 166.395 62.1257 167.139C61.8197 167.883 61.6667 168.75 61.6667 169.74C61.6607 170.73 61.8107 171.597 62.1167 172.341C62.4287 173.085 62.8907 173.664 63.5027 174.078C64.1207 174.492 64.8887 174.699 65.8067 174.699C66.8327 174.699 67.6667 174.441 68.3087 173.925C68.9567 173.403 69.4067 172.692 69.6587 171.792L71.5667 172.305C71.1827 173.583 70.4987 174.6 69.5147 175.356C68.5367 176.112 67.3007 176.49 65.8067 176.49ZM77.7671 176.49C76.7951 176.49 75.9521 176.271 75.2381 175.833C74.5241 175.395 73.9721 174.792 73.5821 174.024C73.1981 173.25 73.0061 172.359 73.0061 171.351C73.0061 170.337 73.2041 169.446 73.6001 168.678C73.9961 167.904 74.5511 167.304 75.2651 166.878C75.9791 166.446 76.8131 166.23 77.7671 166.23C78.7391 166.23 79.5821 166.449 80.2961 166.887C81.0101 167.325 81.5621 167.928 81.9521 168.696C82.3421 169.464 82.5371 170.349 82.5371 171.351C82.5371 172.365 82.3391 173.259 81.9431 174.033C81.5531 174.801 81.0011 175.404 80.2871 175.842C79.5731 176.274 78.7331 176.49 77.7671 176.49ZM77.7671 174.717C78.6971 174.717 79.3901 174.405 79.8461 173.781C80.3081 173.151 80.5391 172.341 80.5391 171.351C80.5391 170.337 80.3051 169.527 79.8371 168.921C79.3751 168.309 78.6851 168.003 77.7671 168.003C77.1371 168.003 76.6181 168.147 76.2101 168.435C75.8021 168.717 75.4991 169.11 75.3011 169.614C75.1031 170.112 75.0041 170.691 75.0041 171.351C75.0041 172.371 75.2381 173.187 75.7061 173.799C76.1741 174.411 76.8611 174.717 77.7671 174.717ZM87.7162 176.49C86.7742 176.49 85.9282 176.289 85.1782 175.887C84.4342 175.485 83.8462 174.93 83.4142 174.222L84.9082 173.241C85.2562 173.709 85.6582 174.072 86.1142 174.33C86.5762 174.588 87.0952 174.717 87.6712 174.717C88.2712 174.717 88.7452 174.582 89.0932 174.312C89.4472 174.036 89.6242 173.667 89.6242 173.205C89.6242 172.839 89.5222 172.569 89.3182 172.395C89.1202 172.215 88.8442 172.098 88.4902 172.044C88.1422 171.99 87.7462 171.963 87.3022 171.963H86.4382V170.451H87.3022C87.8902 170.451 88.3732 170.37 88.7512 170.208C89.1352 170.04 89.3272 169.725 89.3272 169.263C89.3272 168.813 89.1622 168.489 88.8322 168.291C88.5082 168.093 88.1212 167.994 87.6712 167.994C87.1672 167.994 86.6782 168.102 86.2042 168.318C85.7302 168.528 85.3162 168.789 84.9622 169.101L83.8642 167.814C84.3802 167.316 84.9682 166.929 85.6282 166.653C86.2942 166.371 87.0082 166.23 87.7702 166.23C88.3942 166.23 88.9702 166.341 89.4982 166.563C90.0322 166.779 90.4582 167.1 90.7762 167.526C91.1002 167.952 91.2622 168.477 91.2622 169.101C91.2622 169.587 91.1542 170.031 90.9382 170.433C90.7222 170.835 90.3922 171.201 89.9482 171.531L89.8942 170.892C90.2602 171.006 90.5662 171.189 90.8122 171.441C91.0582 171.693 91.2412 171.99 91.3612 172.332C91.4872 172.668 91.5502 173.025 91.5502 173.403C91.5502 174.057 91.3762 174.615 91.0282 175.077C90.6862 175.539 90.2242 175.89 89.6422 176.13C89.0602 176.37 88.4182 176.49 87.7162 176.49ZM92.8125 178.38V174.708C93.3465 174.708 93.7275 174.531 93.9555 174.177C94.1895 173.817 94.3755 173.208 94.5135 172.35C94.5975 171.828 94.6665 171.273 94.7205 170.685C94.7805 170.097 94.8315 169.461 94.8735 168.777C94.9155 168.087 94.9575 167.328 94.9995 166.5H101.965V174.708H102.919V178.38H101.137V176.22H94.6035V178.38H92.8125ZM95.5035 174.708H100.075V168.012H96.6735C96.6495 168.408 96.6225 168.816 96.5925 169.236C96.5685 169.656 96.5385 170.073 96.5025 170.487C96.4725 170.901 96.4365 171.297 96.3945 171.675C96.3525 172.053 96.3045 172.395 96.2505 172.701C96.1785 173.175 96.0915 173.571 95.9895 173.889C95.8935 174.207 95.7315 174.48 95.5035 174.708ZM107.457 176.49C106.737 176.49 106.134 176.358 105.648 176.094C105.162 175.824 104.793 175.47 104.541 175.032C104.295 174.588 104.172 174.102 104.172 173.574C104.172 173.082 104.259 172.65 104.433 172.278C104.607 171.906 104.865 171.591 105.207 171.333C105.549 171.069 105.969 170.856 106.467 170.694C106.899 170.568 107.388 170.457 107.934 170.361C108.48 170.265 109.053 170.175 109.653 170.091C110.259 170.007 110.859 169.923 111.453 169.839L110.769 170.217C110.781 169.455 110.619 168.891 110.283 168.525C109.953 168.153 109.383 167.967 108.573 167.967C108.063 167.967 107.595 168.087 107.169 168.327C106.743 168.561 106.446 168.951 106.278 169.497L104.523 168.957C104.763 168.123 105.219 167.46 105.891 166.968C106.569 166.476 107.469 166.23 108.591 166.23C109.461 166.23 110.217 166.38 110.859 166.68C111.507 166.974 111.981 167.442 112.281 168.084C112.437 168.402 112.533 168.738 112.569 169.092C112.605 169.446 112.623 169.827 112.623 170.235V176.22H110.958V173.997L111.282 174.285C110.88 175.029 110.367 175.584 109.743 175.95C109.125 176.31 108.363 176.49 107.457 176.49ZM107.79 174.951C108.324 174.951 108.783 174.858 109.167 174.672C109.551 174.48 109.86 174.237 110.094 173.943C110.328 173.649 110.481 173.343 110.553 173.025C110.655 172.737 110.712 172.413 110.724 172.053C110.742 171.693 110.751 171.405 110.751 171.189L111.363 171.414C110.769 171.504 110.229 171.585 109.743 171.657C109.257 171.729 108.816 171.801 108.42 171.873C108.03 171.939 107.682 172.02 107.376 172.116C107.118 172.206 106.887 172.314 106.683 172.44C106.485 172.566 106.326 172.719 106.206 172.899C106.092 173.079 106.035 173.298 106.035 173.556C106.035 173.808 106.098 174.042 106.224 174.258C106.35 174.468 106.542 174.636 106.8 174.762C107.058 174.888 107.388 174.951 107.79 174.951ZM114.951 176.22V166.5H116.832V170.469H121.575V166.5H123.456V176.22H121.575V172.242H116.832V176.22H114.951ZM134.172 166.5V176.22H132.363V169.461L127.503 176.22H125.973V166.5H127.782V173.124L132.651 166.5H134.172ZM140.998 176.49C140.032 176.49 139.183 176.28 138.451 175.86C137.725 175.434 137.158 174.843 136.75 174.087C136.348 173.325 136.147 172.443 136.147 171.441C136.147 170.379 136.345 169.458 136.741 168.678C137.143 167.898 137.701 167.295 138.415 166.869C139.129 166.443 139.96 166.23 140.908 166.23C141.898 166.23 142.741 166.461 143.437 166.923C144.133 167.379 144.652 168.03 144.994 168.876C145.342 169.722 145.48 170.727 145.408 171.891H143.527V171.207C143.515 170.079 143.299 169.245 142.879 168.705C142.465 168.165 141.832 167.895 140.98 167.895C140.038 167.895 139.33 168.192 138.856 168.786C138.382 169.38 138.145 170.238 138.145 171.36C138.145 172.428 138.382 173.256 138.856 173.844C139.33 174.426 140.014 174.717 140.908 174.717C141.496 174.717 142.003 174.585 142.429 174.321C142.861 174.051 143.197 173.667 143.437 173.169L145.282 173.754C144.904 174.624 144.331 175.299 143.563 175.779C142.795 176.253 141.94 176.49 140.998 176.49ZM137.533 171.891V170.424H144.472V171.891H137.533ZM150.311 178.38V174.708C150.845 174.708 151.226 174.531 151.454 174.177C151.688 173.817 151.874 173.208 152.012 172.35C152.096 171.828 152.165 171.273 152.219 170.685C152.279 170.097 152.33 169.461 152.372 168.777C152.414 168.087 152.456 167.328 152.498 166.5H159.464V174.708H160.418V178.38H158.636V176.22H152.102V178.38H150.311ZM153.002 174.708H157.574V168.012H154.172C154.148 168.408 154.121 168.816 154.091 169.236C154.067 169.656 154.037 170.073 154.001 170.487C153.971 170.901 153.935 171.297 153.893 171.675C153.851 172.053 153.803 172.395 153.749 172.701C153.677 173.175 153.59 173.571 153.488 173.889C153.392 174.207 153.23 174.48 153.002 174.708ZM166.431 176.49C165.459 176.49 164.616 176.271 163.902 175.833C163.188 175.395 162.636 174.792 162.246 174.024C161.862 173.25 161.67 172.359 161.67 171.351C161.67 170.337 161.868 169.446 162.264 168.678C162.66 167.904 163.215 167.304 163.929 166.878C164.643 166.446 165.477 166.23 166.431 166.23C167.403 166.23 168.246 166.449 168.96 166.887C169.674 167.325 170.226 167.928 170.616 168.696C171.006 169.464 171.201 170.349 171.201 171.351C171.201 172.365 171.003 173.259 170.607 174.033C170.217 174.801 169.665 175.404 168.951 175.842C168.237 176.274 167.397 176.49 166.431 176.49ZM166.431 174.717C167.361 174.717 168.054 174.405 168.51 173.781C168.972 173.151 169.203 172.341 169.203 171.351C169.203 170.337 168.969 169.527 168.501 168.921C168.039 168.309 167.349 168.003 166.431 168.003C165.801 168.003 165.282 168.147 164.874 168.435C164.466 168.717 164.163 169.11 163.965 169.614C163.767 170.112 163.668 170.691 163.668 171.351C163.668 172.371 163.902 173.187 164.37 173.799C164.838 174.411 165.525 174.717 166.431 174.717ZM173.17 176.22L173.179 166.5H175.087V171.18L178.903 166.5H181.297L177.265 171.36L181.711 176.22H179.155L175.087 171.54V176.22H173.17ZM183.932 180.54L185.813 175.419L185.84 176.931L181.601 166.5H183.563L186.731 174.555H186.155L189.179 166.5H191.087L185.723 180.54H183.932ZM192.488 176.22V166.5H194.063L197.654 173.628L201.236 166.5H202.82V176.22H201.002V170.352L198.077 176.22H197.222L194.297 170.352V176.22H192.488ZM209.658 176.49C208.692 176.49 207.843 176.28 207.111 175.86C206.385 175.434 205.818 174.843 205.41 174.087C205.008 173.325 204.807 172.443 204.807 171.441C204.807 170.379 205.005 169.458 205.401 168.678C205.803 167.898 206.361 167.295 207.075 166.869C207.789 166.443 208.62 166.23 209.568 166.23C210.558 166.23 211.401 166.461 212.097 166.923C212.793 167.379 213.312 168.03 213.654 168.876C214.002 169.722 214.14 170.727 214.068 171.891H212.187V171.207C212.175 170.079 211.959 169.245 211.539 168.705C211.125 168.165 210.492 167.895 209.64 167.895C208.698 167.895 207.99 168.192 207.516 168.786C207.042 169.38 206.805 170.238 206.805 171.36C206.805 172.428 207.042 173.256 207.516 173.844C207.99 174.426 208.674 174.717 209.568 174.717C210.156 174.717 210.663 174.585 211.089 174.321C211.521 174.051 211.857 173.667 212.097 173.169L213.942 173.754C213.564 174.624 212.991 175.299 212.223 175.779C211.455 176.253 210.6 176.49 209.658 176.49ZM206.193 171.891V170.424H213.132V171.891H206.193ZM216.078 176.22V166.5H217.959V170.469H222.702V166.5H224.583V176.22H222.702V172.242H217.959V176.22H216.078ZM229.62 176.22V168.192H226.299V166.5H234.822V168.192H231.501V176.22H229.62ZM240.576 176.49C239.604 176.49 238.761 176.271 238.047 175.833C237.333 175.395 236.781 174.792 236.391 174.024C236.007 173.25 235.815 172.359 235.815 171.351C235.815 170.337 236.013 169.446 236.409 168.678C236.805 167.904 237.36 167.304 238.074 166.878C238.788 166.446 239.622 166.23 240.576 166.23C241.548 166.23 242.391 166.449 243.105 166.887C243.819 167.325 244.371 167.928 244.761 168.696C245.151 169.464 245.346 170.349 245.346 171.351C245.346 172.365 245.148 173.259 244.752 174.033C244.362 174.801 243.81 175.404 243.096 175.842C242.382 176.274 241.542 176.49 240.576 176.49ZM240.576 174.717C241.506 174.717 242.199 174.405 242.655 173.781C243.117 173.151 243.348 172.341 243.348 171.351C243.348 170.337 243.114 169.527 242.646 168.921C242.184 168.309 241.494 168.003 240.576 168.003C239.946 168.003 239.427 168.147 239.019 168.435C238.611 168.717 238.308 169.11 238.11 169.614C237.912 170.112 237.813 170.691 237.813 171.351C237.813 172.371 238.047 173.187 238.515 173.799C238.983 174.411 239.67 174.717 240.576 174.717ZM247.314 176.22V166.5H251.589C251.871 166.5 252.153 166.518 252.435 166.554C252.717 166.584 252.966 166.629 253.182 166.689C253.674 166.827 254.094 167.103 254.442 167.517C254.79 167.925 254.964 168.471 254.964 169.155C254.964 169.545 254.904 169.875 254.784 170.145C254.664 170.409 254.499 170.637 254.289 170.829C254.193 170.913 254.091 170.988 253.983 171.054C253.875 171.12 253.767 171.171 253.659 171.207C253.881 171.243 254.1 171.321 254.316 171.441C254.646 171.615 254.916 171.867 255.126 172.197C255.342 172.521 255.45 172.956 255.45 173.502C255.45 174.156 255.291 174.705 254.973 175.149C254.655 175.587 254.205 175.887 253.623 176.049C253.395 176.115 253.137 176.16 252.849 176.184C252.567 176.208 252.285 176.22 252.003 176.22H247.314ZM249.222 174.735H251.886C252.012 174.735 252.156 174.723 252.318 174.699C252.48 174.675 252.624 174.642 252.75 174.6C253.02 174.516 253.212 174.363 253.326 174.141C253.446 173.919 253.506 173.682 253.506 173.43C253.506 173.088 253.416 172.815 253.236 172.611C253.056 172.401 252.828 172.266 252.552 172.206C252.432 172.164 252.3 172.14 252.156 172.134C252.012 172.128 251.889 172.125 251.787 172.125H249.222V174.735ZM249.222 170.613H251.328C251.502 170.613 251.679 170.604 251.859 170.586C252.039 170.562 252.195 170.523 252.327 170.469C252.561 170.379 252.735 170.229 252.849 170.019C252.963 169.803 253.02 169.569 253.02 169.317C253.02 169.041 252.957 168.795 252.831 168.579C252.705 168.363 252.516 168.213 252.264 168.129C252.09 168.069 251.889 168.036 251.661 168.03C251.439 168.018 251.298 168.012 251.238 168.012H249.222V170.613ZM259.779 176.22L264.198 169.659L259.896 163.26H262.2L265.359 168.066L268.5 163.26H270.813L266.511 169.659L270.921 176.22H268.617L265.359 171.261L262.092 176.22H259.779ZM272.355 176.22V163.26H274.056L278.754 173.007L283.425 163.26H285.144V176.211H283.362V167.346L279.177 176.22H278.322L274.128 167.346V176.22H272.355ZM287.845 176.22V163.26H289.726V174.447H295.594V176.22H287.845Z" fill="#F6F9F6"/>
<path d="M100.074 235.724V222.764H101.955V228.353H108.435V222.764H110.325V235.724H108.435V230.126H101.955V235.724H100.074ZM115.599 235.994C114.879 235.994 114.276 235.862 113.79 235.598C113.304 235.328 112.935 234.974 112.683 234.536C112.437 234.092 112.314 233.606 112.314 233.078C112.314 232.586 112.401 232.154 112.575 231.782C112.749 231.41 113.007 231.095 113.349 230.837C113.691 230.573 114.111 230.36 114.609 230.198C115.041 230.072 115.53 229.961 116.076 229.865C116.622 229.769 117.195 229.679 117.795 229.595C118.401 229.511 119.001 229.427 119.595 229.343L118.911 229.721C118.923 228.959 118.761 228.395 118.425 228.029C118.095 227.657 117.525 227.471 116.715 227.471C116.205 227.471 115.737 227.591 115.311 227.831C114.885 228.065 114.588 228.455 114.42 229.001L112.665 228.461C112.905 227.627 113.361 226.964 114.033 226.472C114.711 225.98 115.611 225.734 116.733 225.734C117.603 225.734 118.359 225.884 119.001 226.184C119.649 226.478 120.123 226.946 120.423 227.588C120.579 227.906 120.675 228.242 120.711 228.596C120.747 228.95 120.765 229.331 120.765 229.739V235.724H119.1V233.501L119.424 233.789C119.022 234.533 118.509 235.088 117.885 235.454C117.267 235.814 116.505 235.994 115.599 235.994ZM115.932 234.455C116.466 234.455 116.925 234.362 117.309 234.176C117.693 233.984 118.002 233.741 118.236 233.447C118.47 233.153 118.623 232.847 118.695 232.529C118.797 232.241 118.854 231.917 118.866 231.557C118.884 231.197 118.893 230.909 118.893 230.693L119.505 230.918C118.911 231.008 118.371 231.089 117.885 231.161C117.399 231.233 116.958 231.305 116.562 231.377C116.172 231.443 115.824 231.524 115.518 231.62C115.26 231.71 115.029 231.818 114.825 231.944C114.627 232.07 114.468 232.223 114.348 232.403C114.234 232.583 114.177 232.802 114.177 233.06C114.177 233.312 114.24 233.546 114.366 233.762C114.492 233.972 114.684 234.14 114.942 234.266C115.2 234.392 115.53 234.455 115.932 234.455ZM127.26 235.994C126.264 235.994 125.418 235.772 124.722 235.328C124.026 234.884 123.492 234.275 123.12 233.501C122.754 232.727 122.568 231.848 122.562 230.864C122.568 229.862 122.76 228.977 123.138 228.209C123.516 227.435 124.056 226.829 124.758 226.391C125.46 225.953 126.303 225.734 127.287 225.734C128.349 225.734 129.255 225.998 130.005 226.526C130.761 227.054 131.259 227.777 131.499 228.695L129.627 229.235C129.441 228.689 129.135 228.266 128.709 227.966C128.289 227.66 127.806 227.507 127.26 227.507C126.642 227.507 126.135 227.654 125.739 227.948C125.343 228.236 125.049 228.632 124.857 229.136C124.665 229.64 124.566 230.216 124.56 230.864C124.566 231.866 124.794 232.676 125.244 233.294C125.7 233.912 126.372 234.221 127.26 234.221C127.866 234.221 128.355 234.083 128.727 233.807C129.105 233.525 129.393 233.123 129.591 232.601L131.499 233.051C131.181 233.999 130.656 234.728 129.924 235.238C129.192 235.742 128.304 235.994 127.26 235.994ZM135.738 235.724V227.696H132.417V226.004H140.94V227.696H137.619V235.724H135.738ZM147.212 235.994C146.282 235.994 145.502 235.769 144.872 235.319C144.242 234.863 143.765 234.248 143.441 233.474C143.117 232.7 142.955 231.827 142.955 230.855C142.955 229.883 143.114 229.01 143.432 228.236C143.756 227.462 144.23 226.853 144.854 226.409C145.484 225.959 146.258 225.734 147.176 225.734C148.088 225.734 148.874 225.959 149.534 226.409C150.2 226.853 150.713 227.462 151.073 228.236C151.433 229.004 151.613 229.877 151.613 230.855C151.613 231.827 151.433 232.703 151.073 233.483C150.719 234.257 150.212 234.869 149.552 235.319C148.898 235.769 148.118 235.994 147.212 235.994ZM142.64 240.044V226.004H144.314V232.997H144.53V240.044H142.64ZM146.951 234.293C147.551 234.293 148.046 234.14 148.436 233.834C148.832 233.528 149.126 233.117 149.318 232.601C149.516 232.079 149.615 231.497 149.615 230.855C149.615 230.219 149.516 229.643 149.318 229.127C149.126 228.611 148.829 228.2 148.427 227.894C148.025 227.588 147.512 227.435 146.888 227.435C146.3 227.435 145.814 227.579 145.43 227.867C145.052 228.155 144.77 228.557 144.584 229.073C144.404 229.589 144.314 230.183 144.314 230.855C144.314 231.527 144.404 232.121 144.584 232.637C144.764 233.153 145.049 233.558 145.439 233.852C145.829 234.146 146.333 234.293 146.951 234.293ZM157.821 235.994C156.849 235.994 156.006 235.775 155.292 235.337C154.578 234.899 154.026 234.296 153.636 233.528C153.252 232.754 153.06 231.863 153.06 230.855C153.06 229.841 153.258 228.95 153.654 228.182C154.05 227.408 154.605 226.808 155.319 226.382C156.033 225.95 156.867 225.734 157.821 225.734C158.793 225.734 159.636 225.953 160.35 226.391C161.064 226.829 161.616 227.432 162.006 228.2C162.396 228.968 162.591 229.853 162.591 230.855C162.591 231.869 162.393 232.763 161.997 233.537C161.607 234.305 161.055 234.908 160.341 235.346C159.627 235.778 158.787 235.994 157.821 235.994ZM157.821 234.221C158.751 234.221 159.444 233.909 159.9 233.285C160.362 232.655 160.593 231.845 160.593 230.855C160.593 229.841 160.359 229.031 159.891 228.425C159.429 227.813 158.739 227.507 157.821 227.507C157.191 227.507 156.672 227.651 156.264 227.939C155.856 228.221 155.553 228.614 155.355 229.118C155.157 229.616 155.058 230.195 155.058 230.855C155.058 231.875 155.292 232.691 155.76 233.303C156.228 233.915 156.915 234.221 157.821 234.221ZM168.907 224.888C168.433 224.888 167.998 224.771 167.602 224.537C167.212 224.303 166.9 223.991 166.666 223.601C166.432 223.211 166.315 222.776 166.315 222.296H167.809C167.809 222.596 167.917 222.854 168.133 223.07C168.349 223.286 168.607 223.394 168.907 223.394C169.213 223.394 169.471 223.286 169.681 223.07C169.897 222.854 170.005 222.596 170.005 222.296H171.499C171.499 222.776 171.382 223.211 171.148 223.601C170.914 223.991 170.599 224.303 170.203 224.537C169.813 224.771 169.381 224.888 168.907 224.888ZM172.759 226.004V235.724H170.95V228.965L166.09 235.724H164.56V226.004H166.369V232.628L171.238 226.004H172.759ZM175.265 235.724L175.274 226.004H177.182V230.684L180.998 226.004H183.392L179.36 230.864L183.806 235.724H181.25L177.182 231.044V235.724H175.265ZM187.458 235.994C186.738 235.994 186.135 235.862 185.649 235.598C185.163 235.328 184.794 234.974 184.542 234.536C184.296 234.092 184.173 233.606 184.173 233.078C184.173 232.586 184.26 232.154 184.434 231.782C184.608 231.41 184.866 231.095 185.208 230.837C185.55 230.573 185.97 230.36 186.468 230.198C186.9 230.072 187.389 229.961 187.935 229.865C188.481 229.769 189.054 229.679 189.654 229.595C190.26 229.511 190.86 229.427 191.454 229.343L190.77 229.721C190.782 228.959 190.62 228.395 190.284 228.029C189.954 227.657 189.384 227.471 188.574 227.471C188.064 227.471 187.596 227.591 187.17 227.831C186.744 228.065 186.447 228.455 186.279 229.001L184.524 228.461C184.764 227.627 185.22 226.964 185.892 226.472C186.57 225.98 187.47 225.734 188.592 225.734C189.462 225.734 190.218 225.884 190.86 226.184C191.508 226.478 191.982 226.946 192.282 227.588C192.438 227.906 192.534 228.242 192.57 228.596C192.606 228.95 192.624 229.331 192.624 229.739V235.724H190.959V233.501L191.283 233.789C190.881 234.533 190.368 235.088 189.744 235.454C189.126 235.814 188.364 235.994 187.458 235.994ZM187.791 234.455C188.325 234.455 188.784 234.362 189.168 234.176C189.552 233.984 189.861 233.741 190.095 233.447C190.329 233.153 190.482 232.847 190.554 232.529C190.656 232.241 190.713 231.917 190.725 231.557C190.743 231.197 190.752 230.909 190.752 230.693L191.364 230.918C190.77 231.008 190.23 231.089 189.744 231.161C189.258 231.233 188.817 231.305 188.421 231.377C188.031 231.443 187.683 231.524 187.377 231.62C187.119 231.71 186.888 231.818 186.684 231.944C186.486 232.07 186.327 232.223 186.207 232.403C186.093 232.583 186.036 232.802 186.036 233.06C186.036 233.312 186.099 233.546 186.225 233.762C186.351 233.972 186.543 234.14 186.801 234.266C187.059 234.392 187.389 234.455 187.791 234.455ZM206.773 237.641V235.724H198.556V226.004H200.437V233.951H204.874V226.004H206.755V234.032H208.654V237.641H206.773ZM218.286 226.004V235.724H216.477V228.965L211.617 235.724H210.087V226.004H211.896V232.628L216.765 226.004H218.286ZM225.373 239.774V235.895C224.425 236.045 223.564 235.943 222.79 235.589C222.016 235.235 221.401 234.659 220.945 233.861C220.489 233.063 220.261 232.067 220.261 230.873C220.261 229.679 220.489 228.68 220.945 227.876C221.401 227.072 222.016 226.493 222.79 226.139C223.564 225.785 224.425 225.683 225.373 225.833V222.89H227.065V225.833C228.013 225.683 228.874 225.785 229.648 226.139C230.422 226.493 231.037 227.072 231.493 227.876C231.949 228.68 232.177 229.679 232.177 230.873C232.177 232.067 231.949 233.063 231.493 233.861C231.037 234.659 230.422 235.235 229.648 235.589C228.874 235.943 228.013 236.045 227.065 235.895V239.774H225.373ZM225.373 234.194V227.543C224.887 227.459 224.446 227.474 224.05 227.588C223.66 227.702 223.327 227.903 223.051 228.191C222.775 228.473 222.562 228.842 222.412 229.298C222.262 229.748 222.187 230.273 222.187 230.873C222.187 231.473 222.262 231.998 222.412 232.448C222.568 232.898 222.787 233.267 223.069 233.555C223.357 233.837 223.696 234.035 224.086 234.149C224.476 234.257 224.905 234.272 225.373 234.194ZM227.065 234.194C227.533 234.272 227.962 234.257 228.352 234.149C228.742 234.041 229.078 233.846 229.36 233.564C229.648 233.282 229.867 232.916 230.017 232.466C230.173 232.01 230.251 231.479 230.251 230.873C230.251 230.261 230.176 229.73 230.026 229.28C229.876 228.824 229.663 228.455 229.387 228.173C229.111 227.885 228.775 227.687 228.379 227.579C227.989 227.471 227.551 227.459 227.065 227.543V234.194ZM238.723 235.994C237.793 235.994 237.013 235.769 236.383 235.319C235.753 234.863 235.276 234.248 234.952 233.474C234.628 232.7 234.466 231.827 234.466 230.855C234.466 229.883 234.625 229.01 234.943 228.236C235.267 227.462 235.741 226.853 236.365 226.409C236.995 225.959 237.769 225.734 238.687 225.734C239.599 225.734 240.385 225.959 241.045 226.409C241.711 226.853 242.224 227.462 242.584 228.236C242.944 229.004 243.124 229.877 243.124 230.855C243.124 231.827 242.944 232.703 242.584 233.483C242.23 234.257 241.723 234.869 241.063 235.319C240.409 235.769 239.629 235.994 238.723 235.994ZM234.151 240.044V226.004H235.825V232.997H236.041V240.044H234.151ZM238.462 234.293C239.062 234.293 239.557 234.14 239.947 233.834C240.343 233.528 240.637 233.117 240.829 232.601C241.027 232.079 241.126 231.497 241.126 230.855C241.126 230.219 241.027 229.643 240.829 229.127C240.637 228.611 240.34 228.2 239.938 227.894C239.536 227.588 239.023 227.435 238.399 227.435C237.811 227.435 237.325 227.579 236.941 227.867C236.563 228.155 236.281 228.557 236.095 229.073C235.915 229.589 235.825 230.183 235.825 230.855C235.825 231.527 235.915 232.121 236.095 232.637C236.275 233.153 236.56 233.558 236.95 233.852C237.34 234.146 237.844 234.293 238.462 234.293ZM249.333 235.994C248.361 235.994 247.518 235.775 246.804 235.337C246.09 234.899 245.538 234.296 245.148 233.528C244.764 232.754 244.572 231.863 244.572 230.855C244.572 229.841 244.77 228.95 245.166 228.182C245.562 227.408 246.117 226.808 246.831 226.382C247.545 225.95 248.379 225.734 249.333 225.734C250.305 225.734 251.148 225.953 251.862 226.391C252.576 226.829 253.128 227.432 253.518 228.2C253.908 228.968 254.103 229.853 254.103 230.855C254.103 231.869 253.905 232.763 253.509 233.537C253.119 234.305 252.567 234.908 251.853 235.346C251.139 235.778 250.299 235.994 249.333 235.994ZM249.333 234.221C250.263 234.221 250.956 233.909 251.412 233.285C251.874 232.655 252.105 231.845 252.105 230.855C252.105 229.841 251.871 229.031 251.403 228.425C250.941 227.813 250.251 227.507 249.333 227.507C248.703 227.507 248.184 227.651 247.776 227.939C247.368 228.221 247.065 228.614 246.867 229.118C246.669 229.616 246.57 230.195 246.57 230.855C246.57 231.875 246.804 232.691 247.272 233.303C247.74 233.915 248.427 234.221 249.333 234.221ZM256.071 235.724V226.004H260.346C260.628 226.004 260.91 226.022 261.192 226.058C261.474 226.088 261.723 226.133 261.939 226.193C262.431 226.331 262.851 226.607 263.199 227.021C263.547 227.429 263.721 227.975 263.721 228.659C263.721 229.049 263.661 229.379 263.541 229.649C263.421 229.913 263.256 230.141 263.046 230.333C262.95 230.417 262.848 230.492 262.74 230.558C262.632 230.624 262.524 230.675 262.416 230.711C262.638 230.747 262.857 230.825 263.073 230.945C263.403 231.119 263.673 231.371 263.883 231.701C264.099 232.025 264.207 232.46 264.207 233.006C264.207 233.66 264.048 234.209 263.73 234.653C263.412 235.091 262.962 235.391 262.38 235.553C262.152 235.619 261.894 235.664 261.606 235.688C261.324 235.712 261.042 235.724 260.76 235.724H256.071ZM257.979 234.239H260.643C260.769 234.239 260.913 234.227 261.075 234.203C261.237 234.179 261.381 234.146 261.507 234.104C261.777 234.02 261.969 233.867 262.083 233.645C262.203 233.423 262.263 233.186 262.263 232.934C262.263 232.592 262.173 232.319 261.993 232.115C261.813 231.905 261.585 231.77 261.309 231.71C261.189 231.668 261.057 231.644 260.913 231.638C260.769 231.632 260.646 231.629 260.544 231.629H257.979V234.239ZM257.979 230.117H260.085C260.259 230.117 260.436 230.108 260.616 230.09C260.796 230.066 260.952 230.027 261.084 229.973C261.318 229.883 261.492 229.733 261.606 229.523C261.72 229.307 261.777 229.073 261.777 228.821C261.777 228.545 261.714 228.299 261.588 228.083C261.462 227.867 261.273 227.717 261.021 227.633C260.847 227.573 260.646 227.54 260.418 227.534C260.196 227.522 260.055 227.516 259.995 227.516H257.979V230.117ZM270.233 235.994C269.261 235.994 268.418 235.775 267.704 235.337C266.99 234.899 266.438 234.296 266.048 233.528C265.664 232.754 265.472 231.863 265.472 230.855C265.472 229.841 265.67 228.95 266.066 228.182C266.462 227.408 267.017 226.808 267.731 226.382C268.445 225.95 269.279 225.734 270.233 225.734C271.205 225.734 272.048 225.953 272.762 226.391C273.476 226.829 274.028 227.432 274.418 228.2C274.808 228.968 275.003 229.853 275.003 230.855C275.003 231.869 274.805 232.763 274.409 233.537C274.019 234.305 273.467 234.908 272.753 235.346C272.039 235.778 271.199 235.994 270.233 235.994ZM270.233 234.221C271.163 234.221 271.856 233.909 272.312 233.285C272.774 232.655 273.005 231.845 273.005 230.855C273.005 229.841 272.771 229.031 272.303 228.425C271.841 227.813 271.151 227.507 270.233 227.507C269.603 227.507 269.084 227.651 268.676 227.939C268.268 228.221 267.965 228.614 267.767 229.118C267.569 229.616 267.47 230.195 267.47 230.855C267.47 231.875 267.704 232.691 268.172 233.303C268.64 233.915 269.327 234.221 270.233 234.221ZM281.319 224.888C280.845 224.888 280.41 224.771 280.014 224.537C279.624 224.303 279.312 223.991 279.078 223.601C278.844 223.211 278.727 222.776 278.727 222.296H280.221C280.221 222.596 280.329 222.854 280.545 223.07C280.761 223.286 281.019 223.394 281.319 223.394C281.625 223.394 281.883 223.286 282.093 223.07C282.309 222.854 282.417 222.596 282.417 222.296H283.911C283.911 222.776 283.794 223.211 283.56 223.601C283.326 223.991 283.011 224.303 282.615 224.537C282.225 224.771 281.793 224.888 281.319 224.888ZM285.171 226.004V235.724H283.362V228.965L278.502 235.724H276.972V226.004H278.781V232.628L283.65 226.004H285.171ZM100.065 255.724V246.004H108.264V255.724H106.383V247.777H101.946V255.724H100.065ZM115.001 255.994C114.029 255.994 113.186 255.775 112.472 255.337C111.758 254.899 111.206 254.296 110.816 253.528C110.432 252.754 110.24 251.863 110.24 250.855C110.24 249.841 110.438 248.95 110.834 248.182C111.23 247.408 111.785 246.808 112.499 246.382C113.213 245.95 114.047 245.734 115.001 245.734C115.973 245.734 116.816 245.953 117.53 246.391C118.244 246.829 118.796 247.432 119.186 248.2C119.576 248.968 119.771 249.853 119.771 250.855C119.771 251.869 119.573 252.763 119.177 253.537C118.787 254.305 118.235 254.908 117.521 255.346C116.807 255.778 115.967 255.994 115.001 255.994ZM115.001 254.221C115.931 254.221 116.624 253.909 117.08 253.285C117.542 252.655 117.773 251.845 117.773 250.855C117.773 249.841 117.539 249.031 117.071 248.425C116.609 247.813 115.919 247.507 115.001 247.507C114.371 247.507 113.852 247.651 113.444 247.939C113.036 248.221 112.733 248.614 112.535 249.118C112.337 249.616 112.238 250.195 112.238 250.855C112.238 251.875 112.472 252.691 112.94 253.303C113.408 253.915 114.095 254.221 115.001 254.221ZM121.028 257.884V254.212C121.562 254.212 121.943 254.035 122.171 253.681C122.405 253.321 122.591 252.712 122.729 251.854C122.813 251.332 122.882 250.777 122.936 250.189C122.996 249.601 123.047 248.965 123.089 248.281C123.131 247.591 123.173 246.832 123.215 246.004H130.181V254.212H131.135V257.884H129.353V255.724H122.819V257.884H121.028ZM123.719 254.212H128.291V247.516H124.889C124.865 247.912 124.838 248.32 124.808 248.74C124.784 249.16 124.754 249.577 124.718 249.991C124.688 250.405 124.652 250.801 124.61 251.179C124.568 251.557 124.52 251.899 124.466 252.205C124.394 252.679 124.307 253.075 124.205 253.393C124.109 253.711 123.947 253.984 123.719 254.212ZM132.919 255.724V246.004H141.118V255.724H139.237V247.777H134.8V255.724H132.919ZM151.823 246.004V255.724H150.014V248.965L145.154 255.724H143.624V246.004H145.433V252.628L150.302 246.004H151.823ZM158.496 255.994C157.5 255.994 156.654 255.772 155.958 255.328C155.262 254.884 154.728 254.275 154.356 253.501C153.99 252.727 153.804 251.848 153.798 250.864C153.804 249.862 153.996 248.977 154.374 248.209C154.752 247.435 155.292 246.829 155.994 246.391C156.696 245.953 157.539 245.734 158.523 245.734C159.585 245.734 160.491 245.998 161.241 246.526C161.997 247.054 162.495 247.777 162.735 248.695L160.863 249.235C160.677 248.689 160.371 248.266 159.945 247.966C159.525 247.66 159.042 247.507 158.496 247.507C157.878 247.507 157.371 247.654 156.975 247.948C156.579 248.236 156.285 248.632 156.093 249.136C155.901 249.64 155.802 250.216 155.796 250.864C155.802 251.866 156.03 252.676 156.48 253.294C156.936 253.912 157.608 254.221 158.496 254.221C159.102 254.221 159.591 254.083 159.963 253.807C160.341 253.525 160.629 253.123 160.827 252.601L162.735 253.051C162.417 253.999 161.892 254.728 161.16 255.238C160.428 255.742 159.54 255.994 158.496 255.994ZM172.759 246.004V255.724H170.95V248.965L166.09 255.724H164.56V246.004H166.369V252.628L171.238 246.004H172.759Z" fill="white"/>
<path d="M319 279.802H473.353L492.498 116.986L459.785 87H371.087H344.882L319 279.802Z" fill="url(#paint0_radial_534_2436)"/>
<path d="M460.986 116.573L492.424 116.907L459.59 87L460.986 116.573Z" fill="#528285"/>
<path d="M381.57 123.019H357.283" stroke="white" stroke-width="3"/>
<path d="M417.516 123.019H391.285" stroke="white" stroke-width="3"/>
<path d="M475.389 137.592H355.265" stroke="white" stroke-width="3"/>
<path d="M442.104 152.164H353.697" stroke="white" stroke-width="3"/>
<path d="M405.375 166.737H351.925" stroke="white" stroke-width="3"/>
<path d="M405.375 212.746H345.142" stroke="white" stroke-width="3"/>
<path d="M465.309 166.737H413.819" stroke="white" stroke-width="3"/>
<path d="M380.958 181.31H349.87" stroke="white" stroke-width="3"/>
<path d="M374.416 226.368H343.327" stroke="white" stroke-width="3"/>
<path d="M389.216 240.01H341.612" stroke="white" stroke-width="3"/>
<path d="M463.484 181.31H391.593" stroke="white" stroke-width="3"/>
<path d="M402.614 226.368H383.184" stroke="white" stroke-width="3"/>
<path fill-rule="evenodd" clip-rule="evenodd" d="M318.583 124.296L318.331 137.783C318.305 139.168 319.137 140.309 320.409 140.632L333.247 143.896C334.518 144.219 335.957 143.65 336.833 142.486L345.384 131.11L353.332 129.823L362.511 138.331C363.453 139.204 364.91 139.301 366.149 138.571L378.651 131.208C379.043 130.976 379.387 130.678 379.67 130.335C380.279 129.596 380.606 128.649 380.529 127.718L379.432 114.45L384.872 107.85L398.106 106.395C399.464 106.245 400.694 105.241 401.173 103.885L406.015 90.2078C406.495 88.853 406.122 87.4408 405.084 86.6822L394.982 79.2959L394.728 71.2478L404.263 60.6829C405.245 59.6028 405.523 58.0809 404.962 56.8939L399.309 44.9154C398.749 43.7283 397.47 43.1293 396.115 43.4188L382.925 46.2394L377.125 41.4579L377.377 27.9722C377.403 26.5871 376.571 25.4461 375.299 25.1226L362.461 21.8599C361.19 21.5364 359.748 22.1028 358.875 23.2693L350.324 34.6459L342.376 35.9324L333.197 27.425C332.255 26.5514 330.797 26.4546 329.559 27.1844L317.057 34.5482C315.819 35.2776 315.067 36.6751 315.179 38.0375L316.277 51.3053L310.836 57.9053L297.602 59.3602C296.244 59.51 295.015 60.5148 294.536 61.8699L289.693 75.5475C289.213 76.9023 289.586 78.3144 290.624 79.073L300.726 86.4597L300.98 94.5075L291.445 105.072C290.464 106.161 290.186 107.675 290.746 108.861L296.399 120.84C296.959 122.027 298.238 122.626 299.593 122.336L312.783 119.515L318.583 124.296ZM325.703 64.6179C337.16 50.7191 356.418 47.6029 368.632 57.6709C380.846 67.7391 381.463 87.238 370.006 101.137C358.549 115.036 339.29 118.152 327.077 108.084C314.863 98.0153 314.246 78.5165 325.703 64.6179ZM365.319 97.2737C374.352 86.3152 373.867 70.9421 364.236 63.0038C354.606 55.0655 339.423 57.5225 330.39 68.4811C321.356 79.4396 321.842 94.8127 331.472 102.751C341.103 110.689 356.287 108.232 365.319 97.2737ZM359.723 68.4787C352.746 62.7274 341.745 64.5073 335.2 72.4471C328.656 80.3865 329.008 91.525 335.985 97.2763C342.962 103.028 353.963 101.248 360.508 93.3079C367.052 85.3682 366.7 74.23 359.723 68.4787ZM355.327 73.8116C359.72 77.4329 359.942 84.446 355.821 89.4448C351.701 94.4433 344.774 95.5648 340.381 91.9434C335.988 88.3221 335.766 81.3094 339.887 76.3102C344.008 71.3111 350.934 70.1902 355.327 73.8116Z" fill="#88F1D2"/>
<path d="M318.331 137.783L316.831 137.755L316.831 137.755L318.331 137.783ZM318.583 124.296L319.537 123.139L320.096 123.6L320.083 124.324L318.583 124.296ZM320.409 140.632L320.04 142.086L320.04 142.086L320.409 140.632ZM333.247 143.896L333.616 142.442L333.617 142.442L333.247 143.896ZM336.833 142.486L338.032 143.387L338.031 143.388L336.833 142.486ZM345.384 131.11L344.184 130.208L344.548 129.726L345.144 129.629L345.384 131.11ZM353.332 129.823L353.092 128.343L353.815 128.226L354.352 128.723L353.332 129.823ZM362.511 138.331L363.53 137.23L363.531 137.231L362.511 138.331ZM366.149 138.571L365.388 137.279L365.388 137.279L366.149 138.571ZM378.651 131.208L379.413 132.499L379.412 132.5L378.651 131.208ZM380.529 127.718L382.024 127.594L382.024 127.595L380.529 127.718ZM379.432 114.45L377.937 114.573L377.886 113.966L378.274 113.496L379.432 114.45ZM384.872 107.85L383.714 106.896L384.102 106.425L384.708 106.359L384.872 107.85ZM398.106 106.395L398.27 107.886L398.27 107.886L398.106 106.395ZM401.173 103.885L399.758 103.386L399.759 103.384L401.173 103.885ZM406.015 90.2078L404.601 89.7072L404.601 89.7069L406.015 90.2078ZM405.084 86.6822L404.199 87.8932L404.199 87.8931L405.084 86.6822ZM394.982 79.2959L394.096 80.5068L393.505 80.0748L393.482 79.3432L394.982 79.2959ZM394.728 71.2478L393.228 71.2951L393.209 70.6913L393.614 70.2428L394.728 71.2478ZM404.263 60.6829L403.15 59.6779L403.153 59.6741L404.263 60.6829ZM404.962 56.8939L403.606 57.5342L403.606 57.5341L404.962 56.8939ZM399.309 44.9154L397.953 45.5556L397.952 45.5552L399.309 44.9154ZM396.115 43.4188L395.801 41.9519L395.802 41.9519L396.115 43.4188ZM382.925 46.2394L383.239 47.7062L382.53 47.8577L381.971 47.3968L382.925 46.2394ZM377.125 41.4579L376.171 42.6154L375.612 42.1544L375.625 41.4298L377.125 41.4579ZM377.377 27.9722L378.877 27.9999L378.877 28.0002L377.377 27.9722ZM375.299 25.1226L375.668 23.6688L375.668 23.6689L375.299 25.1226ZM362.461 21.8599L362.092 23.3137L362.091 23.3136L362.461 21.8599ZM358.875 23.2693L360.076 24.1679L360.074 24.1706L358.875 23.2693ZM350.324 34.6459L351.523 35.5471L351.16 36.03L350.564 36.1266L350.324 34.6459ZM342.376 35.9324L342.615 37.4132L341.893 37.5301L341.356 37.0326L342.376 35.9324ZM333.197 27.425L332.177 28.5252L332.177 28.5251L333.197 27.425ZM329.559 27.1844L330.32 28.4768L330.32 28.4769L329.559 27.1844ZM317.057 34.5482L316.296 33.2558L316.296 33.2557L317.057 34.5482ZM315.179 38.0375L313.684 38.1613L313.684 38.1606L315.179 38.0375ZM316.277 51.3053L317.772 51.1816L317.822 51.789L317.434 52.2594L316.277 51.3053ZM310.836 57.9053L311.994 58.8594L311.606 59.3297L311 59.3963L310.836 57.9053ZM297.602 59.3602L297.438 57.8692L297.439 57.8692L297.602 59.3602ZM294.536 61.8699L295.95 62.3697L295.95 62.3706L294.536 61.8699ZM289.693 75.5475L291.107 76.0481L291.107 76.0484L289.693 75.5475ZM290.624 79.073L291.509 77.8621L291.509 77.8622L290.624 79.073ZM300.726 86.4597L301.612 85.2489L302.202 85.6808L302.225 86.4123L300.726 86.4597ZM300.98 94.5075L302.48 94.4601L302.499 95.064L302.094 95.5125L300.98 94.5075ZM291.445 105.072L290.331 104.068L290.331 104.067L291.445 105.072ZM290.746 108.861L289.389 109.502L289.389 109.501L290.746 108.861ZM296.399 120.84L297.756 120.2L297.756 120.2L296.399 120.84ZM299.593 122.336L299.907 123.803L299.906 123.803L299.593 122.336ZM312.783 119.515L312.469 118.048L313.177 117.896L313.737 118.357L312.783 119.515ZM327.077 108.084L326.122 109.241L326.122 109.241L327.077 108.084ZM316.831 137.755L317.083 124.268L320.083 124.324L319.831 137.811L316.831 137.755ZM320.04 142.086C318.04 141.578 316.794 139.781 316.831 137.755L319.831 137.81C319.817 138.555 320.234 139.04 320.779 139.179L320.04 142.086ZM332.877 145.349L320.04 142.086L320.779 139.179L333.616 142.442L332.877 145.349ZM338.031 143.388C336.847 144.963 334.818 145.843 332.877 145.349L333.617 142.442C334.219 142.595 335.068 142.338 335.634 141.585L338.031 143.388ZM346.583 132.011L338.032 143.387L335.634 141.585L344.184 130.208L346.583 132.011ZM353.572 131.304L345.623 132.59L345.144 129.629L353.092 128.343L353.572 131.304ZM361.491 139.431L352.312 130.924L354.352 128.723L363.53 137.23L361.491 139.431ZM366.911 139.864C365.192 140.876 362.993 140.823 361.491 139.431L363.531 137.231C363.913 137.585 364.628 137.726 365.388 137.279L366.911 139.864ZM379.412 132.5L366.91 139.864L365.388 137.279L377.89 129.915L379.412 132.5ZM380.827 131.289C380.436 131.763 379.96 132.177 379.413 132.499L377.889 129.916C378.126 129.776 378.338 129.593 378.512 129.381L380.827 131.289ZM382.024 127.595C382.136 128.952 381.661 130.278 380.827 131.289L378.512 129.381C378.898 128.913 379.076 128.346 379.034 127.841L382.024 127.595ZM380.926 114.326L382.024 127.594L379.034 127.842L377.937 114.573L380.926 114.326ZM386.029 108.804L380.589 115.404L378.274 113.496L383.714 106.896L386.029 108.804ZM398.27 107.886L385.036 109.341L384.708 106.359L397.942 104.904L398.27 107.886ZM402.587 104.384C401.928 106.25 400.236 107.669 398.27 107.886L397.942 104.904C398.693 104.821 399.459 104.233 399.758 103.386L402.587 104.384ZM407.429 90.7084L402.587 104.386L399.759 103.384L404.601 89.7072L407.429 90.7084ZM405.97 85.4713C407.624 86.6803 408.095 88.8293 407.429 90.7087L404.601 89.7069C404.895 88.8767 404.621 88.2013 404.199 87.8932L405.97 85.4713ZM395.867 78.085L405.97 85.4714L404.199 87.8931L394.096 80.5068L395.867 78.085ZM396.227 71.2005L396.481 79.2486L393.482 79.3432L393.228 71.2951L396.227 71.2005ZM405.377 61.6879L395.841 72.2528L393.614 70.2428L403.15 59.6779L405.377 61.6879ZM406.319 56.2536C407.172 58.0608 406.707 60.2237 405.373 61.6917L403.153 59.6741C403.782 58.9818 403.873 58.101 403.606 57.5342L406.319 56.2536ZM400.666 44.2752L406.319 56.2537L403.606 57.5341L397.953 45.5556L400.666 44.2752ZM395.802 41.9519C397.783 41.5286 399.786 42.409 400.666 44.2756L397.952 45.5552C397.713 45.0476 397.157 44.73 396.429 44.8857L395.802 41.9519ZM382.612 44.7725L395.801 41.9519L396.429 44.8856L383.239 47.7062L382.612 44.7725ZM378.079 40.3005L383.88 45.0819L381.971 47.3968L376.171 42.6154L378.079 40.3005ZM378.877 28.0002L378.625 41.486L375.625 41.4298L375.878 27.9441L378.877 28.0002ZM375.668 23.6689C377.668 24.1773 378.915 25.974 378.877 27.9999L375.878 27.9444C375.892 27.2002 375.474 26.7149 374.929 26.5763L375.668 23.6689ZM362.831 20.4062L375.668 23.6688L374.929 26.5764L362.092 23.3137L362.831 20.4062ZM357.674 22.3708C358.859 20.7873 360.893 19.9131 362.831 20.4063L362.091 23.3136C361.486 23.1597 360.637 23.4182 360.076 24.1679L357.674 22.3708ZM349.125 33.7446L357.676 22.3681L360.074 24.1706L351.523 35.5471L349.125 33.7446ZM342.136 34.4517L350.085 33.1651L350.564 36.1266L342.615 37.4132L342.136 34.4517ZM334.217 26.3249L343.395 34.8323L341.356 37.0326L332.177 28.5252L334.217 26.3249ZM328.797 25.892C330.515 24.8798 332.715 24.9324 334.217 26.325L332.177 28.5251C331.794 28.1703 331.079 28.0295 330.32 28.4768L328.797 25.892ZM316.296 33.2557L328.797 25.892L330.32 28.4769L317.818 35.8407L316.296 33.2557ZM313.684 38.1606C313.522 36.1881 314.594 34.2582 316.296 33.2558L317.819 35.8406C317.044 36.297 316.612 37.162 316.674 37.9145L313.684 38.1606ZM314.782 51.429L313.684 38.1613L316.674 37.9138L317.772 51.1816L314.782 51.429ZM309.679 56.9512L315.119 50.3512L317.434 52.2594L311.994 58.8594L309.679 56.9512ZM297.439 57.8692L310.672 56.4143L311 59.3963L297.766 60.8512L297.439 57.8692ZM293.121 61.3702C293.78 59.5062 295.472 58.0861 297.438 57.8692L297.767 60.8511C297.016 60.934 296.249 61.5233 295.95 62.3697L293.121 61.3702ZM288.279 75.0469L293.122 61.3693L295.95 62.3706L291.107 76.0481L288.279 75.0469ZM289.738 80.284C288.084 79.0749 287.613 76.9259 288.279 75.0466L291.107 76.0484C290.813 76.8786 291.087 77.5539 291.509 77.8621L289.738 80.284ZM299.841 87.6706L289.738 80.2839L291.509 77.8622L301.612 85.2489L299.841 87.6706ZM299.481 94.5548L299.227 86.5071L302.225 86.4123L302.48 94.4601L299.481 94.5548ZM290.331 104.067L299.867 93.5024L302.094 95.5125L292.558 106.077L290.331 104.067ZM289.389 109.501C288.536 107.692 289.004 105.54 290.331 104.068L292.559 106.077C291.924 106.782 291.836 107.657 292.102 108.221L289.389 109.501ZM295.043 121.48L289.389 109.502L292.102 108.221L297.756 120.2L295.043 121.48ZM299.906 123.803C297.925 124.227 295.922 123.346 295.042 121.48L297.756 120.2C297.995 120.708 298.551 121.025 299.279 120.87L299.906 123.803ZM313.096 120.982L299.907 123.803L299.279 120.87L312.469 118.048L313.096 120.982ZM317.629 125.454L311.829 120.672L313.737 118.357L319.537 123.139L317.629 125.454ZM367.678 58.8283C356.239 49.3993 337.91 52.1674 326.861 65.572L324.546 63.6638C336.41 49.2708 356.597 45.8064 369.586 56.5134L367.678 58.8283ZM368.848 100.183C379.898 86.7781 379.117 68.2575 367.678 58.8283L369.586 56.5134C382.576 67.2207 383.027 87.6979 371.163 102.091L368.848 100.183ZM328.031 106.926C339.469 116.355 357.799 113.587 368.848 100.183L371.163 102.091C359.299 116.484 339.112 119.948 326.122 109.241L328.031 106.926ZM326.861 65.572C315.811 78.9763 316.592 97.4969 328.031 106.926L326.122 109.241C313.133 98.5338 312.682 78.0566 324.546 63.6638L326.861 65.572ZM365.19 61.8463C375.596 70.4236 375.917 86.775 366.477 98.2278L364.162 96.3196C372.788 85.8553 372.137 71.4605 363.282 64.1612L365.19 61.8463ZM329.232 67.527C338.673 56.0742 354.785 53.269 365.19 61.8463L363.282 64.1612C354.427 56.8619 340.173 58.9708 331.547 69.4352L329.232 67.527ZM330.518 103.908C320.113 95.3311 319.792 78.9797 329.232 67.527L331.547 69.4352C322.921 79.8995 323.571 94.2943 332.427 101.594L330.518 103.908ZM366.477 98.2278C357.037 109.68 340.924 112.486 330.518 103.908L332.427 101.594C341.282 108.893 355.536 106.783 364.162 96.3196L366.477 98.2278ZM334.043 71.493C340.995 63.059 352.925 60.9309 360.677 67.3212L358.769 69.6361C352.567 64.5239 342.495 65.9556 336.358 73.4012L334.043 71.493ZM335.031 98.4338C327.278 92.0435 327.091 79.9267 334.043 71.493L336.358 73.4012C330.221 80.8464 330.737 91.0066 336.939 96.1189L335.031 98.4338ZM361.665 94.262C354.713 102.696 342.783 104.824 335.031 98.4338L336.939 96.1189C343.141 101.231 353.213 99.7994 359.35 92.3538L361.665 94.262ZM360.677 67.3212C368.429 73.7115 368.617 85.828 361.665 94.262L359.35 92.3538C365.487 84.9083 364.971 74.7484 358.769 69.6361L360.677 67.3212ZM354.664 88.4907C358.377 83.9861 357.991 77.9513 354.373 74.969L356.281 72.6541C361.45 76.9145 361.506 84.9059 356.978 90.3989L354.664 88.4907ZM341.335 90.786C344.953 93.7683 350.951 92.9951 354.664 88.4907L356.978 90.3989C352.451 95.8916 344.595 97.3613 339.427 93.1009L341.335 90.786ZM341.044 77.2643C337.331 81.7693 337.717 87.8037 341.335 90.786L339.427 93.1009C334.258 88.8405 334.201 80.8495 338.729 75.3561L341.044 77.2643ZM354.373 74.969C350.755 71.9867 344.758 72.7594 341.044 77.2643L338.729 75.3561C343.258 69.8628 351.113 68.3938 356.281 72.6541L354.373 74.969Z" fill="#528285"/>
<path d="M432.195 231.5H491.5L428 285.828L432.195 231.5Z" fill="#528285" stroke="#69DCBA" stroke-width="2"/>
<path d="M504.69 285.403L514 228H490.728L480.4 238.329H445L428.165 285.403H504.69Z" fill="#528285" stroke="#69DCBA" stroke-width="2"/>
<defs>
<radialGradient id="paint0_radial_534_2436" cx="0" cy="0" r="1" gradientUnits="userSpaceOnUse" gradientTransform="translate(404.85 140.938) rotate(44.651) scale(207.729 312.692)">
<stop stop-color="#D0C5F9"/>
<stop offset="0.0001" stop-color="#88F1D2"/>
<stop offset="1" stop-color="#29AF88"/>
</radialGradient>
</defs>
</svg>
