<svg width="78" height="78" viewBox="0 0 78 78" fill="none" xmlns="http://www.w3.org/2000/svg">
<circle cx="39" cy="39" r="39" fill="#D8FFF3"/>
<circle cx="39" cy="40" r="17" stroke="#528285" stroke-width="2"/>
<mask id="path-3-inside-1_442_1170" fill="white">
<rect x="45" y="19" width="15" height="20" rx="1"/>
</mask>
<rect x="45" y="19" width="15" height="20" rx="1" fill="#88F1D2" stroke="#528285" stroke-width="4" mask="url(#path-3-inside-1_442_1170)"/>
<mask id="path-4-inside-2_442_1170" fill="white">
<rect x="18" y="23" width="15" height="16" rx="1"/>
</mask>
<rect x="18" y="23" width="15" height="16" rx="1" fill="#88F1D2" stroke="#528285" stroke-width="4" mask="url(#path-4-inside-2_442_1170)"/>
<path d="M50 25H55" stroke="#528285" stroke-width="2" stroke-linecap="round"/>
<path d="M23 29H26" stroke="#528285" stroke-width="2" stroke-linecap="round"/>
<path d="M50 29H55.0888" stroke="#528285" stroke-width="2" stroke-linecap="round"/>
<path d="M23 33H28.0888" stroke="#528285" stroke-width="2" stroke-linecap="round"/>
<path d="M50 33H53" stroke="#528285" stroke-width="2" stroke-linecap="round"/>
<circle cx="39" cy="43" r="5" fill="#D8FFF3" stroke="#528285" stroke-width="2"/>
<path d="M29.0632 60H29.0583C29.582 55.5353 33.5697 52 38.5 52C43.4303 52 47.418 55.5353 47.9417 60H47.9368H47.9227H47.9086H47.8944H47.8801H47.8658H47.8513H47.8368H47.8222H47.8074H47.7927H47.7778H47.7628H47.7478H47.7327H47.7175H47.7022H47.6869H47.6714H47.6559H47.6403H47.6246H47.6089H47.593H47.5771H47.5611H47.545H47.5289H47.5126H47.4963H47.4799H47.4634H47.4468H47.4302H47.4135H47.3967H47.3798H47.3628H47.3458H47.3287H47.3115H47.2943H47.2769H47.2595H47.242H47.2244H47.2068H47.189H47.1712H47.1534H47.1354H47.1174H47.0993H47.0811H47.0628H47.0445H47.0261H47.0076H46.989H46.9704H46.9517H46.9329H46.914H46.8951H46.8761H46.857H46.8378H46.8186H46.7993H46.7799H46.7605H46.741H46.7214H46.7017H46.682H46.6622H46.6423H46.6223H46.6023H46.5822H46.562H46.5418H46.5215H46.5011H46.4807H46.4601H46.4395H46.4189H46.3982H46.3773H46.3565H46.3355H46.3145H46.2934H46.2723H46.2511H46.2298H46.2084H46.187H46.1655H46.1439H46.1223H46.1006H46.0789H46.057H46.0351H46.0132H45.9911H45.969H45.9469H45.9246H45.9023H45.88H45.8575H45.835H45.8125H45.7898H45.7671H45.7444H45.7215H45.6987H45.6757H45.6527H45.6296H45.6065H45.5832H45.56H45.5366H45.5132H45.4897H45.4662H45.4426H45.419H45.3953H45.3715H45.3476H45.3237H45.2997H45.2757H45.2516H45.2275H45.2033H45.179H45.1546H45.1302H45.1058H45.0813H45.0567H45.032H45.0073H44.9826H44.9577H44.9329H44.9079H44.8829H44.8579H44.8327H44.8076H44.7823H44.757H44.7317H44.7063H44.6808H44.6553H44.6297H44.604H44.5783H44.5526H44.5267H44.5009H44.4749H44.4489H44.4229H44.3968H44.3706H44.3444H44.3182H44.2918H44.2655H44.239H44.2125H44.186H44.1594H44.1327H44.106H44.0793H44.0524H44.0256H43.9986H43.9717H43.9446H43.9175H43.8904H43.8632H43.836H43.8087H43.7813H43.7539H43.7264H43.6989H43.6714H43.6438H43.6161H43.5884H43.5606H43.5328H43.5049H43.477H43.449H43.421H43.3929H43.3648H43.3366H43.3084H43.2801H43.2518H43.2234H43.195H43.1666H43.138H43.1095H43.0808H43.0522H43.0235H42.9947H42.9659H42.937H42.9081H42.8792H42.8502H42.8211H42.792H42.7629H42.7337H42.7045H42.6752H42.6459H42.6165H42.5871H42.5576H42.5281H42.4985H42.4689H42.4393H42.4096H42.3799H42.3501H42.3203H42.2904H42.2605H42.2305H42.2005H42.1705H42.1404H42.1103H42.0801H42.0499H42.0196H41.9893H41.9589H41.9286H41.8981H41.8677H41.8371H41.8066H41.776H41.7453H41.7147H41.6839H41.6532H41.6224H41.5915H41.5606H41.5297H41.4988H41.4678H41.4367H41.4056H41.3745H41.3433H41.3121H41.2809H41.2496H41.2183H41.1869H41.1555H41.1241H41.0926H41.0611H41.0296H40.998H40.9664H40.9347H40.903H40.8713H40.8395H40.8077H40.7759H40.744H40.7121H40.6801H40.6481H40.6161H40.5841H40.552H40.5198H40.4877H40.4555H40.4232H40.391H40.3587H40.3263H40.294H40.2616H40.2291H40.1967H40.1642H40.1316H40.099H40.0664H40.0338H40.0011H39.9684H39.9357H39.9029H39.8701H39.8373H39.8045H39.7716H39.7386H39.7057H39.6727H39.6397H39.6066H39.5736H39.5405H39.5073H39.4742H39.441H39.4077H39.3745H39.3412H39.3079H39.2745H39.2412H39.2078H39.1743H39.1409H39.1074H39.0739H39.0403H39.0068H38.9732H38.9395H38.9059H38.8722H38.8385H38.8048H38.771H38.7372H38.7034H38.6696H38.6357H38.6018H38.5679H38.534H38.5H38.466H38.4321H38.3982H38.3643H38.3304H38.2966H38.2628H38.229H38.1952H38.1615H38.1278H38.0941H38.0605H38.0268H37.9932H37.9597H37.9261H37.8926H37.8591H37.8257H37.7922H37.7588H37.7255H37.6921H37.6588H37.6255H37.5923H37.559H37.5258H37.4927H37.4595H37.4264H37.3934H37.3603H37.3273H37.2943H37.2614H37.2284H37.1955H37.1627H37.1299H37.0971H37.0643H37.0316H36.9989H36.9662H36.9336H36.901H36.8684H36.8358H36.8033H36.7709H36.7384H36.706H36.6737H36.6413H36.609H36.5768H36.5445H36.5123H36.4802H36.448H36.4159H36.3839H36.3519H36.3199H36.2879H36.256H36.2241H36.1923H36.1605H36.1287H36.097H36.0653H36.0336H36.002H35.9704H35.9389H35.9074H35.8759H35.8445H35.8131H35.7817H35.7504H35.7191H35.6879H35.6567H35.6255H35.5944H35.5633H35.5322H35.5012H35.4703H35.4393H35.4085H35.3776H35.3468H35.3161H35.2853H35.2547H35.224H35.1934H35.1629H35.1323H35.1019H35.0714H35.0411H35.0107H34.9804H34.9501H34.9199H34.8897H34.8596H34.8295H34.7995H34.7695H34.7395H34.7096H34.6797H34.6499H34.6201H34.5904H34.5607H34.5311H34.5015H34.4719H34.4424H34.4129H34.3835H34.3541H34.3248H34.2955H34.2663H34.2371H34.208H34.1789H34.1498H34.1208H34.0919H34.063H34.0341H34.0053H33.9765H33.9478H33.9191H33.8905H33.862H33.8334H33.805H33.7766H33.7482H33.7199H33.6916H33.6634H33.6352H33.6071H33.579H33.551H33.523H33.4951H33.4672H33.4394H33.4116H33.3839H33.3562H33.3286H33.3011H33.2736H33.2461H33.2187H33.1913H33.164H33.1368H33.1096H33.0825H33.0554H33.0283H33.0014H32.9744H32.9476H32.9207H32.894H32.8673H32.8406H32.814H32.7875H32.761H32.7345H32.7082H32.6818H32.6556H32.6293H32.6032H32.5771H32.551H32.5251H32.4991H32.4733H32.4474H32.4217H32.396H32.3703H32.3447H32.3192H32.2937H32.2683H32.243H32.2177H32.1924H32.1673H32.1421H32.1171H32.0921H32.0671H32.0423H32.0174H31.9927H31.968H31.9433H31.9187H31.8942H31.8698H31.8454H31.821H31.7967H31.7725H31.7484H31.7243H31.7003H31.6763H31.6524H31.6285H31.6047H31.581H31.5574H31.5338H31.5102H31.4868H31.4634H31.44H31.4168H31.3935H31.3704H31.3473H31.3243H31.3013H31.2785H31.2556H31.2329H31.2102H31.1875H31.165H31.1425H31.12H31.0977H31.0754H31.0531H31.031H31.0089H30.9868H30.9649H30.943H30.9211H30.8994H30.8777H30.8561H30.8345H30.813H30.7916H30.7702H30.7489H30.7277H30.7066H30.6855H30.6645H30.6435H30.6227H30.6018H30.5811H30.5605H30.5399H30.5193H30.4989H30.4785H30.4582H30.438H30.4178H30.3977H30.3777H30.3577H30.3378H30.318H30.2983H30.2786H30.259H30.2395H30.2201H30.2007H30.1814H30.1622H30.143H30.1239H30.1049H30.086H30.0671H30.0483H30.0296H30.011H29.9924H29.9739H29.9555H29.9372H29.9189H29.9007H29.8826H29.8646H29.8466H29.8288H29.811H29.7932H29.7756H29.758H29.7405H29.7231H29.7057H29.6885H29.6713H29.6542H29.6372H29.6202H29.6033H29.5865H29.5698H29.5532H29.5366H29.5201H29.5037H29.4874H29.4711H29.455H29.4389H29.4229H29.407H29.3911H29.3754H29.3597H29.3441H29.3286H29.3131H29.2978H29.2825H29.2673H29.2522H29.2371H29.2222H29.2073H29.1925H29.1778H29.1632H29.1487H29.1342H29.1199H29.1056H29.0914H29.0773H29.0632Z" fill="#D8FFF3" stroke="#528285" stroke-width="2"/>
</svg>
