<svg width="78" height="78" viewBox="0 0 78 78" fill="none" xmlns="http://www.w3.org/2000/svg">
<circle cx="39" cy="39" r="39" fill="#D8FFF3"/>
<path d="M37.0909 27L53 27V36.6M42.9759 46L28 46L28 38.5" stroke="#528285" stroke-width="2"/>
<mask id="path-3-inside-1_442_1153" fill="white">
<rect x="41" y="33" width="19" height="22" rx="1"/>
</mask>
<rect x="41" y="33" width="19" height="22" rx="1" fill="#88F1D2" stroke="#528285" stroke-width="4" mask="url(#path-3-inside-1_442_1153)"/>
<mask id="path-4-inside-2_442_1153" fill="white">
<rect x="44" y="36" width="19" height="22" rx="1"/>
</mask>
<rect x="44" y="36" width="19" height="22" rx="1" fill="#88F1D2" stroke="#528285" stroke-width="4" mask="url(#path-4-inside-2_442_1153)"/>
<path d="M49 42H58" stroke="#528285" stroke-width="2" stroke-linecap="round"/>
<path d="M49 47H51" stroke="#528285" stroke-width="2" stroke-linecap="round"/>
<path d="M55.4463 47.1685L57.8673 47.1685" stroke="#528285" stroke-width="2" stroke-linecap="round"/>
<path d="M49 52H58" stroke="#528285" stroke-width="2" stroke-linecap="round"/>
<mask id="path-9-inside-3_442_1153" fill="white">
<rect x="16" y="15" width="19" height="21.9" rx="1"/>
</mask>
<rect x="16" y="15" width="19" height="21.9" rx="1" fill="#88F1D2" stroke="#528285" stroke-width="4" mask="url(#path-9-inside-3_442_1153)"/>
<mask id="path-10-inside-4_442_1153" fill="white">
<rect x="19" y="18" width="19" height="21" rx="1"/>
</mask>
<rect x="19" y="18" width="19" height="21" rx="1" fill="#88F1D2" stroke="#528285" stroke-width="4" mask="url(#path-10-inside-4_442_1153)"/>
<path d="M24 24H32.8772" stroke="#528285" stroke-width="2" stroke-linecap="round"/>
<path d="M24 28.4386H28.4386" stroke="#528285" stroke-width="2" stroke-linecap="round"/>
<path d="M32.877 28.4386H31.7673" stroke="#528285" stroke-width="2" stroke-linecap="round"/>
<path d="M24 32.8771H28.4386" stroke="#528285" stroke-width="2" stroke-linecap="round"/>
</svg>
