<svg width="1070" height="165" viewBox="0 0 1070 165" fill="none" xmlns="http://www.w3.org/2000/svg">
<mask id="mask0_2905_2185" style="mask-type:alpha" maskUnits="userSpaceOnUse" x="0" y="0" width="1070" height="165">
<rect width="1070" height="165" fill="#00DAD6"/>
</mask>
<g mask="url(#mask0_2905_2185)">
<mask id="path-2-inside-1_2905_2185" fill="white">
<path fill-rule="evenodd" clip-rule="evenodd" d="M435.394 26.1593C432.517 20.7885 426.677 17.1047 419.931 17.0848C412.313 17.0624 405.824 21.7181 403.44 28.2233C396.292 30.037 391.079 35.6259 391.059 42.2547C391.035 50.3746 398.814 56.98 408.433 57.0083L425.486 57.0586C427.456 60.2454 431.081 62.3878 435.234 62.4C439.951 62.4139 444.005 59.6745 445.729 55.7639C451.814 53.3461 456.065 47.8935 456.084 41.5423C456.11 32.924 448.332 25.9146 438.713 25.8862C437.578 25.8829 436.469 25.9768 435.394 26.1593Z"/>
</mask>
<path d="M435.394 26.1593L433.631 27.1037L434.31 28.372L435.729 28.1311L435.394 26.1593ZM403.44 28.2233L403.932 30.1619L404.955 29.9024L405.318 28.9116L403.44 28.2233ZM408.433 57.0083L408.427 59.0083L408.433 57.0083ZM425.486 57.0586L427.188 56.0072L426.603 55.0618L425.492 55.0586L425.486 57.0586ZM445.729 55.7639L444.991 53.9052L444.23 54.2076L443.899 54.9568L445.729 55.7639ZM437.157 25.2149C433.931 19.1923 427.414 15.1069 419.937 15.0848L419.925 19.0848C425.94 19.1025 431.103 22.3847 433.631 27.1037L437.157 25.2149ZM419.937 15.0848C411.498 15.06 404.243 20.2213 401.562 27.5351L405.318 28.9116C407.406 23.2149 413.129 19.0648 419.925 19.0848L419.937 15.0848ZM402.948 26.2848C395.149 28.2637 389.082 34.4866 389.059 42.2488L393.059 42.2606C393.076 36.7651 397.436 31.8102 403.932 30.1619L402.948 26.2848ZM389.059 42.2488C389.031 51.7775 398.035 58.9777 408.427 59.0083L408.439 55.0083C399.593 54.9823 393.04 48.9717 393.059 42.2606L389.059 42.2488ZM408.427 59.0083L425.48 59.0586L425.492 55.0586L408.439 55.0083L408.427 59.0083ZM423.785 58.1099C426.117 61.8844 430.384 64.3857 435.228 64.4L435.239 60.4C431.778 60.3898 428.794 58.6064 427.188 56.0072L423.785 58.1099ZM435.228 64.4C440.728 64.4162 445.509 61.2196 447.559 56.5709L443.899 54.9568C442.5 58.1293 439.175 60.4116 435.239 60.4L435.228 64.4ZM454.084 41.5364C454.068 46.9428 450.442 51.7392 444.991 53.9052L446.468 57.6225C453.187 54.953 458.063 48.8443 458.084 41.5482L454.084 41.5364ZM438.707 27.8862C447.434 27.9119 454.106 34.2237 454.084 41.5364L458.084 41.5482C458.113 31.6243 449.23 23.9172 438.719 23.8862L438.707 27.8862ZM435.729 28.1311C436.691 27.9677 437.687 27.8832 438.707 27.8862L438.719 23.8862C437.47 23.8825 436.246 23.986 435.059 24.1876L435.729 28.1311Z" fill="#D8FFF3" mask="url(#path-2-inside-1_2905_2185)"/>
<path d="M73.4751 153.854C29.158 144.733 -10.5415 111.895 -24.8517 96.6166C5.69216 89.2853 19.6514 71.2324 22.8131 63.1223C42.7493 80.427 43.8427 87.8887 103.748 123.466C91.5928 128.557 88.6796 135.825 73.4751 153.854Z" stroke="#D8FFF3" stroke-width="2"/>
<path opacity="0.5" d="M27.3081 82.4028C24.6763 86.9096 15.2018 96.1884 -1.6416 103.081" stroke="#D8FFF3" stroke-width="2"/>
<path opacity="0.5" d="M34.9887 88.9014C32.3569 93.4082 22.8825 102.687 6.03906 109.58" stroke="#D8FFF3" stroke-width="2"/>
<path opacity="0.5" d="M44.4418 95.4004C40.6016 99.5361 31.7448 108.891 14.9014 115.783" stroke="#D8FFF3" stroke-width="2"/>
<path opacity="0.5" d="M53.895 103.081C50.2115 107.105 36.3275 116.59 26.127 124.35" stroke="#D8FFF3" stroke-width="2"/>
<path opacity="0.5" d="M62.7574 108.989C59.3873 112.678 46.6849 121.372 37.3525 128.486" stroke="#D8FFF3" stroke-width="2"/>
<path opacity="0.5" d="M71.3243 115.488C67.9543 119.176 54.7816 127.599 47.9873 135.575" stroke="#D8FFF3" stroke-width="2"/>
<path opacity="0.5" d="M81.3673 120.214C77.9972 123.903 64.8246 132.326 58.0303 140.302" stroke="#D8FFF3" stroke-width="2"/>
<path d="M984.534 -69.0045L988.305 -15.9038C994.484 -13.3001 1010.82 -2.11921 1022 14.7613C1027.51 -41.2215 999.489 -61.3527 984.534 -69.0045Z" stroke="#D8FFF3" stroke-width="2"/>
<path opacity="0.5" d="M1038.69 61.4907L1023.14 40.7871" stroke="#D8FFF3" stroke-width="2" stroke-linecap="round"/>
<path opacity="0.5" d="M1037.23 42.5792L1026.17 28.9556" stroke="#D8FFF3" stroke-width="2" stroke-linecap="round"/>
<path opacity="0.5" d="M1039.57 31.5412L1028.06 17.8006" stroke="#D8FFF3" stroke-width="2" stroke-linecap="round"/>
<path opacity="0.5" d="M1037.49 16.9447L1027.35 5.4516" stroke="#D8FFF3" stroke-width="2" stroke-linecap="round"/>
<path opacity="0.5" d="M1017.09 0.074578L1016.03 -14.7436" stroke="#D8FFF3" stroke-width="2" stroke-linecap="round"/>
<path d="M1043.43 81.0339L1014.72 44.5804C1022.08 23.2158 1029.08 -5.09504 1013.91 -39.9655C1040.26 -6.42932 1045.39 55.972 1043.43 81.0339Z" stroke="#D8FFF3" stroke-width="2"/>
<path d="M688.109 191.141L747.171 151.705C746.108 142.823 748.283 116.507 760.468 92.4024C691.936 122.984 687.103 168.754 688.109 191.141Z" stroke="#D8FFF3" stroke-width="2"/>
<path opacity="0.5" d="M736.269 145.726L702.096 168.065" stroke="#D8FFF3" stroke-width="2" stroke-linecap="round"/>
<path opacity="0.5" d="M738.128 133.523L703.955 155.862" stroke="#D8FFF3" stroke-width="2" stroke-linecap="round"/>
<path opacity="0.5" d="M741.199 120.988L710.927 140.961" stroke="#D8FFF3" stroke-width="2" stroke-linecap="round"/>
<path opacity="0.5" d="M746.686 107.792L730.204 118.797" stroke="#D8FFF3" stroke-width="2" stroke-linecap="round"/>
</g>
</svg>
