<svg width="238" height="173" viewBox="0 0 238 173" fill="none" xmlns="http://www.w3.org/2000/svg">
<circle cx="119" cy="119" r="119" fill="#EFFFFF"/>
<rect x="82.5476" y="48" width="81.9541" height="108.813" rx="2" fill="#C4E7F1" stroke="#11DCD0"/>
<rect x="77.7268" y="52.8208" width="81.9541" height="108.813" rx="2" fill="#A4EFEE" stroke="#11DCD0"/>
<path d="M90.0508 64.1301H146.741" stroke="#11DCD0" stroke-linecap="round"/>
<path d="M101.142 86.313L133.184 86.313" stroke="#11DCD0" stroke-linecap="round"/>
<path d="M90.0508 71.5247H120.861" stroke="#11DCD0" stroke-linecap="round"/>
<path d="M104.223 78.9189L133.185 78.9189" stroke="#11DCD0" stroke-linecap="round"/>
<path d="M90.0508 78.9189L98.6775 78.9189" stroke="#11DCD0" stroke-linecap="round"/>
<path d="M126.406 71.5247L146.741 71.5247" stroke="#11DCD0" stroke-linecap="round"/>
<path d="M139.963 78.9189L146.741 78.9189" stroke="#11DCD0" stroke-linecap="round"/>
<circle cx="156.41" cy="101.5" r="14.2562" fill="#DEFFFF" stroke="#11DCD0"/>
<circle cx="81.0584" cy="101.5" r="14.2562" fill="#DEFFFF" stroke="#11DCD0"/>
<circle cx="119.048" cy="108.093" r="13.9422" fill="#DEFFFF" stroke="#11DCD0"/>
<path d="M130.351 127.28C130.351 123.966 133.037 121.28 136.351 121.28H148.332L157.023 133.508L165.714 121.28H177.096C180.41 121.28 183.096 123.966 183.096 127.28V182.502H130.351V127.28Z" fill="#DEFFFF" stroke="#11DCD0"/>
<path d="M54.9998 127.28C54.9998 123.966 57.686 121.28 60.9998 121.28H72.9812L81.6722 133.508L90.3633 121.28H101.745C105.059 121.28 107.745 123.966 107.745 127.28V182.502H54.9998V127.28Z" fill="#DEFFFF" stroke="#11DCD0"/>
<path d="M171.038 138.861C171.038 138.585 170.814 138.361 170.538 138.361C170.262 138.361 170.038 138.585 170.038 138.861L171.038 138.861ZM170.038 138.861L170.038 163.978L171.038 163.978L171.038 138.861L170.038 138.861Z" fill="#11DCD0"/>
<path d="M68.0583 138.861C68.0583 138.585 67.8345 138.361 67.5583 138.361C67.2822 138.361 67.0583 138.585 67.0583 138.861L68.0583 138.861ZM67.0583 138.861L67.0584 163.978L68.0584 163.978L68.0583 138.861L67.0583 138.861Z" fill="#11DCD0"/>
<path d="M92.6753 134.815C92.6753 131.501 95.3616 128.815 98.6753 128.815H110.657L119.348 141.043L128.039 128.815H139.421C142.735 128.815 145.421 131.501 145.421 134.815V190.037H92.6753V134.815Z" fill="#A4EFEE" stroke="#11DCD0"/>
</svg>
