<svg width="238" height="173" viewBox="0 0 238 173" fill="none" xmlns="http://www.w3.org/2000/svg">
<circle cx="119" cy="119" r="119" fill="#F9F3E8"/>
<mask id="path-2-inside-1_2870_2183" fill="white">
<path fill-rule="evenodd" clip-rule="evenodd" d="M118.465 45.7632L188.68 91.6173C179.132 95.17 172.169 103.499 170.364 113.525L170.051 115.261L170.051 198.357L170.051 198.359L170.051 198.359L169.766 200.175C168.179 210.292 161.116 218.696 151.423 222L81.209 176.146C90.7569 172.594 97.7201 164.265 99.5248 154.238L99.8373 152.503V69.4067V68.69L99.9392 68.7566L100.122 67.5887C101.709 57.4717 108.773 49.0676 118.465 45.7632Z"/>
</mask>
<path d="M188.68 91.6173L189.028 92.5545L190.885 91.8635L189.226 90.78L188.68 91.6173ZM118.465 45.7632L119.012 44.9259L118.604 44.6594L118.143 44.8167L118.465 45.7632ZM170.364 113.525L171.348 113.702L170.364 113.525ZM170.051 115.261L169.067 115.084L169.051 115.172V115.261H170.051ZM170.051 198.357L171.051 198.363V198.357H170.051ZM170.051 198.359L169.505 199.197L171.04 200.198L171.051 198.365L170.051 198.359ZM170.051 198.359L170.597 197.522L169.303 196.677L169.063 198.204L170.051 198.359ZM169.766 200.175L170.754 200.33L169.766 200.175ZM151.423 222L150.876 222.838L151.284 223.104L151.746 222.947L151.423 222ZM81.209 176.146L80.8603 175.209L79.0032 175.9L80.6623 176.983L81.209 176.146ZM99.5248 154.238L100.509 154.416L99.5248 154.238ZM99.8373 152.503L100.821 152.68L100.837 152.592V152.503H99.8373ZM99.8373 68.69L100.384 67.8527L98.8373 66.8426V68.69H99.8373ZM99.9392 68.7566L99.3925 69.5939L100.687 70.4396L100.927 68.9116L99.9392 68.7566ZM100.122 67.5887L101.11 67.7436L100.122 67.5887ZM189.226 90.78L119.012 44.9259L117.919 46.6005L188.133 92.4546L189.226 90.78ZM171.348 113.702C173.09 104.024 179.812 95.9839 189.028 92.5545L188.331 90.6801C178.452 94.356 171.247 102.974 169.38 113.348L171.348 113.702ZM171.036 115.438L171.348 113.702L169.38 113.348L169.067 115.084L171.036 115.438ZM171.051 198.357L171.051 115.261H169.051L169.051 198.357H171.051ZM171.051 198.365L171.051 198.363L169.051 198.351L169.051 198.353L171.051 198.365ZM169.505 199.197L169.505 199.197L170.598 197.522L170.597 197.522L169.505 199.197ZM169.063 198.204L168.778 200.02L170.754 200.33L171.039 198.514L169.063 198.204ZM168.778 200.02C167.249 209.77 160.442 217.869 151.1 221.054L151.746 222.947C161.79 219.523 169.11 210.814 170.754 200.33L168.778 200.02ZM151.97 221.163L81.7558 175.309L80.6623 176.983L150.876 222.838L151.97 221.163ZM81.5578 177.083C91.4368 173.407 98.6417 164.79 100.509 154.416L98.5407 154.061C96.7985 163.74 90.0769 171.78 80.8603 175.209L81.5578 177.083ZM100.509 154.416L100.821 152.68L98.8531 152.326L98.5407 154.061L100.509 154.416ZM98.8373 69.4067V152.503H100.837V69.4067H98.8373ZM98.8373 68.69V69.4067H100.837V68.69H98.8373ZM100.486 67.9193L100.384 67.8527L99.2905 69.5273L99.3925 69.5939L100.486 67.9193ZM99.1345 67.4337L98.9513 68.6016L100.927 68.9116L101.11 67.7436L99.1345 67.4337ZM118.143 44.8167C108.098 48.2409 100.779 56.9498 99.1345 67.4337L101.11 67.7436C102.64 57.9936 109.447 49.8943 118.788 46.7097L118.143 44.8167Z" fill="#F47957" mask="url(#path-2-inside-1_2870_2183)"/>
<mask id="path-4-inside-2_2870_2183" fill="white">
<path fill-rule="evenodd" clip-rule="evenodd" d="M114.388 34.5371L184.603 80.3912C175.055 83.9439 168.091 92.2727 166.287 102.299L165.974 104.035L165.974 187.131L165.975 187.131L165.974 187.133V187.134L165.689 188.949C164.102 199.066 157.039 207.47 147.346 210.775L77.1322 164.92C86.68 161.368 93.6433 153.039 95.448 143.013L95.7602 141.278V58.1806V57.4642L95.8621 57.5308L96.0453 56.3626C97.6323 46.2456 104.695 37.8415 114.388 34.5371Z"/>
</mask>
<path fill-rule="evenodd" clip-rule="evenodd" d="M114.388 34.5371L184.603 80.3912C175.055 83.9439 168.091 92.2727 166.287 102.299L165.974 104.035L165.974 187.131L165.975 187.131L165.974 187.133V187.134L165.689 188.949C164.102 199.066 157.039 207.47 147.346 210.775L77.1322 164.92C86.68 161.368 93.6433 153.039 95.448 143.013L95.7602 141.278V58.1806V57.4642L95.8621 57.5308L96.0453 56.3626C97.6323 46.2456 104.695 37.8415 114.388 34.5371Z" fill="#F5CC8A"/>
<path d="M184.603 80.3912L184.951 81.3284L186.808 80.6374L185.149 79.554L184.603 80.3912ZM114.388 34.5371L114.935 33.6998L114.527 33.4333L114.066 33.5906L114.388 34.5371ZM166.287 102.299L165.303 102.122L166.287 102.299ZM165.974 104.035L164.99 103.858L164.974 103.945V104.035L165.974 104.035ZM165.974 187.131H164.974V187.683L165.442 187.977L165.974 187.131ZM165.975 187.131L166.963 187.285L167.064 186.635L166.507 186.284L165.975 187.131ZM165.974 187.133L164.986 186.978L164.974 187.055V187.133H165.974ZM165.974 187.134L166.962 187.289L166.974 187.212V187.134H165.974ZM165.689 188.949L164.701 188.794L164.701 188.794L165.689 188.949ZM147.346 210.775L146.8 211.612L147.208 211.878L147.669 211.721L147.346 210.775ZM77.1322 164.92L76.7835 163.983L74.9263 164.674L76.5854 165.758L77.1322 164.92ZM95.448 143.013L96.4322 143.19L95.448 143.013ZM95.7602 141.278L96.7443 141.456L96.7602 141.368V141.278H95.7602ZM95.7602 57.4642L96.3069 56.6269L94.7602 55.6168V57.4642H95.7602ZM95.8621 57.5308L95.3153 58.368L96.6103 59.2138L96.85 57.6857L95.8621 57.5308ZM96.0453 56.3626L97.0333 56.5176L96.0453 56.3626ZM185.149 79.554L114.935 33.6998L113.842 35.3744L184.056 81.2285L185.149 79.554ZM167.271 102.476C169.013 92.7977 175.735 84.7579 184.951 81.3284L184.254 79.454C174.375 83.1299 167.17 91.7477 165.303 102.122L167.271 102.476ZM166.958 104.212L167.271 102.476L165.303 102.122L164.99 103.858L166.958 104.212ZM166.974 187.131L166.974 104.035L164.974 104.035L164.974 187.131H166.974ZM165.442 187.977L165.442 187.978L166.507 186.284L166.506 186.284L165.442 187.977ZM164.987 186.977L164.986 186.978L166.962 187.287L166.963 187.285L164.987 186.977ZM166.974 187.134V187.133H164.974V187.134H166.974ZM164.986 186.979L164.701 188.794L166.677 189.104L166.962 187.289L164.986 186.979ZM164.701 188.794C163.172 198.544 156.365 206.643 147.024 209.828L147.669 211.721C157.713 208.297 165.033 199.588 166.677 189.104L164.701 188.794ZM147.893 209.937L77.679 164.083L76.5854 165.758L146.8 211.612L147.893 209.937ZM77.4809 165.858C87.36 162.182 94.5648 153.564 96.4322 143.19L94.4638 142.835C92.7217 152.514 86 160.554 76.7835 163.983L77.4809 165.858ZM96.4322 143.19L96.7443 141.456L94.776 141.101L94.4638 142.835L96.4322 143.19ZM94.7602 58.1806V141.278H96.7602V58.1806H94.7602ZM94.7602 57.4642V58.1806H96.7602V57.4642H94.7602ZM96.4089 56.6935L96.3069 56.6269L95.2134 58.3015L95.3153 58.368L96.4089 56.6935ZM95.0574 56.2076L94.8742 57.3758L96.85 57.6857L97.0333 56.5176L95.0574 56.2076ZM114.066 33.5906C104.021 37.0148 96.702 45.7237 95.0574 56.2076L97.0333 56.5176C98.5627 46.7675 105.37 38.6682 114.711 35.4836L114.066 33.5906Z" fill="#F47957" mask="url(#path-4-inside-2_2870_2183)"/>
<mask id="path-6-inside-3_2870_2183" fill="white">
<path fill-rule="evenodd" clip-rule="evenodd" d="M108.641 24L178.855 69.8541C169.307 73.4068 162.344 81.7356 160.539 91.7619L160.227 93.4976L160.227 176.593L160.227 176.596L160.226 176.596L159.941 178.411C158.355 188.528 151.291 196.932 141.598 200.237L71.3843 154.383C80.9321 150.83 87.8954 142.501 89.7001 132.475L90.0125 130.739V47.6435V46.9271L90.1145 46.9937L90.2977 45.8255C91.8847 35.7085 98.9479 27.3044 108.641 24Z"/>
</mask>
<path fill-rule="evenodd" clip-rule="evenodd" d="M108.641 24L178.855 69.8541C169.307 73.4068 162.344 81.7356 160.539 91.7619L160.227 93.4976L160.227 176.593L160.227 176.596L160.226 176.596L159.941 178.411C158.355 188.528 151.291 196.932 141.598 200.237L71.3843 154.383C80.9321 150.83 87.8954 142.501 89.7001 132.475L90.0125 130.739V47.6435V46.9271L90.1145 46.9937L90.2977 45.8255C91.8847 35.7085 98.9479 27.3044 108.641 24Z" fill="#FBFBFB"/>
<path d="M178.855 69.8541L179.204 70.7913L181.061 70.1003L179.402 69.0168L178.855 69.8541ZM108.641 24L109.188 23.1627L108.779 22.8962L108.318 23.0535L108.641 24ZM160.539 91.7619L161.523 91.939L160.539 91.7619ZM160.227 93.4976L159.242 93.3205L159.227 93.4084V93.4976H160.227ZM160.227 176.593L161.227 176.598V176.593H160.227ZM160.227 176.596L159.686 177.438L161.218 178.422L161.227 176.601L160.227 176.596ZM160.226 176.596L160.767 175.755L159.476 174.925L159.238 176.441L160.226 176.596ZM159.941 178.411L160.929 178.566L159.941 178.411ZM141.598 200.237L141.052 201.074L141.46 201.341L141.921 201.183L141.598 200.237ZM71.3843 154.383L71.0356 153.446L69.1785 154.137L70.8375 155.22L71.3843 154.383ZM89.7001 132.475L90.6843 132.652L89.7001 132.475ZM90.0125 130.739L90.9967 130.917L91.0125 130.829V130.739H90.0125ZM90.0125 46.9271L90.5593 46.0898L89.0125 45.0797V46.9271H90.0125ZM90.1145 46.9937L89.5677 47.8309L90.8627 48.6766L91.1024 47.1486L90.1145 46.9937ZM90.2977 45.8255L91.2857 45.9804L90.2977 45.8255ZM179.402 69.0168L109.188 23.1627L108.094 24.8373L178.308 70.6914L179.402 69.0168ZM161.523 91.939C163.265 82.2606 169.987 74.2208 179.204 70.7913L178.506 68.9169C168.627 72.5928 161.422 81.2106 159.555 91.5847L161.523 91.939ZM161.211 93.6748L161.523 91.939L159.555 91.5847L159.242 93.3205L161.211 93.6748ZM161.227 176.593L161.227 93.4976H159.227L159.227 176.593H161.227ZM161.227 176.601L161.227 176.598L159.227 176.588L159.227 176.591L161.227 176.601ZM159.685 177.437L159.686 177.438L160.767 175.755L160.767 175.755L159.685 177.437ZM159.238 176.441L158.954 178.256L160.929 178.566L161.214 176.751L159.238 176.441ZM158.954 178.256C157.424 188.006 150.617 196.106 141.276 199.29L141.921 201.183C151.966 197.759 159.285 189.05 160.929 178.566L158.954 178.256ZM142.145 199.4L71.9311 153.545L70.8375 155.22L141.052 201.074L142.145 199.4ZM71.7331 155.32C81.6121 151.644 88.817 143.026 90.6843 132.652L88.7159 132.298C86.9738 141.976 80.2522 150.016 71.0356 153.446L71.7331 155.32ZM90.6843 132.652L90.9967 130.917L89.0284 130.562L88.7159 132.298L90.6843 132.652ZM89.0125 47.6435V130.739H91.0125V47.6435H89.0125ZM89.0125 46.9271V47.6435H91.0125V46.9271H89.0125ZM90.6613 46.1564L90.5593 46.0898L89.4658 47.7643L89.5677 47.8309L90.6613 46.1564ZM89.3098 45.6705L89.1266 46.8387L91.1024 47.1486L91.2857 45.9804L89.3098 45.6705ZM108.318 23.0535C98.2737 26.4777 90.9543 35.1866 89.3098 45.6705L91.2857 45.9804C92.8151 36.2304 99.6221 28.1311 108.963 24.9465L108.318 23.0535Z" fill="#F47957" mask="url(#path-6-inside-3_2870_2183)"/>
<path d="M100.609 98.5127L108.743 103.871M117.364 109.55L132.183 119.313" stroke="#F47957" stroke-linecap="round"/>
<path d="M100.609 129.321L143.679 157.694" stroke="#F47957" stroke-linecap="round"/>
<path d="M117.62 120.806L144.146 138.28" stroke="#F47957" stroke-linecap="round"/>
<path d="M100.609 77.7354L143.679 106.109" stroke="#F47957" stroke-linecap="round"/>
<path d="M100.609 139.352L122.144 153.539" stroke="#F47957" stroke-linecap="round"/>
<path d="M100.609 118.574L112.636 126.497" stroke="#F47957" stroke-linecap="round"/>
<path d="M100.609 87.7659L143.679 116.139" stroke="#F47957" stroke-linecap="round"/>
<path d="M100.429 104.912L94.3221 108.315L101.315 113.164L108.122 109.609L100.429 104.912Z" fill="#7A979B"/>
<path d="M98.9211 106.896L96.6399 108.189L98.6504 109.477L101.039 108.189L98.9211 106.896Z" fill="#456569"/>
<path d="M101.641 108.599L99.3599 109.892L101.37 111.18L103.759 109.892L101.641 108.599Z" fill="#456569"/>
<path d="M108.124 109.61L101.246 113.21L101.27 116.474L108.13 112.889L108.124 109.61Z" fill="#456569"/>
<path d="M102.956 119.458V113.524L55.9999 128.5L57.0961 132.337C57.6686 134.34 59.1042 135.985 61.0123 136.823L64.6906 138.438C66.7405 139.338 69.0974 139.203 71.0314 138.076L102.956 119.458Z" fill="#A93211"/>
<path d="M57.6253 125.357L91.5713 106.402L102.965 113.523L70.121 132.214C68.0691 133.381 65.6063 133.583 63.3917 132.765L58.0482 130.791C55.6454 129.903 55.3888 126.606 57.6253 125.357Z" fill="#F47957"/>
<path d="M107.306 46.0073L152.328 76.1817C149.237 79.5818 147.463 83.9742 147.324 88.5672L147.06 97.2805L101.08 67.5604L100.887 61.3798C100.705 55.5688 103.046 49.9633 107.306 46.0073Z" fill="#F5CC8A"/>
</svg>
