<svg width="238" height="173" viewBox="0 0 238 173" fill="none" xmlns="http://www.w3.org/2000/svg">
<circle cx="119" cy="119" r="119" fill="#F9F3E8"/>
<rect x="95.9237" y="36" width="85.7957" height="113.914" rx="2" fill="#F5CC8A" stroke="#F47957"/>
<rect x="90.8773" y="41.0469" width="85.7957" height="113.914" rx="2" fill="#FBFBFB" stroke="#F47957"/>
<path d="M103.779 52.8865H163.126" stroke="#F47957" stroke-linecap="round"/>
<path d="M103.681 76.1089L137.226 76.1089" stroke="#F47957" stroke-linecap="round"/>
<path d="M103.779 60.627H136.033" stroke="#F47957" stroke-linecap="round"/>
<path d="M103.779 83.5847H136.033" stroke="#F47957" stroke-linecap="round"/>
<path d="M118.616 68.3682L148.934 68.3682" stroke="#F47957" stroke-linecap="round"/>
<path d="M118.616 91.3257L148.934 91.3257" stroke="#F47957" stroke-linecap="round"/>
<path d="M103.779 68.3682L112.81 68.3682" stroke="#F47957" stroke-linecap="round"/>
<path d="M103.779 91.3257L112.81 91.3257" stroke="#F47957" stroke-linecap="round"/>
<path d="M141.838 60.627L163.126 60.627" stroke="#F47957" stroke-linecap="round"/>
<path d="M141.838 83.5847L163.126 83.5847" stroke="#F47957" stroke-linecap="round"/>
<path d="M156.031 68.3682L163.127 68.3682" stroke="#F47957" stroke-linecap="round"/>
<path d="M132.544 112.516C128.835 114.476 125.034 121.117 129.486 123.346C135.05 126.131 147.016 116.344 144.473 113.404C141.929 110.464 139.213 113.15 137.744 116.228C135.603 120.715 140.702 125.976 143.723 123.346C146.743 120.715 147.697 112.515 148.81 116.228C152.295 127.857 161.734 123.314 162.211 119.292" stroke="#F47957"/>
<circle cx="102.73" cy="134.976" r="44.2297" fill="#F5CC8A" stroke="#F47957"/>
<mask id="mask0_2870_2181" style="mask-type:alpha" maskUnits="userSpaceOnUse" x="58" y="90" width="90" height="90">
<circle cx="102.73" cy="134.976" r="44.2297" fill="#F5CC8A" stroke="#4FBAC5"/>
</mask>
<g mask="url(#mask0_2870_2181)">
<circle cx="103.152" cy="114.316" r="11.1968" fill="#FFB640" stroke="#F47957"/>
<path d="M81.7924 137.098C81.7924 133.785 84.4787 131.098 87.7924 131.098H96.3556L103.395 141.002L110.433 131.098H118.511C121.825 131.098 124.511 133.785 124.511 137.098V180.683H81.7924V137.098Z" fill="#FFB640" stroke="#F47957"/>
<path d="M91.8636 149.74C91.8636 149.464 91.6397 149.24 91.3636 149.24C91.0874 149.24 90.8636 149.464 90.8636 149.74L91.8636 149.74ZM90.8636 149.74L90.8636 176.592L91.8636 176.592L91.8636 149.74L90.8636 149.74Z" fill="#FFB640"/>
<path d="M115.425 149.74C115.425 149.464 115.201 149.24 114.925 149.24C114.649 149.24 114.425 149.464 114.425 149.74L115.425 149.74ZM114.425 149.74L114.425 176.592L115.425 176.592L115.425 149.74L114.425 149.74Z" fill="#FFB640"/>
</g>
<rect x="107.488" y="140.687" width="48.5365" height="24.7441" rx="2" fill="#FBFBFB" stroke="#F47957"/>
<path d="M120.172 147.235C116.462 149.195 112.662 155.836 117.113 158.064C122.677 160.849 134.644 151.063 132.1 148.123C129.557 145.183 126.84 147.869 125.371 150.947C123.23 155.434 128.33 160.695 131.35 158.064C134.371 155.434 135.325 147.233 136.438 150.947C139.923 162.576 149.361 158.033 149.838 154.01" stroke="#F47957"/>
</svg>
