<svg width="238" height="173" viewBox="0 0 238 173" fill="none" xmlns="http://www.w3.org/2000/svg">
<circle cx="119" cy="119" r="119" fill="#EFFFFF"/>
<rect x="58.9912" y="62.8806" width="128.482" height="143.128" rx="2" stroke="#11DCD0"/>
<rect x="53" y="68.8721" width="128.482" height="143.128" rx="2" fill="#A4EFEE" stroke="#11DCD0"/>
<path d="M129.557 70.2034C129.557 85.2776 118.573 98.829 98.6014 97.4976C83.1596 97.4976 73.6372 85.2776 73.6372 70.2034C73.6372 55.1293 85.1567 42.5764 100.598 42.5764C116.04 42.5764 129.557 55.1293 129.557 70.2034Z" fill="#A4EFEE" stroke="#11DCD0"/>
<circle cx="97.9353" cy="69.8707" r="27.627" fill="#DEFFFF" stroke="#11DCD0"/>
<path d="M139.543 108.149H164.174" stroke="#11DCD0" stroke-linecap="round"/>
<path d="M139.543 91.5063H150.194" stroke="#11DCD0" stroke-linecap="round"/>
<path d="M139.543 86.1804H164.84" stroke="#11DCD0" stroke-linecap="round"/>
<path d="M139.543 123.46H164.174" stroke="#11DCD0" stroke-linecap="round"/>
<path d="M139.543 154.749H164.174" stroke="#11DCD0" stroke-linecap="round"/>
<path d="M139.543 138.772H164.174" stroke="#11DCD0" stroke-linecap="round"/>
<rect x="72.9709" y="109.48" width="55.254" height="20.637" rx="1" stroke="#11DCD0"/>
<rect x="70.3083" y="106.817" width="55.254" height="20.637" rx="1" fill="#DEFFFF" stroke="#11DCD0"/>
<rect x="70.3083" y="136.109" width="23.9656" height="29.957" rx="1" fill="#DEFFFF" stroke="#11DCD0"/>
<rect x="101.597" y="136.109" width="23.9656" height="29.957" rx="1" fill="#DEFFFF" stroke="#11DCD0"/>
<path d="M105.757 60.2175C105.757 64.3343 102.275 67.7061 97.9356 67.7061C93.5966 67.7061 90.1143 64.3343 90.1143 60.2175C90.1143 56.1008 93.5966 52.729 97.9356 52.729C102.275 52.729 105.757 56.1008 105.757 60.2175Z" fill="#A4EFEE" stroke="#11DCD0"/>
<path d="M84.1414 84.3491H84.1317C84.4011 77.1461 90.4674 71.3691 97.9351 71.3691C105.403 71.3691 111.469 77.1461 111.739 84.3491H111.729H111.717H111.705H111.693H111.681H111.668H111.656H111.643H111.63H111.617H111.604H111.591H111.578H111.565H111.551H111.537H111.524H111.51H111.496H111.482H111.467H111.453H111.439H111.424H111.409H111.394H111.379H111.364H111.349H111.334H111.318H111.303H111.287H111.271H111.255H111.239H111.223H111.206H111.19H111.174H111.157H111.14H111.123H111.106H111.089H111.072H111.054H111.037H111.019H111.001H110.984H110.966H110.947H110.929H110.911H110.892H110.874H110.855H110.836H110.818H110.799H110.779H110.76H110.741H110.721H110.702H110.682H110.662H110.642H110.622H110.602H110.582H110.561H110.541H110.52H110.5H110.479H110.458H110.437H110.416H110.394H110.373H110.352H110.33H110.308H110.286H110.265H110.243H110.22H110.198H110.176H110.153H110.131H110.108H110.085H110.062H110.039H110.016H109.993H109.97H109.946H109.923H109.899H109.875H109.851H109.828H109.803H109.779H109.755H109.731H109.706H109.682H109.657H109.632H109.607H109.582H109.557H109.532H109.507H109.481H109.456H109.43H109.404H109.379H109.353H109.327H109.301H109.274H109.248H109.222H109.195H109.169H109.142H109.115H109.088H109.061H109.034H109.007H108.98H108.952H108.925H108.897H108.869H108.842H108.814H108.786H108.758H108.73H108.701H108.673H108.644H108.616H108.587H108.559H108.53H108.501H108.472H108.443H108.413H108.384H108.355H108.325H108.296H108.266H108.236H108.206H108.176H108.146H108.116H108.086H108.056H108.025H107.995H107.964H107.934H107.903H107.872H107.841H107.81H107.779H107.748H107.716H107.685H107.654H107.622H107.59H107.559H107.527H107.495H107.463H107.431H107.399H107.366H107.334H107.302H107.269H107.237H107.204H107.171H107.138H107.105H107.072H107.039H107.006H106.973H106.94H106.906H106.873H106.839H106.805H106.772H106.738H106.704H106.67H106.636H106.602H106.567H106.533H106.499H106.464H106.43H106.395H106.36H106.325H106.291H106.256H106.221H106.185H106.15H106.115H106.08H106.044H106.009H105.973H105.938H105.902H105.866H105.83H105.794H105.758H105.722H105.686H105.65H105.613H105.577H105.54H105.504H105.467H105.43H105.394H105.357H105.32H105.283H105.246H105.209H105.171H105.134H105.097H105.059H105.022H104.984H104.947H104.909H104.871H104.833H104.795H104.757H104.719H104.681H104.643H104.605H104.566H104.528H104.49H104.451H104.412H104.374H104.335H104.296H104.257H104.218H104.179H104.14H104.101H104.062H104.023H103.983H103.944H103.904H103.865H103.825H103.786H103.746H103.706H103.666H103.626H103.586H103.546H103.506H103.466H103.426H103.386H103.345H103.305H103.264H103.224H103.183H103.143H103.102H103.061H103.02H102.979H102.938H102.897H102.856H102.815H102.774H102.733H102.691H102.65H102.609H102.567H102.526H102.484H102.442H102.401H102.359H102.317H102.275H102.233H102.191H102.149H102.107H102.065H102.023H101.981H101.938H101.896H101.853H101.811H101.768H101.726H101.683H101.64H101.598H101.555H101.512H101.469H101.426H101.383H101.34H101.297H101.254H101.211H101.167H101.124H101.081H101.037H100.994H100.95H100.907H100.863H100.82H100.776H100.732H100.688H100.645H100.601H100.557H100.513H100.469H100.425H100.38H100.336H100.292H100.248H100.204H100.159H100.115H100.07H100.026H99.9813H99.9368H99.8921H99.8475H99.8028H99.758H99.7132H99.6684H99.6235H99.5786H99.5336H99.4886H99.4436H99.3985H99.3534H99.3082H99.263H99.2177H99.1724H99.1271H99.0817H99.0363H98.9909H98.9454H98.8999H98.8543H98.8087H98.763H98.7174H98.6716H98.6259H98.5801H98.5342H98.4884H98.4425H98.3965H98.3505H98.3045H98.2585H98.2124H98.1662H98.1201H98.0739H98.0277H97.9814H97.9351H97.8888H97.8425H97.7963H97.7501H97.7039H97.6578H97.6117H97.5657H97.5197H97.4737H97.4277H97.3818H97.336H97.2901H97.2443H97.1986H97.1528H97.1072H97.0615H97.0159H96.9703H96.9248H96.8793H96.8339H96.7885H96.7431H96.6978H96.6525H96.6072H96.562H96.5168H96.4717H96.4266H96.3816H96.3366H96.2916H96.2467H96.2018H96.157H96.1122H96.0674H96.0227H95.9781H95.9334H95.8889H95.8443H95.7998H95.7554H95.711H95.6667H95.6223H95.5781H95.5339H95.4897H95.4456H95.4015H95.3575H95.3135H95.2695H95.2257H95.1818H95.138H95.0943H95.0506H95.0069H94.9633H94.9198H94.8763H94.8328H94.7894H94.746H94.7027H94.6595H94.6163H94.5731H94.53H94.487H94.444H94.401H94.3581H94.3153H94.2725H94.2297H94.187H94.1444H94.1018H94.0593H94.0168H93.9744H93.932H93.8897H93.8474H93.8052H93.7631H93.721H93.6789H93.6369H93.595H93.5531H93.5113H93.4695H93.4278H93.3862H93.3446H93.303H93.2616H93.2201H93.1788H93.1375H93.0962H93.055H93.0139H92.9728H92.9318H92.8908H92.8499H92.8091H92.7683H92.7276H92.687H92.6464H92.6058H92.5654H92.5249H92.4846H92.4443H92.4041H92.3639H92.3238H92.2838H92.2438H92.2039H92.164H92.1242H92.0845H92.0449H92.0053H91.9657H91.9263H91.8869H91.8475H91.8083H91.7691H91.7299H91.6908H91.6518H91.6129H91.574H91.5352H91.4965H91.4578H91.4192H91.3806H91.3422H91.3038H91.2654H91.2272H91.189H91.1508H91.1128H91.0748H91.0369H90.999H90.9612H90.9235H90.8859H90.8483H90.8108H90.7734H90.736H90.6987H90.6615H90.6244H90.5873H90.5503H90.5134H90.4765H90.4398H90.4031H90.3664H90.3299H90.2934H90.257H90.2207H90.1844H90.1482H90.1121H90.0761H90.0401H90.0042H89.9684H89.9327H89.897H89.8615H89.826H89.7905H89.7552H89.7199H89.6847H89.6496H89.6146H89.5796H89.5447H89.5099H89.4752H89.4406H89.406H89.3715H89.3371H89.3028H89.2686H89.2344H89.2003H89.1663H89.1324H89.0986H89.0648H89.0311H88.9976H88.964H88.9306H88.8973H88.864H88.8308H88.7977H88.7647H88.7318H88.699H88.6662H88.6335H88.6009H88.5684H88.536H88.5037H88.4714H88.4393H88.4072H88.3752H88.3433H88.3115H88.2798H88.2481H88.2166H88.1851H88.1537H88.1224H88.0912H88.0601H88.0291H87.9982H87.9673H87.9366H87.9059H87.8753H87.8448H87.8144H87.7841H87.7539H87.7238H87.6937H87.6638H87.634H87.6042H87.5745H87.5449H87.5155H87.4861H87.4568H87.4276H87.3985H87.3694H87.3405H87.3117H87.2829H87.2543H87.2258H87.1973H87.169H87.1407H87.1125H87.0845H87.0565H87.0286H87.0008H86.9731H86.9455H86.9181H86.8907H86.8634H86.8362H86.8091H86.7821H86.7552H86.7283H86.7016H86.675H86.6485H86.6221H86.5958H86.5696H86.5435H86.5175H86.4916H86.4658H86.4401H86.4144H86.3889H86.3635H86.3382H86.313H86.2879H86.2629H86.2381H86.2133H86.1886H86.164H86.1395H86.1151H86.0909H86.0667H86.0427H86.0187H85.9948H85.9711H85.9475H85.9239H85.9005H85.8772H85.854H85.8308H85.8078H85.7849H85.7621H85.7395H85.7169H85.6944H85.6721H85.6498H85.6277H85.6056H85.5837H85.5619H85.5402H85.5186H85.4971H85.4757H85.4545H85.4333H85.4123H85.3913H85.3705H85.3498H85.3292H85.3087H85.2883H85.2681H85.2479H85.2279H85.2079H85.1881H85.1684H85.1488H85.1294H85.11H85.0908H85.0716H85.0526H85.0337H85.0149H84.9963H84.9777H84.9593H84.9409H84.9227H84.9046H84.8867H84.8688H84.8511H84.8334H84.8159H84.7985H84.7813H84.7641H84.7471H84.7302H84.7134H84.6967H84.6801H84.6637H84.6474H84.6312H84.6151H84.5991H84.5833H84.5676H84.552H84.5365H84.5212H84.5059H84.4908H84.4758H84.461H84.4462H84.4316H84.4171H84.4027H84.3885H84.3743H84.3603H84.3465H84.3327H84.3191H84.3056H84.2922H84.2789H84.2658H84.2528H84.2399H84.2271H84.2145H84.202H84.1896H84.1774H84.1653H84.1533H84.1414Z" fill="#A4EFEE" stroke="#11DCD0"/>
</svg>
