<svg width="238" height="173" viewBox="0 0 238 173" fill="none" xmlns="http://www.w3.org/2000/svg">
<circle cx="119" cy="119" r="119" fill="#EFFFFF"/>
<path d="M82.4561 62.2509V109.283H160.353V62.2509L150.016 51.2515L108.299 50.4929L92.7931 51.2515L82.4561 62.2509Z" fill="#DEFFFF" stroke="#11DCD0"/>
<path d="M82.4561 67.3952V113.325H159.985V67.3952L149.697 56.7395L108.177 56.0046L92.7443 56.7395L82.4561 67.3952Z" fill="#A4EFEE"/>
<circle cx="120.302" cy="51.5952" r="13.0952" fill="#DEFFFF" stroke="#11DCD0"/>
<path d="M70.8975 113.692L56.0002 174.687H184.603L169.402 113.692H70.8975Z" fill="#A4EFEE" stroke="#11DCD0" stroke-linecap="round"/>
<path d="M85.1884 121.776L77.3115 152.641L110.748 152.641L116.627 121.776L85.1884 121.776Z" fill="#DEFFFF" stroke="#11DCD0" stroke-linecap="round"/>
<path d="M84.6602 145.292H95.3159H105.972" stroke="#11DCD0" stroke-linecap="round"/>
<path d="M95.6833 135.004L102.297 135.004L108.911 135.004" stroke="#11DCD0" stroke-linecap="round"/>
<path d="M87.5999 135.004H89.437H91.2742" stroke="#11DCD0" stroke-linecap="round"/>
<path d="M89.0698 129.86H92.0093H94.9488" stroke="#11DCD0" stroke-linecap="round"/>
<path d="M86.1301 140.148H96.7858H107.442" stroke="#11DCD0" stroke-linecap="round"/>
<path d="M164.601 146.027L172.524 176.892L139.087 176.892L133.162 146.027L164.601 146.027Z" stroke="#11DCD0" stroke-linecap="round"/>
<path d="M108.176 56.3721H95.5526C93.949 56.3721 92.4121 57.014 91.2849 58.1546L84.188 65.3361C83.0781 66.4592 82.4556 67.9745 82.4556 69.5535V113.325" stroke="#11DCD0" stroke-linecap="round"/>
<path d="M163.131 148.231L171.054 179.096L137.617 179.096L131.692 148.231L163.131 148.231Z" stroke="#11DCD0" stroke-linecap="round"/>
<path d="M166.071 143.822L173.994 174.687L140.557 174.687L134.632 143.822L166.071 143.822Z" fill="#DEFFFF" stroke="#11DCD0" stroke-linecap="round"/>
<path d="M110.749 122.878L101.93 114.06H138.307L130.223 123.246L129.856 125.45V127.655L132.428 130.227L135.367 130.962L137.939 130.227L157.781 111.488L159.251 108.548V103.771L142.716 69.5996H98.6233L83.1909 101.567L81.3538 105.976L82.0886 109.65L103.767 130.227L107.074 130.962L110.749 129.125L111.484 126.185L110.749 122.878Z" fill="#DEFFFF"/>
<path d="M120.669 69.5996H142.715L158.779 102.969C160.158 105.833 159.552 109.258 157.274 111.475L138.945 129.316C136.937 131.271 133.752 131.318 131.687 129.423V129.423C129.505 127.422 129.393 124.018 131.439 121.877L143.795 108.951C145.345 107.33 145.684 104.9 144.637 102.916L134.142 83.0333" stroke="#11DCD0" stroke-linecap="round"/>
<path d="M114.056 96.0269L119.935 69.5996L125.814 96.0269L119.935 101.934L114.056 96.0269Z" fill="#A4EFEE" stroke="#11DCD0" stroke-linecap="round"/>
<path d="M133.162 56.3721H147.256C148.859 56.3721 150.396 57.014 151.523 58.1546L158.62 65.3361C159.73 66.4592 160.353 67.9745 160.353 69.5535V113.325" stroke="#11DCD0" stroke-linecap="round"/>
<path d="M120.669 69.5996H98.6231L82.5594 102.969C81.1806 105.833 81.7866 109.258 84.0646 111.475L102.393 129.316C104.402 131.271 107.587 131.318 109.652 129.423V129.423C111.834 127.422 111.946 124.018 109.899 121.877L97.5431 108.951C95.9936 107.33 95.6546 104.9 96.7014 102.916L107.197 83.0333" stroke="#11DCD0" stroke-linecap="round"/>
<path d="M105.237 60.0464H97.7902C96.1927 60.0464 94.6611 60.6835 93.5349 61.8165L88.3347 67.0481" stroke="#11DCD0" stroke-linecap="round"/>
<path d="M166.232 165.134H155.576H144.92" stroke="#11DCD0" stroke-linecap="round"/>
<path d="M155.209 154.845L148.595 154.845L141.981 154.845" stroke="#11DCD0" stroke-linecap="round"/>
<path d="M163.292 154.845H161.455H159.618" stroke="#11DCD0" stroke-linecap="round"/>
<path d="M161.822 149.701H158.883H155.943" stroke="#11DCD0" stroke-linecap="round"/>
<path d="M164.762 159.989H154.106H143.451" stroke="#11DCD0" stroke-linecap="round"/>
<path d="M167.701 170.278H157.045H146.39" stroke="#11DCD0" stroke-linecap="round"/>
</svg>
