<svg width="238" height="173" viewBox="0 0 238 173" fill="none" xmlns="http://www.w3.org/2000/svg">
<circle cx="119" cy="119" r="119" fill="#F9F3E8"/>
<path d="M55.5801 104.23L36.2285 156.228H203.284L183.538 104.23H55.5801Z" fill="#F5CC8A" stroke="#F47957" stroke-linecap="round"/>
<path d="M64.6179 113.081L55.0362 144.404L88.9694 144.404L96.5236 113.081L64.6179 113.081Z" fill="#F5CC8A"/>
<path d="M64.6179 113.081L55.0362 144.404L88.9694 144.404L96.5236 113.081L64.6179 113.081Z" fill="#FBFBFB"/>
<path d="M64.6179 113.081L55.0362 144.404L88.9694 144.404L96.5236 113.081L64.6179 113.081Z" stroke="#F5CC8A" stroke-linecap="round"/>
<path d="M62.4942 136.946H73.3081H84.1219" stroke="#F47957" stroke-linecap="round"/>
<path d="M73.6811 126.505L80.3932 126.505L87.1053 126.505" stroke="#F47957" stroke-linecap="round"/>
<path d="M65.478 126.505H67.3425H69.2069" stroke="#F47957" stroke-linecap="round"/>
<path d="M66.9685 121.285H69.9516H72.9348" stroke="#F47957" stroke-linecap="round"/>
<path d="M63.9854 131.725H74.7992H85.6131" stroke="#F47957" stroke-linecap="round"/>
<path d="M180.979 115.294L190.561 146.616L156.628 146.616L149.074 115.293L180.979 115.294Z" fill="#F5CC8A"/>
<path d="M180.979 115.294L190.561 146.616L156.628 146.616L149.074 115.293L180.979 115.294Z" fill="#F5CC8A"/>
<path d="M180.979 115.294L190.561 146.616L156.628 146.616L149.074 115.293L180.979 115.294Z" stroke="#F47957" stroke-linecap="round"/>
<path d="M178.767 113.081L188.349 144.404L154.416 144.404L146.861 113.081L178.767 113.081Z" fill="#F5CC8A"/>
<path d="M178.767 113.081L188.349 144.404L154.416 144.404L146.861 113.081L178.767 113.081Z" fill="#FBFBFB"/>
<path d="M178.767 113.081L188.349 144.404L154.416 144.404L146.861 113.081L178.767 113.081Z" stroke="#F5CC8A" stroke-linecap="round"/>
<path d="M174.52 137.42H166.775H159.031" stroke="#F47957" stroke-linecap="round"/>
<path d="M169.703 126.505L162.991 126.505L156.279 126.505" stroke="#F47957" stroke-linecap="round"/>
<path d="M177.907 126.505H176.043H174.178" stroke="#F47957" stroke-linecap="round"/>
<path d="M160.572 121.285H157.589H154.606" stroke="#F47957" stroke-linecap="round"/>
<path d="M179.399 131.725H168.585H157.771" stroke="#F47957" stroke-linecap="round"/>
<path d="M82.0915 53.207V100.153H159.846V53.207L149.528 42.2277L107.887 41.4705L92.4096 42.2277L82.0915 53.207Z" fill="#F5CC8A" stroke="#F47957"/>
<path d="M82.0915 58.1867V103.666H159.479V58.1867L149.21 47.5504L107.765 46.8169L92.361 47.5504L82.0915 58.1867Z" fill="#FFB640"/>
<path d="M132.705 47.3384H146.768C148.371 47.3384 149.908 47.9803 151.035 49.1209L158.113 56.2828C159.223 57.4059 159.845 58.9212 159.845 60.5002V103.124" stroke="#F47957" stroke-linecap="round"/>
<path d="M107.765 47.3384H95.1688C93.5652 47.3384 92.0283 47.9803 90.9012 49.1209L83.8235 56.2828C82.7137 57.4059 82.0912 58.9212 82.0912 60.5002V102.571" stroke="#F47957" stroke-linecap="round"/>
<circle cx="119.868" cy="42.5704" r="13.0704" fill="#F5CC8A" stroke="#F47957"/>
<path d="M110.332 113.723L101.53 103.677H138.564L129.771 114.09L129.404 116.291V118.491L131.971 121.058L134.906 121.792L137.473 121.058L157.278 102.353L158.745 99.4193V94.6513L142.241 60.542H98.2289L82.8247 92.4507L80.9909 96.8519L81.7244 100.52L103.364 121.058L106.665 121.792L110.332 119.958L111.066 117.024L110.332 113.723Z" fill="#F5CC8A"/>
<path d="M110.332 113.723L101.53 103.677H138.564L129.771 114.09L129.404 116.291V118.491L131.971 121.058L134.906 121.792L137.473 121.058L157.278 102.353L158.745 99.4193V94.6513L142.241 60.542H98.2289L82.8247 92.4507L80.9909 96.8519L81.7244 100.52L103.364 121.058L106.665 121.792L110.332 119.958L111.066 117.024L110.332 113.723Z" fill="#FBFBFB"/>
<path d="M120.235 60.542H142.241L158.275 93.85C159.652 96.7091 159.047 100.128 156.773 102.341L138.477 120.149C136.473 122.1 133.294 122.147 131.232 120.256V120.256C129.054 118.258 128.943 114.861 130.985 112.724L143.319 99.8215C144.866 98.2034 145.204 95.7775 144.159 93.7979L133.683 73.9511" stroke="#F47957" stroke-linecap="round"/>
<path d="M113.633 86.921L119.501 60.542L125.37 86.921L119.501 92.8175L113.633 86.921Z" fill="#F5CC8A" stroke="#F47957" stroke-linecap="round"/>
<path d="M120.235 60.542H98.2289L82.1946 93.85C80.8182 96.7091 81.4231 100.128 83.6969 102.341L101.992 120.149C103.997 122.1 107.176 122.147 109.237 120.256V120.256C111.415 118.258 111.527 114.861 109.485 112.724L97.1509 99.8215C95.6042 98.2034 95.2658 95.7775 96.3107 93.798L106.787 73.9511" stroke="#F47957" stroke-linecap="round"/>
<path d="M104.831 51.0063H97.4026C95.805 51.0063 94.2734 51.6435 93.1472 52.7765L87.9597 57.9953" stroke="#F47957" stroke-linecap="round"/>
<path d="M88.7307 134.101L79.3753 93.1671H160.137L150.591 134.101H88.7307Z" fill="#FBFBFB" stroke="#F47957" stroke-linecap="round"/>
<path d="M132.081 126.357L135.798 142.952L103.714 142.952L107.507 126.357L132.081 126.357Z" fill="#FBFBFB" stroke="#F47957" stroke-linecap="round"/>
<rect x="57.2489" y="156.228" width="9.95697" height="18.8076" fill="#F47957"/>
<rect x="172.307" y="156.228" width="9.95697" height="18.8076" fill="#F47957"/>
</svg>
