<svg width="1894" height="153" viewBox="0 0 1894 153" fill="none" xmlns="http://www.w3.org/2000/svg">
<mask id="mask0_104_573" style="mask-type:alpha" maskUnits="userSpaceOnUse" x="-27" y="0" width="1921" height="153">
<rect x="-26.0024" width="1920" height="153" fill="#00DAD6"/>
</mask>
<g mask="url(#mask0_104_573)">
<mask id="path-2-inside-1_104_573" fill="white">
<path fill-rule="evenodd" clip-rule="evenodd" d="M218.266 93.8728C218.266 93.8756 218.266 93.8784 218.266 93.8812L210.393 93.8581C208.945 96.1982 206.275 97.7641 203.225 97.7551C200.175 97.7461 197.514 96.1645 196.08 93.8159L195.736 93.8149C188.707 93.7942 183.023 88.9676 183.041 83.0344C183.058 77.1012 188.77 72.3082 195.799 72.3289C196.17 72.3299 196.565 72.3745 196.98 72.4588C197.403 66.0893 202.95 61.0585 209.716 61.0784C216.223 61.0975 221.575 65.781 222.319 71.8068C227.144 73.4398 230.57 77.6223 230.555 82.5142C230.537 88.6702 225.077 93.6707 218.266 93.8728Z"/>
</mask>
<path d="M218.266 93.8728L218.207 91.8737L216.267 91.9313L216.266 93.8724L218.266 93.8728ZM218.266 93.8812L218.261 95.8812L220.261 95.8871L220.266 93.8871L218.266 93.8812ZM210.393 93.8581L210.399 91.8581L209.28 91.8548L208.692 92.8059L210.393 93.8581ZM196.08 93.8159L197.787 92.7737L197.205 91.8192L196.086 91.8159L196.08 93.8159ZM196.98 72.4588L196.581 74.4187L198.824 74.8744L198.975 72.5913L196.98 72.4588ZM222.319 71.8068L220.334 72.0518L220.488 73.2985L221.678 73.7012L222.319 71.8068ZM216.266 93.8724C216.266 93.8734 216.266 93.8744 216.266 93.8754L220.266 93.8871C220.266 93.8825 220.266 93.8779 220.266 93.8733L216.266 93.8724ZM218.272 91.8813L210.399 91.8581L210.387 95.858L218.261 95.8812L218.272 91.8813ZM208.692 92.8059C207.61 94.5549 205.586 95.762 203.231 95.7551L203.219 99.7551C206.964 99.7661 210.28 97.8414 212.093 94.9102L208.692 92.8059ZM203.231 95.7551C200.876 95.7481 198.859 94.5292 197.787 92.7737L194.373 94.8581C196.169 97.7998 199.474 99.744 203.219 99.7551L203.231 95.7551ZM196.086 91.8159L195.741 91.8149L195.73 95.8149L196.075 95.8159L196.086 91.8159ZM195.741 91.8149C189.486 91.7965 185.027 87.5647 185.041 83.0403L181.041 83.0285C181.019 90.3705 187.927 95.7919 195.73 95.8149L195.741 91.8149ZM185.041 83.0403C185.054 78.5158 189.538 74.3104 195.793 74.3288L195.805 70.3289C188.002 70.3059 181.062 75.6865 181.041 83.0285L185.041 83.0403ZM195.793 74.3288C196.01 74.3295 196.272 74.3559 196.581 74.4187L197.378 70.4989C196.858 70.3931 196.33 70.3304 195.805 70.3289L195.793 74.3288ZM198.975 72.5913C199.324 67.3446 203.928 63.0613 209.71 63.0784L209.722 59.0784C201.972 59.0556 195.482 64.834 194.984 72.3262L198.975 72.5913ZM209.71 63.0784C215.267 63.0947 219.721 67.0824 220.334 72.0518L224.304 71.5619C223.43 64.4796 217.178 59.1003 209.722 59.0784L209.71 63.0784ZM221.678 73.7012C225.828 75.106 228.567 78.6152 228.555 82.5083L232.555 82.5201C232.573 76.6294 228.459 71.7736 222.96 69.9124L221.678 73.7012ZM228.555 82.5083C228.541 87.3901 224.145 91.6975 218.207 91.8737L218.326 95.8719C226.009 95.6439 232.533 89.9502 232.555 82.5201L228.555 82.5083Z" fill="#7198FF" mask="url(#path-2-inside-1_104_573)"/>
<mask id="path-4-inside-2_104_573" fill="white">
<path fill-rule="evenodd" clip-rule="evenodd" d="M561.969 60.5263C560.227 57.2738 556.69 55.0429 552.605 55.0309C547.992 55.0173 544.062 57.8366 542.618 61.776C538.289 62.874 535.131 66.2588 535.12 70.2735C535.105 75.1909 539.816 79.1911 545.641 79.2082L555.968 79.2386C557.161 81.1686 559.356 82.4661 561.871 82.4735C564.728 82.4819 567.183 80.8231 568.227 78.455C571.913 76.991 574.488 73.6887 574.499 69.8421C574.514 64.623 569.804 60.3781 563.979 60.3609C563.292 60.3589 562.62 60.4158 561.969 60.5263Z"/>
</mask>
<path d="M561.969 60.5263L560.206 61.4707L560.885 62.739L562.304 62.4981L561.969 60.5263ZM542.618 61.776L543.11 63.7146L544.133 63.4551L544.496 62.4643L542.618 61.776ZM555.968 79.2386L557.67 78.1873L557.085 77.2419L555.974 77.2386L555.968 79.2386ZM568.227 78.455L567.489 76.5963L566.728 76.8986L566.397 77.6479L568.227 78.455ZM563.732 59.5819C561.641 55.6776 557.427 53.0451 552.611 53.0309L552.599 57.0309C555.953 57.0407 558.813 58.87 560.206 61.4707L563.732 59.5819ZM552.611 53.0309C547.176 53.0149 542.481 56.3398 540.74 61.0877L544.496 62.4643C545.644 59.3334 548.807 57.0197 552.599 57.0309L552.611 53.0309ZM542.126 59.8374C537.146 61.1007 533.135 65.1195 533.12 70.2676L537.119 70.2794C537.128 67.3982 539.432 64.6474 543.11 63.7146L542.126 59.8374ZM533.12 70.2676C533.101 76.5937 539.036 81.1888 545.635 81.2082L545.647 77.2082C540.595 77.1933 537.109 73.788 537.119 70.2794L533.12 70.2676ZM545.635 81.2082L555.962 81.2386L555.974 77.2386L545.647 77.2082L545.635 81.2082ZM554.267 80.29C555.823 82.8076 558.659 84.464 561.865 84.4735L561.877 80.4735C560.054 80.4681 558.499 79.5296 557.67 78.1873L554.267 80.29ZM561.865 84.4735C565.504 84.4842 568.687 82.3683 570.057 79.2621L566.397 77.6479C565.678 79.2779 563.951 80.4796 561.877 80.4735L561.865 84.4735ZM572.499 69.8362C572.49 72.7379 570.541 75.384 567.489 76.5963L568.965 80.3137C573.285 78.598 576.485 74.6396 576.499 69.848L572.499 69.8362ZM563.973 62.3609C568.906 62.3754 572.511 65.9226 572.499 69.8362L576.499 69.848C576.518 63.3233 570.703 58.3807 563.985 58.3609L563.973 62.3609ZM562.304 62.4981C562.842 62.4067 563.4 62.3592 563.973 62.3609L563.985 58.3609C563.184 58.3586 562.397 58.4249 561.634 58.5546L562.304 62.4981Z" fill="#7198FF" mask="url(#path-4-inside-2_104_573)"/>
<mask id="path-6-inside-3_104_573" fill="white">
<path fill-rule="evenodd" clip-rule="evenodd" d="M321.22 104.187C319.135 87.2911 304.127 74.1588 285.883 74.105C266.912 74.0491 251.357 88.155 250.171 106.014C249.008 105.778 247.9 105.653 246.859 105.65C227.151 105.592 211.135 119.031 211.086 135.667C211.037 152.303 226.974 165.837 246.682 165.895L309.856 166.081C309.856 166.073 309.856 166.066 309.857 166.059C328.954 165.492 344.263 151.471 344.314 134.21C344.354 120.493 334.748 108.766 321.22 104.187Z"/>
</mask>
<path fill-rule="evenodd" clip-rule="evenodd" d="M321.22 104.187C319.135 87.2911 304.127 74.1588 285.883 74.105C266.912 74.0491 251.357 88.155 250.171 106.014C249.008 105.778 247.9 105.653 246.859 105.65C227.151 105.592 211.135 119.031 211.086 135.667C211.037 152.303 226.974 165.837 246.682 165.895L309.856 166.081C309.856 166.073 309.856 166.066 309.857 166.059C328.954 165.492 344.263 151.471 344.314 134.21C344.354 120.493 334.748 108.766 321.22 104.187Z" fill="#5484FF"/>
<path d="M321.22 104.187L319.235 104.432L319.389 105.679L320.579 106.082L321.22 104.187ZM250.171 106.014L249.772 107.974L252.015 108.43L252.166 106.147L250.171 106.014ZM246.682 165.895L246.676 167.895L246.682 165.895ZM309.856 166.081L309.851 168.081L311.851 168.087L311.856 166.087L309.856 166.081ZM309.857 166.059L309.797 164.059L307.858 164.117L307.857 166.057L309.857 166.059ZM323.205 103.942C320.99 85.9897 305.083 72.1616 285.889 72.105L285.877 76.105C303.172 76.156 317.28 88.5925 319.235 104.432L323.205 103.942ZM285.889 72.105C265.934 72.0463 249.436 86.8997 248.175 105.881L252.166 106.147C253.278 89.4103 267.891 76.052 285.877 76.105L285.889 72.105ZM250.569 104.054C249.3 103.796 248.06 103.653 246.865 103.65L246.853 107.65C247.741 107.652 248.715 107.759 249.772 107.974L250.569 104.054ZM246.865 103.65C226.384 103.589 209.139 117.616 209.086 135.661L213.086 135.673C213.131 120.445 227.919 107.594 246.853 107.65L246.865 103.65ZM209.086 135.661C209.033 153.706 226.194 167.834 246.676 167.895L246.688 163.895C227.753 163.839 213.041 150.9 213.086 135.673L209.086 135.661ZM246.676 167.895L309.851 168.081L309.862 164.081L246.688 163.895L246.676 167.895ZM311.856 166.087C311.856 166.078 311.856 166.069 311.857 166.06L307.857 166.057C307.856 166.063 307.856 166.069 307.856 166.075L311.856 166.087ZM342.314 134.204C342.267 150.191 328.022 163.519 309.797 164.059L309.916 168.058C329.886 167.465 346.259 152.751 346.314 134.216L342.314 134.204ZM320.579 106.082C333.433 110.432 342.351 121.486 342.314 134.204L346.314 134.216C346.357 119.501 336.064 107.1 321.861 102.293L320.579 106.082Z" fill="#7198FF" mask="url(#path-6-inside-3_104_573)"/>
<mask id="path-8-inside-4_104_573" fill="white">
<path fill-rule="evenodd" clip-rule="evenodd" d="M1888.39 68.1524C1887.21 58.5883 1878.71 51.1548 1868.39 51.1244C1857.65 51.0928 1848.84 59.0773 1848.17 69.1865C1847.51 69.0526 1846.89 68.9818 1846.3 68.9801C1835.14 68.9472 1826.08 76.5545 1826.05 85.9715C1826.02 95.3884 1835.04 103.049 1846.2 103.082L1881.96 103.187C1881.96 103.183 1881.96 103.179 1881.96 103.175C1892.77 102.854 1901.43 94.9175 1901.46 85.1467C1901.48 77.3825 1896.05 70.7442 1888.39 68.1524Z"/>
</mask>
<path d="M1888.39 68.1524L1886.4 68.3974L1886.56 69.6441L1887.75 70.0469L1888.39 68.1524ZM1848.17 69.1865L1847.77 71.1464L1850.02 71.6022L1850.17 69.3191L1848.17 69.1865ZM1846.2 103.082L1846.19 105.082L1846.2 103.082ZM1881.96 103.187L1881.95 105.187L1883.95 105.193L1883.96 103.193L1881.96 103.187ZM1881.96 103.175L1881.9 101.176L1879.96 101.233L1879.96 103.172L1881.96 103.175ZM1890.37 67.9075C1889.06 57.2869 1879.67 49.1576 1868.39 49.1244L1868.38 53.1244C1877.76 53.152 1885.35 59.8897 1886.4 68.3974L1890.37 67.9075ZM1868.39 49.1244C1856.67 49.0899 1846.92 57.822 1846.18 69.0539L1850.17 69.3191C1850.76 60.3327 1858.63 53.0957 1868.38 53.1244L1868.39 49.1244ZM1848.57 67.2266C1847.81 67.0712 1847.05 66.9823 1846.3 66.9801L1846.29 70.9801C1846.73 70.9814 1847.22 71.034 1847.77 71.1464L1848.57 67.2266ZM1846.3 66.9801C1834.37 66.945 1824.08 75.1399 1824.05 85.9656L1828.05 85.9774C1828.07 77.9692 1835.91 70.9495 1846.29 70.9801L1846.3 66.9801ZM1824.05 85.9656C1824.02 96.7913 1834.26 105.047 1846.19 105.082L1846.2 101.082C1835.82 101.051 1828.02 93.9855 1828.05 85.9774L1824.05 85.9656ZM1846.19 105.082L1881.95 105.187L1881.96 101.187L1846.2 101.082L1846.19 105.082ZM1883.96 103.193C1883.96 103.187 1883.96 103.181 1883.96 103.177L1879.96 103.172C1879.96 103.177 1879.96 103.179 1879.96 103.181L1883.96 103.193ZM1899.46 85.1409C1899.44 93.6374 1891.84 100.881 1881.9 101.176L1882.02 105.174C1893.7 104.827 1903.43 96.1975 1903.46 85.1526L1899.46 85.1409ZM1887.75 70.0469C1894.73 72.4105 1899.48 78.3754 1899.46 85.1409L1903.46 85.1526C1903.49 76.3896 1897.36 69.078 1889.03 66.258L1887.75 70.0469Z" fill="#7198FF" mask="url(#path-8-inside-4_104_573)"/>
<path d="M551.473 172.854C507.156 163.733 467.456 130.895 453.146 115.617C483.69 108.285 497.649 90.2324 500.811 82.1223C520.747 99.427 521.84 106.889 581.746 142.466C569.59 147.557 566.677 154.825 551.473 172.854Z" stroke="#7198FF" stroke-width="2"/>
<path opacity="0.5" d="M505.306 101.403C502.674 105.909 493.2 115.188 476.356 122.081" stroke="#7198FF" stroke-width="2"/>
<path opacity="0.5" d="M512.987 107.902C510.355 112.408 500.881 121.687 484.037 128.58" stroke="#7198FF" stroke-width="2"/>
<path opacity="0.5" d="M522.439 114.4C518.599 118.536 509.742 127.891 492.899 134.783" stroke="#7198FF" stroke-width="2"/>
<path opacity="0.5" d="M531.893 122.081C528.209 126.105 514.325 135.59 504.125 143.35" stroke="#7198FF" stroke-width="2"/>
<path opacity="0.5" d="M540.755 127.989C537.385 131.678 524.682 140.372 515.35 147.486" stroke="#7198FF" stroke-width="2"/>
<path opacity="0.5" d="M549.321 134.488C545.951 138.177 532.779 146.6 525.984 154.576" stroke="#7198FF" stroke-width="2"/>
<path opacity="0.5" d="M559.365 139.214C555.995 142.903 542.823 151.326 536.028 159.302" stroke="#7198FF" stroke-width="2"/>
<path d="M1742.62 71.1848L1688.87 89.1046C1687.81 96.1635 1680.6 115.958 1666.15 131.944C1725.33 122.831 1738.68 88.6255 1742.62 71.1848Z" stroke="#7198FF" stroke-width="2"/>
<path opacity="0.5" d="M1696 96L1727 86" stroke="#7198FF" stroke-width="2" stroke-linecap="round"/>
<path opacity="0.5" d="M1692 105L1723 95" stroke="#7198FF" stroke-width="2" stroke-linecap="round"/>
<path opacity="0.5" d="M1687 114L1714.5 105" stroke="#7198FF" stroke-width="2" stroke-linecap="round"/>
<path opacity="0.5" d="M1622.38 161.5L1639.62 140" stroke="#7198FF" stroke-width="2" stroke-linecap="round"/>
<path opacity="0.5" d="M1641.5 155L1652.62 140" stroke="#7198FF" stroke-width="2" stroke-linecap="round"/>
<path opacity="0.5" d="M1653.5 154.5L1664.62 139" stroke="#7198FF" stroke-width="2" stroke-linecap="round"/>
<path opacity="0.5" d="M1668 148.5L1677.17 135" stroke="#7198FF" stroke-width="2" stroke-linecap="round"/>
<path opacity="0.5" d="M1680 123L1695 118" stroke="#7198FF" stroke-width="2" stroke-linecap="round"/>
<path d="M1603.49 171.55L1633.49 132.322C1657.46 134.262 1688.5 134 1720.44 109.139C1692.83 145.176 1629.85 166.958 1603.49 171.55Z" stroke="#7198FF" stroke-width="2"/>
<path d="M-61.5562 71.0743L-27.1249 102.352C-21.6489 100.268 -4.57988 97.475 12.6716 101.395C-17.6348 62.6944 -47.4883 66.8833 -61.5562 71.0743Z" stroke="#7198FF" stroke-width="2"/>
<path opacity="0.5" d="M51.4211 120.85L29.1018 117.151" stroke="#7198FF" stroke-width="2" stroke-linecap="round"/>
<path opacity="0.5" d="M39.0867 109.779L23.8777 107.844" stroke="#7198FF" stroke-width="2" stroke-linecap="round"/>
<path opacity="0.5" d="M33.9056 101.39L18.3381 99.6553" stroke="#7198FF" stroke-width="2" stroke-linecap="round"/>
<path opacity="0.5" d="M23.7825 93.4212L10.4337 92.2834" stroke="#7198FF" stroke-width="2" stroke-linecap="round"/>
<path opacity="0.5" d="M0.705406 95.0784L-8.90254 86.3496" stroke="#7198FF" stroke-width="2" stroke-linecap="round"/>
<path d="M66.2112 130.338L26.0718 124.628C17.8261 106.688 5.16374 84.5727 -25.4713 71.6975C11.424 76.9809 52.3293 113.314 66.2112 130.338Z" stroke="#7198FF" stroke-width="2"/>
<path d="M1243.57 165.264L1286.3 136.732C1285.53 130.305 1287.1 111.265 1295.92 93.8257C1246.34 115.952 1242.84 149.066 1243.57 165.264Z" stroke="#7198FF" stroke-width="2"/>
<path opacity="0.5" d="M1278.41 132.406L1253.69 148.568" stroke="#7198FF" stroke-width="2" stroke-linecap="round"/>
<path opacity="0.5" d="M1279.76 123.576L1255.03 139.739" stroke="#7198FF" stroke-width="2" stroke-linecap="round"/>
<path opacity="0.5" d="M1281.98 114.508L1260.08 128.958" stroke="#7198FF" stroke-width="2" stroke-linecap="round"/>
<path opacity="0.5" d="M1285.95 104.96L1274.03 112.922" stroke="#7198FF" stroke-width="2" stroke-linecap="round"/>
</g>
</svg>
