<svg width="201" height="146" viewBox="0 0 201 146" fill="none" xmlns="http://www.w3.org/2000/svg">
<path fill-rule="evenodd" clip-rule="evenodd" d="M158.471 51.4914C182.013 56.8955 199.571 77.9759 199.571 103.157C199.571 132.434 175.838 156.166 146.562 156.166C146.022 156.166 145.484 156.158 144.948 156.142L144.948 156.171L42.1466 156.171C19.4207 156.171 0.997654 138.04 0.997654 115.675C0.997654 93.3105 19.4207 75.1801 42.1466 75.1801C45.6242 75.1801 50.4447 76.5529 56.1157 78.9585C54.6075 74.0388 53.7959 68.8145 53.7959 63.4007C53.7959 34.1246 77.5289 10.3917 106.805 10.3917C131.986 10.3917 153.067 27.9499 158.471 51.4914Z" fill="#97DEF6"/>
<path d="M158.471 51.4914L157.496 51.7151L157.636 52.3258L158.247 52.466L158.471 51.4914ZM144.948 156.142L144.978 155.143L143.947 155.112L143.948 156.144L144.948 156.142ZM144.948 156.171V157.171H145.95L145.948 156.169L144.948 156.171ZM42.1466 156.171V157.171V156.171ZM56.1157 78.9585L55.7252 79.8791L57.7007 80.7171L57.0718 78.6654L56.1157 78.9585ZM158.247 52.466C181.345 57.7682 198.571 78.4523 198.571 103.157H200.571C200.571 77.4996 182.681 56.0228 158.695 50.5167L158.247 52.466ZM198.571 103.157C198.571 131.881 175.286 155.166 146.562 155.166V157.166C176.391 157.166 200.571 132.986 200.571 103.157H198.571ZM146.562 155.166C146.032 155.166 145.504 155.159 144.978 155.143L144.919 157.142C145.464 157.158 146.012 157.166 146.562 157.166V155.166ZM143.948 156.144L143.948 156.172L145.948 156.169L145.948 156.141L143.948 156.144ZM144.948 155.171L42.1466 155.171V157.171L144.948 157.171V155.171ZM42.1466 155.171C19.9578 155.171 1.99765 137.473 1.99765 115.675H-0.00234574C-0.00234574 138.608 18.8835 157.171 42.1466 157.171V155.171ZM1.99765 115.675C1.99765 93.8778 19.9578 76.1801 42.1466 76.1801V74.1801C18.8835 74.1801 -0.00234574 92.7432 -0.00234574 115.675H1.99765ZM42.1466 76.1801C45.414 76.1801 50.0801 77.4845 55.7252 79.8791L56.5062 78.0379C50.8093 75.6214 45.8344 74.1801 42.1466 74.1801V76.1801ZM57.0718 78.6654C55.5924 73.8396 54.7959 68.7141 54.7959 63.4007H52.7959C52.7959 68.915 53.6227 74.238 55.1596 79.2516L57.0718 78.6654ZM54.7959 63.4007C54.7959 34.6769 78.0812 11.3917 106.805 11.3917V9.39167C76.9766 9.39167 52.7959 33.5723 52.7959 63.4007H54.7959ZM106.805 11.3917C131.51 11.3917 152.194 28.6179 157.496 51.7151L159.446 51.2676C153.939 27.282 132.463 9.39167 106.805 9.39167V11.3917Z" fill="#007BC0"/>
<path d="M158.31 74.7632C164.601 46.1711 146.523 17.8926 117.931 11.6014C89.3386 5.31022 61.0601 23.3887 54.769 51.9808C49.6818 75.1008 60.5289 98.0157 79.9844 109.266" stroke="#007BC0" stroke-width="2" stroke-linecap="round"/>
<path d="M124.478 107.961C124.478 136.696 149.001 150.234 159.309 153.486H122.931L84.9646 153.486C54.6025 153.486 29.9892 130.192 29.9892 101.457C29.9892 89.6211 29.9893 60.5357 29.9893 55.1655C29.9893 54.616 30.1733 54.0941 30.7176 54.0182C38.4801 52.9354 103.816 54.2023 122.497 54.2998C123.602 54.3055 124.478 55.187 124.478 56.2915C124.478 62.7336 124.478 84.0236 124.478 107.961Z" fill="#E5F0F6"/>
<path d="M30.7214 102.061H29.7214H30.7214ZM124.236 56.3012H123.236V56.3012L124.236 56.3012ZM124.236 108.647H125.236H124.236ZM159.933 155.252C160.459 155.422 161.022 155.133 161.192 154.608C161.361 154.082 161.073 153.518 160.547 153.349L159.933 155.252ZM30.7214 55.1591L29.7214 55.1591V55.1591L30.7214 55.1591ZM31.4351 54.0247L31.293 53.0348L31.4351 54.0247ZM122.256 54.3087L122.251 55.3087L122.256 54.3087ZM85.13 155.187C55.6378 155.187 31.7214 130.611 31.7214 102.061H29.7214C29.7214 131.706 54.524 157.187 85.13 157.187V155.187ZM123.236 56.3012L123.236 108.647H125.236L125.236 56.3012L123.236 56.3012ZM123.236 108.647C123.236 123.527 129.845 134.365 137.723 141.874C145.581 149.365 154.724 153.571 159.933 155.252L160.547 153.349C155.554 151.737 146.696 147.664 139.103 140.426C131.529 133.207 125.236 122.864 125.236 108.647H123.236ZM31.7214 102.061L31.7214 55.1591L29.7214 55.1591L29.7214 102.061H31.7214ZM31.5772 55.0145C33.4028 54.7524 38.7904 54.6247 46.2522 54.5919C53.6708 54.5593 63.0424 54.6197 72.7584 54.7176C92.1779 54.9133 112.991 55.2589 122.251 55.3087L122.261 53.3087C113.002 53.259 92.2277 52.9137 72.7785 52.7177C63.0602 52.6198 53.6769 52.5593 46.2434 52.5919C38.853 52.6244 33.2911 52.748 31.293 53.0348L31.5772 55.0145ZM31.7214 55.1591C31.7214 55.0764 31.7284 55.0094 31.7383 54.9594C31.7485 54.9084 31.7588 54.8897 31.7571 54.8928C31.7539 54.8987 31.7347 54.9309 31.6897 54.964C31.6418 54.9992 31.5969 55.0117 31.5772 55.0145L31.293 53.0348C30.6758 53.1234 30.2413 53.4907 29.9974 53.9424C29.7771 54.3503 29.7214 54.7997 29.7214 55.1591L31.7214 55.1591ZM125.236 56.3012C125.236 54.6475 123.917 53.3176 122.261 53.3087L122.251 55.3087C122.804 55.3117 123.236 55.7458 123.236 56.3012H125.236Z" fill="#007BC0"/>
<path d="M51.3369 76.6802H104.499" stroke="#007BC0" stroke-width="2" stroke-linecap="round"/>
<path d="M51.3369 93.8604H104.499" stroke="#007BC0" stroke-width="2" stroke-linecap="round"/>
<path d="M54.9717 111.04L104.5 111.04" stroke="#007BC0" stroke-width="2" stroke-linecap="round"/>
<path d="M66.0913 128.22L107.664 128.22" stroke="#007BC0" stroke-width="2" stroke-linecap="round"/>
</svg>
