<svg width="464" height="344" viewBox="0 0 464 344" fill="none" xmlns="http://www.w3.org/2000/svg">
<rect y="95.2249" width="265.861" height="42.9397" rx="21.4699" fill="#645555"/>
<rect x="47.5078" y="157.35" width="283.219" height="42.9397" rx="21.4699" fill="#645555"/>
<rect x="74" y="219" width="337" height="57" rx="28.5" fill="#645555"/>
<g filter="url(#filter0_d_193_1644)">
<path d="M293.85 65.2768C296.316 63.1394 300.048 63.4057 302.185 65.8718L435.524 219.709C451.181 237.773 449.229 265.109 431.166 280.765C413.102 296.422 385.766 294.471 370.11 276.407L236.771 122.57C234.634 120.104 234.9 116.372 237.366 114.234L293.85 65.2768Z" fill="url(#paint0_linear_193_1644)"/>
<path d="M282.906 61.0156C283.324 60.6539 283.955 60.699 284.317 61.1163L290.489 68.2376L240.774 111.328L234.602 104.207C234.24 103.789 234.285 103.158 234.703 102.796L282.906 61.0156Z" fill="#F57A58"/>
<rect x="247.201" y="20.9377" width="53.6709" height="62.3276" transform="rotate(49.0829 247.201 20.9377)" fill="#7A989B"/>
<rect x="258.803" y="47.5401" width="19.0445" height="17.3132" transform="rotate(49.0829 258.803 47.5401)" fill="#456569"/>
<rect x="237.87" y="65.6834" width="19.0445" height="17.3132" transform="rotate(49.0829 237.87 65.6834)" fill="#456569"/>
<path d="M322.077 129.47C309.004 124.548 283.72 129.811 287.656 145.904C292.575 166.02 343.639 174.192 345.666 161.289C347.694 148.387 334.911 147.564 323.828 150.735C307.671 155.358 305.23 179.817 318.53 181.524C331.83 183.231 354.941 167.378 347.826 178.422C340.71 189.466 330.166 206.983 341.523 199.229C350.747 191.234 354.943 194.147 352.152 198.857C351.24 200.447 344.332 207.421 352.859 207.494C383.28 207.755 382.101 161.017 365.853 179.976C349.605 198.935 337.227 222.933 355.993 215.923C381.954 206.225 386.208 250.782 408.196 241.105" stroke="white" stroke-width="2"/>
</g>
<path d="M33.4356 121.89C32.1396 121.89 31.0356 121.608 30.1236 121.044C29.2116 120.474 28.5126 119.682 28.0266 118.668C27.5466 117.654 27.3066 116.478 27.3066 115.14C27.3066 113.802 27.5466 112.626 28.0266 111.612C28.5126 110.598 29.2116 109.809 30.1236 109.245C31.0356 108.675 32.1396 108.39 33.4356 108.39C34.7256 108.39 35.8266 108.675 36.7386 109.245C37.6566 109.809 38.3556 110.598 38.8356 111.612C39.3156 112.626 39.5556 113.802 39.5556 115.14C39.5556 116.478 39.3156 117.654 38.8356 118.668C38.3556 119.682 37.6566 120.474 36.7386 121.044C35.8266 121.608 34.7256 121.89 33.4356 121.89ZM33.4356 120.099C34.3536 120.111 35.1156 119.91 35.7216 119.496C36.3336 119.076 36.7926 118.494 37.0986 117.75C37.4046 117 37.5576 116.13 37.5576 115.14C37.5576 114.15 37.4046 113.286 37.0986 112.548C36.7926 111.804 36.3336 111.225 35.7216 110.811C35.1156 110.397 34.3536 110.187 33.4356 110.181C32.5176 110.169 31.7526 110.37 31.1406 110.784C30.5346 111.198 30.0786 111.78 29.7726 112.53C29.4666 113.28 29.3106 114.15 29.3046 115.14C29.2986 116.13 29.4486 116.997 29.7546 117.741C30.0606 118.479 30.5196 119.055 31.1316 119.469C31.7496 119.883 32.5176 120.093 33.4356 120.099ZM41.3418 121.62V111.9H43.2228V115.869H47.9658V111.9H49.8468V121.62H47.9658V117.642H43.2228V121.62H41.3418ZM51.4723 121.62V120.027C51.8323 120.093 52.1053 120.084 52.2913 120C52.4833 119.91 52.6243 119.748 52.7143 119.514C52.8103 119.28 52.8913 118.977 52.9573 118.605C53.0593 118.059 53.1463 117.438 53.2183 116.742C53.2963 116.04 53.3653 115.281 53.4253 114.465C53.4853 113.649 53.5393 112.794 53.5873 111.9H60.5713V121.62H58.6813V113.673H55.2793C55.2433 114.147 55.2013 114.651 55.1533 115.185C55.1113 115.713 55.0633 116.238 55.0093 116.76C54.9553 117.282 54.8983 117.771 54.8383 118.227C54.7783 118.683 54.7153 119.073 54.6493 119.397C54.5293 120.045 54.3523 120.561 54.1183 120.945C53.8903 121.323 53.5663 121.566 53.1463 121.674C52.7263 121.788 52.1683 121.77 51.4723 121.62ZM65.84 121.89C65.12 121.89 64.517 121.758 64.031 121.494C63.545 121.224 63.176 120.87 62.924 120.432C62.678 119.988 62.555 119.502 62.555 118.974C62.555 118.482 62.642 118.05 62.816 117.678C62.99 117.306 63.248 116.991 63.59 116.733C63.932 116.469 64.352 116.256 64.85 116.094C65.282 115.968 65.771 115.857 66.317 115.761C66.863 115.665 67.436 115.575 68.036 115.491C68.642 115.407 69.242 115.323 69.836 115.239L69.152 115.617C69.164 114.855 69.002 114.291 68.666 113.925C68.336 113.553 67.766 113.367 66.956 113.367C66.446 113.367 65.978 113.487 65.552 113.727C65.126 113.961 64.829 114.351 64.661 114.897L62.906 114.357C63.146 113.523 63.602 112.86 64.274 112.368C64.952 111.876 65.852 111.63 66.974 111.63C67.844 111.63 68.6 111.78 69.242 112.08C69.89 112.374 70.364 112.842 70.664 113.484C70.82 113.802 70.916 114.138 70.952 114.492C70.988 114.846 71.006 115.227 71.006 115.635V121.62H69.341V119.397L69.665 119.685C69.263 120.429 68.75 120.984 68.126 121.35C67.508 121.71 66.746 121.89 65.84 121.89ZM66.173 120.351C66.707 120.351 67.166 120.258 67.55 120.072C67.934 119.88 68.243 119.637 68.477 119.343C68.711 119.049 68.864 118.743 68.936 118.425C69.038 118.137 69.095 117.813 69.107 117.453C69.125 117.093 69.134 116.805 69.134 116.589L69.746 116.814C69.152 116.904 68.612 116.985 68.126 117.057C67.64 117.129 67.199 117.201 66.803 117.273C66.413 117.339 66.065 117.42 65.759 117.516C65.501 117.606 65.27 117.714 65.066 117.84C64.868 117.966 64.709 118.119 64.589 118.299C64.475 118.479 64.418 118.698 64.418 118.956C64.418 119.208 64.481 119.442 64.607 119.658C64.733 119.868 64.925 120.036 65.183 120.162C65.441 120.288 65.771 120.351 66.173 120.351ZM77.681 110.784C77.207 110.784 76.772 110.667 76.376 110.433C75.986 110.199 75.674 109.887 75.44 109.497C75.206 109.107 75.089 108.672 75.089 108.192H76.583C76.583 108.492 76.691 108.75 76.907 108.966C77.123 109.182 77.381 109.29 77.681 109.29C77.987 109.29 78.245 109.182 78.455 108.966C78.671 108.75 78.779 108.492 78.779 108.192H80.273C80.273 108.672 80.156 109.107 79.922 109.497C79.688 109.887 79.373 110.199 78.977 110.433C78.587 110.667 78.155 110.784 77.681 110.784ZM81.533 111.9V121.62H79.724V114.861L74.864 121.62H73.334V111.9H75.143V118.524L80.012 111.9H81.533ZM84.0391 121.62V111.9H85.9201V115.869H90.6631V111.9H92.5441V121.62H90.6631V117.642H85.9201V121.62H84.0391ZM94.8896 116.697V115.185H100.29V116.697H94.8896ZM106.849 121.89C105.877 121.89 105.034 121.671 104.32 121.233C103.606 120.795 103.054 120.192 102.664 119.424C102.28 118.65 102.088 117.759 102.088 116.751C102.088 115.737 102.286 114.846 102.682 114.078C103.078 113.304 103.633 112.704 104.347 112.278C105.061 111.846 105.895 111.63 106.849 111.63C107.821 111.63 108.664 111.849 109.378 112.287C110.092 112.725 110.644 113.328 111.034 114.096C111.424 114.864 111.619 115.749 111.619 116.751C111.619 117.765 111.421 118.659 111.025 119.433C110.635 120.201 110.083 120.804 109.369 121.242C108.655 121.674 107.815 121.89 106.849 121.89ZM106.849 120.117C107.779 120.117 108.472 119.805 108.928 119.181C109.39 118.551 109.621 117.741 109.621 116.751C109.621 115.737 109.387 114.927 108.919 114.321C108.457 113.709 107.767 113.403 106.849 113.403C106.219 113.403 105.7 113.547 105.292 113.835C104.884 114.117 104.581 114.51 104.383 115.014C104.185 115.512 104.086 116.091 104.086 116.751C104.086 117.771 104.32 118.587 104.788 119.199C105.256 119.811 105.943 120.117 106.849 120.117ZM118.169 125.67V121.791C117.221 121.941 116.36 121.839 115.586 121.485C114.812 121.131 114.197 120.555 113.741 119.757C113.285 118.959 113.057 117.963 113.057 116.769C113.057 115.575 113.285 114.576 113.741 113.772C114.197 112.968 114.812 112.389 115.586 112.035C116.36 111.681 117.221 111.579 118.169 111.729V108.786H119.861V111.729C120.809 111.579 121.67 111.681 122.444 112.035C123.218 112.389 123.833 112.968 124.289 113.772C124.745 114.576 124.973 115.575 124.973 116.769C124.973 117.963 124.745 118.959 124.289 119.757C123.833 120.555 123.218 121.131 122.444 121.485C121.67 121.839 120.809 121.941 119.861 121.791V125.67H118.169ZM118.169 120.09V113.439C117.683 113.355 117.242 113.37 116.846 113.484C116.456 113.598 116.123 113.799 115.847 114.087C115.571 114.369 115.358 114.738 115.208 115.194C115.058 115.644 114.983 116.169 114.983 116.769C114.983 117.369 115.058 117.894 115.208 118.344C115.364 118.794 115.583 119.163 115.865 119.451C116.153 119.733 116.492 119.931 116.882 120.045C117.272 120.153 117.701 120.168 118.169 120.09ZM119.861 120.09C120.329 120.168 120.758 120.153 121.148 120.045C121.538 119.937 121.874 119.742 122.156 119.46C122.444 119.178 122.663 118.812 122.813 118.362C122.969 117.906 123.047 117.375 123.047 116.769C123.047 116.157 122.972 115.626 122.822 115.176C122.672 114.72 122.459 114.351 122.183 114.069C121.907 113.781 121.571 113.583 121.175 113.475C120.785 113.367 120.347 113.355 119.861 113.439V120.09ZM131.177 121.89C130.205 121.89 129.362 121.671 128.648 121.233C127.934 120.795 127.382 120.192 126.992 119.424C126.608 118.65 126.416 117.759 126.416 116.751C126.416 115.737 126.614 114.846 127.01 114.078C127.406 113.304 127.961 112.704 128.675 112.278C129.389 111.846 130.223 111.63 131.177 111.63C132.149 111.63 132.992 111.849 133.706 112.287C134.42 112.725 134.972 113.328 135.362 114.096C135.752 114.864 135.947 115.749 135.947 116.751C135.947 117.765 135.749 118.659 135.353 119.433C134.963 120.201 134.411 120.804 133.697 121.242C132.983 121.674 132.143 121.89 131.177 121.89ZM131.177 120.117C132.107 120.117 132.8 119.805 133.256 119.181C133.718 118.551 133.949 117.741 133.949 116.751C133.949 115.737 133.715 114.927 133.247 114.321C132.785 113.709 132.095 113.403 131.177 113.403C130.547 113.403 130.028 113.547 129.62 113.835C129.212 114.117 128.909 114.51 128.711 115.014C128.513 115.512 128.414 116.091 128.414 116.751C128.414 117.771 128.648 118.587 129.116 119.199C129.584 119.811 130.271 120.117 131.177 120.117ZM142.488 121.89C141.558 121.89 140.778 121.665 140.148 121.215C139.518 120.759 139.041 120.144 138.717 119.37C138.393 118.596 138.231 117.723 138.231 116.751C138.231 115.779 138.39 114.906 138.708 114.132C139.032 113.358 139.506 112.749 140.13 112.305C140.76 111.855 141.534 111.63 142.452 111.63C143.364 111.63 144.15 111.855 144.81 112.305C145.476 112.749 145.989 113.358 146.349 114.132C146.709 114.9 146.889 115.773 146.889 116.751C146.889 117.723 146.709 118.599 146.349 119.379C145.995 120.153 145.488 120.765 144.828 121.215C144.174 121.665 143.394 121.89 142.488 121.89ZM137.916 125.94V111.9H139.59V118.893H139.806V125.94H137.916ZM142.227 120.189C142.827 120.189 143.322 120.036 143.712 119.73C144.108 119.424 144.402 119.013 144.594 118.497C144.792 117.975 144.891 117.393 144.891 116.751C144.891 116.115 144.792 115.539 144.594 115.023C144.402 114.507 144.105 114.096 143.703 113.79C143.301 113.484 142.788 113.331 142.164 113.331C141.576 113.331 141.09 113.475 140.706 113.763C140.328 114.051 140.046 114.453 139.86 114.969C139.68 115.485 139.59 116.079 139.59 116.751C139.59 117.423 139.68 118.017 139.86 118.533C140.04 119.049 140.325 119.454 140.715 119.748C141.105 120.042 141.609 120.189 142.227 120.189ZM148.867 121.62V111.9H150.442L154.033 119.028L157.615 111.9H159.199V121.62H157.381V115.752L154.456 121.62H153.601L150.676 115.752V121.62H148.867ZM160.826 121.62V120.027C161.186 120.093 161.459 120.084 161.645 120C161.837 119.91 161.978 119.748 162.068 119.514C162.164 119.28 162.245 118.977 162.311 118.605C162.413 118.059 162.5 117.438 162.572 116.742C162.65 116.04 162.719 115.281 162.779 114.465C162.839 113.649 162.893 112.794 162.941 111.9H169.925V121.62H168.035V113.673H164.633C164.597 114.147 164.555 114.651 164.507 115.185C164.465 115.713 164.417 116.238 164.363 116.76C164.309 117.282 164.252 117.771 164.192 118.227C164.132 118.683 164.069 119.073 164.003 119.397C163.883 120.045 163.706 120.561 163.472 120.945C163.244 121.323 162.92 121.566 162.5 121.674C162.08 121.788 161.522 121.77 160.826 121.62ZM176.759 121.89C175.793 121.89 174.944 121.68 174.212 121.26C173.486 120.834 172.919 120.243 172.511 119.487C172.109 118.725 171.908 117.843 171.908 116.841C171.908 115.779 172.106 114.858 172.502 114.078C172.904 113.298 173.462 112.695 174.176 112.269C174.89 111.843 175.721 111.63 176.669 111.63C177.659 111.63 178.502 111.861 179.198 112.323C179.894 112.779 180.413 113.43 180.755 114.276C181.103 115.122 181.241 116.127 181.169 117.291H179.288V116.607C179.276 115.479 179.06 114.645 178.64 114.105C178.226 113.565 177.593 113.295 176.741 113.295C175.799 113.295 175.091 113.592 174.617 114.186C174.143 114.78 173.906 115.638 173.906 116.76C173.906 117.828 174.143 118.656 174.617 119.244C175.091 119.826 175.775 120.117 176.669 120.117C177.257 120.117 177.764 119.985 178.19 119.721C178.622 119.451 178.958 119.067 179.198 118.569L181.043 119.154C180.665 120.024 180.092 120.699 179.324 121.179C178.556 121.653 177.701 121.89 176.759 121.89ZM173.294 117.291V115.824H180.233V117.291H173.294ZM183.18 121.62V111.9H185.061V115.869H189.804V111.9H191.685V121.62H189.804V117.642H185.061V121.62H183.18ZM202.4 111.9V121.62H200.591V114.861L195.731 121.62H194.201V111.9H196.01V118.524L200.879 111.9H202.4ZM209.226 121.89C208.26 121.89 207.411 121.68 206.679 121.26C205.953 120.834 205.386 120.243 204.978 119.487C204.576 118.725 204.375 117.843 204.375 116.841C204.375 115.779 204.573 114.858 204.969 114.078C205.371 113.298 205.929 112.695 206.643 112.269C207.357 111.843 208.188 111.63 209.136 111.63C210.126 111.63 210.969 111.861 211.665 112.323C212.361 112.779 212.88 113.43 213.222 114.276C213.57 115.122 213.708 116.127 213.636 117.291H211.755V116.607C211.743 115.479 211.527 114.645 211.107 114.105C210.693 113.565 210.06 113.295 209.208 113.295C208.266 113.295 207.558 113.592 207.084 114.186C206.61 114.78 206.373 115.638 206.373 116.76C206.373 117.828 206.61 118.656 207.084 119.244C207.558 119.826 208.242 120.117 209.136 120.117C209.724 120.117 210.231 119.985 210.657 119.721C211.089 119.451 211.425 119.067 211.665 118.569L213.51 119.154C213.132 120.024 212.559 120.699 211.791 121.179C211.023 121.653 210.168 121.89 209.226 121.89ZM205.761 117.291V115.824H212.7V117.291H205.761Z" fill="#F6F9F6"/>
<path d="M75.467 183.746V170.786H80.561C81.383 170.786 82.073 170.954 82.631 171.29C83.189 171.626 83.609 172.061 83.891 172.595C84.173 173.123 84.314 173.681 84.314 174.269C84.314 174.983 84.137 175.595 83.783 176.105C83.435 176.615 82.964 176.963 82.37 177.149L82.352 176.708C83.18 176.912 83.816 177.311 84.26 177.905C84.704 178.493 84.926 179.18 84.926 179.966C84.926 180.728 84.773 181.391 84.467 181.955C84.167 182.519 83.726 182.96 83.144 183.278C82.568 183.59 81.869 183.746 81.047 183.746H75.467ZM77.375 181.955H80.759C81.185 181.955 81.566 181.874 81.902 181.712C82.244 181.55 82.511 181.319 82.703 181.019C82.901 180.713 83 180.35 83 179.93C83 179.54 82.913 179.189 82.739 178.877C82.571 178.559 82.325 178.31 82.001 178.13C81.683 177.944 81.308 177.851 80.876 177.851H77.375V181.955ZM77.375 176.078H80.534C80.882 176.078 81.194 176.009 81.47 175.871C81.752 175.727 81.974 175.523 82.136 175.259C82.304 174.989 82.388 174.665 82.388 174.287C82.388 173.783 82.22 173.369 81.884 173.045C81.548 172.721 81.098 172.559 80.534 172.559H77.375V176.078ZM90.875 184.016C89.879 184.016 89.033 183.794 88.337 183.35C87.641 182.906 87.107 182.297 86.735 181.523C86.369 180.749 86.183 179.87 86.177 178.886C86.183 177.884 86.375 176.999 86.753 176.231C87.131 175.457 87.671 174.851 88.373 174.413C89.075 173.975 89.918 173.756 90.902 173.756C91.964 173.756 92.87 174.02 93.62 174.548C94.376 175.076 94.874 175.799 95.114 176.717L93.242 177.257C93.056 176.711 92.75 176.288 92.324 175.988C91.904 175.682 91.421 175.529 90.875 175.529C90.257 175.529 89.75 175.676 89.354 175.97C88.958 176.258 88.664 176.654 88.472 177.158C88.28 177.662 88.181 178.238 88.175 178.886C88.181 179.888 88.409 180.698 88.859 181.316C89.315 181.934 89.987 182.243 90.875 182.243C91.481 182.243 91.97 182.105 92.342 181.829C92.72 181.547 93.008 181.145 93.206 180.623L95.114 181.073C94.796 182.021 94.271 182.75 93.539 183.26C92.807 183.764 91.919 184.016 90.875 184.016ZM101.259 184.016C100.293 184.016 99.4435 183.806 98.7115 183.386C97.9855 182.96 97.4185 182.369 97.0105 181.613C96.6085 180.851 96.4075 179.969 96.4075 178.967C96.4075 177.905 96.6055 176.984 97.0015 176.204C97.4035 175.424 97.9615 174.821 98.6755 174.395C99.3895 173.969 100.221 173.756 101.169 173.756C102.159 173.756 103.002 173.987 103.698 174.449C104.394 174.905 104.913 175.556 105.255 176.402C105.603 177.248 105.741 178.253 105.669 179.417H103.788V178.733C103.776 177.605 103.56 176.771 103.14 176.231C102.726 175.691 102.093 175.421 101.241 175.421C100.299 175.421 99.5905 175.718 99.1165 176.312C98.6425 176.906 98.4055 177.764 98.4055 178.886C98.4055 179.954 98.6425 180.782 99.1165 181.37C99.5905 181.952 100.275 182.243 101.169 182.243C101.757 182.243 102.264 182.111 102.69 181.847C103.122 181.577 103.458 181.193 103.698 180.695L105.543 181.28C105.165 182.15 104.592 182.825 103.824 183.305C103.056 183.779 102.201 184.016 101.259 184.016ZM97.7935 179.417V177.95H104.732V179.417H97.7935ZM107.688 183.746V174.026H114.528V175.799H109.569V183.746H107.688ZM120.276 184.016C119.304 184.016 118.461 183.797 117.747 183.359C117.033 182.921 116.481 182.318 116.091 181.55C115.707 180.776 115.515 179.885 115.515 178.877C115.515 177.863 115.713 176.972 116.109 176.204C116.505 175.43 117.06 174.83 117.774 174.404C118.488 173.972 119.322 173.756 120.276 173.756C121.248 173.756 122.091 173.975 122.805 174.413C123.519 174.851 124.071 175.454 124.461 176.222C124.851 176.99 125.046 177.875 125.046 178.877C125.046 179.891 124.848 180.785 124.452 181.559C124.062 182.327 123.51 182.93 122.796 183.368C122.082 183.8 121.242 184.016 120.276 184.016ZM120.276 182.243C121.206 182.243 121.899 181.931 122.355 181.307C122.817 180.677 123.048 179.867 123.048 178.877C123.048 177.863 122.814 177.053 122.346 176.447C121.884 175.835 121.194 175.529 120.276 175.529C119.646 175.529 119.127 175.673 118.719 175.961C118.311 176.243 118.008 176.636 117.81 177.14C117.612 177.638 117.513 178.217 117.513 178.877C117.513 179.897 117.747 180.713 118.215 181.325C118.683 181.937 119.37 182.243 120.276 182.243ZM129.907 185.906V182.234C130.441 182.234 130.822 182.057 131.05 181.703C131.284 181.343 131.47 180.734 131.608 179.876C131.692 179.354 131.761 178.799 131.815 178.211C131.875 177.623 131.926 176.987 131.968 176.303C132.01 175.613 132.052 174.854 132.094 174.026H139.06V182.234H140.014V185.906H138.232V183.746H131.698V185.906H129.907ZM132.598 182.234H137.17V175.538H133.768C133.744 175.934 133.717 176.342 133.687 176.762C133.663 177.182 133.633 177.599 133.597 178.013C133.567 178.427 133.531 178.823 133.489 179.201C133.447 179.579 133.399 179.921 133.345 180.227C133.273 180.701 133.186 181.097 133.084 181.415C132.988 181.733 132.826 182.006 132.598 182.234ZM141.798 183.746V174.026H146.073C146.355 174.026 146.637 174.044 146.919 174.08C147.201 174.11 147.45 174.155 147.666 174.215C148.158 174.353 148.578 174.629 148.926 175.043C149.274 175.451 149.448 175.997 149.448 176.681C149.448 177.071 149.388 177.401 149.268 177.671C149.148 177.935 148.983 178.163 148.773 178.355C148.677 178.439 148.575 178.514 148.467 178.58C148.359 178.646 148.251 178.697 148.143 178.733C148.365 178.769 148.584 178.847 148.8 178.967C149.13 179.141 149.4 179.393 149.61 179.723C149.826 180.047 149.934 180.482 149.934 181.028C149.934 181.682 149.775 182.231 149.457 182.675C149.139 183.113 148.689 183.413 148.107 183.575C147.879 183.641 147.621 183.686 147.333 183.71C147.051 183.734 146.769 183.746 146.487 183.746H141.798ZM143.706 182.261H146.37C146.496 182.261 146.64 182.249 146.802 182.225C146.964 182.201 147.108 182.168 147.234 182.126C147.504 182.042 147.696 181.889 147.81 181.667C147.93 181.445 147.99 181.208 147.99 180.956C147.99 180.614 147.9 180.341 147.72 180.137C147.54 179.927 147.312 179.792 147.036 179.732C146.916 179.69 146.784 179.666 146.64 179.66C146.496 179.654 146.373 179.651 146.271 179.651H143.706V182.261ZM143.706 178.139H145.812C145.986 178.139 146.163 178.13 146.343 178.112C146.523 178.088 146.679 178.049 146.811 177.995C147.045 177.905 147.219 177.755 147.333 177.545C147.447 177.329 147.504 177.095 147.504 176.843C147.504 176.567 147.441 176.321 147.315 176.105C147.189 175.889 147 175.739 146.748 175.655C146.574 175.595 146.373 175.562 146.145 175.556C145.923 175.544 145.782 175.538 145.722 175.538H143.706V178.139ZM154.484 184.016C153.764 184.016 153.161 183.884 152.675 183.62C152.189 183.35 151.82 182.996 151.568 182.558C151.322 182.114 151.199 181.628 151.199 181.1C151.199 180.608 151.286 180.176 151.46 179.804C151.634 179.432 151.892 179.117 152.234 178.859C152.576 178.595 152.996 178.382 153.494 178.22C153.926 178.094 154.415 177.983 154.961 177.887C155.507 177.791 156.08 177.701 156.68 177.617C157.286 177.533 157.886 177.449 158.48 177.365L157.796 177.743C157.808 176.981 157.646 176.417 157.31 176.051C156.98 175.679 156.41 175.493 155.6 175.493C155.09 175.493 154.622 175.613 154.196 175.853C153.77 176.087 153.473 176.477 153.305 177.023L151.55 176.483C151.79 175.649 152.246 174.986 152.918 174.494C153.596 174.002 154.496 173.756 155.618 173.756C156.488 173.756 157.244 173.906 157.886 174.206C158.534 174.5 159.008 174.968 159.308 175.61C159.464 175.928 159.56 176.264 159.596 176.618C159.632 176.972 159.65 177.353 159.65 177.761V183.746H157.985V181.523L158.309 181.811C157.907 182.555 157.394 183.11 156.77 183.476C156.152 183.836 155.39 184.016 154.484 184.016ZM154.817 182.477C155.351 182.477 155.81 182.384 156.194 182.198C156.578 182.006 156.887 181.763 157.121 181.469C157.355 181.175 157.508 180.869 157.58 180.551C157.682 180.263 157.739 179.939 157.751 179.579C157.769 179.219 157.778 178.931 157.778 178.715L158.39 178.94C157.796 179.03 157.256 179.111 156.77 179.183C156.284 179.255 155.843 179.327 155.447 179.399C155.057 179.465 154.709 179.546 154.403 179.642C154.145 179.732 153.914 179.84 153.71 179.966C153.512 180.092 153.353 180.245 153.233 180.425C153.119 180.605 153.062 180.824 153.062 181.082C153.062 181.334 153.125 181.568 153.251 181.784C153.377 181.994 153.569 182.162 153.827 182.288C154.085 182.414 154.415 182.477 154.817 182.477ZM164.87 185.906V182.234C165.404 182.234 165.785 182.057 166.013 181.703C166.247 181.343 166.433 180.734 166.571 179.876C166.655 179.354 166.724 178.799 166.778 178.211C166.838 177.623 166.889 176.987 166.931 176.303C166.973 175.613 167.015 174.854 167.057 174.026H174.023V182.234H174.977V185.906H173.195V183.746H166.661V185.906H164.87ZM167.561 182.234H172.133V175.538H168.731C168.707 175.934 168.68 176.342 168.65 176.762C168.626 177.182 168.596 177.599 168.56 178.013C168.53 178.427 168.494 178.823 168.452 179.201C168.41 179.579 168.362 179.921 168.308 180.227C168.236 180.701 168.149 181.097 168.047 181.415C167.951 181.733 167.789 182.006 167.561 182.234ZM180.991 184.016C180.019 184.016 179.176 183.797 178.462 183.359C177.748 182.921 177.196 182.318 176.806 181.55C176.422 180.776 176.23 179.885 176.23 178.877C176.23 177.863 176.428 176.972 176.824 176.204C177.22 175.43 177.775 174.83 178.489 174.404C179.203 173.972 180.037 173.756 180.991 173.756C181.963 173.756 182.806 173.975 183.52 174.413C184.234 174.851 184.786 175.454 185.176 176.222C185.566 176.99 185.761 177.875 185.761 178.877C185.761 179.891 185.563 180.785 185.167 181.559C184.777 182.327 184.225 182.93 183.511 183.368C182.797 183.8 181.957 184.016 180.991 184.016ZM180.991 182.243C181.921 182.243 182.614 181.931 183.07 181.307C183.532 180.677 183.763 179.867 183.763 178.877C183.763 177.863 183.529 177.053 183.061 176.447C182.599 175.835 181.909 175.529 180.991 175.529C180.361 175.529 179.842 175.673 179.434 175.961C179.026 176.243 178.723 176.636 178.525 177.14C178.327 177.638 178.228 178.217 178.228 178.877C178.228 179.897 178.462 180.713 178.93 181.325C179.398 181.937 180.085 182.243 180.991 182.243ZM187.73 183.746L187.739 174.026H189.647V178.706L193.463 174.026H195.857L191.825 178.886L196.271 183.746H193.715L189.647 179.066V183.746H187.73ZM198.492 188.066L200.373 182.945L200.4 184.457L196.161 174.026H198.123L201.291 182.081H200.715L203.739 174.026H205.647L200.283 188.066H198.492ZM207.048 183.746V174.026H208.623L212.214 181.154L215.796 174.026H217.38V183.746H215.562V177.878L212.637 183.746H211.782L208.857 177.878V183.746H207.048ZM224.217 184.016C223.251 184.016 222.402 183.806 221.67 183.386C220.944 182.96 220.377 182.369 219.969 181.613C219.567 180.851 219.366 179.969 219.366 178.967C219.366 177.905 219.564 176.984 219.96 176.204C220.362 175.424 220.92 174.821 221.634 174.395C222.348 173.969 223.179 173.756 224.127 173.756C225.117 173.756 225.96 173.987 226.656 174.449C227.352 174.905 227.871 175.556 228.213 176.402C228.561 177.248 228.699 178.253 228.627 179.417H226.746V178.733C226.734 177.605 226.518 176.771 226.098 176.231C225.684 175.691 225.051 175.421 224.199 175.421C223.257 175.421 222.549 175.718 222.075 176.312C221.601 176.906 221.364 177.764 221.364 178.886C221.364 179.954 221.601 180.782 222.075 181.37C222.549 181.952 223.233 182.243 224.127 182.243C224.715 182.243 225.222 182.111 225.648 181.847C226.08 181.577 226.416 181.193 226.656 180.695L228.501 181.28C228.123 182.15 227.55 182.825 226.782 183.305C226.014 183.779 225.159 184.016 224.217 184.016ZM220.752 179.417V177.95H227.691V179.417H220.752ZM230.638 183.746V174.026H232.519V177.995H237.262V174.026H239.143V183.746H237.262V179.768H232.519V183.746H230.638ZM244.179 183.746V175.718H240.858V174.026H249.381V175.718H246.06V183.746H244.179ZM253.554 184.016C252.834 184.016 252.231 183.884 251.745 183.62C251.259 183.35 250.89 182.996 250.638 182.558C250.392 182.114 250.269 181.628 250.269 181.1C250.269 180.608 250.356 180.176 250.53 179.804C250.704 179.432 250.962 179.117 251.304 178.859C251.646 178.595 252.066 178.382 252.564 178.22C252.996 178.094 253.485 177.983 254.031 177.887C254.577 177.791 255.15 177.701 255.75 177.617C256.356 177.533 256.956 177.449 257.55 177.365L256.866 177.743C256.878 176.981 256.716 176.417 256.38 176.051C256.05 175.679 255.48 175.493 254.67 175.493C254.16 175.493 253.692 175.613 253.266 175.853C252.84 176.087 252.543 176.477 252.375 177.023L250.62 176.483C250.86 175.649 251.316 174.986 251.988 174.494C252.666 174.002 253.566 173.756 254.688 173.756C255.558 173.756 256.314 173.906 256.956 174.206C257.604 174.5 258.078 174.968 258.378 175.61C258.534 175.928 258.63 176.264 258.666 176.618C258.702 176.972 258.72 177.353 258.72 177.761V183.746H257.055V181.523L257.379 181.811C256.977 182.555 256.464 183.11 255.84 183.476C255.222 183.836 254.46 184.016 253.554 184.016ZM253.887 182.477C254.421 182.477 254.88 182.384 255.264 182.198C255.648 182.006 255.957 181.763 256.191 181.469C256.425 181.175 256.578 180.869 256.65 180.551C256.752 180.263 256.809 179.939 256.821 179.579C256.839 179.219 256.848 178.931 256.848 178.715L257.46 178.94C256.866 179.03 256.326 179.111 255.84 179.183C255.354 179.255 254.913 179.327 254.517 179.399C254.127 179.465 253.779 179.546 253.473 179.642C253.215 179.732 252.984 179.84 252.78 179.966C252.582 180.092 252.423 180.245 252.303 180.425C252.189 180.605 252.132 180.824 252.132 181.082C252.132 181.334 252.195 181.568 252.321 181.784C252.447 181.994 252.639 182.162 252.897 182.288C253.155 182.414 253.485 182.477 253.887 182.477Z" fill="#F6F9F6"/>
<path d="M100.603 244.16V240.227C101.047 240.227 101.413 240.116 101.701 239.894C101.989 239.666 102.217 239.357 102.385 238.967C102.559 238.571 102.691 238.121 102.781 237.617C102.877 237.113 102.949 236.582 102.997 236.024C103.069 235.268 103.129 234.53 103.177 233.81C103.231 233.084 103.279 232.334 103.321 231.56C103.369 230.786 103.42 229.943 103.474 229.031L111.772 229.04V240.227H112.735V244.16H110.845V242H102.484V244.16H100.603ZM103.69 240.227H109.891V230.813L105.211 230.804C105.169 231.464 105.133 232.091 105.103 232.685C105.073 233.279 105.034 233.879 104.986 234.485C104.944 235.085 104.89 235.73 104.824 236.42C104.758 237.08 104.689 237.641 104.617 238.103C104.545 238.559 104.437 238.955 104.293 239.291C104.155 239.627 103.954 239.939 103.69 240.227ZM118.928 242.27C117.956 242.27 117.113 242.051 116.399 241.613C115.685 241.175 115.133 240.572 114.743 239.804C114.359 239.03 114.167 238.139 114.167 237.131C114.167 236.117 114.365 235.226 114.761 234.458C115.157 233.684 115.712 233.084 116.426 232.658C117.14 232.226 117.974 232.01 118.928 232.01C119.9 232.01 120.743 232.229 121.457 232.667C122.171 233.105 122.723 233.708 123.113 234.476C123.503 235.244 123.698 236.129 123.698 237.131C123.698 238.145 123.5 239.039 123.104 239.813C122.714 240.581 122.162 241.184 121.448 241.622C120.734 242.054 119.894 242.27 118.928 242.27ZM118.928 240.497C119.858 240.497 120.551 240.185 121.007 239.561C121.469 238.931 121.7 238.121 121.7 237.131C121.7 236.117 121.466 235.307 120.998 234.701C120.536 234.089 119.846 233.783 118.928 233.783C118.298 233.783 117.779 233.927 117.371 234.215C116.963 234.497 116.66 234.89 116.462 235.394C116.264 235.892 116.165 236.471 116.165 237.131C116.165 238.151 116.399 238.967 116.867 239.579C117.335 240.191 118.022 240.497 118.928 240.497ZM129.834 242.27C128.838 242.27 127.992 242.048 127.296 241.604C126.6 241.16 126.066 240.551 125.694 239.777C125.328 239.003 125.142 238.124 125.136 237.14C125.142 236.138 125.334 235.253 125.712 234.485C126.09 233.711 126.63 233.105 127.332 232.667C128.034 232.229 128.877 232.01 129.861 232.01C130.923 232.01 131.829 232.274 132.579 232.802C133.335 233.33 133.833 234.053 134.073 234.971L132.201 235.511C132.015 234.965 131.709 234.542 131.283 234.242C130.863 233.936 130.38 233.783 129.834 233.783C129.216 233.783 128.709 233.93 128.313 234.224C127.917 234.512 127.623 234.908 127.431 235.412C127.239 235.916 127.14 236.492 127.134 237.14C127.14 238.142 127.368 238.952 127.818 239.57C128.274 240.188 128.946 240.497 129.834 240.497C130.44 240.497 130.929 240.359 131.301 240.083C131.679 239.801 131.967 239.399 132.165 238.877L134.073 239.327C133.755 240.275 133.23 241.004 132.498 241.514C131.766 242.018 130.878 242.27 129.834 242.27ZM138.312 242V233.972H134.991V232.28H143.514V233.972H140.193V242H138.312ZM147.687 242.27C146.967 242.27 146.364 242.138 145.878 241.874C145.392 241.604 145.023 241.25 144.771 240.812C144.525 240.368 144.402 239.882 144.402 239.354C144.402 238.862 144.489 238.43 144.663 238.058C144.837 237.686 145.095 237.371 145.437 237.113C145.779 236.849 146.199 236.636 146.697 236.474C147.129 236.348 147.618 236.237 148.164 236.141C148.71 236.045 149.283 235.955 149.883 235.871C150.489 235.787 151.089 235.703 151.683 235.619L150.999 235.997C151.011 235.235 150.849 234.671 150.513 234.305C150.183 233.933 149.613 233.747 148.803 233.747C148.293 233.747 147.825 233.867 147.399 234.107C146.973 234.341 146.676 234.731 146.508 235.277L144.753 234.737C144.993 233.903 145.449 233.24 146.121 232.748C146.799 232.256 147.699 232.01 148.821 232.01C149.691 232.01 150.447 232.16 151.089 232.46C151.737 232.754 152.211 233.222 152.511 233.864C152.667 234.182 152.763 234.518 152.799 234.872C152.835 235.226 152.853 235.607 152.853 236.015V242H151.188V239.777L151.512 240.065C151.11 240.809 150.597 241.364 149.973 241.73C149.355 242.09 148.593 242.27 147.687 242.27ZM148.02 240.731C148.554 240.731 149.013 240.638 149.397 240.452C149.781 240.26 150.09 240.017 150.324 239.723C150.558 239.429 150.711 239.123 150.783 238.805C150.885 238.517 150.942 238.193 150.954 237.833C150.972 237.473 150.981 237.185 150.981 236.969L151.593 237.194C150.999 237.284 150.459 237.365 149.973 237.437C149.487 237.509 149.046 237.581 148.65 237.653C148.26 237.719 147.912 237.8 147.606 237.896C147.348 237.986 147.117 238.094 146.913 238.22C146.715 238.346 146.556 238.499 146.436 238.679C146.322 238.859 146.265 239.078 146.265 239.336C146.265 239.588 146.328 239.822 146.454 240.038C146.58 240.248 146.772 240.416 147.03 240.542C147.288 240.668 147.618 240.731 148.02 240.731ZM155.181 242V232.28H159.456C159.738 232.28 160.02 232.298 160.302 232.334C160.584 232.364 160.833 232.409 161.049 232.469C161.541 232.607 161.961 232.883 162.309 233.297C162.657 233.705 162.831 234.251 162.831 234.935C162.831 235.325 162.771 235.655 162.651 235.925C162.531 236.189 162.366 236.417 162.156 236.609C162.06 236.693 161.958 236.768 161.85 236.834C161.742 236.9 161.634 236.951 161.526 236.987C161.748 237.023 161.967 237.101 162.183 237.221C162.513 237.395 162.783 237.647 162.993 237.977C163.209 238.301 163.317 238.736 163.317 239.282C163.317 239.936 163.158 240.485 162.84 240.929C162.522 241.367 162.072 241.667 161.49 241.829C161.262 241.895 161.004 241.94 160.716 241.964C160.434 241.988 160.152 242 159.87 242H155.181ZM157.089 240.515H159.753C159.879 240.515 160.023 240.503 160.185 240.479C160.347 240.455 160.491 240.422 160.617 240.38C160.887 240.296 161.079 240.143 161.193 239.921C161.313 239.699 161.373 239.462 161.373 239.21C161.373 238.868 161.283 238.595 161.103 238.391C160.923 238.181 160.695 238.046 160.419 237.986C160.299 237.944 160.167 237.92 160.023 237.914C159.879 237.908 159.756 237.905 159.654 237.905H157.089V240.515ZM157.089 236.393H159.195C159.369 236.393 159.546 236.384 159.726 236.366C159.906 236.342 160.062 236.303 160.194 236.249C160.428 236.159 160.602 236.009 160.716 235.799C160.83 235.583 160.887 235.349 160.887 235.097C160.887 234.821 160.824 234.575 160.698 234.359C160.572 234.143 160.383 233.993 160.131 233.909C159.957 233.849 159.756 233.816 159.528 233.81C159.306 233.798 159.165 233.792 159.105 233.792H157.089V236.393ZM165.112 242L165.121 232.28H167.029V236.96L170.845 232.28H173.239L169.207 237.14L173.653 242H171.097L167.029 237.32V242H165.112ZM177.306 242.27C176.586 242.27 175.983 242.138 175.497 241.874C175.011 241.604 174.642 241.25 174.39 240.812C174.144 240.368 174.021 239.882 174.021 239.354C174.021 238.862 174.108 238.43 174.282 238.058C174.456 237.686 174.714 237.371 175.056 237.113C175.398 236.849 175.818 236.636 176.316 236.474C176.748 236.348 177.237 236.237 177.783 236.141C178.329 236.045 178.902 235.955 179.502 235.871C180.108 235.787 180.708 235.703 181.302 235.619L180.618 235.997C180.63 235.235 180.468 234.671 180.132 234.305C179.802 233.933 179.232 233.747 178.422 233.747C177.912 233.747 177.444 233.867 177.018 234.107C176.592 234.341 176.295 234.731 176.127 235.277L174.372 234.737C174.612 233.903 175.068 233.24 175.74 232.748C176.418 232.256 177.318 232.01 178.44 232.01C179.31 232.01 180.066 232.16 180.708 232.46C181.356 232.754 181.83 233.222 182.13 233.864C182.286 234.182 182.382 234.518 182.418 234.872C182.454 235.226 182.472 235.607 182.472 236.015V242H180.807V239.777L181.131 240.065C180.729 240.809 180.216 241.364 179.592 241.73C178.974 242.09 178.212 242.27 177.306 242.27ZM177.639 240.731C178.173 240.731 178.632 240.638 179.016 240.452C179.4 240.26 179.709 240.017 179.943 239.723C180.177 239.429 180.33 239.123 180.402 238.805C180.504 238.517 180.561 238.193 180.573 237.833C180.591 237.473 180.6 237.185 180.6 236.969L181.212 237.194C180.618 237.284 180.078 237.365 179.592 237.437C179.106 237.509 178.665 237.581 178.269 237.653C177.879 237.719 177.531 237.8 177.225 237.896C176.967 237.986 176.736 238.094 176.532 238.22C176.334 238.346 176.175 238.499 176.055 238.679C175.941 238.859 175.884 239.078 175.884 239.336C175.884 239.588 175.947 239.822 176.073 240.038C176.199 240.248 176.391 240.416 176.649 240.542C176.907 240.668 177.237 240.731 177.639 240.731ZM188.403 242V232.28H192.678C192.96 232.28 193.242 232.298 193.524 232.334C193.806 232.364 194.055 232.409 194.271 232.469C194.763 232.607 195.183 232.883 195.531 233.297C195.879 233.705 196.053 234.251 196.053 234.935C196.053 235.325 195.993 235.655 195.873 235.925C195.753 236.189 195.588 236.417 195.378 236.609C195.282 236.693 195.18 236.768 195.072 236.834C194.964 236.9 194.856 236.951 194.748 236.987C194.97 237.023 195.189 237.101 195.405 237.221C195.735 237.395 196.005 237.647 196.215 237.977C196.431 238.301 196.539 238.736 196.539 239.282C196.539 239.936 196.38 240.485 196.062 240.929C195.744 241.367 195.294 241.667 194.712 241.829C194.484 241.895 194.226 241.94 193.938 241.964C193.656 241.988 193.374 242 193.092 242H188.403ZM190.311 240.515H192.975C193.101 240.515 193.245 240.503 193.407 240.479C193.569 240.455 193.713 240.422 193.839 240.38C194.109 240.296 194.301 240.143 194.415 239.921C194.535 239.699 194.595 239.462 194.595 239.21C194.595 238.868 194.505 238.595 194.325 238.391C194.145 238.181 193.917 238.046 193.641 237.986C193.521 237.944 193.389 237.92 193.245 237.914C193.101 237.908 192.978 237.905 192.876 237.905H190.311V240.515ZM190.311 236.393H192.417C192.591 236.393 192.768 236.384 192.948 236.366C193.128 236.342 193.284 236.303 193.416 236.249C193.65 236.159 193.824 236.009 193.938 235.799C194.052 235.583 194.109 235.349 194.109 235.097C194.109 234.821 194.046 234.575 193.92 234.359C193.794 234.143 193.605 233.993 193.353 233.909C193.179 233.849 192.978 233.816 192.75 233.81C192.528 233.798 192.387 233.792 192.327 233.792H190.311V236.393ZM206.511 242.27C205.581 242.27 204.801 242.045 204.171 241.595C203.541 241.139 203.064 240.524 202.74 239.75C202.416 238.976 202.254 238.103 202.254 237.131C202.254 236.159 202.413 235.286 202.731 234.512C203.055 233.738 203.529 233.129 204.153 232.685C204.783 232.235 205.557 232.01 206.475 232.01C207.387 232.01 208.173 232.235 208.833 232.685C209.499 233.129 210.012 233.738 210.372 234.512C210.732 235.28 210.912 236.153 210.912 237.131C210.912 238.103 210.732 238.979 210.372 239.759C210.018 240.533 209.511 241.145 208.851 241.595C208.197 242.045 207.417 242.27 206.511 242.27ZM201.939 246.32V232.28H203.613V239.273H203.829V246.32H201.939ZM206.25 240.569C206.85 240.569 207.345 240.416 207.735 240.11C208.131 239.804 208.425 239.393 208.617 238.877C208.815 238.355 208.914 237.773 208.914 237.131C208.914 236.495 208.815 235.919 208.617 235.403C208.425 234.887 208.128 234.476 207.726 234.17C207.324 233.864 206.811 233.711 206.187 233.711C205.599 233.711 205.113 233.855 204.729 234.143C204.351 234.431 204.069 234.833 203.883 235.349C203.703 235.865 203.613 236.459 203.613 237.131C203.613 237.803 203.703 238.397 203.883 238.913C204.063 239.429 204.348 239.834 204.738 240.128C205.128 240.422 205.632 240.569 206.25 240.569ZM213.861 246.32L215.742 241.199L215.769 242.711L211.53 232.28H213.492L216.66 240.335H216.084L219.108 232.28H221.016L215.652 246.32H213.861ZM222.417 242L222.426 232.28H224.334V236.96L228.15 232.28H230.544L226.512 237.14L230.958 242H228.402L224.334 237.32V242H222.417ZM240.055 232.28V242H238.246V235.241L233.386 242H231.856V232.28H233.665V238.904L238.534 232.28H240.055ZM250.755 245.357C250.059 244.547 249.459 243.632 248.955 242.612C248.451 241.598 248.067 240.533 247.803 239.417C247.539 238.295 247.416 237.176 247.434 236.06C247.416 234.944 247.539 233.828 247.803 232.712C248.067 231.59 248.451 230.522 248.955 229.508C249.459 228.488 250.059 227.573 250.755 226.763L252.159 227.807C251.439 228.659 250.86 229.535 250.422 230.435C249.984 231.329 249.663 232.247 249.459 233.189C249.255 234.125 249.153 235.082 249.153 236.06C249.153 237.032 249.255 237.989 249.459 238.931C249.663 239.873 249.984 240.794 250.422 241.694C250.866 242.594 251.445 243.467 252.159 244.313L250.755 245.357ZM252.731 244.16V240.488C253.265 240.488 253.646 240.311 253.874 239.957C254.108 239.597 254.294 238.988 254.432 238.13C254.516 237.608 254.585 237.053 254.639 236.465C254.699 235.877 254.75 235.241 254.792 234.557C254.834 233.867 254.876 233.108 254.918 232.28H261.884V240.488H262.838V244.16H261.056V242H254.522V244.16H252.731ZM255.422 240.488H259.994V233.792H256.592C256.568 234.188 256.541 234.596 256.511 235.016C256.487 235.436 256.457 235.853 256.421 236.267C256.391 236.681 256.355 237.077 256.313 237.455C256.271 237.833 256.223 238.175 256.169 238.481C256.097 238.955 256.01 239.351 255.908 239.669C255.812 239.987 255.65 240.26 255.422 240.488ZM263.731 242V240.407C264.091 240.473 264.364 240.464 264.55 240.38C264.742 240.29 264.883 240.128 264.973 239.894C265.069 239.66 265.15 239.357 265.216 238.985C265.318 238.439 265.405 237.818 265.477 237.122C265.555 236.42 265.624 235.661 265.684 234.845C265.744 234.029 265.798 233.174 265.846 232.28H272.83V242H270.94V234.053H267.538C267.502 234.527 267.46 235.031 267.412 235.565C267.37 236.093 267.322 236.618 267.268 237.14C267.214 237.662 267.157 238.151 267.097 238.607C267.037 239.063 266.974 239.453 266.908 239.777C266.788 240.425 266.611 240.941 266.377 241.325C266.149 241.703 265.825 241.946 265.405 242.054C264.985 242.168 264.427 242.15 263.731 242ZM281.267 242V238.625H279.341C279.113 238.625 278.84 238.616 278.522 238.598C278.21 238.58 277.916 238.547 277.64 238.499C276.914 238.367 276.308 238.052 275.822 237.554C275.336 237.05 275.093 236.357 275.093 235.475C275.093 234.623 275.321 233.939 275.777 233.423C276.239 232.901 276.824 232.565 277.532 232.415C277.838 232.343 278.15 232.304 278.468 232.298C278.792 232.286 279.065 232.28 279.287 232.28H283.148L283.157 242H281.267ZM274.814 242L277.271 238.157H279.26L276.821 242H274.814ZM279.179 237.113H281.267V233.792H279.179C279.047 233.792 278.885 233.798 278.693 233.81C278.501 233.822 278.315 233.855 278.135 233.909C277.949 233.963 277.769 234.059 277.595 234.197C277.427 234.335 277.289 234.512 277.181 234.728C277.073 234.938 277.019 235.181 277.019 235.457C277.019 235.871 277.136 236.213 277.37 236.483C277.604 236.747 277.883 236.921 278.207 237.005C278.381 237.053 278.555 237.083 278.729 237.095C278.903 237.107 279.053 237.113 279.179 237.113ZM293.641 242V240.191C292.975 240.305 292.336 240.278 291.724 240.11C291.118 239.942 290.575 239.642 290.095 239.21C289.621 238.778 289.246 238.22 288.97 237.536C288.694 236.852 288.556 236.054 288.556 235.142C288.556 234.224 288.694 233.423 288.97 232.739C289.246 232.049 289.621 231.485 290.095 231.047C290.575 230.609 291.118 230.303 291.724 230.129C292.336 229.949 292.975 229.916 293.641 230.03V229.04H295.513V230.03C296.179 229.916 296.815 229.949 297.421 230.129C298.033 230.303 298.576 230.609 299.05 231.047C299.53 231.485 299.908 232.049 300.184 232.739C300.466 233.423 300.607 234.224 300.607 235.142C300.607 236.054 300.466 236.852 300.184 237.536C299.908 238.22 299.53 238.778 299.05 239.21C298.576 239.642 298.033 239.942 297.421 240.11C296.815 240.278 296.179 240.305 295.513 240.191V242H293.641ZM293.641 238.445V231.749C293.101 231.665 292.63 231.701 292.228 231.857C291.832 232.013 291.505 232.256 291.247 232.586C290.989 232.91 290.797 233.294 290.671 233.738C290.545 234.176 290.482 234.644 290.482 235.142C290.482 235.634 290.545 236.099 290.671 236.537C290.797 236.969 290.989 237.344 291.247 237.662C291.505 237.974 291.832 238.202 292.228 238.346C292.63 238.49 293.101 238.523 293.641 238.445ZM295.513 238.445C296.053 238.523 296.521 238.49 296.917 238.346C297.313 238.202 297.64 237.974 297.898 237.662C298.162 237.35 298.357 236.981 298.483 236.555C298.615 236.123 298.681 235.667 298.681 235.187C298.681 234.707 298.615 234.245 298.483 233.801C298.357 233.357 298.162 232.967 297.898 232.631C297.64 232.289 297.313 232.037 296.917 231.875C296.521 231.707 296.053 231.665 295.513 231.749V238.445ZM301.155 242V240.389C301.461 240.419 301.713 240.404 301.911 240.344C302.115 240.278 302.286 240.152 302.424 239.966C302.562 239.774 302.679 239.498 302.775 239.138C302.877 238.778 302.976 238.313 303.072 237.743C303.204 237.017 303.315 236.27 303.405 235.502C303.495 234.734 303.57 233.972 303.63 233.216C303.696 232.454 303.75 231.719 303.792 231.011C303.834 230.303 303.867 229.646 303.891 229.04H312.396V242H310.515V230.813H305.655C305.625 231.293 305.589 231.83 305.547 232.424C305.505 233.018 305.454 233.648 305.394 234.314C305.334 234.98 305.259 235.667 305.169 236.375C305.085 237.083 304.977 237.794 304.845 238.508C304.737 239.12 304.605 239.672 304.449 240.164C304.293 240.656 304.083 241.067 303.819 241.397C303.555 241.721 303.21 241.937 302.784 242.045C302.358 242.159 301.815 242.144 301.155 242ZM109.45 252.28V262H107.641V255.241L102.781 262H101.251V252.28H103.06V258.904L107.929 252.28H109.45ZM115.56 262V252.28H123.759V262H121.878V254.053H117.441V262H115.56ZM130.837 262.27C129.907 262.27 129.127 262.045 128.497 261.595C127.867 261.139 127.39 260.524 127.066 259.75C126.742 258.976 126.58 258.103 126.58 257.131C126.58 256.159 126.739 255.286 127.057 254.512C127.381 253.738 127.855 253.129 128.479 252.685C129.109 252.235 129.883 252.01 130.801 252.01C131.713 252.01 132.499 252.235 133.159 252.685C133.825 253.129 134.338 253.738 134.698 254.512C135.058 255.28 135.238 256.153 135.238 257.131C135.238 258.103 135.058 258.979 134.698 259.759C134.344 260.533 133.837 261.145 133.177 261.595C132.523 262.045 131.743 262.27 130.837 262.27ZM126.265 266.32V252.28H127.939V259.273H128.155V266.32H126.265ZM130.576 260.569C131.176 260.569 131.671 260.416 132.061 260.11C132.457 259.804 132.751 259.393 132.943 258.877C133.141 258.355 133.24 257.773 133.24 257.131C133.24 256.495 133.141 255.919 132.943 255.403C132.751 254.887 132.454 254.476 132.052 254.17C131.65 253.864 131.137 253.711 130.513 253.711C129.925 253.711 129.439 253.855 129.055 254.143C128.677 254.431 128.395 254.833 128.209 255.349C128.029 255.865 127.939 256.459 127.939 257.131C127.939 257.803 128.029 258.397 128.209 258.913C128.389 259.429 128.674 259.834 129.064 260.128C129.454 260.422 129.958 260.569 130.576 260.569ZM141.536 262.27C140.57 262.27 139.721 262.06 138.989 261.64C138.263 261.214 137.696 260.623 137.288 259.867C136.886 259.105 136.685 258.223 136.685 257.221C136.685 256.159 136.883 255.238 137.279 254.458C137.681 253.678 138.239 253.075 138.953 252.649C139.667 252.223 140.498 252.01 141.446 252.01C142.436 252.01 143.279 252.241 143.975 252.703C144.671 253.159 145.19 253.81 145.532 254.656C145.88 255.502 146.018 256.507 145.946 257.671H144.065V256.987C144.053 255.859 143.837 255.025 143.417 254.485C143.003 253.945 142.37 253.675 141.518 253.675C140.576 253.675 139.868 253.972 139.394 254.566C138.92 255.16 138.683 256.018 138.683 257.14C138.683 258.208 138.92 259.036 139.394 259.624C139.868 260.206 140.552 260.497 141.446 260.497C142.034 260.497 142.541 260.365 142.967 260.101C143.399 259.831 143.735 259.447 143.975 258.949L145.82 259.534C145.442 260.404 144.869 261.079 144.101 261.559C143.333 262.033 142.478 262.27 141.536 262.27ZM138.071 257.671V256.204H145.01V257.671H138.071ZM147.245 264.16V260.488C147.779 260.488 148.16 260.311 148.388 259.957C148.622 259.597 148.808 258.988 148.946 258.13C149.03 257.608 149.099 257.053 149.153 256.465C149.213 255.877 149.264 255.241 149.306 254.557C149.348 253.867 149.39 253.108 149.432 252.28H156.398V260.488H157.352V264.16H155.57V262H149.036V264.16H147.245ZM149.936 260.488H154.508V253.792H151.106C151.082 254.188 151.055 254.596 151.025 255.016C151.001 255.436 150.971 255.853 150.935 256.267C150.905 256.681 150.869 257.077 150.827 257.455C150.785 257.833 150.737 258.175 150.683 258.481C150.611 258.955 150.524 259.351 150.422 259.669C150.326 259.987 150.164 260.26 149.936 260.488ZM163.303 262.27C162.307 262.27 161.461 262.048 160.765 261.604C160.069 261.16 159.535 260.551 159.163 259.777C158.797 259.003 158.611 258.124 158.605 257.14C158.611 256.138 158.803 255.253 159.181 254.485C159.559 253.711 160.099 253.105 160.801 252.667C161.503 252.229 162.346 252.01 163.33 252.01C164.392 252.01 165.298 252.274 166.048 252.802C166.804 253.33 167.302 254.053 167.542 254.971L165.67 255.511C165.484 254.965 165.178 254.542 164.752 254.242C164.332 253.936 163.849 253.783 163.303 253.783C162.685 253.783 162.178 253.93 161.782 254.224C161.386 254.512 161.092 254.908 160.9 255.412C160.708 255.916 160.609 256.492 160.603 257.14C160.609 258.142 160.837 258.952 161.287 259.57C161.743 260.188 162.415 260.497 163.303 260.497C163.909 260.497 164.398 260.359 164.77 260.083C165.148 259.801 165.436 259.399 165.634 258.877L167.542 259.327C167.224 260.275 166.699 261.004 165.967 261.514C165.235 262.018 164.347 262.27 163.303 262.27ZM171.781 262V253.972H168.46V252.28H176.983V253.972H173.662V262H171.781ZM181.155 262.27C180.435 262.27 179.832 262.138 179.346 261.874C178.86 261.604 178.491 261.25 178.239 260.812C177.993 260.368 177.87 259.882 177.87 259.354C177.87 258.862 177.957 258.43 178.131 258.058C178.305 257.686 178.563 257.371 178.905 257.113C179.247 256.849 179.667 256.636 180.165 256.474C180.597 256.348 181.086 256.237 181.632 256.141C182.178 256.045 182.751 255.955 183.351 255.871C183.957 255.787 184.557 255.703 185.151 255.619L184.467 255.997C184.479 255.235 184.317 254.671 183.981 254.305C183.651 253.933 183.081 253.747 182.271 253.747C181.761 253.747 181.293 253.867 180.867 254.107C180.441 254.341 180.144 254.731 179.976 255.277L178.221 254.737C178.461 253.903 178.917 253.24 179.589 252.748C180.267 252.256 181.167 252.01 182.289 252.01C183.159 252.01 183.915 252.16 184.557 252.46C185.205 252.754 185.679 253.222 185.979 253.864C186.135 254.182 186.231 254.518 186.267 254.872C186.303 255.226 186.321 255.607 186.321 256.015V262H184.656V259.777L184.98 260.065C184.578 260.809 184.065 261.364 183.441 261.73C182.823 262.09 182.061 262.27 181.155 262.27ZM181.488 260.731C182.022 260.731 182.481 260.638 182.865 260.452C183.249 260.26 183.558 260.017 183.792 259.723C184.026 259.429 184.179 259.123 184.251 258.805C184.353 258.517 184.41 258.193 184.422 257.833C184.44 257.473 184.449 257.185 184.449 256.969L185.061 257.194C184.467 257.284 183.927 257.365 183.441 257.437C182.955 257.509 182.514 257.581 182.118 257.653C181.728 257.719 181.38 257.8 181.074 257.896C180.816 257.986 180.585 258.094 180.381 258.22C180.183 258.346 180.024 258.499 179.904 258.679C179.79 258.859 179.733 259.078 179.733 259.336C179.733 259.588 179.796 259.822 179.922 260.038C180.048 260.248 180.24 260.416 180.498 260.542C180.756 260.668 181.086 260.731 181.488 260.731ZM188.649 262V252.28H192.924C193.206 252.28 193.488 252.298 193.77 252.334C194.052 252.364 194.301 252.409 194.517 252.469C195.009 252.607 195.429 252.883 195.777 253.297C196.125 253.705 196.299 254.251 196.299 254.935C196.299 255.325 196.239 255.655 196.119 255.925C195.999 256.189 195.834 256.417 195.624 256.609C195.528 256.693 195.426 256.768 195.318 256.834C195.21 256.9 195.102 256.951 194.994 256.987C195.216 257.023 195.435 257.101 195.651 257.221C195.981 257.395 196.251 257.647 196.461 257.977C196.677 258.301 196.785 258.736 196.785 259.282C196.785 259.936 196.626 260.485 196.308 260.929C195.99 261.367 195.54 261.667 194.958 261.829C194.73 261.895 194.472 261.94 194.184 261.964C193.902 261.988 193.62 262 193.338 262H188.649ZM190.557 260.515H193.221C193.347 260.515 193.491 260.503 193.653 260.479C193.815 260.455 193.959 260.422 194.085 260.38C194.355 260.296 194.547 260.143 194.661 259.921C194.781 259.699 194.841 259.462 194.841 259.21C194.841 258.868 194.751 258.595 194.571 258.391C194.391 258.181 194.163 258.046 193.887 257.986C193.767 257.944 193.635 257.92 193.491 257.914C193.347 257.908 193.224 257.905 193.122 257.905H190.557V260.515ZM190.557 256.393H192.663C192.837 256.393 193.014 256.384 193.194 256.366C193.374 256.342 193.53 256.303 193.662 256.249C193.896 256.159 194.07 256.009 194.184 255.799C194.298 255.583 194.355 255.349 194.355 255.097C194.355 254.821 194.292 254.575 194.166 254.359C194.04 254.143 193.851 253.993 193.599 253.909C193.425 253.849 193.224 253.816 192.996 253.81C192.774 253.798 192.633 253.792 192.573 253.792H190.557V256.393ZM206.78 252.28V262H204.971V255.241L200.111 262H198.581V252.28H200.39V258.904L205.259 252.28H206.78ZM211.806 262V253.972H208.485V252.28H217.008V253.972H213.687V262H211.806ZM223.028 262.27C222.062 262.27 221.213 262.06 220.481 261.64C219.755 261.214 219.188 260.623 218.78 259.867C218.378 259.105 218.177 258.223 218.177 257.221C218.177 256.159 218.375 255.238 218.771 254.458C219.173 253.678 219.731 253.075 220.445 252.649C221.159 252.223 221.99 252.01 222.938 252.01C223.928 252.01 224.771 252.241 225.467 252.703C226.163 253.159 226.682 253.81 227.024 254.656C227.372 255.502 227.51 256.507 227.438 257.671H225.557V256.987C225.545 255.859 225.329 255.025 224.909 254.485C224.495 253.945 223.862 253.675 223.01 253.675C222.068 253.675 221.36 253.972 220.886 254.566C220.412 255.16 220.175 256.018 220.175 257.14C220.175 258.208 220.412 259.036 220.886 259.624C221.36 260.206 222.044 260.497 222.938 260.497C223.526 260.497 224.033 260.365 224.459 260.101C224.891 259.831 225.227 259.447 225.467 258.949L227.312 259.534C226.934 260.404 226.361 261.079 225.593 261.559C224.825 262.033 223.97 262.27 223.028 262.27ZM219.563 257.671V256.204H226.502V257.671H219.563ZM228.557 262V260.407C228.917 260.473 229.19 260.464 229.376 260.38C229.568 260.29 229.709 260.128 229.799 259.894C229.895 259.66 229.976 259.357 230.042 258.985C230.144 258.439 230.231 257.818 230.303 257.122C230.381 256.42 230.45 255.661 230.51 254.845C230.57 254.029 230.624 253.174 230.672 252.28H237.656V262H235.766V254.053H232.364C232.328 254.527 232.286 255.031 232.238 255.565C232.196 256.093 232.148 256.618 232.094 257.14C232.04 257.662 231.983 258.151 231.923 258.607C231.863 259.063 231.8 259.453 231.734 259.777C231.614 260.425 231.437 260.941 231.203 261.325C230.975 261.703 230.651 261.946 230.231 262.054C229.811 262.168 229.253 262.15 228.557 262ZM244.491 262.27C243.525 262.27 242.676 262.06 241.944 261.64C241.218 261.214 240.651 260.623 240.243 259.867C239.841 259.105 239.64 258.223 239.64 257.221C239.64 256.159 239.838 255.238 240.234 254.458C240.636 253.678 241.194 253.075 241.908 252.649C242.622 252.223 243.453 252.01 244.401 252.01C245.391 252.01 246.234 252.241 246.93 252.703C247.626 253.159 248.145 253.81 248.487 254.656C248.835 255.502 248.973 256.507 248.901 257.671H247.02V256.987C247.008 255.859 246.792 255.025 246.372 254.485C245.958 253.945 245.325 253.675 244.473 253.675C243.531 253.675 242.823 253.972 242.349 254.566C241.875 255.16 241.638 256.018 241.638 257.14C241.638 258.208 241.875 259.036 242.349 259.624C242.823 260.206 243.507 260.497 244.401 260.497C244.989 260.497 245.496 260.365 245.922 260.101C246.354 259.831 246.69 259.447 246.93 258.949L248.775 259.534C248.397 260.404 247.824 261.079 247.056 261.559C246.288 262.033 245.433 262.27 244.491 262.27ZM241.026 257.671V256.204H247.965V257.671H241.026ZM255.258 251.164C254.784 251.164 254.349 251.047 253.953 250.813C253.563 250.579 253.251 250.267 253.017 249.877C252.783 249.487 252.666 249.052 252.666 248.572H254.16C254.16 248.872 254.268 249.13 254.484 249.346C254.7 249.562 254.958 249.67 255.258 249.67C255.564 249.67 255.822 249.562 256.032 249.346C256.248 249.13 256.356 248.872 256.356 248.572H257.85C257.85 249.052 257.733 249.487 257.499 249.877C257.265 250.267 256.95 250.579 256.554 250.813C256.164 251.047 255.732 251.164 255.258 251.164ZM259.11 252.28V262H257.301V255.241L252.441 262H250.911V252.28H252.72V258.904L257.589 252.28H259.11ZM265.229 262V249.04H267.11V254.575H269.954V256.465H267.11V262H265.229ZM274.922 262.27C274.058 262.27 273.293 262.105 272.627 261.775C271.961 261.445 271.4 260.98 270.944 260.38C270.488 259.774 270.14 259.06 269.9 258.238C269.666 257.41 269.549 256.504 269.549 255.52C269.549 254.53 269.666 253.624 269.9 252.802C270.14 251.98 270.488 251.269 270.944 250.669C271.4 250.063 271.961 249.598 272.627 249.274C273.293 248.944 274.058 248.779 274.922 248.779C275.78 248.779 276.542 248.944 277.208 249.274C277.874 249.598 278.435 250.063 278.891 250.669C279.347 251.269 279.692 251.98 279.926 252.802C280.166 253.624 280.286 254.53 280.286 255.52C280.286 256.522 280.166 257.437 279.926 258.265C279.692 259.087 279.347 259.798 278.891 260.398C278.435 260.998 277.874 261.46 277.208 261.784C276.542 262.108 275.78 262.27 274.922 262.27ZM274.922 260.479C275.486 260.479 275.978 260.356 276.398 260.11C276.824 259.858 277.175 259.507 277.451 259.057C277.727 258.607 277.934 258.082 278.072 257.482C278.216 256.876 278.288 256.222 278.288 255.52C278.294 254.818 278.228 254.167 278.09 253.567C277.952 252.961 277.742 252.436 277.46 251.992C277.184 251.542 276.833 251.191 276.407 250.939C275.981 250.687 275.486 250.561 274.922 250.561C274.352 250.561 273.854 250.687 273.428 250.939C273.008 251.191 272.66 251.542 272.384 251.992C272.108 252.436 271.901 252.961 271.763 253.567C271.625 254.167 271.553 254.818 271.547 255.52C271.547 256.222 271.616 256.876 271.754 257.482C271.892 258.082 272.099 258.607 272.375 259.057C272.651 259.507 273.002 259.858 273.428 260.11C273.854 260.356 274.352 260.479 274.922 260.479ZM280.835 262V260.389C281.141 260.419 281.393 260.404 281.591 260.344C281.795 260.278 281.966 260.152 282.104 259.966C282.242 259.774 282.359 259.498 282.455 259.138C282.557 258.778 282.656 258.313 282.752 257.743C282.884 257.017 282.995 256.27 283.085 255.502C283.175 254.734 283.25 253.972 283.31 253.216C283.376 252.454 283.43 251.719 283.472 251.011C283.514 250.303 283.547 249.646 283.571 249.04H292.076V262H290.195V250.813H285.335C285.305 251.293 285.269 251.83 285.227 252.424C285.185 253.018 285.134 253.648 285.074 254.314C285.014 254.98 284.939 255.667 284.849 256.375C284.765 257.083 284.657 257.794 284.525 258.508C284.417 259.12 284.285 259.672 284.129 260.164C283.973 260.656 283.763 261.067 283.499 261.397C283.235 261.721 282.89 261.937 282.464 262.045C282.038 262.159 281.495 262.144 280.835 262ZM295.493 264.817L294.089 263.773C294.803 262.927 295.379 262.054 295.817 261.154C296.261 260.254 296.585 259.333 296.789 258.391C296.993 257.449 297.095 256.492 297.095 255.52C297.095 254.542 296.993 253.585 296.789 252.649C296.585 251.707 296.264 250.789 295.826 249.895C295.388 248.995 294.809 248.119 294.089 247.267L295.493 246.223C296.189 247.033 296.789 247.948 297.293 248.968C297.797 249.982 298.181 251.05 298.445 252.172C298.709 253.288 298.832 254.404 298.814 255.52C298.832 256.636 298.709 257.755 298.445 258.877C298.181 259.993 297.797 261.058 297.293 262.072C296.789 263.092 296.189 264.007 295.493 264.817Z" fill="#F6F9F6"/>
<defs>
<filter id="filter0_d_193_1644" x="139.103" y="0.937704" width="317.998" height="342.404" filterUnits="userSpaceOnUse" color-interpolation-filters="sRGB">
<feFlood flood-opacity="0" result="BackgroundImageFix"/>
<feColorMatrix in="SourceAlpha" type="matrix" values="0 0 0 0 0 0 0 0 0 0 0 0 0 0 0 0 0 0 127 0" result="hardAlpha"/>
<feOffset dx="-25" dy="16"/>
<feGaussianBlur stdDeviation="18"/>
<feComposite in2="hardAlpha" operator="out"/>
<feColorMatrix type="matrix" values="0 0 0 0 0.298039 0 0 0 0 0.419608 0 0 0 0 0.435294 0 0 0 0.14 0"/>
<feBlend mode="normal" in2="BackgroundImageFix" result="effect1_dropShadow_193_1644"/>
<feBlend mode="normal" in="SourceGraphic" in2="effect1_dropShadow_193_1644" result="shape"/>
</filter>
<linearGradient id="paint0_linear_193_1644" x1="434.426" y1="243.274" x2="222.638" y2="143.44" gradientUnits="userSpaceOnUse">
<stop stop-color="#F47957"/>
<stop offset="1" stop-color="#F5CC8A"/>
</linearGradient>
</defs>
</svg>
