<svg width="624" height="629" viewBox="0 0 624 629" fill="none" xmlns="http://www.w3.org/2000/svg">
<path opacity="0.54" d="M134.846 297.17C239.222 403.306 400.868 454.314 468.643 466.552C434.328 369.072 459.262 298.254 476.019 275.03C392.594 250.87 370.027 261.18 164.712 159.245C172.366 201.921 157.492 222.954 134.846 297.17Z" fill="url(#paint0_linear_193_1724)"/>
<path opacity="0.5" d="M414.723 297.057C406.974 312.379 398.267 355.131 409.317 413.978" stroke="#456569" stroke-width="4"/>
<path opacity="0.5" d="M383.047 287.449C375.298 302.772 366.591 345.524 377.641 404.371" stroke="#456569" stroke-width="4"/>
<path opacity="0.5" d="M348.204 272.945C343.64 290.943 333.62 332.124 344.67 390.971" stroke="#456569" stroke-width="4"/>
<path opacity="0.5" d="M310.097 260.552C305.561 277.917 304.163 333.219 300.948 375.264" stroke="#456569" stroke-width="4"/>
<path opacity="0.5" d="M277.942 246.624C273.773 262.524 272.447 313.15 269.468 351.641" stroke="#456569" stroke-width="4"/>
<path opacity="0.5" d="M244.683 234.568C240.513 250.468 240.778 301.908 230.882 334.928" stroke="#456569" stroke-width="4"/>
<path opacity="0.5" d="M213.681 215.265C209.512 231.165 209.776 282.605 199.88 315.625" stroke="#456569" stroke-width="4"/>
<path d="M365.218 285.156L403.45 264.996L401.733 317.699L363.207 337.43L365.218 285.156Z" fill="#7A979B"/>
<path d="M379.85 348.07L410.94 332.444L402.221 317.347L363.209 337.419L379.85 348.07Z" fill="#456569"/>
<path d="M576.893 205.43L556.473 188.219L504.464 239.585L400.108 331.38L415.949 341.785C417.166 342.584 418.655 342.693 419.943 342.015C434.832 334.179 527.102 285.618 533.949 282.041C590.704 252.382 578.659 216.773 576.893 205.43Z" fill="url(#paint1_linear_193_1724)"/>
<path d="M400.108 331.38L400.541 255.703C400.547 254.579 401.181 253.553 402.184 253.045L534.732 185.828C547.51 179.348 562.783 187.876 563.969 202.154C566.103 227.846 552.591 252.303 529.705 264.172L400.108 331.38Z" fill="url(#paint2_linear_193_1724)"/>
<path d="M378.256 285.034L393.661 276.768L393.24 291.001L377.863 299.112L378.256 285.034Z" fill="#456569"/>
<path d="M377.143 306.412L392.548 298.147L392.127 312.379L376.75 320.491L377.143 306.412Z" fill="#456569"/>
<path d="M438.943 256.143C432.886 263.233 430.541 279.137 441.623 279.171C455.477 279.213 472.129 249.882 464.408 246.755C456.687 243.628 453.293 251.152 452.813 258.251C452.112 268.602 467.065 273.691 471.135 265.989C475.205 258.287 470.351 242.111 475.751 248.006C481.151 253.901 489.883 262.806 487.521 254.863C484.527 248.159 487.315 246.081 489.673 248.45C490.476 249.232 493.344 254.398 495.306 249.308C502.307 231.151 472.422 224.922 480.786 237.453C489.151 249.985 501.578 260.95 501.352 248.685C501.039 231.718 530.233 235.785 529.04 221.196" stroke="#456569" stroke-width="2"/>
<defs>
<linearGradient id="paint0_linear_193_1724" x1="383.323" y1="149.749" x2="403.451" y2="514.619" gradientUnits="userSpaceOnUse">
<stop stop-color="white"/>
<stop offset="1" stop-color="#F5CC8A"/>
</linearGradient>
<linearGradient id="paint1_linear_193_1724" x1="563.406" y1="223.271" x2="405.173" y2="216.193" gradientUnits="userSpaceOnUse">
<stop stop-color="#DE552F"/>
<stop offset="1" stop-color="#DB8B09"/>
</linearGradient>
<linearGradient id="paint2_linear_193_1724" x1="557.184" y1="206.858" x2="394.102" y2="199.229" gradientUnits="userSpaceOnUse">
<stop stop-color="#F47957"/>
<stop offset="1" stop-color="#F5CC8A"/>
</linearGradient>
</defs>
</svg>
