<svg width="310" height="271" viewBox="0 0 310 271" fill="none" xmlns="http://www.w3.org/2000/svg">
<path d="M57.8154 42.7318L11.4566 220.676C10.9615 222.576 12.3958 224.432 14.3597 224.432H262.318C263.7 224.432 264.904 223.488 265.232 222.145L308.769 44.2011C309.232 42.3114 307.801 40.4882 305.855 40.4882H60.7185C59.353 40.4882 58.1597 41.4104 57.8154 42.7318Z" fill="#DAF7F7" stroke="#A4EFEE" stroke-width="2"/>
<path d="M20.7424 189.506L12.3215 220.747C11.9789 222.018 12.9363 223.268 14.2526 223.268H262.409C263.326 223.268 264.126 222.644 264.349 221.754L272.423 189.506H20.7424Z" fill="#02A4A4"/>
<path d="M20.7424 189.506L12.3215 220.747C11.9789 222.018 12.9363 223.268 14.2526 223.268H262.409C263.326 223.268 264.126 222.644 264.349 221.754L272.423 189.506H20.7424Z" fill="#11DCD0"/>
<path d="M48.2732 171.408L78.2525 55.5656H171.617L143.35 171.408H48.2732Z" fill="url(#paint0_linear_469_4406)"/>
<path d="M174.117 125.571L192.145 55.5656H248.289L231.292 125.571H174.117Z" stroke="#A4EFEE" stroke-width="2"/>
<path d="M140.712 265.179L137.376 226.76H189.921L193.257 265.179H140.712Z" fill="#11DCD0" stroke="#70E9E2" stroke-width="2"/>
<path d="M104.528 264.666C104.528 263.561 105.423 262.666 106.528 262.666H224.204C225.309 262.666 226.204 263.561 226.204 264.666V271H104.528V264.666Z" fill="url(#paint1_radial_469_4406)"/>
<path d="M89.1101 76.4007H149.948" stroke="#E8F9F9" stroke-width="2"/>
<path d="M200.786 67.2332H232.455" stroke="#A4EFEE" stroke-width="2"/>
<path d="M84.9426 91.4019H145.781" stroke="#E8F9F9" stroke-width="2"/>
<path d="M197.452 78.0675H229.955" stroke="#A4EFEE" stroke-width="2"/>
<path d="M81.6094 106.403H142.448" stroke="#E8F9F9" stroke-width="2"/>
<path d="M194.952 88.9017H226.621" stroke="#A4EFEE" stroke-width="2"/>
<path d="M77.4426 121.404H138.281" stroke="#E8F9F9" stroke-width="2"/>
<path d="M73.2751 136.406H134.113" stroke="#E8F9F9" stroke-width="2"/>
<path d="M245.781 170.879H188.45L204.529 108.749L217.583 101.027H262.825L245.781 170.879Z" fill="#02A4A4"/>
<path d="M215.477 109.451L204.596 108.749L217.583 101.027L215.477 109.451Z" fill="#057575"/>
<path d="M213.074 113.59H249.759" stroke="#F9F9F9"/>
<path d="M210.561 122.636H247.246" stroke="#F9F9F9"/>
<path d="M208.551 131.681H245.236" stroke="#F9F9F9"/>
<path d="M206.039 140.727H242.724" stroke="#F9F9F9"/>
<path d="M203.526 149.772H240.211" stroke="#F9F9F9"/>
<path d="M201.516 158.818H238.201" stroke="#F9F9F9"/>
<path d="M68.1646 25.0995L51.797 98.3789" stroke="#2CE0D5" stroke-width="3" stroke-linecap="round"/>
<path d="M91.166 98.0728L14.1347 98.6921" stroke="#2CE0D5" stroke-width="3" stroke-linecap="round"/>
<path d="M64.6467 98.3825L40.6555 98.3825" stroke="#2CE0D5" stroke-width="7" stroke-linecap="round"/>
<mask id="path-26-inside-1_469_4406" fill="white">
<path fill-rule="evenodd" clip-rule="evenodd" d="M93.4295 6.72251C83.1049 -1.78807 66.8256 0.846116 57.141 12.595C55.4995 14.5863 54.1512 16.7137 53.0942 18.9152C45.6073 14.1424 34.8781 16.3337 28.3199 24.2897C25.4018 27.8298 23.7617 31.9628 23.3786 36.0273C18.1076 36.5176 12.673 38.8006 7.28863 43.8193C-0.986259 51.5322 -3.77356 63.5438 7.28813 72.6625C12.0151 76.559 17.9071 78.275 23.9149 77.9803C42.0771 79.6095 83.5928 78.2809 88.5825 77.9551C96.4939 77.4386 104.562 73.4482 110.396 66.3707C120.772 53.7831 120.214 36.1237 109.152 27.0053C106.827 25.0893 104.221 23.7006 101.459 22.8188C101.007 16.5656 98.3166 10.751 93.4295 6.72251Z"/>
</mask>
<path fill-rule="evenodd" clip-rule="evenodd" d="M93.4295 6.72251C83.1049 -1.78807 66.8256 0.846116 57.141 12.595C55.4995 14.5863 54.1512 16.7137 53.0942 18.9152C45.6073 14.1424 34.8781 16.3337 28.3199 24.2897C25.4018 27.8298 23.7617 31.9628 23.3786 36.0273C18.1076 36.5176 12.673 38.8006 7.28863 43.8193C-0.986259 51.5322 -3.77356 63.5438 7.28813 72.6625C12.0151 76.559 17.9071 78.275 23.9149 77.9803C42.0771 79.6095 83.5928 78.2809 88.5825 77.9551C96.4939 77.4386 104.562 73.4482 110.396 66.3707C120.772 53.7831 120.214 36.1237 109.152 27.0053C106.827 25.0893 104.221 23.7006 101.459 22.8188C101.007 16.5656 98.3166 10.751 93.4295 6.72251Z" fill="url(#paint2_linear_469_4406)"/>
<path d="M57.141 12.595L59.4559 14.5031V14.5032L57.141 12.595ZM93.4295 6.72251L95.3377 4.40761H95.3377L93.4295 6.72251ZM53.0942 18.9152L55.7986 20.2137L54.3342 23.2634L51.4815 21.4449L53.0942 18.9152ZM28.3199 24.2897L30.6349 26.1979L30.6348 26.1979L28.3199 24.2897ZM23.3786 36.0273L26.3654 36.3088L26.1321 38.7841L23.6564 39.0144L23.3786 36.0273ZM7.28863 43.8193L9.33411 46.0138V46.0138L7.28863 43.8193ZM7.28813 72.6625L5.37994 74.9774L5.37988 74.9774L7.28813 72.6625ZM23.9149 77.9803L23.7679 74.9839L23.9757 74.9738L24.1829 74.9923L23.9149 77.9803ZM88.5825 77.9551L88.7779 80.9487H88.7779L88.5825 77.9551ZM110.396 66.3707L108.081 64.4625H108.081L110.396 66.3707ZM109.152 27.0053L111.06 24.6904H111.06L109.152 27.0053ZM101.459 22.8188L100.546 25.6768L98.6125 25.0596L98.4663 23.0348L101.459 22.8188ZM54.8261 10.6868C65.3255 -2.05051 83.4627 -5.38102 95.3377 4.40761L91.5213 9.03742C82.7472 1.80487 68.3258 3.74274 59.4559 14.5031L54.8261 10.6868ZM50.3898 17.6166C51.5513 15.1975 53.0303 12.8654 54.8261 10.6868L59.4559 14.5032C57.9688 16.3073 56.7511 18.2298 55.7986 20.2137L50.3898 17.6166ZM26.005 22.3815C33.3419 13.4808 45.7102 10.6503 54.7068 16.3855L51.4815 21.4449C45.5044 17.6345 36.4143 19.1866 30.6349 26.1979L26.005 22.3815ZM20.3918 35.7458C20.8317 31.0781 22.7092 26.3799 26.005 22.3815L30.6348 26.1979C28.0944 29.2798 26.6916 32.8474 26.3654 36.3088L20.3918 35.7458ZM5.24313 41.6247C11.0614 36.2016 17.1022 33.5982 23.1008 33.0402L23.6564 39.0144C19.1129 39.437 14.2847 41.3995 9.33411 46.0138L5.24313 41.6247ZM5.37988 74.9774C-0.808678 69.8759 -3.37772 63.6915 -2.95588 57.5095C-2.54324 51.4623 0.697113 45.862 5.24313 41.6247L9.33411 46.0138C5.60525 49.4894 3.31451 53.7515 3.0302 57.918C2.75509 61.9497 4.32325 66.3305 9.19638 70.3477L5.37988 74.9774ZM24.0619 80.9767C17.3844 81.3043 10.7396 79.3955 5.37994 74.9774L9.19632 70.3476C13.2906 73.7225 18.4297 75.2458 23.7679 74.9839L24.0619 80.9767ZM88.7779 80.9487C83.7494 81.277 42.0466 82.6188 23.6469 80.9683L24.1829 74.9923C42.1075 76.6001 83.4362 75.2847 88.387 74.9615L88.7779 80.9487ZM112.711 68.2789C106.37 75.9708 97.5463 80.3763 88.7779 80.9487L88.387 74.9615C95.4415 74.5009 102.753 70.9257 108.081 64.4625L112.711 68.2789ZM111.06 24.6904C123.672 35.0868 123.901 54.7028 112.711 68.2789L108.081 64.4625C117.642 52.8633 116.755 37.1606 107.244 29.3202L111.06 24.6904ZM102.371 19.9609C105.485 20.9549 108.432 22.524 111.06 24.6904L107.244 29.3202C105.223 27.6547 102.958 26.4463 100.546 25.6768L102.371 19.9609ZM95.3377 4.40761C100.929 9.01667 103.947 15.6279 104.451 22.6029L98.4663 23.0348C98.067 17.5033 95.7041 12.4854 91.5213 9.03742L95.3377 4.40761Z" fill="#02A4A4" mask="url(#path-26-inside-1_469_4406)"/>
<path d="M199.933 48.2214C200.345 48.5887 200.977 48.5522 201.345 48.1398L207.33 41.4189C207.698 41.0064 207.661 40.3743 207.249 40.007C206.836 39.6397 206.204 39.6763 205.837 40.0887L200.516 46.0628L194.542 40.7421C194.13 40.3748 193.497 40.4114 193.13 40.8238C192.763 41.2362 192.799 41.8683 193.212 42.2356L199.933 48.2214ZM107.442 20.5111C110.048 14.4768 116.789 9.43873 125.746 6.24151C134.666 3.05733 145.603 1.76974 156.308 3.08993C167.012 4.41005 177.419 8.32834 185.346 15.486C193.254 22.6264 198.762 33.0496 199.599 47.5324L201.596 47.4169C200.73 32.443 195.009 21.5163 186.686 14.0016C178.383 6.50417 167.558 2.46222 156.553 1.10497C145.548 -0.252201 134.297 1.06571 125.074 4.35792C115.887 7.6371 108.531 12.9463 105.606 19.7182L107.442 20.5111Z" fill="#02A4A4"/>
<path d="M53.4965 110.702C53.1876 110.244 52.5661 110.124 52.1083 110.433L44.648 115.467C44.1902 115.776 44.0695 116.398 44.3785 116.855C44.6874 117.313 45.309 117.434 45.7667 117.125L52.3981 112.65L56.8731 119.281C57.182 119.739 57.8036 119.86 58.2614 119.551C58.7191 119.242 58.8398 118.62 58.5309 118.163L53.4965 110.702ZM83.4601 129.309C78.9724 130.643 74.5083 131.791 70.4171 132.355C66.3116 132.921 62.6777 132.883 59.8048 131.927C56.988 130.99 54.8721 129.165 53.7229 126.009C52.5512 122.79 52.3571 118.108 53.6493 111.452L51.686 111.071C50.3627 117.887 50.4936 122.985 51.8436 126.693C53.2163 130.463 55.8188 132.709 59.1735 133.825C62.472 134.922 66.4623 134.919 70.6901 134.337C74.9321 133.752 79.5104 132.569 84.0301 131.226L83.4601 129.309Z" fill="#02A4A4"/>
<defs>
<linearGradient id="paint0_linear_469_4406" x1="121.659" y1="170.879" x2="83.2404" y2="-0.84097" gradientUnits="userSpaceOnUse">
<stop stop-color="#2CE0D5"/>
<stop offset="0.851845" stop-color="#A4EFEE"/>
</linearGradient>
<radialGradient id="paint1_radial_469_4406" cx="0" cy="0" r="1" gradientUnits="userSpaceOnUse" gradientTransform="translate(103.796 264.087) rotate(2.32133) scale(107.744 70.7628)">
<stop stop-color="#11DCD0"/>
</radialGradient>
<linearGradient id="paint2_linear_469_4406" x1="47.7233" y1="78.4223" x2="65.9611" y2="-38.6623" gradientUnits="userSpaceOnUse">
<stop stop-color="#2CE0D5"/>
<stop offset="0.851845" stop-color="#A4EFEE"/>
</linearGradient>
</defs>
</svg>
