<svg width="568" height="271" viewBox="0 0 568 271" fill="none" xmlns="http://www.w3.org/2000/svg">
<rect y="80" width="258" height="43" rx="21.5" fill="#2F6F6F"/>
<rect x="28" y="142" width="265" height="43" rx="21.5" fill="#2F6F6F"/>
<rect x="57" y="204" width="278" height="43" rx="21.5" fill="#2F6F6F"/>
<path d="M315.815 42.7318L269.457 220.676C268.962 222.576 270.396 224.432 272.36 224.432H520.318C521.7 224.432 522.904 223.488 523.232 222.145L566.769 44.2011C567.232 42.3114 565.801 40.4882 563.855 40.4882H318.719C317.353 40.4882 316.16 41.4104 315.815 42.7318Z" fill="#DAF7F7" stroke="#A4EFEE" stroke-width="2"/>
<path d="M278.742 189.506L270.321 220.747C269.979 222.018 270.936 223.268 272.253 223.268H520.409C521.326 223.268 522.126 222.644 522.349 221.754L530.423 189.506H278.742Z" fill="#02A4A4"/>
<path d="M278.742 189.506L270.321 220.747C269.979 222.018 270.936 223.268 272.253 223.268H520.409C521.326 223.268 522.126 222.644 522.349 221.754L530.423 189.506H278.742Z" fill="#11DCD0"/>
<path d="M306.273 171.408L336.253 55.5656H429.617L401.35 171.408H306.273Z" fill="url(#paint0_linear_2936_1844)"/>
<path d="M432.117 125.571L450.145 55.5656H506.289L489.292 125.571H432.117Z" stroke="#A4EFEE" stroke-width="2"/>
<path d="M398.712 265.179L395.376 226.76H447.921L451.257 265.179H398.712Z" fill="#11DCD0" stroke="#70E9E2" stroke-width="2"/>
<path d="M362.528 264.666C362.528 263.561 363.423 262.666 364.528 262.666H482.204C483.309 262.666 484.204 263.561 484.204 264.666V271H362.528V264.666Z" fill="url(#paint1_radial_2936_1844)"/>
<path d="M347.11 76.4007H407.948" stroke="#E8F9F9" stroke-width="2"/>
<path d="M458.786 67.2332H490.455" stroke="#A4EFEE" stroke-width="2"/>
<path d="M342.943 91.4019H403.781" stroke="#E8F9F9" stroke-width="2"/>
<path d="M455.452 78.0675H487.955" stroke="#A4EFEE" stroke-width="2"/>
<path d="M339.609 106.403H400.448" stroke="#E8F9F9" stroke-width="2"/>
<path d="M452.952 88.9017H484.621" stroke="#A4EFEE" stroke-width="2"/>
<path d="M335.443 121.404H396.281" stroke="#E8F9F9" stroke-width="2"/>
<path d="M331.275 136.406H392.113" stroke="#E8F9F9" stroke-width="2"/>
<path d="M503.781 170.879H446.45L462.529 108.749L475.583 101.027H520.825L503.781 170.879Z" fill="#02A4A4"/>
<path d="M473.477 109.451L462.596 108.749L475.583 101.027L473.477 109.451Z" fill="#057575"/>
<path d="M471.074 113.59H507.759" stroke="#F9F9F9"/>
<path d="M468.561 122.636H505.246" stroke="#F9F9F9"/>
<path d="M466.551 131.681H503.236" stroke="#F9F9F9"/>
<path d="M464.039 140.727H500.724" stroke="#F9F9F9"/>
<path d="M461.526 149.772H498.211" stroke="#F9F9F9"/>
<path d="M459.516 158.818H496.201" stroke="#F9F9F9"/>
<path d="M326.165 25.0995L309.797 98.3789" stroke="#2CE0D5" stroke-width="3" stroke-linecap="round"/>
<path d="M349.166 98.0728L272.135 98.6921" stroke="#2CE0D5" stroke-width="3" stroke-linecap="round"/>
<path d="M322.647 98.3825L298.655 98.3825" stroke="#2CE0D5" stroke-width="7" stroke-linecap="round"/>
<mask id="path-29-inside-1_2936_1844" fill="white">
<path fill-rule="evenodd" clip-rule="evenodd" d="M351.429 6.72251C341.105 -1.78807 324.826 0.846116 315.141 12.595C313.5 14.5863 312.151 16.7137 311.094 18.9152C303.607 14.1424 292.878 16.3337 286.32 24.2897C283.402 27.8298 281.762 31.9628 281.379 36.0273C276.108 36.5176 270.673 38.8006 265.289 43.8193C257.014 51.5322 254.226 63.5438 265.288 72.6625C270.015 76.559 275.907 78.275 281.915 77.9803C300.077 79.6095 341.593 78.2809 346.582 77.9551C354.494 77.4386 362.562 73.4482 368.396 66.3707C378.772 53.7831 378.214 36.1237 367.152 27.0053C364.827 25.0893 362.221 23.7006 359.459 22.8188C359.007 16.5656 356.317 10.751 351.429 6.72251Z"/>
</mask>
<path fill-rule="evenodd" clip-rule="evenodd" d="M351.429 6.72251C341.105 -1.78807 324.826 0.846116 315.141 12.595C313.5 14.5863 312.151 16.7137 311.094 18.9152C303.607 14.1424 292.878 16.3337 286.32 24.2897C283.402 27.8298 281.762 31.9628 281.379 36.0273C276.108 36.5176 270.673 38.8006 265.289 43.8193C257.014 51.5322 254.226 63.5438 265.288 72.6625C270.015 76.559 275.907 78.275 281.915 77.9803C300.077 79.6095 341.593 78.2809 346.582 77.9551C354.494 77.4386 362.562 73.4482 368.396 66.3707C378.772 53.7831 378.214 36.1237 367.152 27.0053C364.827 25.0893 362.221 23.7006 359.459 22.8188C359.007 16.5656 356.317 10.751 351.429 6.72251Z" fill="url(#paint2_linear_2936_1844)"/>
<path d="M315.141 12.595L317.456 14.5031V14.5032L315.141 12.595ZM351.429 6.72251L353.338 4.40761H353.338L351.429 6.72251ZM311.094 18.9152L313.799 20.2137L312.334 23.2634L309.482 21.4449L311.094 18.9152ZM286.32 24.2897L288.635 26.1979L288.635 26.1979L286.32 24.2897ZM281.379 36.0273L284.365 36.3088L284.132 38.7841L281.656 39.0144L281.379 36.0273ZM265.289 43.8193L267.334 46.0138V46.0138L265.289 43.8193ZM265.288 72.6625L263.38 74.9774L263.38 74.9774L265.288 72.6625ZM281.915 77.9803L281.768 74.9839L281.976 74.9738L282.183 74.9923L281.915 77.9803ZM346.582 77.9551L346.778 80.9487H346.778L346.582 77.9551ZM368.396 66.3707L366.081 64.4625H366.081L368.396 66.3707ZM367.152 27.0053L369.06 24.6904H369.06L367.152 27.0053ZM359.459 22.8188L358.546 25.6768L356.612 25.0596L356.466 23.0348L359.459 22.8188ZM312.826 10.6868C323.325 -2.05051 341.463 -5.38102 353.338 4.40761L349.521 9.03742C340.747 1.80487 326.326 3.74274 317.456 14.5031L312.826 10.6868ZM308.39 17.6166C309.551 15.1975 311.03 12.8654 312.826 10.6868L317.456 14.5032C315.969 16.3073 314.751 18.2298 313.799 20.2137L308.39 17.6166ZM284.005 22.3815C291.342 13.4808 303.71 10.6503 312.707 16.3855L309.482 21.4449C303.504 17.6345 294.414 19.1866 288.635 26.1979L284.005 22.3815ZM278.392 35.7458C278.832 31.0781 280.709 26.3799 284.005 22.3815L288.635 26.1979C286.094 29.2798 284.692 32.8474 284.365 36.3088L278.392 35.7458ZM263.243 41.6247C269.061 36.2016 275.102 33.5982 281.101 33.0402L281.656 39.0144C277.113 39.437 272.285 41.3995 267.334 46.0138L263.243 41.6247ZM263.38 74.9774C257.191 69.8759 254.622 63.6915 255.044 57.5095C255.457 51.4623 258.697 45.862 263.243 41.6247L267.334 46.0138C263.605 49.4894 261.315 53.7515 261.03 57.918C260.755 61.9497 262.323 66.3305 267.196 70.3477L263.38 74.9774ZM282.062 80.9767C275.384 81.3043 268.74 79.3955 263.38 74.9774L267.196 70.3476C271.291 73.7225 276.43 75.2458 281.768 74.9839L282.062 80.9767ZM346.778 80.9487C341.749 81.277 300.047 82.6188 281.647 80.9683L282.183 74.9923C300.108 76.6001 341.436 75.2847 346.387 74.9615L346.778 80.9487ZM370.711 68.2789C364.37 75.9708 355.546 80.3763 346.778 80.9487L346.387 74.9615C353.442 74.5009 360.753 70.9257 366.081 64.4625L370.711 68.2789ZM369.06 24.6904C381.672 35.0868 381.901 54.7028 370.711 68.2789L366.081 64.4625C375.642 52.8633 374.755 37.1606 365.244 29.3202L369.06 24.6904ZM360.371 19.9609C363.485 20.9549 366.432 22.524 369.06 24.6904L365.244 29.3202C363.223 27.6547 360.958 26.4463 358.546 25.6768L360.371 19.9609ZM353.338 4.40761C358.929 9.01667 361.947 15.6279 362.451 22.6029L356.466 23.0348C356.067 17.5033 353.704 12.4854 349.521 9.03742L353.338 4.40761Z" fill="#02A4A4" mask="url(#path-29-inside-1_2936_1844)"/>
<path d="M457.933 48.2214C458.345 48.5887 458.977 48.5522 459.345 48.1398L465.33 41.4189C465.698 41.0064 465.661 40.3743 465.249 40.007C464.836 39.6397 464.204 39.6763 463.837 40.0887L458.516 46.0628L452.542 40.7421C452.13 40.3748 451.497 40.4114 451.13 40.8238C450.763 41.2362 450.799 41.8683 451.212 42.2356L457.933 48.2214ZM365.442 20.5111C368.048 14.4768 374.789 9.43873 383.746 6.24151C392.666 3.05733 403.603 1.76974 414.308 3.08993C425.012 4.41005 435.419 8.32834 443.346 15.486C451.254 22.6264 456.762 33.0496 457.599 47.5324L459.596 47.4169C458.73 32.443 453.009 21.5163 444.686 14.0016C436.383 6.50417 425.558 2.46222 414.553 1.10497C403.548 -0.252201 392.297 1.06571 383.074 4.35792C373.887 7.6371 366.531 12.9463 363.606 19.7182L365.442 20.5111Z" fill="#02A4A4"/>
<path d="M311.497 110.702C311.188 110.244 310.566 110.124 310.108 110.433L302.648 115.467C302.19 115.776 302.07 116.398 302.378 116.855C302.687 117.313 303.309 117.434 303.767 117.125L310.398 112.65L314.873 119.281C315.182 119.739 315.804 119.86 316.261 119.551C316.719 119.242 316.84 118.62 316.531 118.163L311.497 110.702ZM341.46 129.309C336.972 130.643 332.508 131.791 328.417 132.355C324.312 132.921 320.678 132.883 317.805 131.927C314.988 130.99 312.872 129.165 311.723 126.009C310.551 122.79 310.357 118.108 311.649 111.452L309.686 111.071C308.363 117.887 308.494 122.985 309.844 126.693C311.216 130.463 313.819 132.709 317.173 133.825C320.472 134.922 324.462 134.919 328.69 134.337C332.932 133.752 337.51 132.569 342.03 131.226L341.46 129.309Z" fill="#02A4A4"/>
<path d="M29.9942 107.27C28.6982 107.27 27.5942 106.988 26.6822 106.424C25.7702 105.854 25.0712 105.062 24.5852 104.048C24.1052 103.034 23.8652 101.858 23.8652 100.52C23.8652 99.182 24.1052 98.006 24.5852 96.992C25.0712 95.978 25.7702 95.189 26.6822 94.625C27.5942 94.055 28.6982 93.77 29.9942 93.77C31.2842 93.77 32.3852 94.055 33.2972 94.625C34.2152 95.189 34.9142 95.978 35.3942 96.992C35.8742 98.006 36.1142 99.182 36.1142 100.52C36.1142 101.858 35.8742 103.034 35.3942 104.048C34.9142 105.062 34.2152 105.854 33.2972 106.424C32.3852 106.988 31.2842 107.27 29.9942 107.27ZM29.9942 105.479C30.9122 105.491 31.6742 105.29 32.2802 104.876C32.8922 104.456 33.3512 103.874 33.6572 103.13C33.9632 102.38 34.1162 101.51 34.1162 100.52C34.1162 99.53 33.9632 98.666 33.6572 97.928C33.3512 97.184 32.8922 96.605 32.2802 96.191C31.6742 95.777 30.9122 95.567 29.9942 95.561C29.0762 95.549 28.3112 95.75 27.6992 96.164C27.0932 96.578 26.6372 97.16 26.3312 97.91C26.0252 98.66 25.8692 99.53 25.8632 100.52C25.8572 101.51 26.0072 102.377 26.3132 103.121C26.6192 103.859 27.0782 104.435 27.6902 104.849C28.3082 105.263 29.0762 105.473 29.9942 105.479ZM37.9004 107V97.28H46.0994V107H44.2184V99.053H39.7814V107H37.9004ZM51.1255 107V98.972H47.8045V97.28H56.3275V98.972H53.0065V107H51.1255ZM66.2264 97.28V107H64.4174V100.241L59.5574 107H58.0274V97.28H59.8364V103.904L64.7054 97.28H66.2264ZM68.7324 107V97.28H70.3074L73.8984 104.408L77.4804 97.28H79.0644V107H77.2464V101.132L74.3214 107H73.4664L70.5414 101.132V107H68.7324ZM89.7811 97.28V107H87.9721V100.241L83.1121 107H81.5821V97.28H83.3911V103.904L88.2601 97.28H89.7811ZM95.7611 107.27C94.8191 107.27 93.9731 107.069 93.2231 106.667C92.4791 106.265 91.8911 105.71 91.4591 105.002L92.9531 104.021C93.3011 104.489 93.7031 104.852 94.1591 105.11C94.6211 105.368 95.1401 105.497 95.7161 105.497C96.3161 105.497 96.7901 105.362 97.1381 105.092C97.4921 104.816 97.6691 104.447 97.6691 103.985C97.6691 103.619 97.5671 103.349 97.3631 103.175C97.1651 102.995 96.8891 102.878 96.5351 102.824C96.1871 102.77 95.7911 102.743 95.3471 102.743H94.4831V101.231H95.3471C95.9351 101.231 96.4181 101.15 96.7961 100.988C97.1801 100.82 97.3721 100.505 97.3721 100.043C97.3721 99.593 97.2071 99.269 96.8771 99.071C96.5531 98.873 96.1661 98.774 95.7161 98.774C95.2121 98.774 94.7231 98.882 94.2491 99.098C93.7751 99.308 93.3611 99.569 93.0071 99.881L91.9091 98.594C92.4251 98.096 93.0131 97.709 93.6731 97.433C94.3391 97.151 95.0531 97.01 95.8151 97.01C96.4391 97.01 97.0151 97.121 97.5431 97.343C98.0771 97.559 98.5031 97.88 98.8211 98.306C99.1451 98.732 99.3071 99.257 99.3071 99.881C99.3071 100.367 99.1991 100.811 98.9831 101.213C98.7671 101.615 98.4371 101.981 97.9931 102.311L97.9391 101.672C98.3051 101.786 98.6111 101.969 98.8571 102.221C99.1031 102.473 99.2861 102.77 99.4061 103.112C99.5321 103.448 99.5951 103.805 99.5951 104.183C99.5951 104.837 99.4211 105.395 99.0731 105.857C98.7311 106.319 98.2691 106.67 97.6871 106.91C97.1051 107.15 96.4631 107.27 95.7611 107.27ZM104.322 107.27C103.602 107.27 102.999 107.138 102.513 106.874C102.027 106.604 101.658 106.25 101.406 105.812C101.16 105.368 101.037 104.882 101.037 104.354C101.037 103.862 101.124 103.43 101.298 103.058C101.472 102.686 101.73 102.371 102.072 102.113C102.414 101.849 102.834 101.636 103.332 101.474C103.764 101.348 104.253 101.237 104.799 101.141C105.345 101.045 105.918 100.955 106.518 100.871C107.124 100.787 107.724 100.703 108.318 100.619L107.634 100.997C107.646 100.235 107.484 99.671 107.148 99.305C106.818 98.933 106.248 98.747 105.438 98.747C104.928 98.747 104.46 98.867 104.034 99.107C103.608 99.341 103.311 99.731 103.143 100.277L101.388 99.737C101.628 98.903 102.084 98.24 102.756 97.748C103.434 97.256 104.334 97.01 105.456 97.01C106.326 97.01 107.082 97.16 107.724 97.46C108.372 97.754 108.846 98.222 109.146 98.864C109.302 99.182 109.398 99.518 109.434 99.872C109.47 100.226 109.488 100.607 109.488 101.015V107H107.823V104.777L108.147 105.065C107.745 105.809 107.232 106.364 106.608 106.73C105.99 107.09 105.228 107.27 104.322 107.27ZM104.655 105.731C105.189 105.731 105.648 105.638 106.032 105.452C106.416 105.26 106.725 105.017 106.959 104.723C107.193 104.429 107.346 104.123 107.418 103.805C107.52 103.517 107.577 103.193 107.589 102.833C107.607 102.473 107.616 102.185 107.616 101.969L108.228 102.194C107.634 102.284 107.094 102.365 106.608 102.437C106.122 102.509 105.681 102.581 105.285 102.653C104.895 102.719 104.547 102.8 104.241 102.896C103.983 102.986 103.752 103.094 103.548 103.22C103.35 103.346 103.191 103.499 103.071 103.679C102.957 103.859 102.9 104.078 102.9 104.336C102.9 104.588 102.963 104.822 103.089 105.038C103.215 105.248 103.407 105.416 103.665 105.542C103.923 105.668 104.253 105.731 104.655 105.731ZM120.033 108.917V107H111.816V97.28H113.697V105.227H118.134V97.28H120.015V105.308H121.914V108.917H120.033ZM131.547 97.28V107H129.738V100.241L124.878 107H123.348V97.28H125.157V103.904L130.026 97.28H131.547ZM139.975 107V103.625H138.049C137.821 103.625 137.548 103.616 137.23 103.598C136.918 103.58 136.624 103.547 136.348 103.499C135.622 103.367 135.016 103.052 134.53 102.554C134.044 102.05 133.801 101.357 133.801 100.475C133.801 99.623 134.029 98.939 134.485 98.423C134.947 97.901 135.532 97.565 136.24 97.415C136.546 97.343 136.858 97.304 137.176 97.298C137.5 97.286 137.773 97.28 137.995 97.28H141.856L141.865 107H139.975ZM133.522 107L135.979 103.157H137.968L135.529 107H133.522ZM137.887 102.113H139.975V98.792H137.887C137.755 98.792 137.593 98.798 137.401 98.81C137.209 98.822 137.023 98.855 136.843 98.909C136.657 98.963 136.477 99.059 136.303 99.197C136.135 99.335 135.997 99.512 135.889 99.728C135.781 99.938 135.727 100.181 135.727 100.457C135.727 100.871 135.844 101.213 136.078 101.483C136.312 101.747 136.591 101.921 136.915 102.005C137.089 102.053 137.263 102.083 137.437 102.095C137.611 102.107 137.761 102.113 137.887 102.113ZM152.547 107.27C151.617 107.27 150.837 107.045 150.207 106.595C149.577 106.139 149.1 105.524 148.776 104.75C148.452 103.976 148.29 103.103 148.29 102.131C148.29 101.159 148.449 100.286 148.767 99.512C149.091 98.738 149.565 98.129 150.189 97.685C150.819 97.235 151.593 97.01 152.511 97.01C153.423 97.01 154.209 97.235 154.869 97.685C155.535 98.129 156.048 98.738 156.408 99.512C156.768 100.28 156.948 101.153 156.948 102.131C156.948 103.103 156.768 103.979 156.408 104.759C156.054 105.533 155.547 106.145 154.887 106.595C154.233 107.045 153.453 107.27 152.547 107.27ZM147.975 111.32V97.28H149.649V104.273H149.865V111.32H147.975ZM152.286 105.569C152.886 105.569 153.381 105.416 153.771 105.11C154.167 104.804 154.461 104.393 154.653 103.877C154.851 103.355 154.95 102.773 154.95 102.131C154.95 101.495 154.851 100.919 154.653 100.403C154.461 99.887 154.164 99.476 153.762 99.17C153.36 98.864 152.847 98.711 152.223 98.711C151.635 98.711 151.149 98.855 150.765 99.143C150.387 99.431 150.105 99.833 149.919 100.349C149.739 100.865 149.649 101.459 149.649 102.131C149.649 102.803 149.739 103.397 149.919 103.913C150.099 104.429 150.384 104.834 150.774 105.128C151.164 105.422 151.668 105.569 152.286 105.569ZM161.68 107.27C160.96 107.27 160.357 107.138 159.871 106.874C159.385 106.604 159.016 106.25 158.764 105.812C158.518 105.368 158.395 104.882 158.395 104.354C158.395 103.862 158.482 103.43 158.656 103.058C158.83 102.686 159.088 102.371 159.43 102.113C159.772 101.849 160.192 101.636 160.69 101.474C161.122 101.348 161.611 101.237 162.157 101.141C162.703 101.045 163.276 100.955 163.876 100.871C164.482 100.787 165.082 100.703 165.676 100.619L164.992 100.997C165.004 100.235 164.842 99.671 164.506 99.305C164.176 98.933 163.606 98.747 162.796 98.747C162.286 98.747 161.818 98.867 161.392 99.107C160.966 99.341 160.669 99.731 160.501 100.277L158.746 99.737C158.986 98.903 159.442 98.24 160.114 97.748C160.792 97.256 161.692 97.01 162.814 97.01C163.684 97.01 164.44 97.16 165.082 97.46C165.73 97.754 166.204 98.222 166.504 98.864C166.66 99.182 166.756 99.518 166.792 99.872C166.828 100.226 166.846 100.607 166.846 101.015V107H165.181V104.777L165.505 105.065C165.103 105.809 164.59 106.364 163.966 106.73C163.348 107.09 162.586 107.27 161.68 107.27ZM162.013 105.731C162.547 105.731 163.006 105.638 163.39 105.452C163.774 105.26 164.083 105.017 164.317 104.723C164.551 104.429 164.704 104.123 164.776 103.805C164.878 103.517 164.935 103.193 164.947 102.833C164.965 102.473 164.974 102.185 164.974 101.969L165.586 102.194C164.992 102.284 164.452 102.365 163.966 102.437C163.48 102.509 163.039 102.581 162.643 102.653C162.253 102.719 161.905 102.8 161.599 102.896C161.341 102.986 161.11 103.094 160.906 103.22C160.708 103.346 160.549 103.499 160.429 103.679C160.315 103.859 160.258 104.078 160.258 104.336C160.258 104.588 160.321 104.822 160.447 105.038C160.573 105.248 160.765 105.416 161.023 105.542C161.281 105.668 161.611 105.731 162.013 105.731ZM173.179 107.279C172.255 107.273 171.469 107.072 170.821 106.676C170.173 106.28 169.666 105.71 169.3 104.966C168.94 104.216 168.73 103.313 168.67 102.257C168.64 101.747 168.643 101.183 168.679 100.565C168.715 99.941 168.781 99.338 168.877 98.756C168.979 98.174 169.108 97.688 169.264 97.298C169.438 96.866 169.675 96.47 169.975 96.11C170.275 95.744 170.605 95.438 170.965 95.192C171.349 94.928 171.775 94.724 172.243 94.58C172.711 94.43 173.2 94.313 173.71 94.229C174.226 94.145 174.745 94.073 175.267 94.013C175.795 93.947 176.308 93.866 176.806 93.77L176.986 95.453C176.656 95.531 176.266 95.594 175.816 95.642C175.372 95.69 174.91 95.744 174.43 95.804C173.956 95.864 173.503 95.948 173.071 96.056C172.639 96.164 172.264 96.317 171.946 96.515C171.496 96.791 171.151 97.193 170.911 97.721C170.677 98.249 170.536 98.822 170.488 99.44C170.86 98.876 171.334 98.471 171.91 98.225C172.486 97.973 173.083 97.847 173.701 97.847C174.565 97.847 175.309 98.051 175.933 98.459C176.563 98.867 177.046 99.422 177.382 100.124C177.718 100.826 177.886 101.621 177.886 102.509C177.886 103.469 177.688 104.309 177.292 105.029C176.902 105.743 176.353 106.301 175.645 106.703C174.937 107.099 174.115 107.291 173.179 107.279ZM173.278 105.506C174.142 105.506 174.793 105.239 175.231 104.705C175.675 104.171 175.897 103.46 175.897 102.572C175.897 101.66 175.669 100.943 175.213 100.421C174.757 99.899 174.112 99.638 173.278 99.638C172.432 99.638 171.784 99.899 171.334 100.421C170.89 100.943 170.668 101.66 170.668 102.572C170.668 103.496 170.893 104.216 171.343 104.732C171.793 105.248 172.438 105.506 173.278 105.506ZM184.091 107.27C183.119 107.27 182.276 107.051 181.562 106.613C180.848 106.175 180.296 105.572 179.906 104.804C179.522 104.03 179.33 103.139 179.33 102.131C179.33 101.117 179.528 100.226 179.924 99.458C180.32 98.684 180.875 98.084 181.589 97.658C182.303 97.226 183.137 97.01 184.091 97.01C185.063 97.01 185.906 97.229 186.62 97.667C187.334 98.105 187.886 98.708 188.276 99.476C188.666 100.244 188.861 101.129 188.861 102.131C188.861 103.145 188.663 104.039 188.267 104.813C187.877 105.581 187.325 106.184 186.611 106.622C185.897 107.054 185.057 107.27 184.091 107.27ZM184.091 105.497C185.021 105.497 185.714 105.185 186.17 104.561C186.632 103.931 186.863 103.121 186.863 102.131C186.863 101.117 186.629 100.307 186.161 99.701C185.699 99.089 185.009 98.783 184.091 98.783C183.461 98.783 182.942 98.927 182.534 99.215C182.126 99.497 181.823 99.89 181.625 100.394C181.427 100.892 181.328 101.471 181.328 102.131C181.328 103.151 181.562 103.967 182.03 104.579C182.498 105.191 183.185 105.497 184.091 105.497ZM193.139 107V98.972H189.818V97.28H198.341V98.972H195.02V107H193.139ZM200.041 107V97.28H201.931V100.655H203.209C203.485 100.655 203.782 100.661 204.1 100.673C204.418 100.685 204.688 100.715 204.91 100.763C205.432 100.871 205.885 101.051 206.269 101.303C206.653 101.555 206.947 101.891 207.151 102.311C207.361 102.725 207.466 103.235 207.466 103.841C207.466 104.687 207.247 105.362 206.809 105.866C206.371 106.364 205.777 106.7 205.027 106.874C204.787 106.928 204.502 106.964 204.172 106.982C203.848 106.994 203.548 107 203.272 107H200.041ZM201.931 105.488H203.38C203.536 105.488 203.71 105.482 203.902 105.47C204.094 105.458 204.271 105.431 204.433 105.389C204.715 105.305 204.97 105.134 205.198 104.876C205.426 104.618 205.54 104.273 205.54 103.841C205.54 103.397 205.426 103.043 205.198 102.779C204.976 102.515 204.694 102.344 204.352 102.266C204.196 102.224 204.031 102.197 203.857 102.185C203.689 102.173 203.53 102.167 203.38 102.167H201.931V105.488ZM208.537 107V97.28H210.418V107H208.537Z" fill="white"/>
<path d="M54.0583 169.27C53.1583 169.27 52.3753 169.138 51.7093 168.874C51.0433 168.61 50.4853 168.268 50.0353 167.848C49.5913 167.422 49.2523 166.969 49.0183 166.489L50.6563 165.427C50.8003 165.781 51.0163 166.114 51.3043 166.426C51.5983 166.738 51.9763 166.993 52.4383 167.191C52.9063 167.383 53.4733 167.479 54.1393 167.479C54.8053 167.479 55.3543 167.38 55.7863 167.182C56.2183 166.978 56.5393 166.708 56.7493 166.372C56.9653 166.03 57.0733 165.646 57.0733 165.22C57.0733 164.722 56.9413 164.338 56.6773 164.068C56.4193 163.792 56.0743 163.6 55.6423 163.492C55.2103 163.378 54.7423 163.312 54.2383 163.294C53.8183 163.282 53.5153 163.273 53.3293 163.267C53.1433 163.255 53.0173 163.249 52.9513 163.249C52.8913 163.249 52.8343 163.249 52.7803 163.249V161.467C52.8463 161.467 52.9603 161.467 53.1223 161.467C53.2903 161.467 53.4643 161.467 53.6443 161.467C53.8243 161.461 53.9713 161.455 54.0853 161.449C54.8293 161.413 55.4293 161.23 55.8853 160.9C56.3473 160.57 56.5783 160.102 56.5783 159.496C56.5783 158.89 56.3533 158.413 55.9033 158.065C55.4593 157.717 54.8743 157.543 54.1483 157.543C53.4583 157.543 52.8643 157.702 52.3663 158.02C51.8683 158.332 51.4843 158.719 51.2143 159.181L49.8283 157.876C50.2603 157.276 50.8513 156.775 51.6013 156.373C52.3513 155.971 53.2183 155.77 54.2023 155.77C54.7603 155.77 55.3003 155.845 55.8223 155.995C56.3443 156.139 56.8123 156.361 57.2263 156.661C57.6403 156.961 57.9673 157.342 58.2073 157.804C58.4533 158.26 58.5763 158.803 58.5763 159.433C58.5763 160.063 58.4473 160.633 58.1893 161.143C57.9373 161.653 57.5983 162.058 57.1723 162.358C57.7663 162.58 58.2313 162.931 58.5673 163.411C58.9033 163.885 59.0713 164.491 59.0713 165.229C59.0713 166.057 58.8523 166.774 58.4143 167.38C57.9823 167.98 57.3883 168.445 56.6323 168.775C55.8823 169.105 55.0243 169.27 54.0583 169.27ZM63.7394 169.27C63.0194 169.27 62.4164 169.138 61.9304 168.874C61.4444 168.604 61.0754 168.25 60.8234 167.812C60.5774 167.368 60.4544 166.882 60.4544 166.354C60.4544 165.862 60.5414 165.43 60.7154 165.058C60.8894 164.686 61.1474 164.371 61.4894 164.113C61.8314 163.849 62.2514 163.636 62.7494 163.474C63.1814 163.348 63.6704 163.237 64.2164 163.141C64.7624 163.045 65.3354 162.955 65.9354 162.871C66.5414 162.787 67.1414 162.703 67.7354 162.619L67.0514 162.997C67.0634 162.235 66.9014 161.671 66.5654 161.305C66.2354 160.933 65.6654 160.747 64.8554 160.747C64.3454 160.747 63.8774 160.867 63.4514 161.107C63.0254 161.341 62.7284 161.731 62.5604 162.277L60.8054 161.737C61.0454 160.903 61.5014 160.24 62.1734 159.748C62.8514 159.256 63.7514 159.01 64.8734 159.01C65.7434 159.01 66.4994 159.16 67.1414 159.46C67.7894 159.754 68.2634 160.222 68.5634 160.864C68.7194 161.182 68.8154 161.518 68.8514 161.872C68.8874 162.226 68.9054 162.607 68.9054 163.015V169H67.2404V166.777L67.5644 167.065C67.1624 167.809 66.6494 168.364 66.0254 168.73C65.4074 169.09 64.6454 169.27 63.7394 169.27ZM64.0724 167.731C64.6064 167.731 65.0654 167.638 65.4494 167.452C65.8334 167.26 66.1424 167.017 66.3764 166.723C66.6104 166.429 66.7634 166.123 66.8354 165.805C66.9374 165.517 66.9944 165.193 67.0064 164.833C67.0244 164.473 67.0334 164.185 67.0334 163.969L67.6454 164.194C67.0514 164.284 66.5114 164.365 66.0254 164.437C65.5394 164.509 65.0984 164.581 64.7024 164.653C64.3124 164.719 63.9644 164.8 63.6584 164.896C63.4004 164.986 63.1694 165.094 62.9654 165.22C62.7674 165.346 62.6084 165.499 62.4884 165.679C62.3744 165.859 62.3174 166.078 62.3174 166.336C62.3174 166.588 62.3804 166.822 62.5064 167.038C62.6324 167.248 62.8244 167.416 63.0824 167.542C63.3404 167.668 63.6704 167.731 64.0724 167.731ZM81.9074 170.917V169H71.2334V159.28H73.0424V167.308H76.0934V159.28H77.9024V167.308H80.9444V159.28H82.7534V167.308H83.7884V170.917H81.9074ZM93.4246 159.28V169H91.6156V162.241L86.7556 169H85.2256V159.28H87.0346V165.904L91.9036 159.28H93.4246ZM98.4507 169V160.972H95.1297V159.28H103.653V160.972H100.332V169H98.4507ZM107.825 169.27C107.105 169.27 106.502 169.138 106.016 168.874C105.53 168.604 105.161 168.25 104.909 167.812C104.663 167.368 104.54 166.882 104.54 166.354C104.54 165.862 104.627 165.43 104.801 165.058C104.975 164.686 105.233 164.371 105.575 164.113C105.917 163.849 106.337 163.636 106.835 163.474C107.267 163.348 107.756 163.237 108.302 163.141C108.848 163.045 109.421 162.955 110.021 162.871C110.627 162.787 111.227 162.703 111.821 162.619L111.137 162.997C111.149 162.235 110.987 161.671 110.651 161.305C110.321 160.933 109.751 160.747 108.941 160.747C108.431 160.747 107.963 160.867 107.537 161.107C107.111 161.341 106.814 161.731 106.646 162.277L104.891 161.737C105.131 160.903 105.587 160.24 106.259 159.748C106.937 159.256 107.837 159.01 108.959 159.01C109.829 159.01 110.585 159.16 111.227 159.46C111.875 159.754 112.349 160.222 112.649 160.864C112.805 161.182 112.901 161.518 112.937 161.872C112.973 162.226 112.991 162.607 112.991 163.015V169H111.326V166.777L111.65 167.065C111.248 167.809 110.735 168.364 110.111 168.73C109.493 169.09 108.731 169.27 107.825 169.27ZM108.158 167.731C108.692 167.731 109.151 167.638 109.535 167.452C109.919 167.26 110.228 167.017 110.462 166.723C110.696 166.429 110.849 166.123 110.921 165.805C111.023 165.517 111.08 165.193 111.092 164.833C111.11 164.473 111.119 164.185 111.119 163.969L111.731 164.194C111.137 164.284 110.597 164.365 110.111 164.437C109.625 164.509 109.184 164.581 108.788 164.653C108.398 164.719 108.05 164.8 107.744 164.896C107.486 164.986 107.255 165.094 107.051 165.22C106.853 165.346 106.694 165.499 106.574 165.679C106.46 165.859 106.403 166.078 106.403 166.336C106.403 166.588 106.466 166.822 106.592 167.038C106.718 167.248 106.91 167.416 107.168 167.542C107.426 167.668 107.756 167.731 108.158 167.731ZM127.122 159.28V169H125.313V162.241L120.453 169H118.923V159.28H120.732V165.904L125.601 159.28H127.122ZM133.231 169V159.28H135.04V167.308H138.091V159.28H139.9V167.308H142.942V159.28H144.751V169H133.231ZM155.458 159.28V169H153.649V162.241L148.789 169H147.259V159.28H149.068V165.904L153.937 159.28H155.458ZM162.545 173.05V169.171C161.597 169.321 160.736 169.219 159.962 168.865C159.188 168.511 158.573 167.935 158.117 167.137C157.661 166.339 157.433 165.343 157.433 164.149C157.433 162.955 157.661 161.956 158.117 161.152C158.573 160.348 159.188 159.769 159.962 159.415C160.736 159.061 161.597 158.959 162.545 159.109V156.166H164.237V159.109C165.185 158.959 166.046 159.061 166.82 159.415C167.594 159.769 168.209 160.348 168.665 161.152C169.121 161.956 169.349 162.955 169.349 164.149C169.349 165.343 169.121 166.339 168.665 167.137C168.209 167.935 167.594 168.511 166.82 168.865C166.046 169.219 165.185 169.321 164.237 169.171V173.05H162.545ZM162.545 167.47V160.819C162.059 160.735 161.618 160.75 161.222 160.864C160.832 160.978 160.499 161.179 160.223 161.467C159.947 161.749 159.734 162.118 159.584 162.574C159.434 163.024 159.359 163.549 159.359 164.149C159.359 164.749 159.434 165.274 159.584 165.724C159.74 166.174 159.959 166.543 160.241 166.831C160.529 167.113 160.868 167.311 161.258 167.425C161.648 167.533 162.077 167.548 162.545 167.47ZM164.237 167.47C164.705 167.548 165.134 167.533 165.524 167.425C165.914 167.317 166.25 167.122 166.532 166.84C166.82 166.558 167.039 166.192 167.189 165.742C167.345 165.286 167.423 164.755 167.423 164.149C167.423 163.537 167.348 163.006 167.198 162.556C167.048 162.1 166.835 161.731 166.559 161.449C166.283 161.161 165.947 160.963 165.551 160.855C165.161 160.747 164.723 160.735 164.237 160.819V167.47ZM175.895 169.27C174.965 169.27 174.185 169.045 173.555 168.595C172.925 168.139 172.448 167.524 172.124 166.75C171.8 165.976 171.638 165.103 171.638 164.131C171.638 163.159 171.797 162.286 172.115 161.512C172.439 160.738 172.913 160.129 173.537 159.685C174.167 159.235 174.941 159.01 175.859 159.01C176.771 159.01 177.557 159.235 178.217 159.685C178.883 160.129 179.396 160.738 179.756 161.512C180.116 162.28 180.296 163.153 180.296 164.131C180.296 165.103 180.116 165.979 179.756 166.759C179.402 167.533 178.895 168.145 178.235 168.595C177.581 169.045 176.801 169.27 175.895 169.27ZM171.323 173.32V159.28H172.997V166.273H173.213V173.32H171.323ZM175.634 167.569C176.234 167.569 176.729 167.416 177.119 167.11C177.515 166.804 177.809 166.393 178.001 165.877C178.199 165.355 178.298 164.773 178.298 164.131C178.298 163.495 178.199 162.919 178.001 162.403C177.809 161.887 177.512 161.476 177.11 161.17C176.708 160.864 176.195 160.711 175.571 160.711C174.983 160.711 174.497 160.855 174.113 161.143C173.735 161.431 173.453 161.833 173.267 162.349C173.087 162.865 172.997 163.459 172.997 164.131C172.997 164.803 173.087 165.397 173.267 165.913C173.447 166.429 173.732 166.834 174.122 167.128C174.512 167.422 175.016 167.569 175.634 167.569ZM186.504 169.27C185.532 169.27 184.689 169.051 183.975 168.613C183.261 168.175 182.709 167.572 182.319 166.804C181.935 166.03 181.743 165.139 181.743 164.131C181.743 163.117 181.941 162.226 182.337 161.458C182.733 160.684 183.288 160.084 184.002 159.658C184.716 159.226 185.55 159.01 186.504 159.01C187.476 159.01 188.319 159.229 189.033 159.667C189.747 160.105 190.299 160.708 190.689 161.476C191.079 162.244 191.274 163.129 191.274 164.131C191.274 165.145 191.076 166.039 190.68 166.813C190.29 167.581 189.738 168.184 189.024 168.622C188.31 169.054 187.47 169.27 186.504 169.27ZM186.504 167.497C187.434 167.497 188.127 167.185 188.583 166.561C189.045 165.931 189.276 165.121 189.276 164.131C189.276 163.117 189.042 162.307 188.574 161.701C188.112 161.089 187.422 160.783 186.504 160.783C185.874 160.783 185.355 160.927 184.947 161.215C184.539 161.497 184.236 161.89 184.038 162.394C183.84 162.892 183.741 163.471 183.741 164.131C183.741 165.151 183.975 165.967 184.443 166.579C184.911 167.191 185.598 167.497 186.504 167.497ZM193.243 169V159.28H197.518C197.8 159.28 198.082 159.298 198.364 159.334C198.646 159.364 198.895 159.409 199.111 159.469C199.603 159.607 200.023 159.883 200.371 160.297C200.719 160.705 200.893 161.251 200.893 161.935C200.893 162.325 200.833 162.655 200.713 162.925C200.593 163.189 200.428 163.417 200.218 163.609C200.122 163.693 200.02 163.768 199.912 163.834C199.804 163.9 199.696 163.951 199.588 163.987C199.81 164.023 200.029 164.101 200.245 164.221C200.575 164.395 200.845 164.647 201.055 164.977C201.271 165.301 201.379 165.736 201.379 166.282C201.379 166.936 201.22 167.485 200.902 167.929C200.584 168.367 200.134 168.667 199.552 168.829C199.324 168.895 199.066 168.94 198.778 168.964C198.496 168.988 198.214 169 197.932 169H193.243ZM195.151 167.515H197.815C197.941 167.515 198.085 167.503 198.247 167.479C198.409 167.455 198.553 167.422 198.679 167.38C198.949 167.296 199.141 167.143 199.255 166.921C199.375 166.699 199.435 166.462 199.435 166.21C199.435 165.868 199.345 165.595 199.165 165.391C198.985 165.181 198.757 165.046 198.481 164.986C198.361 164.944 198.229 164.92 198.085 164.914C197.941 164.908 197.818 164.905 197.716 164.905H195.151V167.515ZM195.151 163.393H197.257C197.431 163.393 197.608 163.384 197.788 163.366C197.968 163.342 198.124 163.303 198.256 163.249C198.49 163.159 198.664 163.009 198.778 162.799C198.892 162.583 198.949 162.349 198.949 162.097C198.949 161.821 198.886 161.575 198.76 161.359C198.634 161.143 198.445 160.993 198.193 160.909C198.019 160.849 197.818 160.816 197.59 160.81C197.368 160.798 197.227 160.792 197.167 160.792H195.151V163.393ZM205.929 169.27C205.209 169.27 204.606 169.138 204.12 168.874C203.634 168.604 203.265 168.25 203.013 167.812C202.767 167.368 202.644 166.882 202.644 166.354C202.644 165.862 202.731 165.43 202.905 165.058C203.079 164.686 203.337 164.371 203.679 164.113C204.021 163.849 204.441 163.636 204.939 163.474C205.371 163.348 205.86 163.237 206.406 163.141C206.952 163.045 207.525 162.955 208.125 162.871C208.731 162.787 209.331 162.703 209.925 162.619L209.241 162.997C209.253 162.235 209.091 161.671 208.755 161.305C208.425 160.933 207.855 160.747 207.045 160.747C206.535 160.747 206.067 160.867 205.641 161.107C205.215 161.341 204.918 161.731 204.75 162.277L202.995 161.737C203.235 160.903 203.691 160.24 204.363 159.748C205.041 159.256 205.941 159.01 207.063 159.01C207.933 159.01 208.689 159.16 209.331 159.46C209.979 159.754 210.453 160.222 210.753 160.864C210.909 161.182 211.005 161.518 211.041 161.872C211.077 162.226 211.095 162.607 211.095 163.015V169H209.43V166.777L209.754 167.065C209.352 167.809 208.839 168.364 208.215 168.73C207.597 169.09 206.835 169.27 205.929 169.27ZM206.262 167.731C206.796 167.731 207.255 167.638 207.639 167.452C208.023 167.26 208.332 167.017 208.566 166.723C208.8 166.429 208.953 166.123 209.025 165.805C209.127 165.517 209.184 165.193 209.196 164.833C209.214 164.473 209.223 164.185 209.223 163.969L209.835 164.194C209.241 164.284 208.701 164.365 208.215 164.437C207.729 164.509 207.288 164.581 206.892 164.653C206.502 164.719 206.154 164.8 205.848 164.896C205.59 164.986 205.359 165.094 205.155 165.22C204.957 165.346 204.798 165.499 204.678 165.679C204.564 165.859 204.507 166.078 204.507 166.336C204.507 166.588 204.57 166.822 204.696 167.038C204.822 167.248 205.014 167.416 205.272 167.542C205.53 167.668 205.86 167.731 206.262 167.731ZM213.423 169V159.28H215.304V163.249H220.047V159.28H221.928V169H220.047V165.022H215.304V169H213.423ZM232.643 159.28V169H230.834V162.241L225.974 169H224.444V159.28H226.253V165.904L231.122 159.28H232.643ZM239.469 169.27C238.503 169.27 237.654 169.06 236.922 168.64C236.196 168.214 235.629 167.623 235.221 166.867C234.819 166.105 234.618 165.223 234.618 164.221C234.618 163.159 234.816 162.238 235.212 161.458C235.614 160.678 236.172 160.075 236.886 159.649C237.6 159.223 238.431 159.01 239.379 159.01C240.369 159.01 241.212 159.241 241.908 159.703C242.604 160.159 243.123 160.81 243.465 161.656C243.813 162.502 243.951 163.507 243.879 164.671H241.998V163.987C241.986 162.859 241.77 162.025 241.35 161.485C240.936 160.945 240.303 160.675 239.451 160.675C238.509 160.675 237.801 160.972 237.327 161.566C236.853 162.16 236.616 163.018 236.616 164.14C236.616 165.208 236.853 166.036 237.327 166.624C237.801 167.206 238.485 167.497 239.379 167.497C239.967 167.497 240.474 167.365 240.9 167.101C241.332 166.831 241.668 166.447 241.908 165.949L243.753 166.534C243.375 167.404 242.802 168.079 242.034 168.559C241.266 169.033 240.411 169.27 239.469 169.27ZM236.004 164.671V163.204H242.943V164.671H236.004Z" fill="white"/>
<path d="M79.4885 231.65V218.69H81.3695V224.279H87.8495V218.69H89.7395V231.65H87.8495V226.052H81.3695V231.65H79.4885ZM95.0128 231.92C94.2928 231.92 93.6898 231.788 93.2038 231.524C92.7178 231.254 92.3488 230.9 92.0968 230.462C91.8508 230.018 91.7278 229.532 91.7278 229.004C91.7278 228.512 91.8148 228.08 91.9888 227.708C92.1628 227.336 92.4208 227.021 92.7628 226.763C93.1048 226.499 93.5248 226.286 94.0228 226.124C94.4548 225.998 94.9438 225.887 95.4898 225.791C96.0358 225.695 96.6088 225.605 97.2088 225.521C97.8148 225.437 98.4148 225.353 99.0088 225.269L98.3248 225.647C98.3368 224.885 98.1748 224.321 97.8388 223.955C97.5088 223.583 96.9388 223.397 96.1288 223.397C95.6188 223.397 95.1508 223.517 94.7248 223.757C94.2988 223.991 94.0018 224.381 93.8338 224.927L92.0788 224.387C92.3188 223.553 92.7748 222.89 93.4468 222.398C94.1248 221.906 95.0248 221.66 96.1468 221.66C97.0168 221.66 97.7728 221.81 98.4148 222.11C99.0628 222.404 99.5368 222.872 99.8368 223.514C99.9928 223.832 100.089 224.168 100.125 224.522C100.161 224.876 100.179 225.257 100.179 225.665V231.65H98.5138V229.427L98.8378 229.715C98.4358 230.459 97.9228 231.014 97.2988 231.38C96.6808 231.74 95.9188 231.92 95.0128 231.92ZM95.3458 230.381C95.8798 230.381 96.3388 230.288 96.7228 230.102C97.1068 229.91 97.4158 229.667 97.6498 229.373C97.8838 229.079 98.0368 228.773 98.1088 228.455C98.2108 228.167 98.2678 227.843 98.2798 227.483C98.2978 227.123 98.3068 226.835 98.3068 226.619L98.9188 226.844C98.3248 226.934 97.7848 227.015 97.2988 227.087C96.8128 227.159 96.3718 227.231 95.9758 227.303C95.5858 227.369 95.2378 227.45 94.9318 227.546C94.6738 227.636 94.4428 227.744 94.2388 227.87C94.0408 227.996 93.8818 228.149 93.7618 228.329C93.6478 228.509 93.5908 228.728 93.5908 228.986C93.5908 229.238 93.6538 229.472 93.7798 229.688C93.9058 229.898 94.0978 230.066 94.3558 230.192C94.6138 230.318 94.9438 230.381 95.3458 230.381ZM101.796 233.81V230.138C102.33 230.138 102.711 229.961 102.939 229.607C103.173 229.247 103.359 228.638 103.497 227.78C103.581 227.258 103.65 226.703 103.704 226.115C103.764 225.527 103.815 224.891 103.857 224.207C103.899 223.517 103.941 222.758 103.983 221.93H110.949V230.138H111.903V233.81H110.121V231.65H103.587V233.81H101.796ZM104.487 230.138H109.059V223.442H105.657C105.633 223.838 105.606 224.246 105.576 224.666C105.552 225.086 105.522 225.503 105.486 225.917C105.456 226.331 105.42 226.727 105.378 227.105C105.336 227.483 105.288 227.825 105.234 228.131C105.162 228.605 105.075 229.001 104.973 229.319C104.877 229.637 104.715 229.91 104.487 230.138ZM118.007 231.92C117.041 231.92 116.192 231.71 115.46 231.29C114.734 230.864 114.167 230.273 113.759 229.517C113.357 228.755 113.156 227.873 113.156 226.871C113.156 225.809 113.354 224.888 113.75 224.108C114.152 223.328 114.71 222.725 115.424 222.299C116.138 221.873 116.969 221.66 117.917 221.66C118.907 221.66 119.75 221.891 120.446 222.353C121.142 222.809 121.661 223.46 122.003 224.306C122.351 225.152 122.489 226.157 122.417 227.321H120.536V226.637C120.524 225.509 120.308 224.675 119.888 224.135C119.474 223.595 118.841 223.325 117.989 223.325C117.047 223.325 116.339 223.622 115.865 224.216C115.391 224.81 115.154 225.668 115.154 226.79C115.154 227.858 115.391 228.686 115.865 229.274C116.339 229.856 117.023 230.147 117.917 230.147C118.505 230.147 119.012 230.015 119.438 229.751C119.87 229.481 120.206 229.097 120.446 228.599L122.291 229.184C121.913 230.054 121.34 230.729 120.572 231.209C119.804 231.683 118.949 231.92 118.007 231.92ZM114.542 227.321V225.854H121.481V227.321H114.542ZM123.004 231.65L126.748 226.79L123.211 221.93H125.281L128.665 226.673V221.93H130.357V226.673L133.741 221.93H135.82L132.283 226.79L136.027 231.65H133.84L130.357 226.907V231.65H128.665V226.907L125.191 231.65H123.004ZM137.452 231.65V221.93H139.333V225.899H144.076V221.93H145.957V231.65H144.076V227.672H139.333V231.65H137.452ZM152.704 231.92C151.732 231.92 150.889 231.701 150.175 231.263C149.461 230.825 148.909 230.222 148.519 229.454C148.135 228.68 147.943 227.789 147.943 226.781C147.943 225.767 148.141 224.876 148.537 224.108C148.933 223.334 149.488 222.734 150.202 222.308C150.916 221.876 151.75 221.66 152.704 221.66C153.676 221.66 154.519 221.879 155.233 222.317C155.947 222.755 156.499 223.358 156.889 224.126C157.279 224.894 157.474 225.779 157.474 226.781C157.474 227.795 157.276 228.689 156.88 229.463C156.49 230.231 155.938 230.834 155.224 231.272C154.51 231.704 153.67 231.92 152.704 231.92ZM152.704 230.147C153.634 230.147 154.327 229.835 154.783 229.211C155.245 228.581 155.476 227.771 155.476 226.781C155.476 225.767 155.242 224.957 154.774 224.351C154.312 223.739 153.622 223.433 152.704 223.433C152.074 223.433 151.555 223.577 151.147 223.865C150.739 224.147 150.436 224.54 150.238 225.044C150.04 225.542 149.941 226.121 149.941 226.781C149.941 227.801 150.175 228.617 150.643 229.229C151.111 229.841 151.798 230.147 152.704 230.147ZM163.762 231.92C162.796 231.92 161.947 231.71 161.215 231.29C160.489 230.864 159.922 230.273 159.514 229.517C159.112 228.755 158.911 227.873 158.911 226.871C158.911 225.809 159.109 224.888 159.505 224.108C159.907 223.328 160.465 222.725 161.179 222.299C161.893 221.873 162.724 221.66 163.672 221.66C164.662 221.66 165.505 221.891 166.201 222.353C166.897 222.809 167.416 223.46 167.758 224.306C168.106 225.152 168.244 226.157 168.172 227.321H166.291V226.637C166.279 225.509 166.063 224.675 165.643 224.135C165.229 223.595 164.596 223.325 163.744 223.325C162.802 223.325 162.094 223.622 161.62 224.216C161.146 224.81 160.909 225.668 160.909 226.79C160.909 227.858 161.146 228.686 161.62 229.274C162.094 229.856 162.778 230.147 163.672 230.147C164.26 230.147 164.767 230.015 165.193 229.751C165.625 229.481 165.961 229.097 166.201 228.599L168.046 229.184C167.668 230.054 167.095 230.729 166.327 231.209C165.559 231.683 164.704 231.92 163.762 231.92ZM160.297 227.321V225.854H167.236V227.321H160.297ZM172.715 231.65L176.351 226.736L172.796 221.93H175.028L177.449 225.269L179.843 221.93H182.075L178.52 226.736L182.165 231.65H179.924L177.449 228.203L174.956 231.65H172.715ZM188.167 231.92C187.237 231.92 186.457 231.695 185.827 231.245C185.197 230.789 184.72 230.174 184.396 229.4C184.072 228.626 183.91 227.753 183.91 226.781C183.91 225.809 184.069 224.936 184.387 224.162C184.711 223.388 185.185 222.779 185.809 222.335C186.439 221.885 187.213 221.66 188.131 221.66C189.043 221.66 189.829 221.885 190.489 222.335C191.155 222.779 191.668 223.388 192.028 224.162C192.388 224.93 192.568 225.803 192.568 226.781C192.568 227.753 192.388 228.629 192.028 229.409C191.674 230.183 191.167 230.795 190.507 231.245C189.853 231.695 189.073 231.92 188.167 231.92ZM183.595 235.97V221.93H185.269V228.923H185.485V235.97H183.595ZM187.906 230.219C188.506 230.219 189.001 230.066 189.391 229.76C189.787 229.454 190.081 229.043 190.273 228.527C190.471 228.005 190.57 227.423 190.57 226.781C190.57 226.145 190.471 225.569 190.273 225.053C190.081 224.537 189.784 224.126 189.382 223.82C188.98 223.514 188.467 223.361 187.843 223.361C187.255 223.361 186.769 223.505 186.385 223.793C186.007 224.081 185.725 224.483 185.539 224.999C185.359 225.515 185.269 226.109 185.269 226.781C185.269 227.453 185.359 228.047 185.539 228.563C185.719 229.079 186.004 229.484 186.394 229.778C186.784 230.072 187.288 230.219 187.906 230.219ZM197.3 231.92C196.58 231.92 195.977 231.788 195.491 231.524C195.005 231.254 194.636 230.9 194.384 230.462C194.138 230.018 194.015 229.532 194.015 229.004C194.015 228.512 194.102 228.08 194.276 227.708C194.45 227.336 194.708 227.021 195.05 226.763C195.392 226.499 195.812 226.286 196.31 226.124C196.742 225.998 197.231 225.887 197.777 225.791C198.323 225.695 198.896 225.605 199.496 225.521C200.102 225.437 200.702 225.353 201.296 225.269L200.612 225.647C200.624 224.885 200.462 224.321 200.126 223.955C199.796 223.583 199.226 223.397 198.416 223.397C197.906 223.397 197.438 223.517 197.012 223.757C196.586 223.991 196.289 224.381 196.121 224.927L194.366 224.387C194.606 223.553 195.062 222.89 195.734 222.398C196.412 221.906 197.312 221.66 198.434 221.66C199.304 221.66 200.06 221.81 200.702 222.11C201.35 222.404 201.824 222.872 202.124 223.514C202.28 223.832 202.376 224.168 202.412 224.522C202.448 224.876 202.466 225.257 202.466 225.665V231.65H200.801V229.427L201.125 229.715C200.723 230.459 200.21 231.014 199.586 231.38C198.968 231.74 198.206 231.92 197.3 231.92ZM197.633 230.381C198.167 230.381 198.626 230.288 199.01 230.102C199.394 229.91 199.703 229.667 199.937 229.373C200.171 229.079 200.324 228.773 200.396 228.455C200.498 228.167 200.555 227.843 200.567 227.483C200.585 227.123 200.594 226.835 200.594 226.619L201.206 226.844C200.612 226.934 200.072 227.015 199.586 227.087C199.1 227.159 198.659 227.231 198.263 227.303C197.873 227.369 197.525 227.45 197.219 227.546C196.961 227.636 196.73 227.744 196.526 227.87C196.328 227.996 196.169 228.149 196.049 228.329C195.935 228.509 195.878 228.728 195.878 228.986C195.878 229.238 195.941 229.472 196.067 229.688C196.193 229.898 196.385 230.066 196.643 230.192C196.901 230.318 197.231 230.381 197.633 230.381ZM204.794 231.65V221.93H206.675V225.899H211.418V221.93H213.299V231.65H211.418V227.672H206.675V231.65H204.794ZM220.135 231.92C219.169 231.92 218.32 231.71 217.588 231.29C216.862 230.864 216.295 230.273 215.887 229.517C215.485 228.755 215.284 227.873 215.284 226.871C215.284 225.809 215.482 224.888 215.878 224.108C216.28 223.328 216.838 222.725 217.552 222.299C218.266 221.873 219.097 221.66 220.045 221.66C221.035 221.66 221.878 221.891 222.574 222.353C223.27 222.809 223.789 223.46 224.131 224.306C224.479 225.152 224.617 226.157 224.545 227.321H222.664V226.637C222.652 225.509 222.436 224.675 222.016 224.135C221.602 223.595 220.969 223.325 220.117 223.325C219.175 223.325 218.467 223.622 217.993 224.216C217.519 224.81 217.282 225.668 217.282 226.79C217.282 227.858 217.519 228.686 217.993 229.274C218.467 229.856 219.151 230.147 220.045 230.147C220.633 230.147 221.14 230.015 221.566 229.751C221.998 229.481 222.334 229.097 222.574 228.599L224.419 229.184C224.041 230.054 223.468 230.729 222.7 231.209C221.932 231.683 221.077 231.92 220.135 231.92ZM216.67 227.321V225.854H223.609V227.321H216.67ZM226.556 231.65V221.93H228.437V225.899H233.18V221.93H235.061V231.65H233.18V227.672H228.437V231.65H226.556ZM245.776 221.93V231.65H243.967V224.891L239.107 231.65H237.577V221.93H239.386V228.554L244.255 221.93H245.776ZM252.602 231.92C251.636 231.92 250.787 231.71 250.055 231.29C249.329 230.864 248.762 230.273 248.354 229.517C247.952 228.755 247.751 227.873 247.751 226.871C247.751 225.809 247.949 224.888 248.345 224.108C248.747 223.328 249.305 222.725 250.019 222.299C250.733 221.873 251.564 221.66 252.512 221.66C253.502 221.66 254.345 221.891 255.041 222.353C255.737 222.809 256.256 223.46 256.598 224.306C256.946 225.152 257.084 226.157 257.012 227.321H255.131V226.637C255.119 225.509 254.903 224.675 254.483 224.135C254.069 223.595 253.436 223.325 252.584 223.325C251.642 223.325 250.934 223.622 250.46 224.216C249.986 224.81 249.749 225.668 249.749 226.79C249.749 227.858 249.986 228.686 250.46 229.274C250.934 229.856 251.618 230.147 252.512 230.147C253.1 230.147 253.607 230.015 254.033 229.751C254.465 229.481 254.801 229.097 255.041 228.599L256.886 229.184C256.508 230.054 255.935 230.729 255.167 231.209C254.399 231.683 253.544 231.92 252.602 231.92ZM249.137 227.321V225.854H256.076V227.321H249.137Z" fill="white"/>
<defs>
<linearGradient id="paint0_linear_2936_1844" x1="379.659" y1="170.879" x2="341.24" y2="-0.84097" gradientUnits="userSpaceOnUse">
<stop stop-color="#2CE0D5"/>
<stop offset="0.851845" stop-color="#A4EFEE"/>
</linearGradient>
<radialGradient id="paint1_radial_2936_1844" cx="0" cy="0" r="1" gradientUnits="userSpaceOnUse" gradientTransform="translate(361.796 264.087) rotate(2.32133) scale(107.744 70.7628)">
<stop stop-color="#11DCD0"/>
</radialGradient>
<linearGradient id="paint2_linear_2936_1844" x1="305.723" y1="78.4223" x2="323.961" y2="-38.6623" gradientUnits="userSpaceOnUse">
<stop stop-color="#2CE0D5"/>
<stop offset="0.851845" stop-color="#A4EFEE"/>
</linearGradient>
</defs>
</svg>
