<svg width="770" height="415" viewBox="0 0 770 415" fill="none" xmlns="http://www.w3.org/2000/svg">
<ellipse opacity="0.65" cx="393" cy="369" rx="393" ry="46" fill="#E2EDF6"/>
<path d="M316.013 341.108L387.95 387.748L510.48 388.144C485.974 361.266 399.413 341.108 399.413 341.108H316.013Z" fill="#E2EDF6"/>
<path d="M288.085 325.387L331.289 311.218L331.908 374.006L288.705 388.158L288.085 325.387Z" fill="#62839A"/>
<path d="M239.353 313.24L282.556 299.071L331.289 311.218L288.085 325.386L239.353 313.24Z" fill="#D9E7F2"/>
<path d="M288.085 325.386L239.353 313.24L239.972 376.011L288.705 388.157L288.085 325.386Z" fill="url(#paint0_radial_307_1972)"/>
<path d="M245.55 74.6932C241.864 75.8997 238.52 77.9703 235.471 80.9214C228.082 88.0626 223.19 101.693 220.906 121.453L219.65 132.394L262.854 118.225L264.11 107.285C266.393 87.5246 271.286 73.8943 278.674 66.7531C281.724 63.8183 285.067 61.7314 288.753 60.5249L245.55 74.6932Z" fill="#E2EDF6"/>
<path d="M371.981 49.3079C355.052 25.4549 332.528 9.86813 305.014 3.02039C288.77 -1.02304 274.369 -1.00673 261.958 3.0693L218.754 17.2376C231.165 13.1616 245.567 13.1453 261.811 17.1887C289.325 24.0527 311.848 39.6232 328.777 63.4762C345.935 87.6878 354.758 114.394 355.035 142.877C355.198 159.377 352.279 174.084 346.391 186.572C340.667 198.67 330.033 211.632 313.887 226.208C301.834 237.083 297.055 242.822 295.18 245.724C292.733 249.506 290.89 254.218 289.732 259.729C288.868 263.838 287.808 272.724 287.726 291.702L287.677 303.31L330.881 289.142L330.93 277.533C331.028 258.555 332.072 249.67 332.936 245.561C334.11 240.05 335.937 235.338 338.383 231.556C340.259 228.653 345.021 222.931 357.09 212.04C373.237 197.464 383.87 184.502 389.595 172.404C395.483 159.915 398.402 145.209 398.239 128.709C397.962 100.226 389.122 73.5195 371.981 49.3079Z" fill="#62839A"/>
<path d="M328.777 63.4598C311.847 39.6069 289.324 24.0201 261.81 17.1724C235.748 10.6833 214.431 14.6615 198.432 29.0255C182.432 43.4057 172.859 67.4544 169.988 100.519L168.977 112.03L219.65 132.394L220.906 121.454C223.19 101.693 228.082 88.0628 235.47 80.9216C242.728 73.9108 251.698 71.8402 262.903 74.6282C274.515 77.514 284.056 84.7041 292.064 96.5899C300.007 108.329 303.937 120.215 304.052 132.883C304.117 139.633 302.959 145.356 300.512 150.377C298.653 154.192 293.793 161.122 281.251 172.372C269.932 182.529 262.251 190.322 257.733 196.257C251.437 204.556 246.822 213.458 244.017 222.605C240.217 234.621 238.374 249.555 238.553 267.001C238.586 269.903 238.683 274.158 238.863 279.637L239.222 291.229L287.693 303.31L287.742 291.702C287.84 272.724 288.884 263.838 289.748 259.729C290.922 254.218 292.749 249.506 295.196 245.724C297.071 242.822 301.833 237.099 313.902 226.208C330.049 211.632 340.682 198.67 346.407 186.572C352.295 174.083 355.198 159.377 355.051 142.877C354.774 114.394 345.934 87.6878 328.793 63.4761L328.777 63.4598Z" fill="url(#paint1_radial_307_1972)"/>
<path d="M510.349 283.052V312.275L387.95 387.9V283.052C387.95 280.843 389.741 279.052 391.95 279.052H506.349C508.558 279.052 510.349 280.843 510.349 283.052Z" fill="url(#paint2_radial_307_1972)"/>
<path d="M496.361 286.484V329.761H401.939V286.484H496.361Z" fill="white" fill-opacity="0.62" stroke="#ACD1EC"/>
<path d="M503.355 296.538V321.892H395.819V296.538H503.355Z" fill="white" fill-opacity="0.74" stroke="#ACD1EC"/>
<path d="M387.95 387.9H509.912L519.255 313.968C519.633 310.981 517.305 308.341 514.295 308.341H453.958L443.467 317.23H395.381L387.95 387.9Z" fill="#62839A"/>
<path d="M527.081 155.732C480.684 184.981 476.488 239.131 480.684 261.395L402.633 261.395C400.076 213.452 408.823 182.967 416.41 174.109C424.273 169.081 453.681 156.23 470.395 155.744L527.081 155.732Z" fill="url(#paint3_radial_307_1972)" fill-opacity="0.31" stroke="#ACD1EC" stroke-width="2"/>
<path d="M470.594 155.738C461.844 156.232 453.011 167.903 451.313 177.173C439.325 170.07 419.951 170.288 415.959 174.611" stroke="#ACD1EC" stroke-width="2"/>
<path d="M467.62 246.063L412.606 246.063" stroke="#ACD1EC" stroke-width="2"/>
<path d="M471.266 215.811L414.189 215.811" stroke="#ACD1EC" stroke-width="2"/>
<path d="M474.92 201.966L417.155 201.966" stroke="#ACD1EC" stroke-width="2"/>
<path d="M482.645 187.947L419.379 187.947" stroke="#ACD1EC" stroke-width="2"/>
<path d="M495.211 173.488L461.155 173.488" stroke="#ACD1EC" stroke-width="2"/>
<path d="M467.276 229.961L412.263 229.961" stroke="#ACD1EC" stroke-width="2"/>
<mask id="path-21-inside-1_307_1972" fill="white">
<path fill-rule="evenodd" clip-rule="evenodd" d="M488.504 69.8046C487.474 64.8509 482.36 61.0774 476.195 61.0592C469.733 61.0402 464.401 65.1537 463.71 70.4549C459.209 72.0479 456.044 75.797 456.031 80.1773C456.014 86.0188 461.61 90.7707 468.53 90.7911L490.712 90.8565C490.712 90.854 490.712 90.8515 490.712 90.8491C497.418 90.6626 502.792 86.025 502.809 80.3148C502.826 74.4732 497.23 69.7213 490.31 69.7009C489.697 69.6991 489.094 69.7345 488.504 69.8046Z"/>
</mask>
<path d="M488.504 69.8046L486.546 70.2119L486.92 72.007L488.74 71.7906L488.504 69.8046ZM463.71 70.4549L464.377 72.3403L465.534 71.9308L465.693 70.7137L463.71 70.4549ZM490.712 90.8565L490.706 92.8565L492.706 92.8623L492.712 90.8624L490.712 90.8565ZM490.712 90.8491L490.657 88.8498L488.718 88.9037L488.712 90.8432L490.712 90.8491ZM490.463 69.3972C489.198 63.3199 483.093 59.0795 476.201 59.0592L476.189 63.0592C481.627 63.0752 485.75 66.3819 486.546 70.2119L490.463 69.3972ZM476.201 59.0592C468.992 59.038 462.579 63.659 461.727 70.1962L465.693 70.7137C466.223 66.6485 470.474 63.0424 476.189 63.0592L476.201 59.0592ZM463.042 68.5695C457.941 70.3753 454.047 74.7557 454.031 80.1714L458.031 80.1831C458.041 76.8382 460.478 73.7205 464.377 72.3403L463.042 68.5695ZM454.031 80.1714C454.01 87.4216 460.83 92.7685 468.524 92.7911L468.536 88.7911C462.389 88.773 458.018 84.6159 458.031 80.1831L454.031 80.1714ZM468.524 92.7911L490.706 92.8565L490.718 88.8565L468.536 88.7911L468.524 92.7911ZM492.712 90.8624C492.712 90.8593 492.712 90.8565 492.712 90.8556C492.712 90.8541 492.712 90.8544 492.712 90.855L488.712 90.8432C488.712 90.8462 488.712 90.849 488.712 90.85C488.712 90.8515 488.712 90.8511 488.712 90.8506L492.712 90.8624ZM500.809 80.3089C500.796 84.6446 496.602 88.6846 490.657 88.8498L490.768 92.8483C498.234 92.6407 504.788 87.4055 504.809 80.3206L500.809 80.3089ZM490.304 71.7009C496.451 71.719 500.822 75.8761 500.809 80.3089L504.809 80.3206C504.831 73.0704 498.01 67.7235 490.316 67.7009L490.304 71.7009ZM488.74 71.7906C489.25 71.73 489.772 71.6993 490.304 71.7009L490.316 67.7009C489.622 67.6988 488.938 67.7389 488.268 67.8185L488.74 71.7906Z" fill="#ACD1EC" mask="url(#path-21-inside-1_307_1972)"/>
<mask id="path-23-inside-2_307_1972" fill="white">
<path fill-rule="evenodd" clip-rule="evenodd" d="M202 256.832L202.475 256.833C202.475 256.83 202.475 256.827 202.475 256.824C211.646 256.569 218.997 250.227 219.02 242.417C219.043 234.427 211.39 227.928 201.926 227.9C201.087 227.898 200.262 227.946 199.456 228.042C198.046 221.267 191.052 216.106 182.62 216.081C173.782 216.055 166.491 221.681 165.544 228.931C159.389 231.109 155.06 236.237 155.042 242.228C155.019 250.217 162.672 256.716 172.137 256.744L201.68 256.831C201.734 256.832 201.787 256.832 201.84 256.832C201.894 256.832 201.947 256.832 202 256.832Z"/>
</mask>
<path d="M202 256.832L202.006 254.832L201.999 254.832L201.991 254.832L202 256.832ZM202.475 256.833L202.469 258.833L204.469 258.839L204.475 256.839L202.475 256.833ZM202.475 256.824L202.42 254.825L200.476 254.879L200.475 256.823L202.475 256.824ZM199.456 228.042L197.497 228.449L197.871 230.245L199.692 230.028L199.456 228.042ZM165.544 228.931L166.212 230.816L167.369 230.407L167.528 229.19L165.544 228.931ZM172.137 256.744L172.131 258.744L172.137 256.744ZM201.68 256.831L201.702 254.831L201.694 254.831L201.686 254.831L201.68 256.831ZM201.995 258.832L202.469 258.833L202.481 254.833L202.006 254.832L201.995 258.832ZM204.475 256.839C204.475 256.837 204.475 256.831 204.475 256.825L200.475 256.823C200.475 256.823 200.475 256.823 200.475 256.824C200.475 256.825 200.475 256.826 200.475 256.828L204.475 256.839ZM217.02 242.411C217.001 248.846 210.831 254.591 202.42 254.825L202.531 258.824C212.462 258.547 220.993 251.607 221.02 242.423L217.02 242.411ZM201.92 229.9C210.611 229.926 217.039 235.83 217.02 242.411L221.02 242.423C221.048 233.025 212.169 225.931 201.931 225.9L201.92 229.9ZM199.692 230.028C200.418 229.942 201.162 229.898 201.92 229.9L201.931 225.9C201.012 225.898 200.107 225.951 199.22 226.056L199.692 230.028ZM201.414 227.635C199.771 219.736 191.785 214.108 182.626 214.081L182.614 218.081C190.319 218.104 196.322 222.798 197.497 228.449L201.414 227.635ZM182.626 214.081C173.041 214.053 164.669 220.186 163.561 228.672L167.528 229.19C168.313 223.175 174.524 218.057 182.614 218.081L182.626 214.081ZM164.877 227.045C158.121 229.437 153.063 235.196 153.042 242.222L157.042 242.234C157.057 237.278 160.658 232.782 166.212 230.816L164.877 227.045ZM153.042 242.222C153.015 251.62 161.893 258.714 172.131 258.744L172.143 254.744C163.452 254.718 157.023 248.814 157.042 242.234L153.042 242.222ZM172.131 258.744L201.674 258.831L201.686 254.831L172.143 254.744L172.131 258.744ZM201.846 254.832C201.798 254.832 201.75 254.832 201.702 254.831L201.659 258.831C201.717 258.832 201.776 258.832 201.834 258.832L201.846 254.832ZM201.991 254.832C201.943 254.832 201.895 254.832 201.846 254.832L201.834 258.832C201.893 258.832 201.952 258.832 202.01 258.832L201.991 254.832Z" fill="#ACD1EC" mask="url(#path-23-inside-2_307_1972)"/>
<defs>
<radialGradient id="paint0_radial_307_1972" cx="0" cy="0" r="1" gradientUnits="userSpaceOnUse" gradientTransform="translate(239.056 326.011) rotate(41.9373) scale(58.6997 473.578)">
<stop stop-color="#C2EEF1"/>
<stop offset="1" stop-color="#ABD0EB"/>
</radialGradient>
<radialGradient id="paint1_radial_307_1972" cx="0" cy="0" r="1" gradientUnits="userSpaceOnUse" gradientTransform="translate(167.858 63.447) rotate(52.707) scale(173.532 1403.14)">
<stop stop-color="#5484FF" stop-opacity="0.43"/>
<stop offset="1" stop-color="#ABD0EB"/>
</radialGradient>
<radialGradient id="paint2_radial_307_1972" cx="0" cy="0" r="1" gradientUnits="userSpaceOnUse" gradientTransform="translate(511.085 297.608) rotate(152.241) scale(122.379 818.522)">
<stop stop-color="#C2EEF1"/>
<stop offset="1" stop-color="#ABD0EB"/>
</radialGradient>
<radialGradient id="paint3_radial_307_1972" cx="0" cy="0" r="1" gradientUnits="userSpaceOnUse" gradientTransform="translate(527.832 243.382) rotate(-153.404) scale(123.586 802.891)">
<stop stop-color="#C2EEF1"/>
<stop offset="1" stop-color="#ABD0EB"/>
</radialGradient>
</defs>
</svg>
