<svg width="1904" height="413" viewBox="0 0 1904 413" fill="none" xmlns="http://www.w3.org/2000/svg">
<g opacity="0.46">
<path opacity="0.6" d="M1294.45 274.832L1248.08 214.042C1238.61 215.785 1210.19 215.231 1183.46 203.77C1220.96 275.334 1270.47 277.429 1294.45 274.832Z" fill="url(#paint0_radial_304_1620)"/>
<path d="M1105.51 141.08L1168.7 162.232C1176.7 193.683 1192.28 235.142 1236.31 263.107C1178.23 243.608 1122.9 172.725 1105.51 141.08Z" fill="url(#paint1_radial_304_1620)"/>
</g>
<path opacity="0.27" d="M823.789 145.531L883.859 47.7345C897.892 44.7151 955.463 49.0626 1023.67 0.999941C975.527 111.395 877.3 135.037 823.789 145.531Z" fill="url(#paint2_radial_304_1620)"/>
<path opacity="0.52" d="M1752.79 168.531L1812.86 70.7345C1826.89 67.7152 1884.46 72.0626 1952.67 24C1904.53 134.395 1806.3 158.037 1752.79 168.531Z" fill="url(#paint3_radial_304_1620)"/>
<path d="M1823 90L1794 137" stroke="#ACD1EC" stroke-width="2"/>
<path d="M1852 82L1823 129" stroke="#ACD1EC" stroke-width="2"/>
<path d="M1878 77L1855 114" stroke="#ACD1EC" stroke-width="2"/>
<path opacity="0.56" d="M660.741 175.132C607.306 221.668 528.716 239.936 496.101 243.254C515.968 198.252 506.737 163.726 499.638 152.088C540.118 143.687 550.449 149.41 651.635 108.576C646.435 128.549 652.721 139.077 660.741 175.132Z" fill="url(#paint4_radial_304_1620)" fill-opacity="0.45"/>
<path d="M175.141 185.939C100.13 170.5 32.9353 114.919 8.71406 89.0587C60.4123 76.6498 84.0396 46.0935 89.391 32.3665C123.135 61.6562 124.986 74.2859 226.382 134.504C205.807 143.12 200.876 155.422 175.141 185.939Z" fill="url(#paint5_radial_304_1620)" fill-opacity="0.57"/>
<path opacity="0.5" d="M97 65C92.5455 72.6282 76.5091 88.3333 48 100" stroke="#86D7E1" stroke-width="2"/>
<path opacity="0.5" d="M110 76C105.545 83.6282 89.5091 99.3333 61 111" stroke="#86D7E1" stroke-width="2"/>
<path opacity="0.5" d="M126 87C119.5 94 104.509 109.833 76 121.5" stroke="#86D7E1" stroke-width="2"/>
<path opacity="0.5" d="M142 100C135.765 106.811 112.265 122.865 95 136" stroke="#86D7E1" stroke-width="2"/>
<path opacity="0.5" d="M157 110C151.296 116.243 129.796 130.959 114 143" stroke="#86D7E1" stroke-width="2"/>
<path opacity="0.5" d="M171.5 121C165.796 127.243 143.5 141.5 132 155" stroke="#86D7E1" stroke-width="2"/>
<path opacity="0.5" d="M188.5 129C182.796 135.243 160.5 149.5 149 163" stroke="#86D7E1" stroke-width="2"/>
<path opacity="0.36" d="M1233.15 378.126L1181.78 367.492C1179.3 369.673 1170.83 374.514 1160.94 375.842C1184.58 390.323 1233.15 385.396 1233.15 378.126Z" fill="#C9E0F1"/>
<path opacity="0.6" d="M871.195 376.155L902.993 360.992C907.112 362.557 921.215 373.288 946.808 372.294C915.978 392.692 886.73 382.385 871.195 376.155Z" fill="#C9E0F1"/>
<path opacity="0.49" d="M655.224 375.114C622.966 383.281 563.551 387.027 537.876 387.88C543.259 380.281 527.529 374.681 518.991 372.831C549.835 371.067 559.585 371.913 631.952 364.238C632.497 367.576 640.111 369.251 655.224 375.114Z" fill="#C9E0F1"/>
<path opacity="0.37" fill-rule="evenodd" clip-rule="evenodd" d="M1612.47 348.215C1612.88 348.11 1613.3 348.056 1613.72 348.056H1885.12C1887.47 348.056 1887.89 351.405 1885.62 351.992L1806.38 372.475C1805.97 372.581 1805.55 372.634 1805.13 372.634H1701.2L1660.21 387.754H1596.96L1637.95 372.634H1533.73C1531.38 372.634 1530.95 369.286 1533.23 368.698L1612.47 348.215ZM257.159 354.951C254.323 353.538 255.328 349.266 258.496 349.266H318.097C319.529 349.266 320.761 350.277 321.04 351.681L328.78 390.627L257.159 354.951Z" fill="#C9E0F1"/>
<path d="M1527.95 150.245L1478.98 338.469C1478.48 340.369 1479.92 342.224 1481.88 342.224H1743.69C1745.07 342.224 1746.28 341.279 1746.61 339.936L1792.6 151.712C1793.06 149.823 1791.63 148 1789.68 148H1530.85C1529.49 148 1528.29 148.923 1527.95 150.245Z" fill="white" fill-opacity="0.48" stroke="#ACD1EC" stroke-width="2"/>
<path opacity="0.64" d="M1517.55 285.978L1549.16 163.819H1647.62L1617.81 285.978H1517.55Z" fill="url(#paint6_radial_304_1620)"/>
<path d="M1650.25 237.642L1669.26 163.819H1728.47L1710.55 237.642H1650.25Z" stroke="#ACD1EC" stroke-width="2"/>
<path opacity="0.85" d="M1668.71 285.978L1687.72 212.156H1746.93L1729 285.978H1668.71Z" fill="url(#paint7_radial_304_1620)"/>
<path d="M1487.67 304.873L1478 342.224H1746.05L1755.03 304.873H1487.67Z" fill="#6B8ADB"/>
<path d="M1614.66 384.848L1611.14 342.664H1666.51L1670.03 384.848H1614.66Z" fill="#6B8ADB" stroke="#ACD1EC" stroke-width="2"/>
<path d="M1576.87 384.212C1576.87 383.107 1577.77 382.212 1578.87 382.212H1703.18C1704.29 382.212 1705.18 383.107 1705.18 384.212V391H1576.87V384.212Z" fill="url(#paint8_radial_304_1620)"/>
<path d="M1560.61 185.79H1624.77" stroke="#ACD1EC" stroke-width="2"/>
<path d="M1678.38 176.123H1711.77" stroke="#ACD1EC" stroke-width="2"/>
<path d="M1556.22 201.609H1620.37" stroke="#ACD1EC" stroke-width="2"/>
<path d="M1674.86 187.548H1709.14" stroke="#ACD1EC" stroke-width="2"/>
<path d="M1552.7 217.429H1616.86" stroke="#ACD1EC" stroke-width="2"/>
<path d="M1672.22 198.973H1705.62" stroke="#ACD1EC" stroke-width="2"/>
<path d="M1548.31 233.248H1612.46" stroke="#ACD1EC" stroke-width="2"/>
<path d="M1543.91 249.067H1608.07" stroke="#ACD1EC" stroke-width="2"/>
<path d="M1540.4 264.886H1604.55" stroke="#ACD1EC" stroke-width="2"/>
<path d="M230.694 389.557L205 273.489H260.819L280.311 292.981H355.622L375.114 389.557H230.694Z" fill="#6B8ADB" stroke="#ACD1EC" stroke-width="2"/>
<path d="M403.159 292.988H354.683L375.426 390.358L403.159 292.988Z" fill="#6B8ADB" stroke="#ACD1EC" stroke-width="2"/>
<path fill-rule="evenodd" clip-rule="evenodd" d="M246.643 225H376.886V389.315H375.065L355.622 292.981H280.311L260.818 273.489H246.643V225Z" fill="url(#paint9_radial_304_1620)" fill-opacity="0.45"/>
<path d="M278.539 248.197H351.192" stroke="#ACD1EC" stroke-width="2"/>
<path d="M313.094 259.716L350.306 259.716" stroke="#ACD1EC" stroke-width="2"/>
<defs>
<radialGradient id="paint0_radial_304_1620" cx="0" cy="0" r="1" gradientUnits="userSpaceOnUse" gradientTransform="translate(1284.5 257.5) rotate(-154.255) scale(109.355 852.832)">
<stop stop-color="#C2EEF1"/>
<stop offset="1" stop-color="#ABD0EB"/>
</radialGradient>
<radialGradient id="paint1_radial_304_1620" cx="0" cy="0" r="1" gradientUnits="userSpaceOnUse" gradientTransform="translate(1203.22 130.814) rotate(112.075) scale(133.846 891.869)">
<stop stop-color="#C2EEF1"/>
<stop offset="1" stop-color="#ABD0EB"/>
</radialGradient>
<radialGradient id="paint2_radial_304_1620" cx="0" cy="0" r="1" gradientUnits="userSpaceOnUse" gradientTransform="translate(810.231 48.2123) rotate(10.7784) scale(201.229 957.494)">
<stop stop-color="#C2EEF1"/>
<stop offset="1" stop-color="#ABD0EB"/>
</radialGradient>
<radialGradient id="paint3_radial_304_1620" cx="0" cy="0" r="1" gradientUnits="userSpaceOnUse" gradientTransform="translate(1739.23 71.2124) rotate(10.7784) scale(201.229 957.494)">
<stop stop-color="#C2EEF1"/>
<stop offset="1" stop-color="#ABD0EB"/>
</radialGradient>
<radialGradient id="paint4_radial_304_1620" cx="0" cy="0" r="1" gradientUnits="userSpaceOnUse" gradientTransform="translate(499.935 245.511) rotate(-44.4368) scale(175.523 1199.22)">
<stop stop-color="#C2EEF1"/>
<stop offset="1" stop-color="#ABD0EB"/>
</radialGradient>
<radialGradient id="paint5_radial_304_1620" cx="0" cy="0" r="1" gradientUnits="userSpaceOnUse" gradientTransform="translate(9.28601 93.8333) rotate(8.24551) scale(189.703 1296.1)">
<stop stop-color="#C2EEF1"/>
<stop offset="1" stop-color="#ABD0EB"/>
</radialGradient>
<radialGradient id="paint6_radial_304_1620" cx="0" cy="0" r="1" gradientUnits="userSpaceOnUse" gradientTransform="translate(1516.77 184.644) rotate(29.0675) scale(131.664 907.336)">
<stop stop-color="#C2D8F1"/>
<stop offset="1" stop-color="#ABD0EB"/>
</radialGradient>
<radialGradient id="paint7_radial_304_1620" cx="0" cy="0" r="1" gradientUnits="userSpaceOnUse" gradientTransform="translate(1681 212) rotate(42.3227) scale(76.3356 527.414)">
<stop stop-color="#C2E3F1"/>
<stop offset="1" stop-color="#ABD0EB"/>
</radialGradient>
<radialGradient id="paint8_radial_304_1620" cx="0" cy="0" r="1" gradientUnits="userSpaceOnUse" gradientTransform="translate(1576.1 383.71) rotate(2.32133) scale(113.619 74.6211)">
<stop stop-color="#C2D8F1"/>
<stop offset="1" stop-color="#ABD0EB"/>
</radialGradient>
<radialGradient id="paint9_radial_304_1620" cx="0" cy="0" r="1" gradientUnits="userSpaceOnUse" gradientTransform="translate(245.86 253.012) rotate(36.7474) scale(143.814 1118.84)">
<stop stop-color="#C2EEF1"/>
<stop offset="1" stop-color="#ABD0EB"/>
</radialGradient>
</defs>
</svg>
