<svg width="137" height="69" viewBox="0 0 137 69" fill="none" xmlns="http://www.w3.org/2000/svg">
<rect width="137" height="69" rx="16" fill="#F3F3F3"/>
<path d="M38.1366 27.3968C38.1366 29.0204 38.5128 30.446 39.2652 31.6736C39.9978 32.8616 40.9977 33.7823 42.2649 34.4357C43.5321 35.0891 44.8983 35.4158 46.3635 35.4158C47.8287 35.4158 49.1949 35.0891 50.4621 34.4357C51.7293 33.7823 52.7193 32.8517 53.4321 31.6439C54.1647 30.4361 54.531 29.0204 54.531 27.3968C54.531 25.7534 54.1647 24.3278 53.4321 23.12C52.7193 21.9518 51.7392 21.0608 50.4918 20.447C49.2642 19.8332 47.8881 19.5263 46.3635 19.5263C44.8785 19.5263 43.5123 19.8332 42.2649 20.447C40.9779 21.0608 39.9681 21.9716 39.2355 23.1794C38.5029 24.3674 38.1366 25.7732 38.1366 27.3968ZM105.823 40.3163V33.3071C106.278 34.0793 106.922 34.6139 107.753 34.9109C108.605 35.2079 109.674 35.3564 110.961 35.3564C111.654 35.3564 112.327 35.2673 112.981 35.0891C113.654 34.9307 114.228 34.6832 114.703 34.3466C115.753 33.6932 116.564 32.7725 117.139 31.5845C117.733 30.3767 118.03 28.9907 118.03 27.4265C118.03 25.9217 117.743 24.5456 117.168 23.2982C116.574 22.1102 115.743 21.1994 114.674 20.5658C113.604 19.9124 112.367 19.5857 110.961 19.5857C109.634 19.5857 108.536 19.7936 107.664 20.2094C106.793 20.6252 106.09 21.239 105.556 22.0508V20.0015H102.2V40.3163H105.823ZM92.0124 35.5346C91.854 35.9702 91.6857 36.2969 91.5075 36.5147C91.0521 37.1483 90.2205 37.4651 89.0127 37.4651C88.4187 37.4651 87.9534 37.4255 87.6168 37.3463L88.8345 40.1975C88.8741 40.2173 89.2107 40.2272 89.8443 40.2272C90.9333 40.2272 91.8144 40.049 92.4876 39.6926C93.1212 39.356 93.6558 38.861 94.0914 38.2076C94.527 37.5542 94.9824 36.584 95.4576 35.297L100.982 20.0015H97.3584C96.0318 23.6645 94.8438 27.3077 93.7944 30.9311C92.7846 27.6245 91.557 23.9813 90.1116 20.0015H86.31L92.0124 35.5346ZM41.7897 27.3671C41.7897 25.7831 42.1758 24.5753 42.948 23.7437C43.7202 22.9121 44.829 22.4963 46.2744 22.4963C47.7198 22.4963 48.8385 22.9121 49.6305 23.7437C50.4225 24.5753 50.8185 25.7831 50.8185 27.3671C50.8185 28.9907 50.4225 30.2381 49.6305 31.1093C48.8385 31.9805 47.7198 32.4161 46.2744 32.4161C44.8488 32.4161 43.74 31.9904 42.948 31.139C42.1758 30.2678 41.7897 29.0105 41.7897 27.3671ZM105.734 27.3968C105.773 25.892 106.169 24.7139 106.922 23.8625C107.694 22.9913 108.753 22.5557 110.1 22.5557C111.446 22.5557 112.496 22.9913 113.248 23.8625C114 24.7337 114.386 25.9118 114.406 27.3968C114.386 28.9016 114 30.0995 113.248 30.9905C112.496 31.8617 111.446 32.2973 110.1 32.2973C108.753 32.2973 107.694 31.8617 106.922 30.9905C106.169 30.0995 105.773 28.9016 105.734 27.3968ZM34.6617 13.913L28.3653 22.2587H25.1874V13.913H20.4651L18.5643 17.4473H21.4155V35H25.1874V25.5257H28.3653L34.9884 35H39.2949L31.6026 23.8922L38.9385 13.913H34.6617ZM60.0552 35V28.6739H66.2031V35H69.7671V20.0015H66.2031V25.7039H60.0552V20.0015H56.4615V35H60.0552ZM76.3902 22.8527V35H80.0433V22.8527H85.1517V20.0015H71.3412V22.8527H76.3902Z" fill="#222222"/>
<path d="M23.447 45.216C24.077 45.216 24.626 45.36 25.094 45.648C25.562 45.936 25.919 46.335 26.165 46.845C26.417 47.349 26.543 47.919 26.543 48.555C26.543 49.191 26.417 49.764 26.165 50.274C25.919 50.778 25.562 51.174 25.094 51.462C24.626 51.75 24.077 51.894 23.447 51.894C22.817 51.894 22.268 51.75 21.8 51.462C21.332 51.174 20.972 50.778 20.72 50.274C20.468 49.764 20.342 49.191 20.342 48.555C20.342 47.919 20.468 47.349 20.72 46.845C20.972 46.335 21.332 45.936 21.8 45.648C22.268 45.36 22.817 45.216 23.447 45.216ZM23.447 46.152C23.045 46.152 22.691 46.254 22.385 46.458C22.085 46.656 21.851 46.938 21.683 47.304C21.515 47.664 21.431 48.081 21.431 48.555C21.431 49.029 21.515 49.449 21.683 49.815C21.851 50.175 22.085 50.457 22.385 50.661C22.691 50.859 23.045 50.958 23.447 50.958C23.849 50.958 24.2 50.859 24.5 50.661C24.806 50.457 25.04 50.175 25.202 49.815C25.37 49.449 25.454 49.029 25.454 48.555C25.454 48.081 25.37 47.664 25.202 47.304C25.04 46.938 24.806 46.656 24.5 46.458C24.2 46.254 23.849 46.152 23.447 46.152ZM29.7438 45.36H30.6978V47.097C31.1958 47.115 31.6368 47.217 32.0208 47.403C32.4048 47.589 32.7048 47.859 32.9208 48.213C33.1428 48.567 33.2538 48.993 33.2538 49.491C33.2538 49.989 33.1428 50.415 32.9208 50.769C32.7048 51.123 32.4048 51.393 32.0208 51.579C31.6368 51.765 31.1958 51.867 30.6978 51.885V53.37H29.7438V51.885C28.9818 51.855 28.3638 51.636 27.8898 51.228C27.4218 50.814 27.1878 50.235 27.1878 49.491C27.1878 48.747 27.4218 48.171 27.8898 47.763C28.3638 47.349 28.9818 47.127 29.7438 47.097V45.36ZM28.1958 49.491C28.1958 49.995 28.3338 50.385 28.6098 50.661C28.8918 50.931 29.2788 51.072 29.7708 51.084V47.898C29.2788 47.91 28.8918 48.054 28.6098 48.33C28.3338 48.6 28.1958 48.987 28.1958 49.491ZM32.2458 49.491C32.2458 48.987 32.1048 48.6 31.8228 48.33C31.5468 48.054 31.1628 47.91 30.6708 47.898V51.084C31.1628 51.072 31.5468 50.931 31.8228 50.661C32.1048 50.385 32.2458 49.995 32.2458 49.491ZM37.1707 47.232H38.2507V51.75H37.3237V50.094C37.3237 49.284 37.3357 48.654 37.3597 48.204C37.0297 48.774 36.7237 49.29 36.4417 49.752L35.2087 51.75H34.1287V47.232H35.0467V48.978C35.0467 49.638 35.0377 50.235 35.0197 50.769C35.4097 50.085 35.7127 49.569 35.9287 49.221L37.1707 47.232ZM43.9652 52.875H43.0022V51.75H39.4022V47.232H40.3922V50.949H42.3182V47.232H43.3082V50.949H43.9652V52.875ZM47.7967 47.232H48.8767V51.75H47.9497V50.094C47.9497 49.284 47.9617 48.654 47.9857 48.204C47.6557 48.774 47.3497 49.29 47.0677 49.752L45.8347 51.75H44.7547V47.232H45.6727V48.978C45.6727 49.638 45.6637 50.235 45.6457 50.769C46.0357 50.085 46.3387 49.569 46.5547 49.221L47.7967 47.232ZM51.9181 47.088C52.5301 47.088 53.0011 47.232 53.3311 47.52C53.6611 47.802 53.8261 48.183 53.8261 48.663V51.75H52.9351V51.237C52.7911 51.447 52.5901 51.609 52.3321 51.723C52.0801 51.837 51.7831 51.894 51.4411 51.894C50.9731 51.894 50.5861 51.789 50.2801 51.579C49.9741 51.369 49.8211 51.048 49.8211 50.616C49.8211 50.142 49.9981 49.791 50.3521 49.563C50.7121 49.329 51.2101 49.152 51.8461 49.032L52.8811 48.843V48.681C52.8811 48.435 52.7971 48.246 52.6291 48.114C52.4611 47.976 52.2331 47.907 51.9451 47.907C51.6631 47.907 51.4171 47.964 51.2071 48.078C51.0031 48.192 50.7661 48.384 50.4961 48.654L49.8751 48.078C50.1571 47.742 50.4631 47.493 50.7931 47.331C51.1231 47.169 51.4981 47.088 51.9181 47.088ZM51.5851 51.102C51.9511 51.102 52.2571 51.006 52.5031 50.814C52.7551 50.616 52.8811 50.337 52.8811 49.977V49.563L52.0981 49.725C51.6481 49.821 51.3181 49.926 51.1081 50.04C50.8981 50.154 50.7931 50.328 50.7931 50.562C50.7931 50.73 50.8621 50.862 51.0001 50.958C51.1441 51.054 51.3391 51.102 51.5851 51.102ZM55.0421 51.804C54.8321 51.804 54.6311 51.783 54.4391 51.741L54.5291 50.94C54.7091 50.964 54.8231 50.976 54.8711 50.976C55.0451 50.976 55.1741 50.931 55.2581 50.841C55.3421 50.751 55.3991 50.592 55.4291 50.364C55.4591 50.136 55.4771 49.788 55.4831 49.32L55.5011 47.232H59.0111V51.75H58.0211V48.033H56.4011L56.3831 49.338C56.3771 49.962 56.3381 50.448 56.2661 50.796C56.1941 51.138 56.0621 51.393 55.8701 51.561C55.6781 51.723 55.4021 51.804 55.0421 51.804ZM60.1531 51.75V47.232H61.1431V48.654H62.3311C62.8531 48.654 63.2731 48.792 63.5911 49.068C63.9091 49.344 64.0681 49.722 64.0681 50.202C64.0681 50.682 63.9091 51.06 63.5911 51.336C63.2731 51.612 62.8531 51.75 62.3311 51.75H60.1531ZM62.1961 50.94C62.7721 50.94 63.0601 50.694 63.0601 50.202C63.0601 49.71 62.7721 49.464 62.1961 49.464H61.1431V50.94H62.1961ZM68.832 47.232V51.75H67.842V49.806H65.898V51.75H64.908V47.232H65.898V48.996H67.842V47.232H68.832ZM69.9881 51.75V47.232H70.9781V48.654H72.1661C72.6881 48.654 73.1081 48.792 73.4261 49.068C73.7441 49.344 73.9031 49.722 73.9031 50.202C73.9031 50.682 73.7441 51.06 73.4261 51.336C73.1081 51.612 72.6881 51.75 72.1661 51.75H69.9881ZM72.0311 50.94C72.6071 50.94 72.8951 50.694 72.8951 50.202C72.8951 49.71 72.6071 49.464 72.0311 49.464H70.9781V50.94H72.0311ZM74.4341 47.232H75.4241V51.75H74.4341V47.232ZM79.6131 47.232H80.6931V51.75H79.7661V50.094C79.7661 49.284 79.7781 48.654 79.8021 48.204C79.4721 48.774 79.1661 49.29 78.8841 49.752L77.6511 51.75H76.5711V47.232H77.4891V48.978C77.4891 49.638 77.4801 50.235 77.4621 50.769C77.8521 50.085 78.1551 49.569 78.3711 49.221L79.6131 47.232ZM78.6321 46.692C79.0941 46.692 79.4631 46.59 79.7391 46.386C80.0151 46.176 80.1531 45.858 80.1531 45.432H79.3521C79.3521 45.642 79.2891 45.804 79.1631 45.918C79.0431 46.026 78.8661 46.08 78.6321 46.08C78.3981 46.08 78.2181 46.026 78.0921 45.918C77.9721 45.804 77.9121 45.642 77.9121 45.432H77.1021C77.1021 45.858 77.2401 46.176 77.5161 46.386C77.7921 46.59 78.1641 46.692 78.6321 46.692ZM84.8385 51.75H83.8485V47.232H87.7185V51.75H86.7285V48.033H84.8385V51.75ZM90.757 47.088C91.369 47.088 91.84 47.232 92.17 47.52C92.5 47.802 92.665 48.183 92.665 48.663V51.75H91.774V51.237C91.63 51.447 91.429 51.609 91.171 51.723C90.919 51.837 90.622 51.894 90.28 51.894C89.812 51.894 89.425 51.789 89.119 51.579C88.813 51.369 88.66 51.048 88.66 50.616C88.66 50.142 88.837 49.791 89.191 49.563C89.551 49.329 90.049 49.152 90.685 49.032L91.72 48.843V48.681C91.72 48.435 91.636 48.246 91.468 48.114C91.3 47.976 91.072 47.907 90.784 47.907C90.502 47.907 90.256 47.964 90.046 48.078C89.842 48.192 89.605 48.384 89.335 48.654L88.714 48.078C88.996 47.742 89.302 47.493 89.632 47.331C89.962 47.169 90.337 47.088 90.757 47.088ZM90.424 51.102C90.79 51.102 91.096 51.006 91.342 50.814C91.594 50.616 91.72 50.337 91.72 49.977V49.563L90.937 49.725C90.487 49.821 90.157 49.926 89.947 50.04C89.737 50.154 89.632 50.328 89.632 50.562C89.632 50.73 89.701 50.862 89.839 50.958C89.983 51.054 90.178 51.102 90.424 51.102ZM96.1829 47.106C96.5669 47.106 96.9089 47.205 97.2089 47.403C97.5149 47.601 97.7519 47.88 97.9199 48.24C98.0939 48.594 98.1809 49.008 98.1809 49.482C98.1809 49.956 98.0939 50.376 97.9199 50.742C97.7459 51.102 97.5059 51.381 97.1999 51.579C96.8999 51.771 96.5579 51.867 96.1739 51.867C95.5559 51.867 95.0849 51.654 94.7609 51.228V53.37H93.7709V47.232H94.6889V47.871C95.0189 47.361 95.5169 47.106 96.1829 47.106ZM95.9759 51.012C96.3359 51.012 96.6239 50.874 96.8399 50.598C97.0619 50.316 97.1729 49.944 97.1729 49.482C97.1729 49.02 97.0649 48.651 96.8489 48.375C96.6329 48.093 96.3419 47.952 95.9759 47.952C95.6039 47.952 95.3009 48.09 95.0669 48.366C94.8329 48.642 94.7159 49.014 94.7159 49.482C94.7159 49.956 94.8329 50.331 95.0669 50.607C95.3069 50.877 95.6099 51.012 95.9759 51.012ZM102.495 47.232V48.033H100.992V51.75H100.002V48.033H98.5081V47.232H102.495ZM107.179 47.232V51.75H106.189V49.806H104.245V51.75H103.255V47.232H104.245V48.996H106.189V47.232H107.179ZM112.376 50.976C112.052 51.306 111.731 51.54 111.413 51.678C111.101 51.816 110.756 51.885 110.378 51.885C109.904 51.885 109.493 51.789 109.145 51.597C108.797 51.399 108.53 51.123 108.344 50.769C108.158 50.409 108.065 49.992 108.065 49.518C108.065 49.05 108.155 48.633 108.335 48.267C108.515 47.895 108.773 47.607 109.109 47.403C109.445 47.193 109.838 47.088 110.288 47.088C110.954 47.088 111.467 47.286 111.827 47.682C112.187 48.078 112.367 48.621 112.367 49.311C112.367 49.461 112.361 49.596 112.349 49.716H109.037C109.073 50.112 109.205 50.433 109.433 50.679C109.661 50.925 109.982 51.048 110.396 51.048C110.66 51.048 110.888 51 111.08 50.904C111.278 50.802 111.518 50.625 111.8 50.373L112.376 50.976ZM110.261 47.871C109.937 47.871 109.673 47.97 109.469 48.168C109.265 48.366 109.13 48.642 109.064 48.996H111.395C111.377 48.648 111.269 48.375 111.071 48.177C110.873 47.973 110.603 47.871 110.261 47.871ZM115.668 47.106C116.052 47.106 116.394 47.205 116.694 47.403C117 47.601 117.237 47.88 117.405 48.24C117.579 48.594 117.666 49.008 117.666 49.482C117.666 49.956 117.579 50.376 117.405 50.742C117.231 51.102 116.991 51.381 116.685 51.579C116.385 51.771 116.043 51.867 115.659 51.867C115.041 51.867 114.57 51.654 114.246 51.228V53.37H113.256V47.232H114.174V47.871C114.504 47.361 115.002 47.106 115.668 47.106ZM115.461 51.012C115.821 51.012 116.109 50.874 116.325 50.598C116.547 50.316 116.658 49.944 116.658 49.482C116.658 49.02 116.55 48.651 116.334 48.375C116.118 48.093 115.827 47.952 115.461 47.952C115.089 47.952 114.786 48.09 114.552 48.366C114.318 48.642 114.201 49.014 114.201 49.482C114.201 49.956 114.318 50.331 114.552 50.607C114.792 50.877 115.095 51.012 115.461 51.012Z" fill="#222222"/>
</svg>
