<svg width="161" height="59" viewBox="0 0 161 59" fill="none" xmlns="http://www.w3.org/2000/svg">
<path fill-rule="evenodd" clip-rule="evenodd" d="M21.4164 29.3995C20.8577 27.5772 20.5571 25.6421 20.5571 23.6367C20.5571 12.7925 29.3481 4.0015 40.1924 4.0015C49.5199 4.0015 57.3283 10.5053 59.3301 19.2254C68.0503 21.2272 74.5542 29.0357 74.5542 38.3632C74.5542 49.2075 65.7632 57.9985 54.9189 57.9985C54.719 57.9985 54.5198 57.9955 54.3213 57.9895L54.3213 58L16.2421 58C7.82414 58 1 51.2843 1 43C1 34.7157 7.82414 28 16.2421 28C17.5303 28 19.3158 28.5085 21.4164 29.3995Z" fill="#97DEF6"/>
<path d="M21.4164 29.3995L21.0259 30.3201L23.0014 31.1581L22.3725 29.1064L21.4164 29.3995ZM59.3301 19.2254L58.3555 19.4492L58.4957 20.0599L59.1064 20.2001L59.3301 19.2254ZM54.3213 57.9895L54.3512 56.99L53.3194 56.9591L53.3213 57.9914L54.3213 57.9895ZM54.3213 58V59H55.3232L55.3213 57.9982L54.3213 58ZM16.2421 58V59V58ZM22.3725 29.1064C21.8426 27.378 21.5571 25.5416 21.5571 23.6367H19.5571C19.5571 25.7425 19.8729 27.7764 20.4603 29.6926L22.3725 29.1064ZM21.5571 23.6367C21.5571 13.3448 29.9004 5.0015 40.1924 5.0015V3.0015C28.7958 3.0015 19.5571 12.2402 19.5571 23.6367H21.5571ZM40.1924 5.0015C49.0436 5.0015 56.4556 11.1733 58.3555 19.4492L60.3048 19.0017C58.201 9.83736 49.9962 3.0015 40.1924 3.0015V5.0015ZM59.1064 20.2001C67.3823 22.0999 73.5542 29.512 73.5542 38.3632H75.5542C75.5542 28.5593 68.7183 20.3545 59.5539 18.2508L59.1064 20.2001ZM73.5542 38.3632C73.5542 48.6552 65.2109 56.9985 54.9189 56.9985V58.9985C66.3155 58.9985 75.5542 49.7597 75.5542 38.3632H73.5542ZM54.9189 56.9985C54.729 56.9985 54.5397 56.9956 54.3512 56.99L54.2914 58.9891C54.4999 58.9953 54.709 58.9985 54.9189 58.9985V56.9985ZM53.3213 57.9914L53.3213 58.0018L55.3213 57.9982L55.3213 57.9877L53.3213 57.9914ZM54.3213 57L16.2421 57V59L54.3213 59V57ZM16.2421 57C8.36126 57 2 50.7169 2 43H0C0 51.8516 7.28701 59 16.2421 59V57ZM2 43C2 35.2831 8.36126 29 16.2421 29V27C7.28701 27 0 34.1484 0 43H2ZM16.2421 29C17.32 29 18.9512 29.4401 21.0259 30.3201L21.8069 28.4789C19.6804 27.5769 17.7405 27 16.2421 27V29Z" fill="#007BC0"/>
<path d="M59.2708 27.8455C61.6012 17.2545 54.9046 6.77981 44.3137 4.44947C33.7228 2.11913 23.2481 8.81564 20.9178 19.4065C19.0334 27.9705 23.0513 36.4585 30.2579 40.6259" stroke="#007BC0" stroke-width="2" stroke-linecap="round"/>
<path d="M47.0101 40.1423C47.0101 50.7861 56.6818 55.801 60.5 57.0055L46.4369 57.0055L32.3737 57.0055C21.1272 57.0055 12.0101 48.377 12.0101 37.7332C12.0101 33.6557 12.0101 24.0516 12.0101 21.1275C12.0101 20.578 12.2642 20.1481 12.8125 20.111C17.1037 19.8199 37.228 20.1853 45.0226 20.2562C46.1272 20.2662 47.0101 21.1623 47.0101 22.2668C47.0101 25.5473 47.0101 32.4785 47.0101 40.1423Z" fill="#E5F0F6"/>
<path d="M12.01 37.9569L11.01 37.9569V37.9569H12.01ZM46.6492 22.2691L47.6492 22.2691V22.2691L46.6492 22.2691ZM46.6492 40.3963H47.6492V40.3963L46.6492 40.3963ZM59.6784 58.2587C60.2039 58.4284 60.7675 58.1398 60.9372 57.6142C61.1068 57.0887 60.8183 56.5251 60.2927 56.3554L59.6784 58.2587ZM12.01 21.1174L11.01 21.1174V21.1174L12.01 21.1174ZM12.798 20.1128L12.7284 19.1152L12.798 20.1128ZM44.6611 20.2592L44.6518 21.2592L44.6611 20.2592ZM32.1637 57.0059C21.59 57.0059 13.01 48.1873 13.01 37.9569H11.01C11.01 49.2826 20.4762 59.0059 32.1637 59.0059V57.0059ZM45.6492 22.2691L45.6492 40.3963L47.6492 40.3963L47.6492 22.2691L45.6492 22.2691ZM45.6492 40.3963C45.6492 46.1165 48.1966 50.287 51.2103 53.1599C54.2049 56.0145 57.6812 57.6141 59.6784 58.2587L60.2927 56.3554C58.511 55.7803 55.3191 54.3135 52.5903 51.7123C49.8806 49.1292 47.6492 45.4543 47.6492 40.3963H45.6492ZM13.01 37.9569L13.01 21.1174L11.01 21.1174L11.01 37.9569L13.01 37.9569ZM12.8676 21.1104C17.0452 20.8188 36.8643 21.1864 44.6518 21.2592L44.6705 19.2593C36.9917 19.1875 17.0111 18.8163 12.7284 19.1152L12.8676 21.1104ZM13.01 21.1174C13.01 21.0566 13.0171 21.0181 13.0222 20.9993C13.0272 20.9809 13.0279 20.9898 13.0113 21.0127C12.9928 21.0383 12.9624 21.0676 12.9226 21.0891C12.8837 21.1102 12.8595 21.1109 12.8676 21.1104L12.7284 19.1152C12.1793 19.1535 11.7042 19.4079 11.3915 19.8396C11.1018 20.2397 11.01 20.7087 11.01 21.1174L13.01 21.1174ZM47.6492 22.2691C47.6492 20.6179 46.3256 19.2747 44.6705 19.2593L44.6518 21.2592C45.2056 21.2643 45.6492 21.7111 45.6492 22.2691L47.6492 22.2691Z" fill="#007BC0"/>
<path d="M19.6465 28.5556H39.3386" stroke="#007BC0" stroke-width="2" stroke-linecap="round"/>
<path d="M19.6465 34.9192H39.3386" stroke="#007BC0" stroke-width="2" stroke-linecap="round"/>
<path d="M20.9927 41.2828L39.3387 41.2828" stroke="#007BC0" stroke-width="2" stroke-linecap="round"/>
<path d="M25.1118 47.6465L40.5109 47.6465" stroke="#007BC0" stroke-width="2" stroke-linecap="round"/>
<path d="M102.064 28.5555L93.8398 18.2515L91.2478 21.0355V28.5555H88.2078V6.15554H91.2478V17.1955L101.488 6.15554H105.264L95.9198 16.0755L105.84 28.5555H102.064ZM113.149 28.8115C111.271 28.8115 109.757 28.2782 108.605 27.2115C107.474 26.1235 106.909 24.7049 106.909 22.9555V18.5395C106.909 16.6622 107.474 15.1582 108.605 14.0275C109.757 12.8969 111.271 12.3315 113.149 12.3315H115.773C117.586 12.3315 119.047 12.8862 120.157 13.9955C121.266 15.1049 121.821 16.5769 121.821 18.4115V21.4195H109.885V22.9555C109.885 23.9369 110.183 24.7262 110.781 25.3235C111.378 25.9209 112.167 26.2195 113.149 26.2195H115.613C116.573 26.2195 117.351 25.9742 117.949 25.4835C118.546 24.9715 118.845 24.2995 118.845 23.4675H121.757C121.757 25.0675 121.191 26.3582 120.061 27.3395C118.93 28.3209 117.437 28.8115 115.581 28.8115H113.149ZM118.845 19.0515V18.4115C118.845 17.3449 118.557 16.4915 117.981 15.8515C117.426 15.2115 116.69 14.8915 115.773 14.8915H113.149C112.167 14.8915 111.378 15.2329 110.781 15.9155C110.183 16.5769 109.885 17.4622 109.885 18.5715V19.0515H118.845ZM130.702 28.8115C128.953 28.8115 127.534 28.2462 126.446 27.1155C125.379 25.9849 124.846 24.4915 124.846 22.6355V18.8595C124.846 17.5795 125.102 16.4489 125.614 15.4675C126.126 14.4649 126.841 13.6969 127.758 13.1635C128.697 12.6089 129.774 12.3315 130.99 12.3315H133.166C133.849 12.3315 134.521 12.4915 135.182 12.8115C135.843 13.1315 136.377 13.5582 136.782 14.0915V6.15554H139.79V28.5555H136.942V26.2835C136.473 27.0302 135.854 27.6382 135.086 28.1075C134.318 28.5769 133.55 28.8115 132.782 28.8115H130.702ZM132.91 26.1875C133.913 26.1875 134.787 25.7822 135.534 24.9715C136.281 24.1395 136.697 23.1582 136.782 22.0275V18.4115C136.633 17.3662 136.238 16.5342 135.598 15.9155C134.979 15.2755 134.233 14.9555 133.358 14.9555H131.214C130.211 14.9555 129.39 15.3289 128.75 16.0755C128.131 16.8009 127.822 17.7715 127.822 18.9875V22.5395C127.822 23.6275 128.11 24.5129 128.686 25.1955C129.283 25.8569 130.03 26.1875 130.926 26.1875H132.91ZM149.867 28.8115C147.99 28.8115 146.475 28.2462 145.323 27.1155C144.193 25.9849 143.627 24.5022 143.627 22.6675V18.5075C143.627 16.6515 144.203 15.1582 145.355 14.0275C146.507 12.8969 148.033 12.3315 149.931 12.3315H152.619C154.518 12.3315 156.043 12.8969 157.195 14.0275C158.347 15.1582 158.923 16.6515 158.923 18.5075V22.6675C158.923 24.5022 158.337 25.9849 157.163 27.1155C156.011 28.2462 154.486 28.8115 152.587 28.8115H149.867ZM152.555 26.1875C153.579 26.1875 154.401 25.8569 155.019 25.1955C155.638 24.5342 155.947 23.6489 155.947 22.5395V18.6035C155.947 17.4942 155.638 16.6089 155.019 15.9475C154.422 15.2862 153.622 14.9555 152.619 14.9555H149.931C148.929 14.9555 148.118 15.2862 147.499 15.9475C146.902 16.6089 146.603 17.4942 146.603 18.6035V22.5395C146.603 23.6489 146.902 24.5342 147.499 25.1955C148.097 25.8569 148.897 26.1875 149.899 26.1875H152.555ZM88.0798 35.5875H90.9278V37.6035C91.3758 36.9209 91.9518 36.3769 92.6558 35.9715C93.3812 35.5449 94.1065 35.3315 94.8318 35.3315H97.0398C98.8318 35.3315 100.272 35.8862 101.36 36.9955C102.469 38.1049 103.024 39.5662 103.024 41.3795V45.1875C103.024 46.4889 102.768 47.6409 102.256 48.6435C101.765 49.6462 101.061 50.4249 100.144 50.9795C99.2265 51.5342 98.1705 51.8115 96.9758 51.8115H94.7358C94.0958 51.8115 93.4238 51.6409 92.7198 51.2995C92.0372 50.9582 91.4825 50.5102 91.0558 49.9555V57.9235H88.0798V35.5875ZM96.7198 49.1875C97.7225 49.1875 98.5225 48.8142 99.1198 48.0675C99.7172 47.3209 100.016 46.3289 100.016 45.0915V41.4755C100.016 40.4302 99.7172 39.5875 99.1198 38.9475C98.5438 38.2862 97.7758 37.9555 96.8158 37.9555H94.6718C93.8825 37.9555 93.1465 38.2649 92.4638 38.8835C91.8025 39.5022 91.3332 40.3129 91.0558 41.3155V45.5715C91.1838 46.6382 91.5785 47.5129 92.2398 48.1955C92.9225 48.8569 93.7332 49.1875 94.6718 49.1875H96.7198ZM106.861 35.5875H109.709V37.9235C110.136 37.2195 110.754 36.6435 111.565 36.1955C112.397 35.7475 113.261 35.5235 114.157 35.5235H115.821V38.1795H114.157C112.856 38.1795 111.81 38.5849 111.021 39.3955C110.232 40.1849 109.837 41.2302 109.837 42.5315V51.5555H106.861V35.5875ZM123.617 51.8115C121.74 51.8115 120.225 51.2462 119.073 50.1155C117.943 48.9849 117.377 47.5022 117.377 45.6675V41.5075C117.377 39.6515 117.953 38.1582 119.105 37.0275C120.257 35.8969 121.783 35.3315 123.681 35.3315H126.369C128.268 35.3315 129.793 35.8969 130.945 37.0275C132.097 38.1582 132.673 39.6515 132.673 41.5075V45.6675C132.673 47.5022 132.087 48.9849 130.913 50.1155C129.761 51.2462 128.236 51.8115 126.337 51.8115H123.617ZM126.305 49.1875C127.329 49.1875 128.151 48.8569 128.769 48.1955C129.388 47.5342 129.697 46.6489 129.697 45.5395V41.6035C129.697 40.4942 129.388 39.6089 128.769 38.9475C128.172 38.2862 127.372 37.9555 126.369 37.9555H123.681C122.679 37.9555 121.868 38.2862 121.249 38.9475C120.652 39.6089 120.353 40.4942 120.353 41.6035V45.5395C120.353 46.6489 120.652 47.5342 121.249 48.1955C121.847 48.8569 122.647 49.1875 123.649 49.1875H126.305Z" fill="black"/>
</svg>
