<svg width="995" height="615" viewBox="0 0 995 615" fill="none" xmlns="http://www.w3.org/2000/svg">
<mask id="path-1-inside-1_62_1346" fill="white">
<path fill-rule="evenodd" clip-rule="evenodd" d="M766.997 72.7251C765.396 61.187 753.794 52.2117 739.691 52.1702C726.055 52.13 714.707 60.4553 712.462 71.4273C711.385 71.1759 710.366 71.0422 709.417 71.0394C694.195 70.9945 681.824 81.375 681.786 94.2248C681.748 107.075 694.058 117.528 709.28 117.573L758.077 117.716C758.077 117.711 758.077 117.706 758.077 117.701C772.827 117.291 784.65 107.089 784.687 94.5278C784.716 84.5942 777.367 76.0929 766.997 72.7251Z"/>
</mask>
<path d="M766.997 72.7251L765.016 72.9998L765.188 74.2404L766.379 74.6273L766.997 72.7251ZM712.462 71.4273L712.008 73.375L714.01 73.8422L714.422 71.8282L712.462 71.4273ZM758.077 117.716L758.071 119.716L760.071 119.722L760.077 117.722L758.077 117.716ZM758.077 117.701L758.021 115.701L756.082 115.755L756.077 117.695L758.077 117.701ZM768.978 72.4503C767.209 59.6947 754.543 50.2139 739.697 50.1702L739.685 54.1702C753.044 54.2095 763.584 62.6793 765.016 72.9998L768.978 72.4503ZM739.697 50.1702C725.331 50.1279 712.98 58.9193 710.503 71.0265L714.422 71.8282C716.434 61.9913 726.778 54.1322 739.685 54.1702L739.697 50.1702ZM712.917 69.4797C711.724 69.2013 710.552 69.0427 709.423 69.0394L709.412 73.0394C710.179 73.0416 711.046 73.1505 712.008 73.375L712.917 69.4797ZM709.423 69.0394C693.427 68.9923 679.828 79.9604 679.786 94.219L683.786 94.2307C683.82 82.7897 694.963 72.9968 709.412 73.0394L709.423 69.0394ZM679.786 94.219C679.744 108.478 693.279 119.526 709.275 119.573L709.286 115.573C694.837 115.53 683.753 105.672 683.786 94.2307L679.786 94.219ZM709.275 119.573L758.071 119.716L758.082 115.716L709.286 115.573L709.275 119.573ZM760.077 117.722C760.077 117.718 760.077 117.714 760.077 117.711C760.077 117.709 760.077 117.707 760.077 117.706L756.077 117.695C756.077 117.699 756.077 117.703 756.077 117.705C756.077 117.708 756.077 117.71 756.077 117.711L760.077 117.722ZM782.687 94.5219C782.654 105.709 772.012 115.313 758.021 115.701L758.132 119.7C773.643 119.269 786.646 108.47 786.687 94.5336L782.687 94.5219ZM766.379 74.6273C776.131 77.7944 782.713 85.6578 782.687 94.5219L786.687 94.5336C786.719 83.5306 778.602 74.3913 767.614 70.8229L766.379 74.6273Z" fill="#ACD1EC" mask="url(#path-1-inside-1_62_1346)"/>
<mask id="path-3-inside-2_62_1346" fill="white">
<path fill-rule="evenodd" clip-rule="evenodd" d="M161.445 444.47C159.869 436.891 152.045 431.118 142.613 431.091C132.728 431.061 124.571 437.355 123.513 445.465C116.628 447.902 111.785 453.637 111.766 460.338C111.739 469.275 120.3 476.545 130.887 476.576L164.823 476.676C164.823 476.672 164.823 476.668 164.823 476.664C175.081 476.379 183.303 469.284 183.329 460.549C183.355 451.612 174.795 444.342 164.208 444.311C163.27 444.308 162.347 444.362 161.445 444.47Z"/>
</mask>
<path d="M161.445 444.47L159.487 444.877L159.86 446.672L161.681 446.456L161.445 444.47ZM123.513 445.465L124.18 447.35L125.337 446.94L125.496 445.723L123.513 445.465ZM130.887 476.576L130.881 478.576L130.887 476.576ZM164.823 476.676L164.817 478.676L166.817 478.682L166.823 476.682L164.823 476.676ZM164.823 476.664L164.767 474.665L162.825 474.719L162.823 476.663L164.823 476.664ZM163.403 444.062C161.593 435.36 152.778 429.121 142.619 429.091L142.608 433.091C151.312 433.116 158.144 438.422 159.487 444.877L163.403 444.062ZM142.619 429.091C131.986 429.059 122.749 435.86 121.53 445.206L125.496 445.723C126.393 438.849 133.469 433.064 142.608 433.091L142.619 429.091ZM122.846 443.579C115.359 446.229 109.788 452.596 109.766 460.332L113.766 460.344C113.782 454.678 117.896 449.574 124.18 447.35L122.846 443.579ZM109.766 460.332C109.735 470.678 119.521 478.542 130.881 478.576L130.893 474.576C121.08 474.547 113.743 467.872 113.766 460.344L109.766 460.332ZM130.881 478.576L164.817 478.676L164.829 474.676L130.893 474.576L130.881 478.576ZM166.823 476.682C166.823 476.676 166.823 476.671 166.823 476.666L162.823 476.663C162.823 476.665 162.823 476.667 162.823 476.67L166.823 476.682ZM181.329 460.543C181.307 467.904 174.266 474.401 164.767 474.665L164.878 478.664C175.897 478.357 185.299 470.665 185.329 460.554L181.329 460.543ZM164.202 446.311C174.015 446.34 181.351 453.015 181.329 460.543L185.329 460.554C185.36 450.209 175.574 442.344 164.214 442.311L164.202 446.311ZM161.681 446.456C162.503 446.358 163.345 446.308 164.202 446.311L164.214 442.311C163.195 442.308 162.192 442.367 161.209 442.484L161.681 446.456Z" fill="#ACD1EC" mask="url(#path-3-inside-2_62_1346)"/>
<ellipse opacity="0.65" cx="497.311" cy="555.406" rx="497.311" ry="59.5942" fill="#E2EDF6"/>
<path d="M635.57 232.004L705.912 502.364C706.406 504.264 704.972 506.119 703.009 506.119H327.843C326.46 506.119 325.257 505.174 324.929 503.831L258.868 233.472C258.406 231.582 259.837 229.76 261.782 229.76H632.666C634.032 229.76 635.226 230.682 635.57 232.004Z" fill="white" fill-opacity="0.48" stroke="#ACD1EC" stroke-width="2"/>
<path opacity="0.18" fill-rule="evenodd" clip-rule="evenodd" d="M519.179 514.417C519.601 514.417 520.022 514.471 520.43 514.577L639.883 545.453C642.158 546.041 641.732 549.39 639.383 549.39H484.434L542.761 570.903H452.76L394.432 549.39H246.294C245.871 549.39 245.451 549.336 245.042 549.231L125.589 518.354C123.315 517.766 123.741 514.417 126.09 514.417H519.179Z" fill="#ACD1EC"/>
<path d="M693.134 452.973L706.889 506.119H325.488L312.71 452.973H693.134Z" fill="url(#paint0_radial_62_1346)"/>
<path d="M512.437 566.768L517.439 506.744H438.658L433.656 566.768H512.437Z" fill="#FAFAFA" stroke="#ACD1EC" stroke-width="2"/>
<path d="M566.209 565.017C566.209 563.913 565.314 563.017 564.209 563.017H385.636C384.532 563.017 383.636 563.913 383.636 565.017V575.522H566.209V565.017Z" fill="url(#paint1_radial_62_1346)"/>
<path d="M456.199 357.31L429.148 252.269H344.905L370.409 357.31H456.199Z" stroke="#ACD1EC" stroke-width="2"/>
<path d="M444.395 426.087L417.344 321.046H333.1L358.605 426.087H444.395Z" fill="#C7DDF3"/>
<path d="M416.184 269.776H368.665" stroke="#ACD1EC" stroke-width="2"/>
<path d="M421.185 286.032H372.416" stroke="#ACD1EC" stroke-width="2"/>
<path d="M424.937 302.289H377.418" stroke="#ACD1EC" stroke-width="2"/>
<path opacity="0.3" d="M601.817 414.296L573.459 304.72C572.432 300.748 568.848 297.975 564.746 297.975H480.353C474.519 297.975 470.227 303.44 471.61 309.108L498.347 418.684C499.33 422.715 502.941 425.551 507.09 425.551H593.104C598.99 425.551 603.291 419.994 601.817 414.296Z" fill="url(#paint2_radial_62_1346)"/>
<ellipse cx="534.315" cy="340.33" rx="17.2445" ry="18.7301" transform="rotate(-8.36905 534.315 340.33)" fill="#BAE3EF"/>
<path d="M581.786 401.307L512.053 401.307C509.688 379.871 522.281 366.142 541.304 366.142C563.18 366.142 579.421 379.871 581.786 401.307Z" fill="#BAE3EF"/>
<path d="M518.393 319.289L507.905 278.562H475.241L485.13 319.289H518.393Z" stroke="#ACD1EC" stroke-width="2"/>
<path d="M502.877 285.35H484.453" stroke="#ACD1EC" stroke-width="2"/>
<path d="M488.952 291.653H485.908" stroke="#ACD1EC" stroke-width="2"/>
<path d="M504.216 291.653H490.333" stroke="#ACD1EC" stroke-width="2"/>
<path d="M508.56 304.259H489.651" stroke="#ACD1EC" stroke-width="2"/>
<path d="M495.859 297.956H487.847" stroke="#ACD1EC" stroke-width="2"/>
<path d="M502.877 297.956H498.832" stroke="#ACD1EC" stroke-width="2"/>
<path d="M501.414 310.562H491.589" stroke="#ACD1EC" stroke-width="2"/>
<path d="M705.082 333.008L673.353 210.402H574.538L604.454 333.008H705.082Z" fill="url(#paint3_linear_62_1346)"/>
<g opacity="0.37" filter="url(#filter0_f_62_1346)">
<path d="M674.606 344.642L644.488 229.001H565.642L594.131 344.642H674.606Z" fill="url(#paint4_radial_62_1346)"/>
</g>
<path d="M661.861 232.454H597.471" stroke="#ACD1EC" stroke-width="2"/>
<path d="M666.271 248.331H601.881" stroke="#ACD1EC" stroke-width="2"/>
<path d="M669.799 264.208H605.409" stroke="#ACD1EC" stroke-width="2"/>
<path d="M674.209 280.085H609.819" stroke="#ACD1EC" stroke-width="2"/>
<path d="M678.62 295.962H614.23" stroke="#ACD1EC" stroke-width="2"/>
<path d="M682.148 311.839H617.758" stroke="#ACD1EC" stroke-width="2"/>
<g opacity="0.26" filter="url(#filter1_f_62_1346)">
<path fill-rule="evenodd" clip-rule="evenodd" d="M358.479 322.777C354.889 296.893 328.86 276.759 297.223 276.666C266.633 276.576 241.176 295.252 236.141 319.866C233.724 319.302 231.438 319.002 229.311 318.996C195.162 318.895 167.41 342.182 167.325 371.008C167.241 399.834 194.855 423.284 229.004 423.385L338.469 423.707C338.469 423.695 338.469 423.684 338.469 423.672C371.56 422.752 398.082 399.867 398.165 371.687C398.231 349.403 381.743 330.332 358.479 322.777Z" fill="url(#paint5_radial_62_1346)"/>
</g>
<path opacity="0.7" fill-rule="evenodd" clip-rule="evenodd" d="M355.307 316.867C351.717 290.984 325.688 270.849 294.051 270.756C263.462 270.666 238.005 289.342 232.97 313.956C230.553 313.392 228.267 313.092 226.139 313.086C191.991 312.985 164.239 336.272 164.154 365.098C164.069 393.925 191.683 417.375 225.832 417.475L335.298 417.798C335.298 417.786 335.298 417.774 335.298 417.762C368.389 416.843 394.911 393.957 394.994 365.778C395.059 343.493 378.571 324.422 355.307 316.867Z" fill="url(#paint6_radial_62_1346)"/>
<mask id="path-37-inside-3_62_1346" fill="white">
<path fill-rule="evenodd" clip-rule="evenodd" d="M360.588 310.088C356.998 284.204 330.969 264.07 299.332 263.977C268.742 263.887 243.285 282.563 238.25 307.177C235.833 306.613 233.546 306.313 231.419 306.307C197.27 306.206 169.518 329.493 169.433 358.319C169.348 387.145 196.962 410.595 231.111 410.696L340.577 411.018C340.577 411.007 340.577 410.995 340.577 410.983C373.668 410.064 400.191 387.178 400.274 358.999C400.339 336.714 383.851 317.643 360.588 310.088Z"/>
</mask>
<path d="M360.588 310.088L358.607 310.363L358.779 311.603L359.97 311.99L360.588 310.088ZM238.25 307.177L237.795 309.125L239.797 309.592L240.209 307.578L238.25 307.177ZM340.577 411.018L340.571 413.018L342.571 413.024L342.577 411.024L340.577 411.018ZM340.577 410.983L340.521 408.984L338.578 409.038L338.577 410.982L340.577 410.983ZM362.569 309.813C358.81 282.712 331.719 262.072 299.338 261.977L299.326 265.977C330.219 266.068 355.185 285.697 358.607 310.363L362.569 309.813ZM299.338 261.977C268.018 261.885 241.558 281.027 236.291 306.776L240.209 307.578C245.012 284.099 269.466 265.889 299.326 265.977L299.338 261.977ZM238.704 305.229C236.172 304.638 233.733 304.313 231.425 304.307L231.413 308.307C233.36 308.312 235.493 308.587 237.795 309.125L238.704 305.229ZM231.425 304.307C196.502 304.204 167.522 328.078 167.433 358.313L171.433 358.325C171.514 330.908 198.037 308.208 231.413 308.307L231.425 304.307ZM167.433 358.313C167.344 388.548 196.183 412.593 231.105 412.696L231.117 408.696C197.742 408.598 171.352 385.743 171.433 358.325L167.433 358.313ZM231.105 412.696L340.571 413.018L340.583 409.018L231.117 408.696L231.105 412.696ZM342.577 411.024C342.577 411.013 342.577 410.998 342.577 410.984L338.577 410.982C338.577 410.991 338.577 411 338.577 411.012L342.577 411.024ZM398.274 358.993C398.195 385.798 372.853 408.086 340.521 408.984L340.632 412.982C374.484 412.042 402.187 388.559 402.274 359.005L398.274 358.993ZM359.97 311.99C382.616 319.344 398.336 337.778 398.274 358.993L402.274 359.005C402.342 335.651 385.087 315.941 361.205 308.186L359.97 311.99Z" fill="#ACD1EC" mask="url(#path-37-inside-3_62_1346)"/>
<path d="M617.7 429.555L633.205 575.521H797.007L783.302 452.918H682.501L666.301 429.555H617.7Z" fill="url(#paint7_radial_62_1346)"/>
<path d="M646.341 418.902V530.871L774.24 539.643V418.902H646.341Z" fill="white" fill-opacity="0.77"/>
<path d="M664.833 434.983H756.417" stroke="#6B8ADB" stroke-width="2" stroke-linecap="round"/>
<path d="M664.833 446.902H730.158" stroke="#6B8ADB" stroke-width="2" stroke-linecap="round"/>
<path d="M664.833 458.822H730.158" stroke="#6B8ADB" stroke-width="2" stroke-linecap="round"/>
<path d="M639.4 471.453L633.204 575.521H796.816L804.81 471.453H639.4Z" fill="#6B8ADB"/>
<path d="M45.718 88.8597C108.924 76.8315 122.307 33.3512 121.098 13.1145L200.2 32.4457C195.239 75.484 181.759 96.0744 164.628 104.517C154.868 108.114 129.013 107.953 115.365 105.88L45.718 88.8597Z" fill="url(#paint8_radial_62_1346)" fill-opacity="0.38" stroke="#ACD1EC" stroke-width="2"/>
<path d="M115.84 105.84C115.84 105.84 129.977 100.839 133.603 93.4639C144.292 102.406 163.925 104.774 168.86 102.127" stroke="#ACD1EC" stroke-width="2"/>
<path d="M131.188 29.2437L186.943 42.8691" stroke="#ACD1EC" stroke-width="2"/>
<path d="M121.275 53.7822L179.121 67.9187" stroke="#ACD1EC" stroke-width="2"/>
<path d="M114.727 64.5198L173.269 78.8265" stroke="#ACD1EC" stroke-width="2"/>
<path d="M104.017 74.396L168.135 90.0653" stroke="#ACD1EC" stroke-width="2"/>
<path d="M88.3086 83.4434L122.824 91.8782" stroke="#ACD1EC" stroke-width="2"/>
<path d="M128.226 42.8696L183.981 56.4951" stroke="#ACD1EC" stroke-width="2"/>
<path d="M591.861 195.92L565.627 81H222.709L246.919 195.92H591.861Z" fill="#5484FF"/>
<path d="M266.894 126.735L260.4 102.221H263.954L266.985 113.664L274.226 102.221H278.652L270.979 114.187L285.943 126.735H281.384L267.35 115.026L270.456 126.735H266.902H266.894Z" fill="white"/>
<path d="M293.658 127.249C292.296 127.249 291.092 127 290.037 126.494C288.983 125.987 288.111 125.323 287.422 124.484C286.732 123.645 286.251 122.732 285.985 121.735C285.736 120.805 285.686 119.991 285.827 119.286C285.968 118.58 286.301 117.982 286.815 117.492C287.33 117.002 288.02 116.595 288.883 116.288C289.639 116.047 290.511 115.839 291.491 115.657C292.479 115.474 293.517 115.308 294.613 115.142C295.709 114.984 296.805 114.826 297.885 114.668L296.78 115.383C296.423 113.946 295.834 112.875 295.02 112.177C294.206 111.48 293.035 111.131 291.499 111.131C290.536 111.131 289.705 111.355 289.024 111.804C288.343 112.252 287.97 112.991 287.928 114.029L284.341 113.008C284.374 111.43 284.914 110.176 285.944 109.246C286.973 108.316 288.551 107.851 290.669 107.851C292.313 107.851 293.824 108.133 295.194 108.69C296.564 109.254 297.694 110.143 298.582 111.355C299.039 111.953 299.388 112.592 299.629 113.265C299.869 113.938 300.102 114.652 300.301 115.424L303.299 126.743H300.152L299.039 122.541L299.795 123.089C299.404 124.492 298.715 125.547 297.727 126.228C296.731 126.917 295.377 127.258 293.666 127.258L293.658 127.249ZM293.517 124.334C294.53 124.334 295.344 124.152 295.983 123.795C296.614 123.438 297.079 122.981 297.37 122.425C297.669 121.868 297.802 121.287 297.777 120.689C297.827 120.141 297.777 119.535 297.619 118.854C297.47 118.173 297.337 117.625 297.229 117.218L298.499 117.641C297.42 117.816 296.44 117.965 295.56 118.098C294.679 118.231 293.882 118.372 293.168 118.497C292.462 118.63 291.839 118.787 291.308 118.962C290.868 119.128 290.486 119.335 290.17 119.576C289.855 119.817 289.631 120.108 289.498 120.448C289.365 120.789 289.365 121.204 289.498 121.694C289.622 122.167 289.863 122.607 290.204 123.014C290.552 123.421 291.001 123.737 291.549 123.977C292.097 124.218 292.753 124.334 293.517 124.334Z" fill="white"/>
<path d="M307.7 126.734L302.842 108.349H306.454L308.796 117.201L313.67 108.349H318.196L313.006 117.542L323.851 126.734H319.018L308.979 117.882L311.32 126.734H307.691H307.7Z" fill="white"/>
<path d="M336.175 108.349L341.05 126.734H337.628L334.24 113.946L328.436 126.734H325.546L320.671 108.349H324.093L327.414 120.88L333.302 108.349H336.175Z" fill="white"/>
<path d="M354.104 127.249C352.277 127.249 350.566 126.85 348.98 126.045C347.386 125.248 346.024 124.127 344.878 122.69C343.732 121.253 342.91 119.593 342.403 117.691C341.872 115.681 341.789 113.937 342.154 112.468C342.519 110.99 343.267 109.852 344.404 109.046C345.542 108.241 347.004 107.834 348.797 107.834C350.591 107.834 352.376 108.266 353.929 109.138C355.474 110.01 356.786 111.239 357.865 112.841C358.945 114.444 359.701 116.346 360.149 118.546H356.595L356.254 117.251C355.665 115.117 354.843 113.539 353.78 112.517C352.717 111.496 351.388 110.981 349.769 110.981C347.983 110.981 346.796 111.546 346.198 112.667C345.6 113.788 345.584 115.416 346.14 117.533C346.671 119.551 347.535 121.112 348.731 122.225C349.927 123.338 351.363 123.886 353.049 123.886C354.162 123.886 355.059 123.637 355.731 123.13C356.412 122.624 356.852 121.901 357.052 120.963L360.838 122.067C360.556 123.711 359.817 124.99 358.596 125.887C357.384 126.792 355.881 127.241 354.104 127.241V127.249ZM345.243 118.546L344.504 115.773H357.633L358.372 118.546H345.243Z" fill="white"/>
<path d="M372.912 126.734L368.037 108.349H383.541L388.415 126.734H384.861L380.875 111.704H372.48L376.466 126.734H372.912Z" fill="white"/>
<path d="M395.341 134.914L388.308 108.357H391.471L394.976 121.586H395.383L398.912 134.914H395.341ZM401.96 127.249C400.199 127.249 398.613 126.817 397.193 125.962C395.773 125.107 394.561 123.944 393.564 122.482C392.559 121.021 391.82 119.368 391.33 117.525C390.84 115.69 390.708 114.037 390.932 112.567C391.148 111.106 391.746 109.952 392.7 109.105C393.664 108.257 395.009 107.834 396.745 107.834C398.48 107.834 400.075 108.257 401.553 109.105C403.031 109.952 404.301 111.106 405.373 112.559C406.444 114.021 407.216 115.673 407.706 117.525C408.196 119.36 408.296 121.021 408.005 122.491C407.714 123.961 407.067 125.123 406.053 125.97C405.04 126.825 403.67 127.249 401.96 127.249ZM400.614 124.035C401.752 124.035 402.607 123.745 403.205 123.172C403.795 122.59 404.144 121.81 404.251 120.83C404.359 119.85 404.251 118.754 403.928 117.533C403.612 116.329 403.139 115.241 402.508 114.261C401.885 113.281 401.113 112.509 400.199 111.928C399.286 111.347 398.239 111.056 397.06 111.056C395.947 111.056 395.1 111.33 394.527 111.87C393.946 112.418 393.622 113.174 393.531 114.153C393.44 115.125 393.564 116.254 393.905 117.525C394.245 118.795 394.71 119.916 395.308 120.896C395.906 121.876 396.653 122.64 397.533 123.197C398.422 123.753 399.443 124.027 400.614 124.027V124.035Z" fill="white"/>
<path d="M422.005 127.249C420.17 127.249 418.459 126.834 416.89 126.003C415.32 125.173 413.975 124.035 412.854 122.574C411.733 121.112 410.928 119.435 410.421 117.525C409.915 115.607 409.84 113.921 410.205 112.459C410.571 110.998 411.318 109.868 412.456 109.055C413.593 108.241 415.063 107.834 416.865 107.834C418.667 107.834 420.411 108.249 421.98 109.08C423.55 109.91 424.895 111.048 426.016 112.501C427.137 113.954 427.951 115.632 428.458 117.525C428.964 119.443 429.039 121.129 428.682 122.59C428.325 124.052 427.577 125.19 426.448 126.012C425.319 126.834 423.832 127.249 422.005 127.249ZM421.117 123.894C422.877 123.894 424.031 123.305 424.588 122.117C425.144 120.93 425.169 119.402 424.671 117.533C424.164 115.615 423.317 114.079 422.13 112.933C420.942 111.778 419.481 111.205 417.745 111.205C416.549 111.205 415.644 111.471 415.013 112.011C414.382 112.551 414.008 113.298 413.884 114.245C413.759 115.191 413.867 116.288 414.191 117.541C414.706 119.468 415.553 121.013 416.749 122.175C417.945 123.329 419.389 123.911 421.108 123.911L421.117 123.894Z" fill="white"/>
<path d="M442.343 127.266C440.591 127.257 439.005 126.875 437.576 126.128C436.156 125.381 434.911 124.301 433.848 122.881C432.785 121.469 431.938 119.767 431.29 117.766C430.974 116.802 430.7 115.731 430.46 114.56C430.219 113.381 430.044 112.243 429.936 111.147C429.828 110.043 429.828 109.129 429.936 108.39C430.044 107.577 430.294 106.821 430.684 106.132C431.066 105.442 431.539 104.869 432.095 104.404C432.685 103.906 433.391 103.516 434.205 103.242C435.019 102.968 435.882 102.744 436.812 102.586C437.742 102.428 438.681 102.287 439.644 102.171C440.607 102.054 441.537 101.905 442.426 101.722L443.613 104.903C443.024 105.052 442.326 105.168 441.504 105.26C440.682 105.351 439.835 105.451 438.963 105.567C438.091 105.683 437.277 105.841 436.513 106.04C435.749 106.248 435.118 106.53 434.612 106.904C433.897 107.427 433.449 108.191 433.266 109.188C433.084 110.184 433.1 111.272 433.316 112.443C433.74 111.38 434.429 110.608 435.392 110.134C436.355 109.661 437.427 109.428 438.589 109.428C440.225 109.428 441.737 109.819 443.123 110.583C444.51 111.355 445.706 112.401 446.686 113.73C447.674 115.059 448.388 116.562 448.837 118.239C449.318 120.058 449.368 121.644 448.978 122.997C448.596 124.351 447.832 125.405 446.694 126.161C445.556 126.917 444.095 127.282 442.318 127.257L442.343 127.266ZM441.645 123.911C443.281 123.911 444.377 123.404 444.95 122.399C445.515 121.386 445.573 120.041 445.133 118.364C444.676 116.636 443.887 115.283 442.758 114.295C441.637 113.306 440.283 112.816 438.706 112.816C437.128 112.816 436.015 113.306 435.425 114.295C434.844 115.283 434.778 116.636 435.234 118.364C435.699 120.107 436.48 121.469 437.593 122.449C438.706 123.429 440.051 123.911 441.645 123.911Z" fill="white"/>
<path d="M453.146 126.734L452.349 123.72C453.063 123.845 453.578 123.828 453.894 123.662C454.209 123.496 454.392 123.197 454.45 122.748C454.508 122.308 454.508 121.735 454.45 121.029C454.367 120 454.226 118.821 454.018 117.5C453.811 116.18 453.562 114.743 453.263 113.199C452.964 111.654 452.64 110.035 452.283 108.349H465.495L470.369 126.734H466.798L462.812 111.704H456.377C456.543 112.601 456.725 113.556 456.9 114.552C457.082 115.557 457.249 116.554 457.415 117.542C457.572 118.53 457.714 119.452 457.83 120.315C457.946 121.179 458.021 121.918 458.062 122.533C458.162 123.762 458.087 124.733 457.838 125.456C457.589 126.178 457.099 126.643 456.36 126.851C455.621 127.058 454.558 127.025 453.163 126.743L453.146 126.734Z" fill="white"/>
<path d="M483.415 127.249C481.588 127.249 479.877 126.85 478.291 126.045C476.697 125.248 475.335 124.127 474.189 122.69C473.043 121.253 472.221 119.593 471.714 117.691C471.183 115.681 471.1 113.937 471.465 112.468C471.83 110.99 472.578 109.852 473.715 109.046C474.853 108.241 476.315 107.834 478.108 107.834C479.902 107.834 481.687 108.266 483.24 109.138C484.785 110.01 486.097 111.239 487.176 112.841C488.256 114.444 489.012 116.346 489.46 118.546H485.906L485.565 117.251C484.976 115.117 484.154 113.539 483.091 112.517C482.028 111.496 480.699 110.981 479.08 110.981C477.294 110.981 476.107 111.546 475.509 112.667C474.911 113.788 474.895 115.416 475.451 117.533C475.982 119.551 476.846 121.112 478.042 122.225C479.238 123.338 480.674 123.886 482.36 123.886C483.473 123.886 484.37 123.637 485.042 123.13C485.723 122.624 486.163 121.901 486.363 120.963L490.141 122.067C489.859 123.711 489.12 124.99 487.899 125.887C486.686 126.792 485.183 127.241 483.406 127.241L483.415 127.249ZM474.554 118.546L473.823 115.773H486.952L487.691 118.546H474.562H474.554Z" fill="white"/>
<path d="M494.899 126.734L490.025 108.349H493.006L503.37 121.835L506.575 108.349H509.573L514.447 126.734H511.009L508.07 115.632L505.479 126.734H503.86L495.389 115.632L498.329 126.734H494.908H494.899Z" fill="white"/>
<path d="M519.197 126.734L514.323 108.349H517.894L519.588 114.735H522.004C522.527 114.735 523.092 114.743 523.698 114.768C524.304 114.793 524.827 114.851 525.276 114.943C526.314 115.15 527.261 115.491 528.116 115.964C528.971 116.437 529.694 117.077 530.292 117.866C530.889 118.655 531.346 119.618 531.645 120.772C532.069 122.375 531.994 123.645 531.413 124.592C530.831 125.539 529.885 126.178 528.548 126.51C528.124 126.61 527.601 126.676 526.987 126.709C526.372 126.734 525.807 126.751 525.284 126.751H519.172L519.197 126.734ZM522.012 123.878H524.753C525.052 123.878 525.376 123.869 525.733 123.845C526.09 123.82 526.414 123.77 526.696 123.695C527.186 123.537 527.584 123.213 527.883 122.724C528.182 122.234 528.232 121.586 528.008 120.764C527.784 119.925 527.393 119.252 526.837 118.754C526.281 118.256 525.658 117.932 524.969 117.783C524.653 117.7 524.329 117.65 523.997 117.633C523.665 117.616 523.358 117.6 523.075 117.6H520.335L521.996 123.878H522.012ZM535.266 126.734L530.391 108.349H533.945L538.82 126.734H535.266Z" fill="white"/>
<path d="M279.865 175.762L272.831 149.206H275.995L279.499 162.434H279.906L283.435 175.762H279.865ZM286.483 168.097C284.723 168.097 283.136 167.666 281.716 166.81C280.296 165.955 279.084 164.792 278.088 163.331C277.083 161.869 276.344 160.217 275.854 158.373C275.364 156.538 275.231 154.886 275.455 153.424C275.671 151.962 276.269 150.808 277.224 149.961C278.187 149.114 279.532 148.691 281.268 148.691C283.004 148.691 284.59 149.114 286.076 149.961C287.554 150.808 288.825 151.962 289.896 153.416C290.967 154.869 291.739 156.53 292.229 158.373C292.719 160.208 292.819 161.869 292.528 163.339C292.246 164.809 291.59 165.972 290.577 166.819C289.564 167.674 288.194 168.097 286.483 168.097ZM285.138 164.884C286.275 164.884 287.139 164.593 287.729 164.02C288.318 163.439 288.667 162.658 288.775 161.678C288.883 160.698 288.775 159.602 288.459 158.382C288.144 157.177 287.67 156.09 287.039 155.11C286.408 154.138 285.644 153.358 284.731 152.776C283.817 152.195 282.771 151.904 281.592 151.904C280.479 151.904 279.632 152.178 279.059 152.718C278.486 153.266 278.154 154.022 278.063 155.002C277.971 155.973 278.096 157.103 278.436 158.373C278.777 159.644 279.242 160.765 279.84 161.745C280.438 162.725 281.177 163.489 282.065 164.045C282.954 164.601 283.975 164.875 285.146 164.875L285.138 164.884Z" fill="white"/>
<path d="M306.711 168.106C304.885 168.106 303.174 167.707 301.588 166.902C299.993 166.104 298.632 164.983 297.486 163.547C296.34 162.11 295.518 160.449 295.011 158.548C294.48 156.538 294.396 154.794 294.762 153.324C295.127 151.846 295.875 150.709 297.012 149.903C298.15 149.098 299.611 148.691 301.405 148.691C303.199 148.691 304.984 149.122 306.537 149.994C308.082 150.866 309.394 152.095 310.473 153.698C311.553 155.301 312.308 157.202 312.757 159.403H309.203L308.862 158.108C308.273 155.973 307.451 154.396 306.388 153.374C305.325 152.353 303.996 151.846 302.377 151.846C300.591 151.846 299.404 152.411 298.806 153.532C298.208 154.653 298.191 156.281 298.748 158.398C299.279 160.416 300.143 161.977 301.339 163.09C302.535 164.203 303.971 164.751 305.657 164.751C306.77 164.751 307.666 164.502 308.339 163.995C309.02 163.489 309.46 162.766 309.659 161.828L313.446 162.932C313.164 164.576 312.425 165.855 311.204 166.752C309.992 167.657 308.489 168.106 306.711 168.106ZM297.851 159.403L297.112 156.629H310.241L310.98 159.403H297.851Z" fill="white"/>
<path d="M318.711 167.591L313.836 149.206H317.258L321.277 164.394H327.048L323.029 149.206H326.45L330.478 164.394H336.233L332.213 149.206H335.635L340.509 167.591H318.719H318.711Z" fill="white"/>
<path d="M350.599 168.105C349.237 168.105 348.033 167.856 346.978 167.349C345.924 166.843 345.052 166.179 344.363 165.34C343.673 164.509 343.192 163.588 342.926 162.591C342.677 161.661 342.627 160.847 342.768 160.142C342.909 159.436 343.242 158.838 343.756 158.348C344.271 157.858 344.96 157.451 345.824 157.144C346.58 156.903 347.443 156.695 348.432 156.513C349.42 156.33 350.458 156.164 351.554 155.998C352.65 155.84 353.746 155.682 354.826 155.524L353.721 156.239C353.364 154.794 352.775 153.731 351.961 153.033C351.147 152.336 349.976 151.987 348.44 151.987C347.477 151.987 346.646 152.211 345.965 152.66C345.284 153.108 344.911 153.847 344.869 154.885L341.282 153.864C341.315 152.286 341.855 151.032 342.884 150.102C343.914 149.172 345.492 148.707 347.609 148.707C349.254 148.707 350.765 148.989 352.127 149.545C353.497 150.11 354.626 150.999 355.515 152.211C355.972 152.817 356.32 153.448 356.561 154.121C356.81 154.794 357.035 155.508 357.234 156.28L360.232 167.599H357.084L355.972 163.397L356.727 163.945C356.337 165.348 355.648 166.403 354.66 167.084C353.663 167.773 352.31 168.113 350.599 168.113V168.105ZM350.458 165.199C351.471 165.199 352.285 165.016 352.924 164.659C353.555 164.302 354.02 163.845 354.311 163.289C354.61 162.732 354.743 162.151 354.718 161.553C354.768 161.005 354.718 160.399 354.56 159.718C354.411 159.037 354.278 158.489 354.17 158.082L355.44 158.506C354.361 158.68 353.381 158.829 352.501 158.962C351.62 159.095 350.823 159.228 350.109 159.361C349.395 159.494 348.78 159.643 348.249 159.826C347.809 160 347.427 160.2 347.111 160.44C346.796 160.681 346.571 160.964 346.439 161.312C346.306 161.653 346.306 162.068 346.439 162.558C346.563 163.031 346.804 163.471 347.144 163.878C347.493 164.285 347.942 164.601 348.49 164.842C349.038 165.082 349.694 165.199 350.458 165.199Z" fill="white"/>
<path d="M372.945 168.106C371.118 168.106 369.408 167.707 367.822 166.902C366.227 166.104 364.865 164.983 363.719 163.547C362.574 162.11 361.751 160.449 361.245 158.548C360.713 156.538 360.63 154.794 360.996 153.324C361.361 151.846 362.108 150.709 363.246 149.903C364.384 149.098 365.845 148.691 367.639 148.691C369.433 148.691 371.218 149.122 372.771 149.994C374.316 150.866 375.628 152.095 376.707 153.698C377.787 155.301 378.542 157.202 378.991 159.403H375.437L375.096 158.108C374.507 155.973 373.684 154.396 372.621 153.374C371.559 152.353 370.23 151.846 368.611 151.846C366.825 151.846 365.638 152.411 365.04 153.532C364.442 154.653 364.425 156.281 364.982 158.398C365.513 160.416 366.377 161.977 367.573 163.09C368.768 164.203 370.205 164.751 371.891 164.751C373.003 164.751 373.9 164.502 374.573 163.995C375.254 163.489 375.694 162.766 375.893 161.828L379.672 162.932C379.389 164.576 378.65 165.855 377.43 166.752C376.217 167.657 374.714 168.106 372.937 168.106H372.945ZM364.085 159.403L363.354 156.629H376.483L377.222 159.403H364.093H364.085Z" fill="white"/>
<path d="M389.72 167.591L385.701 152.403H379.423L378.576 149.206H394.694L395.541 152.403H389.263L393.282 167.591H389.728H389.72Z" fill="white"/>
<path d="M409.6 167.591L403.106 143.077H406.668L409.699 154.52L416.932 143.077H421.358L413.685 155.043L428.658 167.591H424.099L410.065 155.882L413.171 167.591H409.616H409.6Z" fill="white"/>
<path d="M440.682 168.106C438.88 168.106 437.178 167.815 435.591 167.225C433.997 166.644 432.552 165.772 431.257 164.61C429.953 163.455 428.84 162.019 427.918 160.316L431.174 159.428C432.087 161.031 433.283 162.318 434.778 163.281C436.264 164.253 437.867 164.726 439.586 164.701C440.773 164.676 441.836 164.452 442.775 164.012C443.713 163.572 444.402 162.899 444.842 161.977C445.224 161.23 445.432 160.433 445.465 159.594C445.498 158.755 445.432 157.883 445.274 156.986H436.488L435.6 153.632H444.402C443.837 152.104 443.082 150.758 442.135 149.596C441.188 148.442 440.076 147.536 438.813 146.88C437.543 146.224 436.148 145.909 434.62 145.934C432.81 145.959 431.415 146.465 430.443 147.462C429.471 148.458 428.99 149.795 429.006 151.489L425.278 150.983C425.178 148.3 425.884 146.233 427.395 144.763C428.907 143.293 431.082 142.562 433.922 142.562C436.306 142.562 438.481 143.102 440.458 144.173C442.434 145.244 444.128 146.739 445.532 148.649C446.943 150.559 447.99 152.785 448.687 155.334C449.343 157.717 449.476 159.876 449.102 161.803C448.72 163.729 447.832 165.266 446.42 166.403C445.008 167.541 443.098 168.106 440.682 168.106Z" fill="white"/>
<path d="M454.5 171.676L452.532 164.236C453.371 164.236 454.01 164.02 454.442 163.596C454.874 163.173 455.156 162.583 455.28 161.844C455.405 161.105 455.43 160.25 455.355 159.295C455.28 158.34 455.148 157.335 454.957 156.28C454.716 154.852 454.458 153.448 454.193 152.087C453.927 150.716 453.645 149.305 453.337 147.843C453.038 146.382 452.706 144.787 452.349 143.06L468.052 143.077L473.657 164.236H475.476L477.444 171.676H473.873L472.794 167.59H456.983L458.062 171.676H454.508H454.5ZM458.37 164.236H470.095L465.378 146.432L456.518 146.415C456.767 147.661 457.016 148.848 457.257 149.969C457.498 151.09 457.73 152.228 457.946 153.365C458.162 154.503 458.386 155.732 458.602 157.036C458.81 158.281 458.959 159.344 459.051 160.208C459.142 161.072 459.142 161.827 459.051 162.467C458.951 163.098 458.727 163.696 458.37 164.236Z" fill="white"/>
<path d="M490.473 168.106C488.023 168.106 485.79 167.566 483.78 166.495C481.77 165.423 480.051 163.929 478.631 162.01C477.211 160.092 476.165 157.867 475.492 155.334C474.82 152.801 474.687 150.576 475.094 148.657C475.501 146.739 476.422 145.244 477.859 144.173C479.304 143.102 481.247 142.562 483.697 142.562C486.147 142.562 488.364 143.102 490.382 144.173C492.4 145.244 494.11 146.739 495.53 148.657C496.95 150.576 497.988 152.801 498.661 155.334C499.334 157.867 499.466 160.092 499.068 162.01C498.669 163.929 497.747 165.423 496.302 166.495C494.858 167.566 492.914 168.106 490.473 168.106ZM489.576 164.718C491.32 164.743 492.657 164.361 493.604 163.572C494.55 162.783 495.123 161.678 495.323 160.267C495.53 158.855 495.381 157.211 494.882 155.342C494.384 153.474 493.662 151.83 492.715 150.435C491.768 149.031 490.606 147.943 489.252 147.154C487.89 146.374 486.346 145.975 484.602 145.959C482.858 145.934 481.521 146.316 480.575 147.096C479.628 147.877 479.055 148.981 478.856 150.401C478.648 151.821 478.789 153.466 479.279 155.342C479.769 157.219 480.483 158.855 481.43 160.25C482.377 161.653 483.539 162.741 484.909 163.53C486.279 164.311 487.832 164.709 489.576 164.718Z" fill="white"/>
<path d="M564.927 198.282L554.076 156.147C553.962 155.706 553.564 155.397 553.108 155.397H519.759C519.111 155.397 518.634 156.003 518.787 156.633L529.018 198.767C529.127 199.215 529.528 199.531 529.99 199.531H563.958C564.612 199.531 565.09 198.914 564.927 198.282Z" fill="#FAFAFA" stroke="#ACD1EC" stroke-width="2"/>
<path d="M548.435 162.752H528.47" stroke="#ACD1EC" stroke-width="2"/>
<path d="M533.344 169.583H530.046" stroke="#ACD1EC" stroke-width="2"/>
<path d="M549.885 169.583H534.841" stroke="#ACD1EC" stroke-width="2"/>
<path d="M540.83 176.413H532.147" stroke="#ACD1EC" stroke-width="2"/>
<path d="M548.435 176.413H544.052" stroke="#ACD1EC" stroke-width="2"/>
<path d="M546.85 190.074H536.203" stroke="#ACD1EC" stroke-width="2"/>
<defs>
<filter id="filter0_f_62_1346" x="532.643" y="196.001" width="174.963" height="181.641" filterUnits="userSpaceOnUse" color-interpolation-filters="sRGB">
<feFlood flood-opacity="0" result="BackgroundImageFix"/>
<feBlend mode="normal" in="SourceGraphic" in2="BackgroundImageFix" result="shape"/>
<feGaussianBlur stdDeviation="16.5" result="effect1_foregroundBlur_62_1346"/>
</filter>
<filter id="filter1_f_62_1346" x="144.325" y="253.665" width="276.84" height="193.042" filterUnits="userSpaceOnUse" color-interpolation-filters="sRGB">
<feFlood flood-opacity="0" result="BackgroundImageFix"/>
<feBlend mode="normal" in="SourceGraphic" in2="BackgroundImageFix" result="shape"/>
<feGaussianBlur stdDeviation="11.5" result="effect1_foregroundBlur_62_1346"/>
</filter>
<radialGradient id="paint0_radial_62_1346" cx="0" cy="0" r="1" gradientUnits="userSpaceOnUse" gradientTransform="translate(709.259 462.033) rotate(173.501) scale(224.166 422.907)">
<stop stop-color="#5484FF" stop-opacity="0.43"/>
<stop offset="1" stop-color="#ABD0EB"/>
</radialGradient>
<radialGradient id="paint1_radial_62_1346" cx="0" cy="0" r="1" gradientUnits="userSpaceOnUse" gradientTransform="translate(537.513 562.991) rotate(176.219) scale(132.028 120.57)">
<stop stop-color="#C2EEF1"/>
<stop offset="1" stop-color="#ABD0EB"/>
</radialGradient>
<radialGradient id="paint2_radial_62_1346" cx="0" cy="0" r="1" gradientUnits="userSpaceOnUse" gradientTransform="translate(583.379 297.706) rotate(137.818) scale(132.275 913.476)">
<stop stop-color="#C2EEF1"/>
<stop offset="1" stop-color="#ABD0EB"/>
</radialGradient>
<linearGradient id="paint3_linear_62_1346" x1="670.253" y1="224.31" x2="603.737" y2="367.015" gradientUnits="userSpaceOnUse">
<stop stop-color="#ECF9FF"/>
<stop offset="1" stop-color="#B3DAED"/>
</linearGradient>
<radialGradient id="paint4_radial_62_1346" cx="0" cy="0" r="1" gradientUnits="userSpaceOnUse" gradientTransform="translate(598.88 264.848) rotate(44.8901) scale(118.865 178.938)">
<stop stop-color="#92A9E3"/>
<stop offset="1" stop-color="#BAD5ED"/>
</radialGradient>
<radialGradient id="paint5_radial_62_1346" cx="0" cy="0" r="1" gradientUnits="userSpaceOnUse" gradientTransform="translate(340.576 319.202) rotate(156.148) scale(194.806 1356.34)">
<stop stop-color="#C2EEF1"/>
<stop offset="1" stop-color="#ACEBAB"/>
</radialGradient>
<radialGradient id="paint6_radial_62_1346" cx="0" cy="0" r="1" gradientUnits="userSpaceOnUse" gradientTransform="translate(306.838 423.855) rotate(-67.3609) scale(138.24 967.331)">
<stop stop-color="#5484FF" stop-opacity="0.43"/>
<stop offset="1" stop-color="#ABD0EB"/>
</radialGradient>
<radialGradient id="paint7_radial_62_1346" cx="0" cy="0" r="1" gradientUnits="userSpaceOnUse" gradientTransform="translate(777.886 444.415) rotate(155.102) scale(176.661 1191.03)">
<stop stop-color="#C2EEF1"/>
<stop offset="1" stop-color="#ABD0EB"/>
</radialGradient>
<radialGradient id="paint8_radial_62_1346" cx="0" cy="0" r="1" gradientUnits="userSpaceOnUse" gradientTransform="translate(88.6018 4.97474) rotate(46.2704) scale(118.41 745.164)">
<stop stop-color="#C2EEF1"/>
<stop offset="1" stop-color="#ABD0EB"/>
</radialGradient>
</defs>
</svg>
