<svg width="78" height="94" viewBox="0 0 78 94" fill="none" xmlns="http://www.w3.org/2000/svg">
<g opacity="0.69">
<path opacity="0.5" fill-rule="evenodd" clip-rule="evenodd" d="M7.37842 30.149L30.7353 7.21622H73V79.705C68.927 72.2698 59.8 67.5135 49.194 67.5135C35.0248 67.5135 21.0828 76.0025 20.6398 88.027H7.37842V30.149ZM62.8221 48.5C62.8221 55.9558 56.687 62 49.1189 62C41.5509 62 35.4157 55.9558 35.4157 48.5C35.4157 41.0442 41.5509 35 49.1189 35C56.687 35 62.8221 41.0442 62.8221 48.5Z" fill="#00DAD6"/>
</g>
<path d="M76.9997 93C76.9997 93 64.1975 93 48.4051 93C32.6128 93 19.8105 93 19.8105 93C19.8105 79.2675 32.6128 68.1351 48.4051 68.1351C64.1975 68.1351 76.9997 79.2675 76.9997 93Z" stroke="#11DCD0" stroke-width="2"/>
<circle cx="48.4052" cy="48.2432" r="13.6757" stroke="#11DCD0" stroke-width="2"/>
<path d="M73.2702 66.2703V1H27.2702L1.16211 27.1081V93H11.7297" stroke="#11DCD0" stroke-width="2"/>
<path d="M1.16211 27.1081H27.2702V1.49997" stroke="#11DCD0" stroke-width="2"/>
<path d="M37.8379 15.2973H62.0811" stroke="#11DCD0" stroke-width="2"/>
<path d="M14.8379 42.027H26.0271" stroke="#11DCD0" stroke-width="2"/>
<path d="M14.8379 61.9189H26.0271" stroke="#11DCD0" stroke-width="2"/>
<path d="M37.8379 24.6216H62.0811" stroke="#11DCD0" stroke-width="2"/>
<path d="M14.8379 51.973H26.0271" stroke="#11DCD0" stroke-width="2"/>
</svg>
