<svg width="79" height="91" viewBox="0 0 79 91" fill="none" xmlns="http://www.w3.org/2000/svg">
<rect x="16" y="45" width="62" height="45" fill="#F5CC8A"/>
<path d="M68 35.0714V1H1V73H6.31746" stroke="#F47957" stroke-width="2"/>
<rect x="11" y="40" width="67" height="50" stroke="#F47957" stroke-width="2"/>
<path d="M12 33.6326C13.2277 36.4792 16.1986 41.207 18.261 37.3456C20.3235 33.4841 20.5936 33.2613 20.4708 33.6326C20.4708 35.4891 21.1337 38.8307 23.7855 37.3456C27.1001 35.4891 32.2563 30.6623 30.4148 27.6919C28.5733 24.7215 19.7342 22.8651 25.9952 29.5484C32.2563 36.2317 30.4148 42.915 35.5709 36.2317C40.7271 29.5484 41.0954 26.578 38.149 25.8354" stroke="#F47957" stroke-width="2"/>
<path d="M12 11H57.5" stroke="#F47957" stroke-width="2"/>
<path d="M12 16.5H57.5" stroke="#F47957" stroke-width="2"/>
<path d="M35.4896 71.3578C35.4896 71.3579 35.4895 71.3579 35.2944 71.1776L35.5007 71.3456L35.4982 71.3484L35.494 71.3531L35.4917 71.3555L35.4906 71.3567L35.49 71.3573L35.4897 71.3577L35.4896 71.3578ZM30.6547 70.4441C30.6479 70.4558 30.6416 70.4664 30.6359 70.4761C30.633 70.4802 30.6305 70.4838 30.6284 70.4868L30.6175 70.5028C30.6057 70.5201 30.5936 70.5387 30.5836 70.5542C30.5732 70.5704 30.5619 70.5883 30.5513 70.6055C30.546 70.6141 30.5399 70.6241 30.5337 70.6345L30.5229 70.653C30.5191 70.6595 30.5137 70.669 30.5076 70.6802C30.5062 70.6828 30.5046 70.6858 30.5028 70.6891C30.5007 70.693 30.4984 70.6974 30.496 70.7022C30.4917 70.7105 30.4854 70.7231 30.4782 70.7386C30.4781 70.7387 30.4781 70.7388 30.478 70.739C30.1848 71.2354 29.9733 71.6631 29.5623 72.4938C29.2281 73.1692 28.7622 74.1112 28.0133 75.5733C27.6509 76.2808 27.3495 76.6328 27.1532 76.8025C27.0575 76.8852 26.9899 76.922 26.9537 76.9381C26.9353 76.9463 26.9227 76.9502 26.9158 76.952C26.909 76.9538 26.9058 76.954 26.9058 76.954C26.8662 76.9579 26.4475 76.9424 25.6049 76.139C23.9659 74.5764 22.2979 71.5279 21.2667 69.0345L20.8703 68.076L19.9269 68.5072L17.5843 69.578L16.7075 69.9787L17.0759 70.8696C18.1736 73.5238 20.1458 77.323 22.5087 79.5758C23.6641 80.6775 25.3375 81.8147 27.3385 81.6183C29.4688 81.4093 30.9908 79.8115 32.0425 77.7582C32.3139 77.2283 32.5668 76.7376 32.8022 76.2835C32.8707 76.4294 32.9429 76.5731 33.0191 76.7139C33.6101 77.8069 34.5754 78.9734 36.0929 79.4588C37.6438 79.9548 39.2421 79.5731 40.7318 78.703C42.9155 77.4277 45.4854 75.4661 47.7706 73.1969C48.2199 74.1074 48.6192 74.9735 48.9948 75.7883L49.0062 75.8131C49.5163 76.9195 49.9927 77.9531 50.4818 78.8346C50.9326 79.6471 51.5322 80.5809 52.3806 81.2177C53.3975 81.9808 54.6335 82.2158 55.9088 81.7887C56.9846 81.4284 57.943 80.6441 58.8086 79.7643C59.71 78.8482 60.7129 77.6148 61.8552 76.0708C66.33 70.0224 69.0165 65.2971 69.7721 61.7224C70.1621 59.8776 70.1051 58.0224 69.1753 56.4435C68.2402 54.8555 66.6951 54.0087 65.0774 53.5835L64.0872 53.3233L63.8504 54.3193L63.2308 56.9246L63.0048 57.8748L63.9495 58.1231C64.8831 58.3685 65.176 58.6954 65.2799 58.8718C65.3889 59.0569 65.5698 59.5526 65.3217 60.7262L66.2521 60.9228L65.3217 60.7262C64.8002 63.1934 62.6973 67.1956 58.231 73.2325C57.1381 74.7098 56.285 75.7422 55.6073 76.431C55.2607 76.7833 55.0014 77.0021 54.8204 77.1361C54.7166 76.988 54.5892 76.7851 54.4371 76.5111L53.5627 76.9963L54.4371 76.5111C54.0995 75.9026 53.7239 75.0879 53.254 74.0666L53.2503 74.0585C52.6547 72.7643 51.931 71.1914 51.0053 69.4683C52.1539 67.8914 53.1222 66.1723 53.6409 64.4112C54.2465 62.3554 54.2797 60.0642 53.0451 57.9875C51.9292 56.1106 49.9427 54.6458 48.0484 53.6733C46.1354 52.6911 43.9047 52 42.002 52C41.068 52 39.9272 52.166 38.9633 52.8456L39.5395 53.6629L38.9633 52.8456C37.8491 53.631 37.2886 54.8777 37.3311 56.263C37.3687 57.489 37.8661 58.7334 38.5665 59.9368C39.2882 61.1766 40.3466 62.5768 41.7665 64.1573C43.2426 65.8004 44.4333 67.425 45.4238 68.9843C43.2404 71.3218 40.6009 73.3913 38.4826 74.6285C38.0777 74.8649 37.8066 74.9498 37.6476 74.9783C37.5693 74.9923 37.5176 74.9927 37.4886 74.991C37.4602 74.9893 37.4472 74.9851 37.4457 74.9847L37.4457 74.9846C37.4436 74.984 37.4018 74.9708 37.3256 74.8975C37.2452 74.8201 37.1312 74.6798 36.9992 74.4356C36.4532 73.4259 36.17 71.7079 36.1396 70.2166C36.1606 70.0947 36.1775 69.9515 36.1798 69.7969C36.1817 69.6647 36.1768 69.3876 36.0797 69.0577C35.9847 68.735 35.7187 68.0987 35.0197 67.6888C34.2938 67.2631 33.5914 67.3654 33.2224 67.4791L33.5037 68.3923L33.2224 67.4791C33.0756 67.5243 32.9596 67.5925 32.8993 67.6299C32.8277 67.6744 32.7612 67.7225 32.7054 67.7652C32.5936 67.8507 32.4804 67.9485 32.386 68.0329C32.2895 68.1192 32.1992 68.2037 32.134 68.2648L32.1266 68.2717C32.0961 68.3003 32.0741 68.3209 32.0572 68.3365C32.055 68.3385 32.053 68.3403 32.0512 68.3419C31.917 68.452 31.8169 68.5847 31.7773 68.6372L31.775 68.6403C31.7086 68.7282 31.6387 68.8302 31.5711 68.9325C31.435 69.1389 31.2803 69.3903 31.1365 69.6291C30.9917 69.8698 30.8522 70.1074 30.7464 70.288C30.7083 70.3531 30.678 70.4045 30.6547 70.4441ZM30.58 70.5682C30.58 70.5682 30.58 70.5682 30.58 70.5683L30.58 70.5682ZM54.4983 77.3334C54.4843 77.3381 54.4855 77.3367 54.4991 77.3332C54.4988 77.3333 54.4985 77.3333 54.4983 77.3334ZM55.0655 77.4325C55.0654 77.4324 55.0648 77.432 55.0639 77.4312L55.0655 77.4325ZM32.0408 68.3514C32.0408 68.3513 32.0421 68.3502 32.0443 68.3483C32.0418 68.3505 32.0407 68.3515 32.0408 68.3514ZM49.2823 63.0516C49.0943 63.6897 48.7859 64.3841 48.3656 65.1181C47.4296 63.7556 46.355 62.3611 45.1114 60.9768C43.8171 59.536 42.9796 58.3977 42.4739 57.5289C42.2708 57.18 42.1369 56.9011 42.0488 56.6858C43.0217 56.6983 44.5186 57.0978 46.014 57.8655C47.5522 58.6553 48.679 59.6242 49.1597 60.4328C49.5229 61.0437 49.6338 61.8585 49.2823 63.0516ZM41.8832 56.1111C41.8832 56.1124 41.8831 56.1137 41.883 56.115L41.8832 56.1111Z" fill="white" stroke="#F47957" stroke-width="2"/>
</svg>
