<svg width="79" height="93" viewBox="0 0 79 93" fill="none" xmlns="http://www.w3.org/2000/svg">
<path d="M7 9H40.4981" stroke="#6449BC" stroke-width="2"/>
<path d="M7 16H40.4981" stroke="#6449BC" stroke-width="2"/>
<rect x="7" y="24" width="33.4981" height="19" fill="#D0C5F9"/>
<rect x="12" y="54" width="66" height="38" fill="#D0C5F9"/>
<path d="M53.1717 73.8719H52.3989H52.1857H51.3816H48.5914H47.6235L47.592 72.9045C47.5485 71.5719 46.4621 70.5132 45.1356 70.5132C43.7783 70.5132 42.6748 71.6167 42.6748 72.9839C42.6748 73.9197 43.1959 74.7336 43.9652 75.1506L43.9652 75.1506L43.9704 75.1535C43.97 75.1532 43.9746 75.1558 43.9855 75.161C43.9968 75.1664 44.0122 75.1734 44.032 75.1819C44.0718 75.199 44.123 75.2195 44.184 75.2418C44.3014 75.285 44.4422 75.3305 44.588 75.3703C44.8346 75.4245 45.2566 75.4704 45.5998 75.4996C45.5998 75.4996 45.5998 75.4996 45.5999 75.4996C45.6002 75.4996 45.6052 75.5 45.6163 75.5006C45.621 75.5008 45.6263 75.5011 45.6322 75.5013C45.6424 75.5018 45.6545 75.5023 45.6684 75.5028C45.7121 75.5044 45.7677 75.506 45.833 75.5075C45.9634 75.5104 46.1232 75.5129 46.2856 75.5149C46.6108 75.5188 46.9356 75.5205 47.036 75.5205H66.9993H67.9993V76.5205V79.3196V80.1005H68V81.1005V84V85H67L47.0024 85L46.9985 85C46.6443 84.9986 45.3378 84.9847 44.9317 84.9541L44.931 84.9541C43.8123 84.869 42.5407 84.6656 41.4798 84.3491L41.4798 84.3491L41.4721 84.3467C41.1188 84.2382 40.1715 83.8773 39.4899 83.5159L39.4899 83.5159L39.4826 83.512C36.3774 81.8324 34.0875 78.8134 33.4047 75.2255V83.9892V84.9892H32.4047H29.4814H29.0183H28.4814H28.0183H25.2096H24.2096V83.9892V70.214H22H21V69.214V66.3956V65.3956H22H24.2096V64.9311V62V61H25.2096H32.4047H33.4047V62V70.7396C34.4556 65.2103 39.3148 61.0172 45.1356 61.0172C51.6832 61.0172 57.0085 66.3209 57.0756 72.8617L57.086 73.8719H56.0757H53.1717Z" fill="white" stroke="#6449BC" stroke-width="2"/>
<rect x="7" y="49" width="71" height="43" stroke="#6449BC" stroke-width="2"/>
<path d="M46.5 47.1408L46.5 1L0.999997 1L1 64L4 64" stroke="#6449BC" stroke-width="2"/>
<path d="M51.4214 51.9635L53.6033 58.3666L60.0064 56.1847" stroke="#6449BC" stroke-width="2"/>
<path d="M28.5733 32.565C36.8904 26.9936 48.1492 29.2195 53.7205 37.5366C57.8849 43.7535 57.6929 51.614 53.8568 57.5142" stroke="#6449BC" stroke-width="2"/>
</svg>
