<svg width="88" height="98" viewBox="0 0 88 98" fill="none" xmlns="http://www.w3.org/2000/svg">
<rect x="31.4961" y="29.7021" width="48.9443" height="6.83019" stroke="#528285" stroke-width="2"/>
<rect x="36.0332" y="46.3606" width="44.2994" height="20.9694" fill="#88F1D2"/>
<rect x="31.4961" y="41.8424" width="48.9443" height="25.5913" stroke="#528285" stroke-width="2"/>
<rect x="35.8022" y="77.8653" width="17.0664" height="9.59983" fill="#88F1D2"/>
<rect x="31.4961" y="73.8483" width="21.2572" height="13.4511" stroke="#528285" stroke-width="2"/>
<rect x="24.9585" y="23.1839" width="62.0192" height="72.841" stroke="#528285" stroke-width="2"/>
<path fill-rule="evenodd" clip-rule="evenodd" d="M36.7564 7.91837C35.5275 4.71935 31.0015 4.71935 29.7727 7.91837C28.862 10.2891 25.8953 11.0756 23.9203 9.47882C21.2605 7.32836 17.3337 9.57857 17.8737 12.9561C18.2743 15.4619 16.0986 17.6262 13.5923 17.2282C10.2169 16.6923 7.94034 20.6027 10.0981 23.2531C11.6999 25.2206 10.9073 28.1792 8.53683 29.0835C5.33994 30.303 5.33994 34.8269 8.53683 36.0465C10.9073 36.9507 11.6999 39.9093 10.0981 41.8768C7.94034 44.5272 10.2169 48.4377 13.5923 47.9017C16.0986 47.5038 18.2743 49.668 17.8737 52.1739C17.3337 55.5514 21.2605 57.8016 23.9203 55.6511C25.8953 54.0544 28.862 54.8408 29.7727 57.2116C31.0015 60.4106 35.5275 60.4106 36.7564 57.2116C37.667 54.8408 40.6338 54.0544 42.6087 55.6511C45.2685 57.8016 49.1953 55.5514 48.6553 52.1739C48.2547 49.668 50.4304 47.5038 52.9367 47.9017C56.3122 48.4377 58.5887 44.5272 56.4309 41.8768C54.8291 39.9093 55.6217 36.9507 57.9922 36.0465C61.1891 34.8269 61.1891 30.303 57.9922 29.0835C55.6217 28.1792 54.8291 25.2206 56.4309 23.2531C58.5887 20.6027 56.3122 16.6923 52.9367 17.2282C50.4304 17.6262 48.2547 15.4619 48.6553 12.9561C49.1953 9.57857 45.2685 7.32836 42.6087 9.47882C40.6338 11.0756 37.667 10.2891 36.7564 7.91837ZM33.5668 48.831C42.4144 48.831 49.5869 41.6834 49.5869 32.8663C49.5869 24.0493 42.4144 16.9016 33.5668 16.9016C24.7191 16.9016 17.5466 24.0493 17.5466 32.8663C17.5466 41.6834 24.7191 48.831 33.5668 48.831Z" fill="#88F1D2"/>
<mask id="path-8-inside-1_16_6129" fill="white">
<path fill-rule="evenodd" clip-rule="evenodd" d="M35.5941 2.74202C34.1897 -0.914007 29.0172 -0.914007 27.6127 2.74202C26.572 5.45146 23.1814 6.35023 20.9244 4.52539C17.8846 2.06772 13.3968 4.63938 14.0139 8.49937C14.4718 11.3632 11.9853 13.8366 9.12092 13.3818C5.26325 12.7693 2.66151 17.2384 5.12758 20.2675C6.95819 22.516 6.0523 25.8972 3.34322 26.9307C-0.31037 28.3245 -0.310371 33.4946 3.34322 34.8884C6.0523 35.9219 6.95819 39.3031 5.12758 41.5517C2.66151 44.5807 5.26325 49.0498 9.12091 48.4373C11.9853 47.9825 14.4718 50.4559 14.0139 53.3197C13.3968 57.1797 17.8846 59.7514 20.9244 57.2937C23.1814 55.4689 26.572 56.3676 27.6127 59.0771C29.0172 62.7331 34.1897 62.7331 35.5941 59.0771C36.6349 56.3677 40.0254 55.4689 42.2825 57.2937C45.3223 59.7514 49.8101 57.1797 49.1929 53.3197C48.735 50.4559 51.2216 47.9825 54.0859 48.4373C57.9436 49.0498 60.5453 44.5807 58.0793 41.5517C56.2487 39.3031 57.1545 35.9219 59.8636 34.8884C63.5172 33.4946 63.5172 28.3245 59.8636 26.9307C57.1545 25.8973 56.2487 22.516 58.0793 20.2675C60.5453 17.2384 57.9436 12.7693 54.0859 13.3818C51.2216 13.8366 48.735 11.3632 49.1929 8.49937C49.8101 4.63938 45.3223 2.06772 42.2825 4.52539C40.0254 6.35023 36.6349 5.45146 35.5941 2.74202ZM31.9488 49.4992C42.0605 49.4992 50.2576 41.3304 50.2576 31.2538C50.2576 21.1771 42.0605 13.0084 31.9488 13.0084C21.8372 13.0084 13.6401 21.1771 13.6401 31.2538C13.6401 41.3304 21.8372 49.4992 31.9488 49.4992Z"/>
</mask>
<path d="M27.6127 2.74202L29.4797 3.4592V3.4592L27.6127 2.74202ZM35.5941 2.74202L33.7271 3.4592V3.4592L35.5941 2.74202ZM20.9244 4.52539L22.1818 2.97013V2.97013L20.9244 4.52539ZM14.0139 8.49937L12.039 8.81513V8.81513L14.0139 8.49937ZM9.12092 13.3818L8.80729 15.3571H8.80729L9.12092 13.3818ZM5.12758 20.2675L6.67857 19.0048L5.12758 20.2675ZM3.34322 26.9307L2.63037 25.0621L3.34322 26.9307ZM3.34322 34.8884L2.63037 36.757H2.63037L3.34322 34.8884ZM5.12758 41.5517L3.57659 40.2889H3.57659L5.12758 41.5517ZM9.12091 48.4373L9.43454 50.4125L9.12091 48.4373ZM14.0139 53.3197L12.039 53.004L14.0139 53.3197ZM20.9244 57.2937L19.6669 55.7385H19.6669L20.9244 57.2937ZM27.6127 59.0771L25.7458 59.7943V59.7943L27.6127 59.0771ZM35.5941 59.0771L33.7271 58.3599L35.5941 59.0771ZM42.2825 57.2937L43.5399 55.7385L42.2825 57.2937ZM49.1929 53.3197L47.218 53.6355V53.6355L49.1929 53.3197ZM54.0859 48.4373L53.7723 50.4125L54.0859 48.4373ZM58.0793 41.5517L56.5283 42.8144L58.0793 41.5517ZM59.8636 34.8884L60.5765 36.757H60.5765L59.8636 34.8884ZM59.8636 26.9307L60.5765 25.0621L59.8636 26.9307ZM58.0793 20.2675L59.6303 21.5302V21.5302L58.0793 20.2675ZM54.0859 13.3818L54.3996 15.3571L54.0859 13.3818ZM49.1929 8.49937L47.218 8.18361V8.18362L49.1929 8.49937ZM42.2825 4.52539L41.025 2.97013L41.025 2.97013L42.2825 4.52539ZM29.4797 3.4592C30.2271 1.5136 32.9797 1.5136 33.7271 3.4592L37.4611 2.02484C35.3996 -3.34161 27.8072 -3.34162 25.7458 2.02484L29.4797 3.4592ZM19.6669 6.08066C22.9729 8.75357 27.9488 7.4446 29.4797 3.4592L25.7458 2.02484C25.1951 3.45832 23.3899 3.94689 22.1818 2.97013L19.6669 6.08066ZM15.9888 8.18361C15.6652 6.1593 18.033 4.75961 19.6669 6.08066L22.1818 2.97013C17.7362 -0.62416 11.1284 3.11947 12.039 8.81513L15.9888 8.18361ZM8.80729 15.3571C13.0055 16.0237 16.663 12.4003 15.9888 8.18361L12.039 8.81513C12.2806 10.3262 10.9651 11.6496 9.43455 11.4066L8.80729 15.3571ZM6.67857 19.0048C5.38901 17.4208 6.73515 15.0281 8.80729 15.3571L9.43455 11.4066C3.79135 10.5106 -0.065984 17.056 3.57659 21.5302L6.67857 19.0048ZM4.05607 28.7994C8.03765 27.2805 9.36998 22.3106 6.67857 19.0048L3.57659 21.5302C4.5464 22.7214 4.06695 24.514 2.63037 25.0621L4.05607 28.7994ZM4.05607 33.0198C2.11868 32.2807 2.11868 29.5384 4.05607 28.7994L2.63037 25.0621C-2.73942 27.1105 -2.73942 34.7086 2.63037 36.757L4.05607 33.0198ZM6.67857 42.8144C9.36998 39.5085 8.03765 34.5386 4.05607 33.0198L2.63037 36.757C4.06695 37.3051 4.5464 39.0977 3.57659 40.2889L6.67857 42.8144ZM8.80729 46.462C6.73515 46.791 5.38901 44.3983 6.67857 42.8144L3.57659 40.2889C-0.0659832 44.7631 3.79135 51.3085 9.43454 50.4125L8.80729 46.462ZM15.9888 53.6355C16.663 49.4188 13.0055 45.7954 8.80729 46.462L9.43454 50.4125C10.9651 50.1695 12.2806 51.493 12.039 53.004L15.9888 53.6355ZM19.6669 55.7385C18.033 57.0595 15.6652 55.6598 15.9888 53.6355L12.039 53.004C11.1284 58.6996 17.7362 62.4433 22.1818 58.849L19.6669 55.7385ZM29.4797 58.3599C27.9488 54.3745 22.9729 53.0655 19.6669 55.7385L22.1818 58.849C23.3899 57.8722 25.1951 58.3608 25.7458 59.7943L29.4797 58.3599ZM33.7271 58.3599C32.9797 60.3055 30.2271 60.3055 29.4797 58.3599L25.7458 59.7943C27.8072 65.1607 35.3996 65.1607 37.4611 59.7943L33.7271 58.3599ZM43.5399 55.7385C40.2339 53.0655 35.258 54.3745 33.7271 58.3599L37.4611 59.7943C38.0117 58.3608 39.8169 57.8722 41.025 58.849L43.5399 55.7385ZM47.218 53.6355C47.5417 55.6598 45.1739 57.0595 43.5399 55.7385L41.025 58.849C45.4707 62.4433 52.0785 58.6996 51.1678 53.004L47.218 53.6355ZM54.3996 46.462C50.2014 45.7954 46.5438 49.4188 47.218 53.6355L51.1678 53.004C50.9263 51.493 52.2418 50.1695 53.7723 50.4125L54.3996 46.462ZM56.5283 42.8144C57.8178 44.3983 56.4717 46.791 54.3996 46.462L53.7723 50.4125C59.4155 51.3085 63.2728 44.7631 59.6303 40.2889L56.5283 42.8144ZM59.1508 33.0198C55.1692 34.5386 53.8369 39.5085 56.5283 42.8144L59.6303 40.2889C58.6604 39.0977 59.1399 37.3051 60.5765 36.757L59.1508 33.0198ZM59.1508 28.7994C61.0882 29.5384 61.0882 32.2807 59.1508 33.0198L60.5765 36.757C65.9463 34.7086 65.9463 27.1105 60.5765 25.0621L59.1508 28.7994ZM56.5283 19.0047C53.8369 22.3106 55.1692 27.2805 59.1508 28.7994L60.5765 25.0621C59.1399 24.514 58.6604 22.7214 59.6303 21.5302L56.5283 19.0047ZM54.3996 15.3571C56.4717 15.0281 57.8178 17.4208 56.5283 19.0047L59.6303 21.5302C63.2728 17.056 59.4155 10.5106 53.7723 11.4066L54.3996 15.3571ZM47.218 8.18362C46.5438 12.4003 50.2014 16.0237 54.3996 15.3571L53.7723 11.4066C52.2418 11.6496 50.9263 10.3262 51.1678 8.81513L47.218 8.18362ZM43.5399 6.08066C45.1739 4.75961 47.5417 6.1593 47.218 8.18361L51.1678 8.81513C52.0785 3.11947 45.4706 -0.624159 41.025 2.97013L43.5399 6.08066ZM33.7271 3.4592C35.258 7.4446 40.2339 8.75357 43.5399 6.08066L41.025 2.97013C39.8169 3.94689 38.0117 3.45833 37.4611 2.02484L33.7271 3.4592ZM48.2576 31.2538C48.2576 40.2193 40.9625 47.4992 31.9488 47.4992V51.4992C43.1585 51.4992 52.2576 42.4415 52.2576 31.2538H48.2576ZM31.9488 15.0084C40.9625 15.0084 48.2576 22.2883 48.2576 31.2538H52.2576C52.2576 20.066 43.1585 11.0084 31.9488 11.0084V15.0084ZM15.6401 31.2538C15.6401 22.2883 22.9352 15.0084 31.9488 15.0084V11.0084C20.7392 11.0084 11.6401 20.066 11.6401 31.2538H15.6401ZM31.9488 47.4992C22.9352 47.4992 15.6401 40.2193 15.6401 31.2538H11.6401C11.6401 42.4415 20.7392 51.4992 31.9488 51.4992V47.4992Z" fill="#528285" mask="url(#path-8-inside-1_16_6129)"/>
<path d="M66 66L66 81L69.0002 80L73.7002 90.3628L78.5002 88L73.7002 77.7355L80.5002 76.5826L66 66Z" fill="#88F1D2"/>
<path d="M63 63V83.3058L68.0286 79.7355L72.8286 90L77.6286 87.7686L72.8286 77.5041L79 76.3884L63 63Z" stroke="#528285" stroke-width="2"/>
</svg>
