<?xml version="1.0" encoding="utf-8"?><svg viewBox="0 0 161 78" xmlns="http://www.w3.org/2000/svg" xmlns:xlink="http://www.w3.org/1999/xlink"><style>:root>svg{display:none}:root>svg:target{display:block}</style><svg fill="none" viewBox="0 0 19 10" id="css--btn_arrow" xmlns="http://www.w3.org/2000/svg"><path d="M1 5h15m-3-4l4 4-4 4" stroke="#5484FF" stroke-width="1.5" stroke-linecap="round"/></svg><svg fill="none" viewBox="0 0 161 59" id="logo" xmlns="http://www.w3.org/2000/svg"><path fill-rule="evenodd" clip-rule="evenodd" d="M21.416 29.4a19.63 19.63 0 01-.859-5.763C20.557 12.792 29.348 4 40.192 4c9.328 0 17.136 6.504 19.138 15.224 8.72 2.002 15.224 9.81 15.224 19.138C74.554 49.208 65.764 58 54.92 58c-.2 0-.4-.004-.598-.01V58h-38.08C7.824 58 1 51.284 1 43c0-8.284 6.824-15 15.242-15 1.288 0 3.074.509 5.174 1.4z" fill="#97DEF6"/><path d="M21.416 29.4l-.39.92 1.975.838-.629-2.052-.956.293zM59.33 19.224l-.974.224.14.61.61.141.224-.975zM54.321 57.99l.03-.999-1.032-.03.002 1.031 1-.002zm0 .011v1h1.002l-.002-1.002-1 .002zm-38.079 0v1-1zm6.13-28.894a18.63 18.63 0 01-.815-5.47h-2c0 2.107.316 4.14.903 6.057l1.912-.587zm-.815-5.47c0-10.291 8.343-18.634 18.635-18.634v-2c-11.396 0-20.635 9.238-20.635 20.635h2zM40.192 5.003c8.852 0 16.264 6.171 18.163 14.447l1.95-.447c-2.104-9.165-10.309-16-20.113-16v2zM59.106 20.2c8.276 1.9 14.448 9.312 14.448 18.163h2c0-9.804-6.836-18.008-16-20.112l-.448 1.95zm14.448 18.163C73.554 48.655 65.211 57 54.92 57v2c11.397 0 20.635-9.24 20.635-20.636h-2zM54.92 57c-.19 0-.38-.003-.568-.009l-.06 2c.209.005.418.008.628.008v-2zm-1.598.992v.01l2-.003v-.01l-2 .003zm1-.991h-38.08v2h38.08v-2zm-38.079 0C8.362 57 2 50.717 2 43H0c0 8.852 7.287 16 16.242 16v-2zM2 43c0-7.717 6.361-14 14.242-14v-2C7.287 27 0 34.148 0 43h2zm14.242-14c1.078 0 2.71.44 4.784 1.32l.78-1.841C19.68 27.577 17.74 27 16.243 27v2z" fill="#007BC0"/><path d="M59.27 27.846C61.602 17.255 54.906 6.78 44.315 4.449 33.723 2.12 23.248 8.816 20.918 19.407c-1.885 8.564 2.133 17.052 9.34 21.219" stroke="#007BC0" stroke-width="2" stroke-linecap="round"/><path d="M47.01 40.142c0 10.644 9.672 15.659 13.49 16.863H32.374c-11.247 0-20.364-8.628-20.364-19.272V21.128c0-.55.254-.98.803-1.017 4.29-.291 24.415.074 32.21.145a2.005 2.005 0 011.987 2.01v17.876z" fill="#E5F0F6"/><path d="M12.01 37.957h-1 1zm34.64-15.688h1-1zm0 18.127h1-1zM59.677 58.26a1 1 0 10.615-1.904l-.615 1.904zM12.01 21.117h-1 1zm.788-1.004l-.07-.998.07.998zm31.863.146l-.01 1 .01-1zM32.164 57.006c-10.574 0-19.154-8.819-19.154-19.05h-2c0 11.327 9.466 21.05 21.154 21.05v-2zm13.485-34.737v18.127h2V22.27h-2zm0 18.127c0 5.72 2.548 9.891 5.561 12.764 2.995 2.855 6.471 4.454 8.468 5.099l.615-1.904c-1.782-.575-4.974-2.041-7.703-4.643-2.71-2.583-4.94-6.258-4.94-11.316h-2zm-32.639-2.44V21.118h-2v16.84h2zm-.142-16.846c4.177-.291 23.996.076 31.784.15l.018-2c-7.678-.073-27.659-.444-31.942-.145l.14 1.995zm.142.007c0-.06.007-.099.012-.118.005-.018.006-.01-.01.014a.27.27 0 01-.09.076c-.038.021-.063.022-.054.021l-.14-1.995a1.767 1.767 0 00-1.336.725c-.29.4-.382.869-.382 1.277h2zm34.64 1.152a3.005 3.005 0 00-2.98-3.01l-.018 2c.554.005.997.452.997 1.01h2z" fill="#007BC0"/><path d="M19.646 28.556H39.34M19.646 34.92H39.34m-18.347 6.363h18.346m-14.227 6.364H40.51" stroke="#007BC0" stroke-width="2" stroke-linecap="round"/><path d="M102.064 28.555L93.84 18.252l-2.592 2.784v7.52h-3.04v-22.4h3.04v11.04l10.24-11.04h3.776l-9.344 9.92 9.92 12.48h-3.776zm11.085.256c-1.878 0-3.392-.533-4.544-1.6-1.131-1.087-1.696-2.506-1.696-4.255V18.54c0-1.878.565-3.382 1.696-4.512 1.152-1.131 2.666-1.697 4.544-1.697h2.624c1.813 0 3.274.555 4.384 1.665 1.109 1.109 1.664 2.58 1.664 4.415v3.008h-11.936v1.537c0 .98.298 1.77.896 2.367.597.598 1.386.896 2.368.896h2.464c.96 0 1.738-.245 2.336-.736.597-.512.896-1.184.896-2.015h2.912c0 1.6-.566 2.89-1.696 3.872-1.131.98-2.624 1.471-4.48 1.471h-2.432zm5.696-9.76v-.64c0-1.066-.288-1.92-.864-2.56-.555-.64-1.291-.96-2.208-.96h-2.624c-.982 0-1.771.342-2.368 1.024-.598.662-.896 1.547-.896 2.657v.48h8.96zm11.857 9.76c-1.749 0-3.168-.565-4.256-1.695-1.067-1.131-1.6-2.625-1.6-4.48V18.86c0-1.28.256-2.411.768-3.393.512-1.002 1.227-1.77 2.144-2.303.939-.555 2.016-.832 3.232-.832h2.176c.683 0 1.355.16 2.016.48.661.32 1.195.746 1.6 1.28V6.155h3.008v22.4h-2.848v-2.273a5.616 5.616 0 01-1.856 1.825c-.768.469-1.536.703-2.304.703h-2.08zm2.208-2.623c1.003 0 1.877-.406 2.624-1.216a4.83 4.83 0 001.248-2.945v-3.616c-.149-1.045-.544-1.877-1.184-2.496-.619-.64-1.365-.96-2.24-.96h-2.144c-1.003 0-1.824.374-2.464 1.12-.619.726-.928 1.697-.928 2.913v3.552c0 1.088.288 1.973.864 2.655.597.662 1.344.992 2.24.992h1.984zm16.957 2.623c-1.877 0-3.392-.565-4.544-1.695-1.13-1.131-1.696-2.614-1.696-4.448v-4.16c0-1.857.576-3.35 1.728-4.48 1.152-1.131 2.678-1.697 4.576-1.697h2.688c1.899 0 3.424.566 4.576 1.697 1.152 1.13 1.728 2.623 1.728 4.48v4.16c0 1.834-.586 3.317-1.76 4.448-1.152 1.13-2.677 1.695-4.576 1.695h-2.72zm2.688-2.623c1.024 0 1.846-.331 2.464-.992.619-.662.928-1.547.928-2.657v-3.936c0-1.109-.309-1.994-.928-2.656-.597-.66-1.397-.991-2.4-.991h-2.688c-1.002 0-1.813.33-2.432.992-.597.66-.896 1.546-.896 2.655v3.936c0 1.11.299 1.995.896 2.656.598.662 1.398.992 2.4.992h2.656zm-64.475 9.4h2.848v2.015a5.062 5.062 0 011.728-1.632c.725-.426 1.45-.64 2.176-.64h2.208c1.792 0 3.232.555 4.32 1.664 1.109 1.11 1.664 2.571 1.664 4.385v3.807c0 1.302-.256 2.454-.768 3.457-.491 1.002-1.195 1.78-2.112 2.336-.918.554-1.974.832-3.168.832h-2.24c-.64 0-1.312-.171-2.016-.512a4.726 4.726 0 01-1.664-1.344v7.967H88.08V35.587zm8.64 13.6c1.002 0 1.802-.374 2.4-1.12.597-.747.896-1.74.896-2.976v-3.617c0-1.045-.299-1.888-.896-2.528-.576-.66-1.344-.992-2.304-.992h-2.144c-.79 0-1.525.31-2.208.928-.662.62-1.13 1.43-1.408 2.432v4.257c.128 1.066.523 1.94 1.184 2.623.683.662 1.493.992 2.432.992h2.048zm10.141-13.6h2.848v2.335c.427-.704 1.045-1.28 1.856-1.727a5.398 5.398 0 012.592-.672h1.664v2.655h-1.664c-1.301 0-2.347.406-3.136 1.216-.789.79-1.184 1.835-1.184 3.136v9.025h-2.976V35.588zm16.756 16.224c-1.877 0-3.392-.566-4.544-1.697-1.13-1.13-1.696-2.613-1.696-4.448v-4.16c0-1.855.576-3.349 1.728-4.48 1.152-1.13 2.678-1.696 4.576-1.696h2.688c1.899 0 3.424.566 4.576 1.697 1.152 1.13 1.728 2.623 1.728 4.48v4.16c0 1.834-.586 3.317-1.76 4.447-1.152 1.131-2.677 1.697-4.576 1.697h-2.72zm2.688-2.624c1.024 0 1.846-.331 2.464-.992.619-.662.928-1.547.928-2.657v-3.936c0-1.109-.309-1.994-.928-2.656-.597-.66-1.397-.992-2.4-.992h-2.688c-1.002 0-1.813.331-2.432.992-.597.662-.896 1.547-.896 2.656v3.936c0 1.11.299 1.995.896 2.657.598.66 1.398.992 2.4.992h2.656z" fill="#000"/></svg><svg fill="none" viewBox="0 0 78 78" id="sprite--alfa_1" xmlns="http://www.w3.org/2000/svg"><circle cx="39" cy="39" r="39" fill="#DCF1FE"/><path fill="#DCF1FE" stroke="#007BC0" stroke-width="2" d="M30.533 24.55h21v28h-21z"/><circle cx="32.603" cy="30.788" r="9.315" fill="#97DEF6" stroke="#007BC0" stroke-width="2"/><path d="M32.738 36.21c-.777 0-1.478-.136-2.104-.408a3.993 3.993 0 01-1.537-1.18c-.398-.514-.65-1.126-.757-1.834l2.068-.306c.145.602.446 1.065.903 1.39a2.61 2.61 0 001.558.488c.325 0 .64-.05.947-.153a1.84 1.84 0 00.75-.451 1 1 0 00.298-.736.918.918 0 00-.051-.305.772.772 0 00-.153-.284 1.137 1.137 0 00-.313-.248 2.37 2.37 0 00-.502-.211l-2.724-.801a8.025 8.025 0 01-.713-.248 3.15 3.15 0 01-.78-.458 2.393 2.393 0 01-.633-.787c-.165-.33-.247-.745-.247-1.245 0-.704.177-1.289.531-1.755a3.17 3.17 0 011.42-1.04 5.324 5.324 0 011.966-.336c.723.01 1.369.134 1.937.372a3.7 3.7 0 011.427 1.04c.383.452.66 1.006.83 1.66l-2.14.365a1.894 1.894 0 00-.43-.86 2.057 2.057 0 00-.75-.53 2.492 2.492 0 00-.903-.197 2.41 2.41 0 00-.881.13 1.66 1.66 0 00-.67.409.9.9 0 00-.255.64c0 .228.07.415.211.56.141.142.318.256.532.343.213.087.432.16.655.219l1.82.495c.272.072.573.17.903.291.33.116.646.281.947.495.306.209.556.485.75.83.199.345.298.782.298 1.31 0 .564-.118 1.057-.356 1.479a3.085 3.085 0 01-.947 1.041c-.398.272-.85.476-1.354.612-.5.136-1.017.204-1.551.204z" fill="#007BC0"/><circle cx="47.213" cy="49.028" r="7.5" fill="#97DEF6" stroke="#007BC0" stroke-width="2"/><path d="M47.323 53.495c-.64 0-1.218-.112-1.734-.336a3.29 3.29 0 01-1.266-.972 3.204 3.204 0 01-.624-1.512l1.704-.252c.12.496.368.878.744 1.146.376.268.804.402 1.284.402.268 0 .528-.042.78-.126.252-.084.458-.208.618-.372a.824.824 0 00.246-.606.757.757 0 00-.042-.252.637.637 0 00-.126-.234.937.937 0 00-.258-.204 1.952 1.952 0 00-.414-.174l-2.244-.66a6.605 6.605 0 01-.588-.204 2.598 2.598 0 01-.642-.378 1.974 1.974 0 01-.522-.648c-.136-.272-.204-.614-.204-1.026 0-.58.146-1.062.438-1.446.292-.384.682-.67 1.17-.858a4.389 4.389 0 011.62-.276c.596.008 1.128.11 1.596.306.468.196.86.482 1.176.858.316.372.544.828.684 1.368l-1.764.3a1.56 1.56 0 00-.354-.708 1.694 1.694 0 00-.618-.438 2.052 2.052 0 00-.744-.162 1.987 1.987 0 00-.726.108 1.368 1.368 0 00-.552.336.742.742 0 00-.21.528c0 .188.058.342.174.462.116.116.262.21.438.282.176.072.356.132.54.18l1.5.408c.224.06.472.14.744.24.272.096.532.232.78.408.252.172.458.4.618.684.164.284.246.644.246 1.08 0 .464-.098.87-.294 1.218-.192.344-.452.63-.78.858-.328.224-.7.392-1.116.504a4.85 4.85 0 01-1.278.168z" fill="#007BC0"/><path d="M42.241 29.452h3.872m-4.489 4.883h4.49m-9.71 4.98h9.709M35.059 44.31h5.975" stroke="#007BC0" stroke-width="2" stroke-linecap="round"/></svg><svg fill="none" viewBox="0 0 78 78" id="sprite--alfa_2" xmlns="http://www.w3.org/2000/svg"><circle cx="39" cy="39" r="39" fill="#DCF1FE"/><circle cx="34" cy="33" r="12" fill="#97DEF6" stroke="#007BC0" stroke-width="2"/><circle cx="34" cy="33" r="6" fill="#97DEF6" stroke="#EDF7FF" stroke-width="2"/><circle cx="43.5" cy="41.5" r="12.5" fill="#DCF1FE" stroke="#007BC0" stroke-width="2"/><path d="M35 42a9 9 0 019-9m8 18.5l5.5 6" stroke="#007BC0" stroke-width="2" stroke-linecap="round"/></svg><svg fill="none" viewBox="0 0 78 78" id="sprite--alfa_3" xmlns="http://www.w3.org/2000/svg"><circle cx="39" cy="39" r="39" fill="#DCF1FE"/><circle cx="25.965" cy="41.854" r="9.885" fill="#97DEF6" stroke="#007BC0" stroke-width="2"/><path d="M21.984 41.868l2.488 2.584 5.472-5.685" stroke="#007BC0" stroke-linecap="round" stroke-dasharray="2 2"/><path d="M28.36 28.617c1.836-3.187 5.462-5.356 9.634-5.356 4.173 0 7.799 2.17 9.635 5.356" stroke="#007BC0" stroke-width="2"/><path d="M48.056 24.696l-.214 4.45-4.022-.722" stroke="#007BC0" stroke-width="2" stroke-linecap="round"/><circle cx="52.035" cy="41.854" r="9.885" fill="#97DEF6" stroke="#007BC0" stroke-width="2"/><path d="M48.056 41.868l2.487 2.584 5.472-5.685" stroke="#007BC0" stroke-width="2" stroke-linecap="round"/></svg><svg fill="none" viewBox="0 0 78 78" id="sprite--alfa_4" xmlns="http://www.w3.org/2000/svg"><circle cx="39" cy="39" r="39" fill="#DCF1FE"/><path d="M36.661 18.159a3 3 0 014.019 0l1.21 1.09a5 5 0 004.158 1.222l1.608-.264a3 3 0 013.38 2.173l.428 1.571a5 5 0 002.838 3.276l1.495.647a3 3 0 011.67 3.655l-.49 1.554a5 5 0 00.616 4.29l.908 1.352a3 3 0 01-.572 3.978l-1.252 1.042a5 5 0 00-1.8 3.942l.032 1.629a3 3 0 01-2.632 3.037l-1.616.2a5 5 0 00-3.646 2.343l-.854 1.387a3 3 0 01-3.855 1.132l-1.468-.706a5 5 0 00-4.334 0l-1.468.706a3 3 0 01-3.856-1.132l-.853-1.387a5 5 0 00-3.646-2.344l-1.617-.2a3 3 0 01-2.631-3.036l.032-1.629a5 5 0 00-1.8-3.942l-1.252-1.042a3 3 0 01-.572-3.978l.907-1.352a5 5 0 00.617-4.29l-.49-1.554a3 3 0 011.67-3.655l1.494-.647-.397-.918.398.918a5 5 0 002.838-3.276l.427-1.571a3 3 0 013.381-2.173l1.607.264a5 5 0 004.159-1.221l1.21-1.091z" fill="#97DEF6" stroke="#007BC0" stroke-width="2"/><circle cx="38.672" cy="37.44" r="11.828" fill="#DCF1FE" stroke="#007BC0" stroke-width="2"/><circle cx="50.078" cy="51.479" r="9.768" fill="#DCF1FE" stroke="#007BC0" stroke-width="2"/><path d="M45.558 51.391l3.392 2.946 5.648-6.135" stroke="#007BC0" stroke-width="2" stroke-linecap="round"/></svg><svg fill="none" viewBox="0 0 78 78" id="sprite--alfa_5" xmlns="http://www.w3.org/2000/svg"><circle cx="39" cy="39" r="39" fill="#DCF1FE"/><rect x="23.712" y="24.759" width="24.288" height="28.481" rx="1" fill="#97DEF6" stroke="#007BC0" stroke-width="2"/><path d="M28.07 30.01h14.976M28.07 38.938h14.976M28.07 48.003h9.53m-9.53-13.529h9.53m-9.53 8.928h9.53m2.82 0h.894" stroke="#007BC0" stroke-width="2" stroke-linecap="round"/><path d="M36.138 47.832l.564-5.007 19.176-15.657 4.454 5.455-19.175 15.658-5.02-.449z" fill="#EDF7FF" stroke="#007BC0" stroke-width="2"/><path d="M52.274 30.675l3.573 4.328" stroke="#007BC0" stroke-width="2" stroke-linecap="round"/></svg><svg fill="none" viewBox="0 0 78 78" id="sprite--alfa_6" xmlns="http://www.w3.org/2000/svg"><circle cx="39" cy="39" r="39" fill="#DCF1FE"/><rect x="16.923" y="27.231" width="41.846" height="25.692" rx="1" stroke="#007BC0" stroke-width="2"/><mask id="ha" fill="#fff"><rect x="43.615" y="17" width="18.462" height="30" rx="1"/></mask><rect x="43.615" y="17" width="18.462" height="30" rx="1" fill="#97DEF6" stroke="#007BC0" stroke-width="4" mask="url(#ha)"/><rect x="33" y="53" width="9" height="8" rx="1" stroke="#007BC0" stroke-width="2"/><path d="M28 61h19" stroke="#007BC0" stroke-width="2" stroke-linecap="round"/><circle cx="31.189" cy="40.373" r="8.905" fill="#97DEF6"/><path d="M27.372 40.604l2.783 2.313 6.122-5.089m13.108-.374l2.524 2.623 5.553-5.77m-8.077-10.384h6.923m-6.923 4.645h5.089" stroke="#007BC0" stroke-width="2" stroke-linecap="round"/></svg><svg fill="none" viewBox="0 0 78 78" id="sprite--alfa_7" xmlns="http://www.w3.org/2000/svg"><circle cx="39" cy="39" r="39" fill="#DCF1FE"/><circle cx="38.677" cy="33.29" r="6.193" fill="#97DEF6" stroke="#007BC0" stroke-width="2"/><path d="M44.87 26.37A5.529 5.529 0 0149.423 24c3.043 0 5.509 2.426 5.509 5.419 0 2.993-2.466 5.419-5.509 5.419-.475 0-.937-.06-1.377-.17M32.483 26.37A5.528 5.528 0 0027.928 24c-3.042 0-5.509 2.426-5.509 5.419 0 2.993 2.467 5.419 5.51 5.419.475 0 .936-.06 1.376-.17" stroke="#007BC0" stroke-width="2"/><path d="M50.289 53.417H27.064c0-5.985 5.2-10.838 11.613-10.838 6.413 0 11.612 4.853 11.612 10.838z" fill="#97DEF6" stroke="#007BC0" stroke-width="2"/><path d="M52.611 47.998h7.742c0-5.13-4.646-9.29-10.377-9.29-1.522 0-2.967.294-4.269.82m-20.966 8.47H17c0-5.13 4.646-9.29 10.377-9.29 1.521 0 2.966.294 4.268.82" stroke="#007BC0" stroke-width="2"/></svg><svg fill="none" viewBox="0 0 19 10" id="sprite--btn_arrow" xmlns="http://www.w3.org/2000/svg"><path d="M1 5h15m-3-4l4 4-4 4" stroke="#5484FF" stroke-width="1.5" stroke-linecap="round"/></svg><svg fill="none" viewBox="0 0 19 10" id="sprite--btn_arrow_black" xmlns="http://www.w3.org/2000/svg"><path d="M1 5h15m-3-4l4 4-4 4" stroke="#2D2D2D" stroke-width="1.5" stroke-linecap="round"/></svg><svg fill="none" viewBox="0 0 19 10" id="sprite--btn_arrow_cian" xmlns="http://www.w3.org/2000/svg"><path d="M1 5h15m-3-4l4 4-4 4" stroke="#11DCD0" stroke-width="1.5" stroke-linecap="round"/></svg><svg fill="none" viewBox="0 0 19 10" id="sprite--btn_arrow_green" xmlns="http://www.w3.org/2000/svg"><path d="M1 5h15m-3-4l4 4-4 4" stroke="#528285" stroke-width="1.5" stroke-linecap="round"/></svg><svg fill="none" viewBox="0 0 19 10" id="sprite--btn_arrow_orange" xmlns="http://www.w3.org/2000/svg"><path d="M1.5 5h15m-3-4l4 4-4 4" stroke="#FFB640" stroke-width="1.5" stroke-linecap="round"/></svg><svg fill="none" viewBox="0 0 19 10" id="sprite--btn_arrow_purple" xmlns="http://www.w3.org/2000/svg"><path d="M1 5h15m-3-4l4 4-4 4" stroke="#6449BC" stroke-width="1.5" stroke-linecap="round"/></svg><svg fill="none" viewBox="0 0 19 10" id="sprite--btn_arrow_white" xmlns="http://www.w3.org/2000/svg"><path d="M1 5h15m-3-4l4 4-4 4" stroke="#fff" stroke-width="1.5" stroke-linecap="round"/></svg><svg viewBox="0 0 16 12" id="sprite--mail_icon" xmlns="http://www.w3.org/2000/svg"><path d="M14.889 0H.51A.512.512 0 000 .511v1.03c0 .047.051.101.093.123l7.558 4.317c.019.01.04.016.063.016a.127.127 0 00.065-.017l7.329-4.312c.041-.023.15-.084.191-.112.05-.033.101-.064.101-.125v-.92A.512.512 0 0014.889 0zm.447 3.091a.13.13 0 00-.13 0L11.06 5.533a.126.126 0 00-.057.148.127.127 0 00.028.05l4.148 4.47a.127.127 0 00.184.004.128.128 0 00.038-.09V3.202a.129.129 0 00-.064-.11zM9.865 6.352a.127.127 0 00-.158-.024l-1.663.978a.649.649 0 01-.641.005L5.94 6.475a.128.128 0 00-.15.017L.234 11.645a.129.129 0 00-.02.164c.01.016.026.03.043.04.086.051.17.075.254.075h14.23a.127.127 0 00.118-.077.127.127 0 00-.024-.138l-4.97-5.357zm-5.298-.47a.128.128 0 00-.023-.204L.19 3.19a.128.128 0 00-.19.113v6.524a.127.127 0 00.215.093l4.352-4.038z"/></svg><svg viewBox="0 0 12 12" id="sprite--phone_icon" xmlns="http://www.w3.org/2000/svg"><path d="M8.03 8.449l1-1a.968.968 0 011.045-.215l1.218.488a.968.968 0 01.609.899v2.216a.969.969 0 01-1.02.969C2.34 11.274.615 4.038.294 1.268A.966.966 0 011.257.193h2.176a.968.968 0 01.899.609l.487 1.218a.968.968 0 01-.214 1.044l-1 1S4.158 7.966 8.03 8.45z"/></svg><svg fill="none" viewBox="0 0 21 19" id="sprite--share_icon" xmlns="http://www.w3.org/2000/svg"><circle cx="16.74" cy="15.339" r="2.5" stroke="#5484FF" stroke-width="2"/><circle cx="16.74" cy="3.661" r="2.5" stroke="#5484FF" stroke-width="2"/><circle cx="3.5" cy="9.339" r="2.5" stroke="#5484FF" stroke-width="2"/><path d="M5.763 10.46l8.98 3.88M5.763 8.5l8.98-3.88" stroke="#5484FF" stroke-width="2"/></svg><svg viewBox="0 0 24 20" id="sprite--tg" xmlns="http://www.w3.org/2000/svg"><path d="M1.431 8.74l13.905-5.835c1.372-.608 6.027-2.553 6.027-2.553s2.148-.85 1.97 1.216c-.06.85-.538 3.829-1.015 7.05l-1.492 9.542s-.12 1.398-1.134 1.64c-1.015.244-2.685-.85-2.984-1.093-.238-.183-4.475-2.917-6.027-4.255-.418-.364-.895-1.094.06-1.944 2.148-2.006 4.714-4.498 6.266-6.078.716-.73 1.432-2.431-1.552-.365L7.041 11.84s-.955.608-2.745.06c-1.79-.546-3.88-1.275-3.88-1.275s-1.432-.912 1.015-1.885z"/></svg><svg viewBox="0 0 31 18" id="sprite--vk" xmlns="http://www.w3.org/2000/svg"><path d="M16.729 17.375C6.235 17.375.249 10.918 0 .175h5.257C5.429 8.06 9.304 11.4 12.374 12.089V.175h4.95v6.8c3.03-.292 6.215-3.391 7.29-6.8h4.95a12.472 12.472 0 01-2.371 4.917 14.12 14.12 0 01-4.364 3.657c1.92.856 3.615 2.067 4.974 3.554 1.359 1.487 2.351 3.215 2.911 5.072h-5.448c-.503-1.613-1.525-3.056-2.938-4.15-1.412-1.093-3.154-1.787-5.004-1.997v6.147h-.595z"/></svg></svg>